# This file uses centimeters as units for non-parametric coordinates.

mtllib seed.mtl
g default
v -0.000024 0.177663 0.002391
v -0.002351 1.667539 0.003825
v -0.490016 0.893497 0.490063
v -0.490312 0.922868 0.490341
v -0.490323 0.922852 -0.490202
v -0.490005 0.893481 -0.489956
v 0.490001 0.893476 0.490049
v 0.490234 0.922848 0.490354
v 0.490231 0.922852 -0.490202
v 0.490003 0.893481 -0.489956
vt 0.371665 0.125000
vt 0.128377 0.125000
vt 0.378355 0.125000
vt 0.620001 0.122500
vt 0.621627 0.125000
vt 0.378377 0.625000
vt 0.623674 0.619696
vt 0.621614 0.625000
vt 0.628323 0.125000
vt 0.873751 0.122501
vt 0.871630 0.125000
vt 0.375000 0.122504
vt 0.375000 0.000000
vt 0.378540 0.129424
vt 0.623675 0.129418
vt 0.378536 0.619696
vt 0.556818 0.352273
vt 0.500000 0.875000
vt 0.377499 0.629998
vt 0.622501 0.629998
vt 0.628750 0.122500
vt 0.812500 0.000000
vt 0.868812 0.129420
vt 0.129998 0.122501
vt 0.187500 0.250000
vt 0.126215 0.127431
vt 0.371350 0.127433
vn -0.999945 -0.010456 0.000000
vn -0.999945 -0.010456 0.000000
vn -0.999945 -0.010456 0.000000
vn -0.999945 -0.010456 0.000000
vn 0.000000 -0.009926 0.999951
vn 0.000000 -0.009926 0.999951
vn 0.000000 -0.009926 0.999951
vn 0.000000 -0.009926 0.999951
vn 0.000000 -0.008379 -0.999965
vn 0.000000 -0.008379 -0.999965
vn 0.000000 -0.008379 -0.999965
vn 0.000000 -0.008379 -0.999965
vn 0.999969 -0.007848 -0.000000
vn 0.999969 -0.007848 -0.000000
vn 0.999969 -0.007848 -0.000000
vn 0.999969 -0.007848 -0.000000
vn -0.000000 -0.563024 0.826441
vn -0.000000 -0.563024 0.826441
vn -0.000000 -0.563024 0.826441
vn 0.000000 0.546947 0.837168
vn 0.000000 0.546947 0.837168
vn 0.000000 0.546947 0.837167
vn -0.000000 0.552816 -0.833303
vn -0.000000 0.552816 -0.833303
vn -0.000000 0.552816 -0.833303
vn 0.000000 -0.566703 -0.823922
vn 0.000000 -0.566703 -0.823922
vn 0.000000 -0.566703 -0.823922
vn 0.825169 -0.564886 -0.000000
vn 0.825169 -0.564886 -0.000000
vn 0.825169 -0.564886 -0.000000
vn 0.834048 0.551691 0.000000
vn 0.834048 0.551691 0.000000
vn 0.834048 0.551691 0.000000
vn -0.825194 -0.564849 -0.000000
vn -0.825194 -0.564849 -0.000000
vn -0.825194 -0.564849 -0.000000
vn -0.836423 0.548084 0.000000
vn -0.836423 0.548084 0.000000
vn -0.836423 0.548084 0.000000
s off
g pCube2
usemtl initialShadingGroup
f 3/12/1 4/1/2 5/2/3 6/24/4
f 4/3/5 3/12/6 7/4/7 8/5/8
f 6/6/9 5/16/10 9/7/11 10/8/12
f 8/9/13 7/21/14 10/10/15 9/11/16
f 3/12/17 1/13/18 7/4/19
f 2/17/20 4/14/21 8/15/22
f 5/16/23 2/17/24 9/7/25
f 1/18/26 6/19/27 10/20/28
f 7/21/29 1/22/30 10/10/31
f 2/17/32 8/15/33 9/23/34
f 6/24/35 1/13/36 3/12/37
f 2/25/38 5/26/39 4/27/40
