# This file uses centimeters as units for non-parametric coordinates.

mtllib BarraFerroPivot.mtl
g default
v -2.755961 -0.036868 0.106556
v -2.755961 -0.144458 0.106556
v -2.755961 -0.143313 -0.090302
v -2.755961 -0.036868 -0.090302
v 2.688009 -0.036868 0.106556
v 2.688009 -0.144458 0.118840
v 2.688009 -0.143313 -0.102585
v 2.688009 -0.036868 -0.090302
v -2.755961 0.070722 0.106556
v -2.755961 0.069578 -0.090302
v 2.688009 0.070722 0.118840
v 2.688009 0.069578 -0.102585
v -2.755531 -0.043548 0.093217
v -2.755640 -0.145028 0.096572
v -2.755640 -0.143889 -0.080319
v -2.755531 -0.043548 -0.076964
v 2.688439 -0.043548 0.093217
v 2.688331 -0.145028 0.108857
v 2.688331 -0.143889 -0.092603
v 2.688439 -0.043548 -0.076964
v -2.755640 0.071292 0.096572
v -2.755640 0.070154 -0.080319
v 2.688331 0.071292 0.108857
v 2.688331 0.070154 -0.092603
vt 0.605492 -0.100508
vt 0.394508 -0.100508
vt 0.394508 1.100425
vt 0.605492 1.100425
vt 0.612294 -0.100508
vt 0.498210 -0.100508
vt 0.498210 1.100425
vt 0.612294 1.100425
vt 0.613520 -0.100508
vt 0.613520 1.100425
vt 0.384126 -0.100508
vt 0.384126 1.100425
vt 0.382900 1.100425
vt 0.382900 -0.100508
vt 0.591196 -0.100413
vt 0.591196 1.100520
vt 0.408803 1.100520
vt 0.408803 -0.100413
vt 0.612911 -0.100437
vt 0.612911 1.100496
vt 0.505370 1.100520
vt 0.505370 -0.100413
vt 0.505370 -0.100413
vt 0.505370 1.100520
vt 0.614131 1.100496
vt 0.614131 -0.100437
vt 0.383509 -0.100437
vt 0.383509 1.100496
vt 0.382289 -0.100437
vt 0.382289 1.100496
vt 0.613520 0.394508
vt 0.498210 0.394508
vt 0.505370 0.408803
vt 0.614131 0.405208
vt 0.498210 0.605492
vt 0.612294 0.605492
vt 0.612911 0.594793
vt 0.505370 0.591196
vt 0.498210 0.394508
vt 0.613520 0.381343
vt 0.614131 0.392042
vt 0.505370 0.408803
vt 0.612294 0.618657
vt 0.498210 0.605492
vt 0.505370 0.591196
vt 0.612911 0.607958
vt 0.618657 1.100425
vt 0.607958 1.100496
vt 0.594793 -0.100437
vt 0.381343 1.100425
vt 0.405208 -0.100437
vt 0.392042 1.100496
vt 0.382900 0.394508
vt 0.382289 0.405208
vt 0.384126 0.605492
vt 0.383509 0.594793
vt 0.382900 0.381343
vt 0.382289 0.392042
vt 0.384126 0.618657
vt 0.383509 0.607958
vt 0.498210 -0.100508
vt 0.498210 1.100425
vt 0.605492 -0.100508
vt 0.394508 -0.100508
vt 0.618657 1.100425
vt 0.605492 -0.100508
vt 0.594793 -0.100437
vt 0.607958 1.100496
vt 0.394508 -0.100508
vt 0.381343 1.100425
vt 0.392042 1.100496
vt 0.405208 -0.100437
vn -0.000000 1.000000 -0.000000
vn -0.000000 1.000000 -0.000000
vn -0.000000 1.000000 -0.000000
vn -0.000000 1.000000 -0.000000
vn -0.001100 0.057602 -0.998339
vn -0.001100 0.057602 -0.998339
vn -0.001100 0.057602 -0.998339
vn -0.001100 0.057602 -0.998339
vn -0.001100 0.056998 0.998374
vn -0.001100 0.056998 0.998374
vn -0.001100 0.056998 0.998374
vn -0.001100 0.056998 0.998374
vn -0.001100 -0.057602 -0.998339
vn -0.001100 -0.057602 -0.998339
vn -0.001100 -0.057602 -0.998339
vn -0.001100 -0.057602 -0.998339
vn -0.001100 -0.056998 0.998374
vn -0.001100 -0.056998 0.998374
vn -0.001100 -0.056998 0.998374
vn -0.001100 -0.056998 0.998374
vn 0.000000 -1.000000 0.000000
vn 0.000000 -1.000000 0.000000
vn 0.000000 -1.000000 0.000000
vn 0.000000 -1.000000 0.000000
vn 0.001100 -0.094205 0.995552
vn 0.001100 -0.094205 0.995552
vn 0.001100 -0.094205 0.995552
vn 0.001100 -0.094205 0.995552
vn 0.001100 -0.093204 -0.995646
vn 0.001100 -0.093204 -0.995646
vn 0.001100 -0.093204 -0.995646
vn 0.001100 -0.093204 -0.995646
vn 0.001100 0.083203 0.996532
vn 0.001100 0.083203 0.996532
vn 0.001100 0.083203 0.996532
vn 0.001100 0.083203 0.996532
vn 0.001100 0.082400 -0.996599
vn 0.001100 0.082400 -0.996599
vn 0.001100 0.082400 -0.996599
vn 0.001100 0.082400 -0.996599
vn -0.999481 0.000000 -0.032199
vn -0.999481 0.000000 -0.032199
vn -0.999481 0.000000 -0.032199
vn -0.999481 0.000000 -0.032199
vn -0.999481 0.000000 0.032199
vn -0.999481 0.000000 0.032199
vn -0.999481 0.000000 0.032199
vn -0.999481 0.000000 0.032199
vn -0.997937 -0.064202 0.000000
vn -0.997937 -0.064202 0.000000
vn -0.997937 -0.064202 0.000000
vn -0.997937 -0.064202 0.000000
vn 0.999510 0.003600 0.031100
vn 0.999510 0.003600 0.031100
vn 0.999510 0.003600 0.031100
vn 0.999510 0.003600 0.031100
vn 0.999509 0.003700 -0.031100
vn 0.999509 0.003700 -0.031100
vn 0.999509 0.003700 -0.031100
vn 0.999509 0.003700 -0.031100
vn 0.997937 0.064202 0.000000
vn 0.997937 0.064202 0.000000
vn 0.997937 0.064202 0.000000
vn 0.997937 0.064202 0.000000
vn -0.000100 -0.998340 -0.057602
vn -0.000100 -0.998340 -0.057602
vn -0.000100 -0.998340 -0.057602
vn -0.000100 -0.998340 -0.057602
vn -0.000100 -0.998374 0.056999
vn -0.000100 -0.998374 0.056999
vn -0.000100 -0.998374 0.056999
vn -0.000100 -0.998374 0.056999
vn -0.999481 0.000000 -0.032199
vn -0.999481 0.000000 -0.032199
vn -0.999481 0.000000 -0.032199
vn -0.999481 0.000000 -0.032199
vn -0.999481 0.000000 0.032199
vn -0.999481 0.000000 0.032199
vn -0.999481 0.000000 0.032199
vn -0.999481 0.000000 0.032199
vn 0.999442 -0.003700 0.033201
vn 0.999442 -0.003700 0.033201
vn 0.999442 -0.003700 0.033201
vn 0.999442 -0.003700 0.033201
vn 0.999442 -0.003700 -0.033201
vn 0.999442 -0.003700 -0.033201
vn 0.999442 -0.003700 -0.033201
vn 0.999442 -0.003700 -0.033201
vn -0.000100 0.998340 -0.057602
vn -0.000100 0.998340 -0.057602
vn -0.000100 0.998340 -0.057602
vn -0.000100 0.998340 -0.057602
vn -0.000100 0.998374 0.056999
vn -0.000100 0.998374 0.056999
vn -0.000100 0.998374 0.056999
vn -0.000100 0.998374 0.056999
s off
g barraferro:Mesh
usemtl initialShadingGroup
f 4/1/1 1/2/2 5/3/3 8/4/4
f 3/5/5 4/6/6 8/7/7 7/8/8
f 1/61/9 2/9/10 6/10/11 5/62/12
f 10/11/13 12/12/14 8/7/15 4/6/16
f 1/61/17 5/62/18 11/13/19 9/14/20
f 16/15/21 20/16/22 17/17/23 13/18/24
f 15/19/25 19/20/26 20/21/27 16/22/28
f 13/23/29 17/24/30 18/25/31 14/26/32
f 22/27/33 16/22/34 20/21/35 24/28/36
f 13/23/37 21/29/38 23/30/39 17/24/40
f 2/31/41 1/32/42 13/33/43 14/34/44
f 4/35/45 3/36/46 15/37/47 16/38/48
f 1/32/49 4/35/50 16/38/51 13/33/52
f 5/39/53 6/40/54 18/41/55 17/42/56
f 7/43/57 8/44/58 20/45/59 19/46/60
f 8/44/61 5/39/62 17/42/63 20/45/64
f 3/63/65 7/47/66 19/48/67 15/49/68
f 6/50/69 2/64/70 14/51/71 18/52/72
f 1/32/73 9/53/74 21/54/75 13/33/76
f 10/55/77 4/35/78 16/38/79 22/56/80
f 11/57/81 5/39/82 17/42/83 23/58/84
f 8/44/85 12/59/86 24/60/87 20/45/88
f 12/65/89 10/66/90 22/67/91 24/68/92
f 9/69/93 11/70/94 23/71/95 21/72/96
