# Blender 4.4.0
# www.blender.org
o Plane.014
v -5.501472 2.603364 -4.231132
v -5.501472 2.495774 -4.231132
v -5.501472 2.496919 -4.427990
v -5.501472 2.603364 -4.427990
v -0.057502 2.603364 -4.231132
v -0.057502 2.495774 -4.218848
v -0.057502 2.496919 -4.440274
v -0.057502 2.603364 -4.427990
v -5.501472 2.710954 -4.231132
v -5.501472 2.709810 -4.427990
v -0.057502 2.710954 -4.218848
v -0.057502 2.709810 -4.440274
v -5.501042 2.596684 -4.244471
v -5.501151 2.495204 -4.241116
v -5.501151 2.496343 -4.418007
v -5.501042 2.596684 -4.414652
v -0.057072 2.596684 -4.244471
v -0.057180 2.495204 -4.228832
v -0.057180 2.496343 -4.430291
v -0.057072 2.596684 -4.414652
v -5.501151 2.711524 -4.241116
v -5.501151 2.710386 -4.418007
v -0.057180 2.711524 -4.228832
v -0.057180 2.710386 -4.430291
vn -0.0000 1.0000 -0.0000
vn -0.0011 0.0576 -0.9983
vn -0.0011 0.0570 0.9984
vn -0.0011 -0.0576 -0.9983
vn -0.0011 -0.0570 0.9984
vn -0.0000 -1.0000 -0.0000
vn 0.0011 -0.0942 0.9955
vn 0.0011 -0.0932 -0.9956
vn 0.0011 0.0832 0.9965
vn 0.0011 0.0824 -0.9966
vn -0.9995 -0.0000 -0.0322
vn -0.9995 -0.0000 0.0322
vn -0.9979 -0.0642 -0.0000
vn 0.9995 0.0036 0.0311
vn 0.9995 0.0037 -0.0311
vn 0.9979 0.0642 -0.0000
vn -0.0001 -0.9983 -0.0576
vn -0.0001 -0.9984 0.0570
vn 0.9994 -0.0037 0.0332
vn 0.9994 -0.0037 -0.0332
vn -0.0001 0.9983 -0.0576
vn -0.0001 0.9984 0.0570
vt 0.605492 -0.100508
vt 0.394508 -0.100508
vt 0.394508 1.100425
vt 0.605492 1.100425
vt 0.612294 -0.100508
vt 0.498210 -0.100508
vt 0.498210 1.100425
vt 0.612294 1.100425
vt 0.613520 -0.100508
vt 0.613520 1.100425
vt 0.384126 -0.100508
vt 0.384126 1.100425
vt 0.382900 1.100425
vt 0.382900 -0.100508
vt 0.591196 -0.100413
vt 0.591196 1.100520
vt 0.408803 1.100520
vt 0.408803 -0.100413
vt 0.612911 -0.100437
vt 0.612911 1.100496
vt 0.505370 1.100520
vt 0.505370 -0.100413
vt 0.505370 -0.100413
vt 0.505370 1.100520
vt 0.614131 1.100496
vt 0.614131 -0.100437
vt 0.383509 -0.100437
vt 0.383509 1.100496
vt 0.382289 -0.100437
vt 0.382289 1.100496
vt 0.613520 0.394508
vt 0.498210 0.394508
vt 0.505370 0.408803
vt 0.614131 0.405208
vt 0.498210 0.605492
vt 0.612294 0.605492
vt 0.612911 0.594793
vt 0.505370 0.591196
vt 0.498210 0.394508
vt 0.613520 0.381343
vt 0.614131 0.392042
vt 0.505370 0.408803
vt 0.612294 0.618657
vt 0.498210 0.605492
vt 0.505370 0.591196
vt 0.612911 0.607958
vt 0.618657 1.100425
vt 0.607958 1.100496
vt 0.594793 -0.100437
vt 0.381343 1.100425
vt 0.405208 -0.100437
vt 0.392042 1.100496
vt 0.382900 0.394508
vt 0.382289 0.405208
vt 0.384126 0.605492
vt 0.383509 0.594793
vt 0.382900 0.381343
vt 0.382289 0.392042
vt 0.384126 0.618657
vt 0.383509 0.607958
s 0
f 4/1/1 1/2/1 5/3/1 8/4/1
f 3/5/2 4/6/2 8/7/2 7/8/2
f 1/6/3 2/9/3 6/10/3 5/7/3
f 10/11/4 12/12/4 8/7/4 4/6/4
f 1/6/5 5/7/5 11/13/5 9/14/5
f 16/15/6 20/16/6 17/17/6 13/18/6
f 15/19/7 19/20/7 20/21/7 16/22/7
f 13/23/8 17/24/8 18/25/8 14/26/8
f 22/27/9 16/22/9 20/21/9 24/28/9
f 13/23/10 21/29/10 23/30/10 17/24/10
f 2/31/11 1/32/11 13/33/11 14/34/11
f 4/35/12 3/36/12 15/37/12 16/38/12
f 1/32/13 4/35/13 16/38/13 13/33/13
f 5/39/14 6/40/14 18/41/14 17/42/14
f 7/43/15 8/44/15 20/45/15 19/46/15
f 8/44/16 5/39/16 17/42/16 20/45/16
f 3/1/17 7/47/17 19/48/17 15/49/17
f 6/50/18 2/2/18 14/51/18 18/52/18
f 1/32/11 9/53/11 21/54/11 13/33/11
f 10/55/12 4/35/12 16/38/12 22/56/12
f 11/57/19 5/39/19 17/42/19 23/58/19
f 8/44/20 12/59/20 24/60/20 20/45/20
f 12/47/21 10/1/21 22/49/21 24/48/21
f 9/2/22 11/50/22 23/52/22 21/51/22
