# Blender 4.4.0
# www.blender.org
mtllib BaseMadeira2.mtl
o Cube
v -2.252600 -0.064480 2.252600
v -2.252600 0.064480 2.252600
v -2.252600 -0.064480 -2.252600
v -2.252600 0.064480 -2.252600
v 2.252600 -0.064480 2.252600
v 2.178633 0.064480 2.252600
v 2.061777 -0.064480 -2.252600
v 2.061777 0.064480 -2.252600
v -2.252600 -0.064480 -1.609000
v -2.252600 -0.064480 -0.965400
v -2.252600 -0.064480 -0.321800
v -2.252600 -0.064480 0.321800
v -2.008634 -0.064480 0.965400
v -2.252600 -0.064480 1.609000
v -2.252600 0.064480 1.609000
v -2.008634 0.064480 0.965400
v -2.252600 0.064480 0.321800
v -2.252600 0.064480 -0.321800
v -2.252600 0.064480 -0.965400
v -2.252600 0.064480 -1.609000
v 2.252600 -0.064480 1.609000
v 2.252600 -0.064480 0.965400
v 2.252600 -0.064480 0.321800
v 2.252600 -0.064480 -0.321800
v 2.252600 -0.064480 -0.965400
v 2.061777 -0.064480 -1.609000
v 2.061777 0.064480 -1.609000
v 2.252600 0.064480 -0.965400
v 2.160136 0.064480 -0.321800
v 2.252600 0.064480 0.321800
v 2.252600 0.064480 0.965400
v 2.252600 0.064480 1.609000
v 1.501734 -0.064480 -2.252600
v 0.750867 -0.064480 -2.252600
v -0.000000 -0.064480 -2.252600
v -0.750867 -0.064480 -2.015686
v -1.501734 -0.064480 -2.252600
v -1.501734 0.064480 -2.252600
v -0.750867 0.064480 -2.015686
v 0.000000 0.064480 -2.252600
v 0.750867 0.064480 -2.252600
v 1.501734 0.064480 -2.252600
v -1.501734 -0.064480 2.252600
v -0.750867 -0.064480 2.252600
v 0.000000 -0.064480 2.252600
v 0.750867 -0.064480 2.252600
v 1.501734 -0.064480 2.252600
v 1.501734 0.064480 2.252600
v 0.750867 0.064480 2.252600
v -0.000000 0.064480 2.148270
v -0.750867 0.064480 2.252600
v -1.501734 0.064480 2.252600
v -1.501734 0.064480 -1.609000
v -0.750867 0.064480 -1.609000
v 0.000000 0.064480 -1.609000
v 0.750867 0.064480 -1.609000
v 1.501734 0.064480 -1.609000
v -1.501734 0.064480 -0.965400
v -0.750867 0.064480 -0.965400
v 0.000000 0.064480 -0.965400
v 0.750867 0.064480 -0.965400
v 1.501734 0.064480 -0.965400
v -1.501734 0.064480 -0.321800
v -0.750867 0.064480 -0.321800
v 0.000000 0.064480 -0.321800
v 0.750867 0.064480 -0.321800
v 1.501734 0.064480 -0.321800
v -1.501734 0.064480 0.321800
v -0.750867 0.064480 0.321800
v 0.000000 0.064480 0.321800
v 0.750867 0.064480 0.321800
v 1.501734 0.064480 0.321800
v -1.501734 0.064480 0.965400
v -0.750867 0.064480 0.965400
v 0.000000 0.064480 0.965400
v 0.750867 0.064480 0.965400
v 1.501734 0.064480 0.965400
v -1.501734 0.064480 1.609000
v -0.750867 0.064480 1.609000
v 0.000000 0.064480 1.609000
v 0.750867 0.064480 1.609000
v 1.501734 0.064480 1.609000
v 1.501734 -0.064480 -1.609000
v 0.750867 -0.064480 -1.609000
v -0.000000 -0.064480 -1.609000
v -0.750867 -0.064480 -1.609000
v -1.501734 -0.064480 -1.609000
v 1.501734 -0.064480 -0.965400
v 0.750867 -0.064480 -0.965400
v -0.000000 -0.064480 -0.965400
v -0.750867 -0.064480 -0.965400
v -1.501734 -0.064480 -0.965400
v 1.501734 -0.064480 -0.321800
v 0.750867 -0.064480 -0.321800
v -0.000000 -0.064480 -0.321800
v -0.750867 -0.064480 -0.321800
v -1.501734 -0.064480 -0.321800
v 1.501734 -0.064480 0.321800
v 0.750867 -0.064480 0.321800
v -0.000000 -0.064480 0.321800
v -0.750867 -0.064480 0.321800
v -1.501734 -0.064480 0.321800
v 1.501734 -0.064480 0.965400
v 0.750867 -0.064480 0.965400
v -0.000000 -0.064480 0.965400
v -0.750867 -0.064480 0.965400
v -1.501734 -0.064480 0.965400
v 1.501734 -0.064480 1.609000
v 0.750867 -0.064480 1.609000
v -0.000000 -0.064480 1.609000
v -0.750867 -0.064480 1.609000
v -1.501734 -0.064480 1.609000
vn -1.0000 -0.0000 -0.0000
vn -0.0000 -0.0000 -1.0000
vn 0.9598 0.2753 0.0552
vn -0.0000 -0.0000 1.0000
vn -0.0000 -1.0000 -0.0000
vn -0.0000 1.0000 -0.0000
vn 1.0000 -0.0000 -0.0000
vn 0.9587 -0.0000 -0.2843
vn 0.9392 0.3367 0.0675
vn 0.9392 0.3367 -0.0675
vn -0.9351 -0.0000 -0.3545
vn -0.9351 -0.0000 0.3545
vn -0.0643 0.3742 0.9251
vn 0.0643 0.3742 0.9251
vn 0.3009 -0.0000 -0.9537
vn -0.3009 -0.0000 -0.9537
vt 0.375000 0.214286
vt 0.625000 0.214286
vt 0.625000 0.250000
vt 0.375000 0.250000
vt 0.375000 0.458333
vt 0.625000 0.458333
vt 0.625000 0.500000
vt 0.375000 0.500000
vt 0.375000 0.714286
vt 0.625000 0.714286
vt 0.627052 0.752052
vt 0.375000 0.750000
vt 0.375000 0.958333
vt 0.625000 0.958333
vt 0.625000 1.000000
vt 0.375000 1.000000
vt 0.333333 0.714286
vt 0.333333 0.750000
vt 0.833333 0.714286
vt 0.875000 0.714286
vt 0.875000 0.750000
vt 0.833333 0.750000
vt 0.833333 0.500000
vt 0.875000 0.500000
vt 0.875000 0.535714
vt 0.833333 0.535714
vt 0.875000 0.571429
vt 0.833333 0.571429
vt 0.875000 0.607143
vt 0.833333 0.607143
vt 0.875000 0.642857
vt 0.833333 0.642857
vt 0.874646 0.679060
vt 0.833333 0.678571
vt 0.333333 0.500000
vt 0.375000 0.535714
vt 0.333333 0.535714
vt 0.375000 0.571429
vt 0.333333 0.571429
vt 0.375000 0.607143
vt 0.333333 0.607143
vt 0.375000 0.642857
vt 0.333333 0.642857
vt 0.375000 0.678571
vt 0.333333 0.678571
vt 0.625000 0.535714
vt 0.625000 0.571429
vt 0.625868 0.607143
vt 0.625000 0.642857
vt 0.625000 0.678571
vt 0.375000 0.000000
vt 0.625000 0.000000
vt 0.625000 0.035714
vt 0.375000 0.035714
vt 0.625000 0.071429
vt 0.375000 0.071429
vt 0.625000 0.107143
vt 0.375000 0.107143
vt 0.625000 0.142857
vt 0.375000 0.142857
vt 0.625000 0.178571
vt 0.375000 0.178571
vt 0.125843 0.679548
vt 0.166667 0.678571
vt 0.166667 0.714286
vt 0.125000 0.714286
vt 0.208333 0.678571
vt 0.208333 0.714286
vt 0.250000 0.678571
vt 0.250000 0.714286
vt 0.291667 0.678571
vt 0.291667 0.714286
vt 0.125000 0.642857
vt 0.166667 0.642857
vt 0.208333 0.642857
vt 0.250000 0.642857
vt 0.291667 0.642857
vt 0.125000 0.607143
vt 0.166667 0.607143
vt 0.208333 0.607143
vt 0.250000 0.607143
vt 0.291667 0.607143
vt 0.125000 0.571429
vt 0.166667 0.571429
vt 0.208333 0.571429
vt 0.250000 0.571429
vt 0.291667 0.571429
vt 0.125000 0.535714
vt 0.166667 0.535714
vt 0.208333 0.535714
vt 0.250000 0.535714
vt 0.291667 0.535714
vt 0.125000 0.500000
vt 0.166667 0.500000
vt 0.208333 0.500000
vt 0.250000 0.500000
vt 0.291667 0.500000
vt 0.666667 0.678571
vt 0.666667 0.714286
vt 0.708333 0.678571
vt 0.708333 0.714286
vt 0.750000 0.678571
vt 0.750000 0.714286
vt 0.791667 0.678571
vt 0.791667 0.714286
vt 0.666667 0.642857
vt 0.708333 0.642857
vt 0.750000 0.642857
vt 0.791667 0.642857
vt 0.666667 0.607143
vt 0.708333 0.607143
vt 0.750000 0.607143
vt 0.791667 0.607143
vt 0.666667 0.571429
vt 0.708333 0.571429
vt 0.750000 0.571429
vt 0.791667 0.571429
vt 0.666667 0.535714
vt 0.708333 0.535714
vt 0.750000 0.535714
vt 0.791667 0.535714
vt 0.666667 0.500000
vt 0.708333 0.500000
vt 0.750000 0.500000
vt 0.791667 0.500000
vt 0.666667 0.750000
vt 0.708333 0.750000
vt 0.751465 0.749093
vt 0.791667 0.750000
vt 0.166667 0.750000
vt 0.125000 0.750000
vt 0.208333 0.750000
vt 0.250000 0.750000
vt 0.291667 0.750000
vt 0.625000 0.791667
vt 0.375000 0.791667
vt 0.625000 0.833333
vt 0.375000 0.833333
vt 0.625000 0.875000
vt 0.375000 0.875000
vt 0.625000 0.916667
vt 0.375000 0.916667
vt 0.625000 0.291667
vt 0.375000 0.291667
vt 0.625000 0.333333
vt 0.375000 0.333333
vt 0.625000 0.375000
vt 0.375000 0.375000
vt 0.625000 0.416667
vt 0.375000 0.416667
s 0
f 9/1/1 20/2/1 4/3/1 3/4/1
f 33/5/2 42/6/2 8/7/2 7/8/2
f 21/9/3 32/10/3 6/11/3 5/12/3
f 43/13/4 52/14/4 2/15/4 1/16/4
f 108/17/5 21/9/5 5/12/5 47/18/5
f 78/19/6 15/20/6 2/21/6 52/22/6
f 38/23/6 4/24/6 20/25/6 53/26/6
f 53/26/6 20/25/6 19/27/6 58/28/6
f 58/28/6 19/27/6 18/29/6 63/30/6
f 63/30/6 18/29/6 17/31/6 68/32/6
f 68/32/6 17/31/6 16/33/6 73/34/6
f 73/34/6 16/33/6 15/20/6 78/19/6
f 33/35/5 7/8/5 26/36/5 83/37/5
f 83/37/5 26/36/5 25/38/5 88/39/5
f 88/39/5 25/38/5 24/40/5 93/41/5
f 93/41/5 24/40/5 23/42/5 98/43/5
f 98/43/5 23/42/5 22/44/5 103/45/5
f 103/45/5 22/44/5 21/9/5 108/17/5
f 7/8/7 8/7/7 27/46/7 26/36/7
f 26/36/8 27/46/8 28/47/8 25/38/8
f 25/38/9 28/47/9 29/48/9 24/40/9
f 24/40/10 29/48/10 30/49/10 23/42/10
f 23/42/7 30/49/7 31/50/7 22/44/7
f 22/44/7 31/50/7 32/10/7 21/9/7
f 1/51/1 2/52/1 15/53/1 14/54/1
f 14/54/11 15/53/11 16/55/11 13/56/11
f 13/56/12 16/55/12 17/57/12 12/58/12
f 12/58/1 17/57/1 18/59/1 11/60/1
f 11/60/1 18/59/1 19/61/1 10/62/1
f 10/62/1 19/61/1 20/2/1 9/1/1
f 13/63/5 107/64/5 112/65/5 14/66/5
f 107/64/5 106/67/5 111/68/5 112/65/5
f 106/67/5 105/69/5 110/70/5 111/68/5
f 105/69/5 104/71/5 109/72/5 110/70/5
f 104/71/5 103/45/5 108/17/5 109/72/5
f 12/73/5 102/74/5 107/64/5 13/63/5
f 102/74/5 101/75/5 106/67/5 107/64/5
f 101/75/5 100/76/5 105/69/5 106/67/5
f 100/76/5 99/77/5 104/71/5 105/69/5
f 99/77/5 98/43/5 103/45/5 104/71/5
f 11/78/5 97/79/5 102/74/5 12/73/5
f 97/79/5 96/80/5 101/75/5 102/74/5
f 96/80/5 95/81/5 100/76/5 101/75/5
f 95/81/5 94/82/5 99/77/5 100/76/5
f 94/82/5 93/41/5 98/43/5 99/77/5
f 10/83/5 92/84/5 97/79/5 11/78/5
f 92/84/5 91/85/5 96/80/5 97/79/5
f 91/85/5 90/86/5 95/81/5 96/80/5
f 90/86/5 89/87/5 94/82/5 95/81/5
f 89/87/5 88/39/5 93/41/5 94/82/5
f 9/88/5 87/89/5 92/84/5 10/83/5
f 87/89/5 86/90/5 91/85/5 92/84/5
f 86/90/5 85/91/5 90/86/5 91/85/5
f 85/91/5 84/92/5 89/87/5 90/86/5
f 84/92/5 83/37/5 88/39/5 89/87/5
f 3/93/5 37/94/5 87/89/5 9/88/5
f 37/94/5 36/95/5 86/90/5 87/89/5
f 36/95/5 35/96/5 85/91/5 86/90/5
f 35/96/5 34/97/5 84/92/5 85/91/5
f 34/97/5 33/35/5 83/37/5 84/92/5
f 31/50/6 77/98/6 82/99/6 32/10/6
f 77/98/6 76/100/6 81/101/6 82/99/6
f 76/100/6 75/102/6 80/103/6 81/101/6
f 75/102/6 74/104/6 79/105/6 80/103/6
f 74/104/6 73/34/6 78/19/6 79/105/6
f 30/49/6 72/106/6 77/98/6 31/50/6
f 72/106/6 71/107/6 76/100/6 77/98/6
f 71/107/6 70/108/6 75/102/6 76/100/6
f 70/108/6 69/109/6 74/104/6 75/102/6
f 69/109/6 68/32/6 73/34/6 74/104/6
f 29/48/6 67/110/6 72/106/6 30/49/6
f 67/110/6 66/111/6 71/107/6 72/106/6
f 66/111/6 65/112/6 70/108/6 71/107/6
f 65/112/6 64/113/6 69/109/6 70/108/6
f 64/113/6 63/30/6 68/32/6 69/109/6
f 28/47/6 62/114/6 67/110/6 29/48/6
f 62/114/6 61/115/6 66/111/6 67/110/6
f 61/115/6 60/116/6 65/112/6 66/111/6
f 60/116/6 59/117/6 64/113/6 65/112/6
f 59/117/6 58/28/6 63/30/6 64/113/6
f 27/46/6 57/118/6 62/114/6 28/47/6
f 57/118/6 56/119/6 61/115/6 62/114/6
f 56/119/6 55/120/6 60/116/6 61/115/6
f 55/120/6 54/121/6 59/117/6 60/116/6
f 54/121/6 53/26/6 58/28/6 59/117/6
f 8/7/6 42/122/6 57/118/6 27/46/6
f 42/122/6 41/123/6 56/119/6 57/118/6
f 41/123/6 40/124/6 55/120/6 56/119/6
f 40/124/6 39/125/6 54/121/6 55/120/6
f 39/125/6 38/23/6 53/26/6 54/121/6
f 32/10/6 82/99/6 48/126/6 6/11/6
f 82/99/6 81/101/6 49/127/6 48/126/6
f 81/101/6 80/103/6 50/128/6 49/127/6
f 80/103/6 79/105/6 51/129/6 50/128/6
f 79/105/6 78/19/6 52/22/6 51/129/6
f 14/66/5 112/65/5 43/130/5 1/131/5
f 112/65/5 111/68/5 44/132/5 43/130/5
f 111/68/5 110/70/5 45/133/5 44/132/5
f 110/70/5 109/72/5 46/134/5 45/133/5
f 109/72/5 108/17/5 47/18/5 46/134/5
f 5/12/4 6/11/4 48/135/4 47/136/4
f 47/136/4 48/135/4 49/137/4 46/138/4
f 46/138/13 49/137/13 50/139/13 45/140/13
f 45/140/14 50/139/14 51/141/14 44/142/14
f 44/142/4 51/141/4 52/14/4 43/13/4
f 3/4/2 4/3/2 38/143/2 37/144/2
f 37/144/15 38/143/15 39/145/15 36/146/15
f 36/146/16 39/145/16 40/147/16 35/148/16
f 35/148/2 40/147/2 41/149/2 34/150/2
f 34/150/2 41/149/2 42/6/2 33/5/2
