# Blender 4.4.0
# www.blender.org
mtllib BaseMadeira.mtl
o Cube
v -1.511187 -0.030444 1.511187
v -1.511187 -0.030444 -1.511187
v 1.511187 -0.030444 1.511187
v 1.511187 -0.030444 -1.511187
v -1.511187 -0.030444 -0.906712
v -1.511187 -0.030444 -0.302237
v -1.511187 -0.030444 0.302237
v -1.511187 -0.030444 0.906712
v 1.511187 -0.030444 0.906712
v 1.511187 -0.030444 0.302237
v 1.511187 -0.030444 -0.302237
v 1.511187 -0.030444 -0.906712
v 1.007458 -0.030444 -1.511187
v 0.503729 -0.030444 -1.511187
v -0.000000 -0.030444 -1.511187
v -0.503729 -0.030444 -1.511187
v -1.007458 -0.030444 -1.511187
v -1.007458 -0.030444 1.511187
v -0.503729 -0.030444 1.511187
v 0.000000 -0.030444 1.511187
v 0.503729 -0.030444 1.511187
v 1.007458 -0.030444 1.511187
v -1.007458 0.030444 -0.906712
v -0.503729 0.030444 -0.906712
v 0.000000 0.030444 -0.906712
v 0.503729 0.030444 -0.906712
v 1.007458 0.030444 -0.906712
v -0.503729 0.030444 -0.302237
v 0.000000 0.030444 -0.302237
v 0.503729 0.030444 -0.302237
v 1.007458 0.030444 -0.302237
v -1.007458 0.030444 0.302237
v -0.503729 0.030444 0.302237
v 0.503729 0.030444 0.302237
v 1.007458 0.030444 0.302237
v -1.007458 0.030444 0.906712
v -0.503729 0.030444 0.906712
v 0.000000 0.030444 0.906712
v 0.503729 0.030444 0.906712
v 1.007458 0.030444 0.906712
v 1.007458 -0.030444 -0.906712
v 0.503729 -0.030444 -0.906712
v -0.000000 -0.030444 -0.906712
v -0.503729 -0.030444 -0.906712
v -1.007458 -0.030444 -0.906712
v 1.007458 -0.030444 -0.302237
v 0.503729 -0.030444 -0.302237
v -0.000000 -0.030444 -0.302237
v -0.503729 -0.030444 -0.302237
v -1.007458 -0.030444 -0.302237
v 1.007458 -0.030444 0.302237
v 0.503729 -0.030444 0.302237
v -0.000000 -0.030444 0.302237
v -0.503729 -0.030444 0.302237
v -1.007458 -0.030444 0.302237
v 1.007458 -0.030444 0.906712
v 0.503729 -0.030444 0.906712
v -0.000000 -0.030444 0.906712
v -0.503729 -0.030444 0.906712
v -1.007458 -0.030444 0.906712
v 1.216045 0.030444 0.302237
v 1.511187 -0.017306 0.302237
v -0.183471 0.018503 0.302237
v 0.000107 0.018503 0.377779
v 0.197535 0.018503 0.302237
v 0.000107 0.018503 0.226696
v 0.000000 0.030444 0.218112
v -0.204439 0.030444 0.302237
v 0.000000 0.030444 0.386363
v 0.219862 0.030444 0.302237
v 0.000107 0.030444 0.226696
v -0.183471 0.030444 0.302237
v 0.000107 0.030444 0.377779
v 0.197535 0.030444 0.302237
v 0.000000 0.030444 -0.966799
v -0.000000 -0.023740 -1.511187
v -1.504990 0.030444 1.504990
v -1.511187 0.024247 1.511187
v -1.509372 0.028629 1.509372
v -1.504990 0.030444 -1.504990
v -1.511187 0.024247 -1.511187
v -1.509372 0.028629 -1.509372
v 1.504990 0.030444 1.504990
v 1.511187 0.024247 1.511187
v 1.509372 0.028629 1.509372
v 1.504990 0.030444 -1.504990
v 1.511187 0.024247 -1.511187
v 1.509372 0.028629 -1.509372
v -1.504990 0.030444 0.906712
v -1.511187 0.024247 0.906712
v -1.509372 0.028629 0.906712
v -1.504990 0.030444 0.302237
v -1.511187 0.024247 0.302237
v -1.509372 0.028629 0.302237
v -1.504990 0.030444 -0.302237
v -1.511187 0.024247 -0.302237
v -1.509372 0.028629 -0.302237
v -1.511187 0.024247 -0.906712
v -1.504990 0.030444 -0.906712
v -1.509372 0.028629 -0.906712
v 1.504990 0.030444 -0.906712
v 1.511187 0.024247 -0.906712
v 1.509372 0.028629 -0.906712
v 1.504990 0.030444 -0.302237
v 1.511187 0.024247 -0.302237
v 1.509372 0.028629 -0.302237
v 1.511187 0.024247 0.906712
v 1.504990 0.030444 0.906712
v 1.509372 0.028629 0.906712
v -1.007458 0.030444 -1.504990
v -1.007458 0.024247 -1.511187
v -1.007458 0.028629 -1.509372
v -0.503729 0.030444 -1.504990
v -0.503729 0.024247 -1.511187
v -0.503729 0.028629 -1.509372
v 0.503729 0.024247 -1.511187
v 0.503729 0.030444 -1.504990
v 0.503729 0.028629 -1.509372
v 1.007458 0.024247 -1.511187
v 1.007458 0.030444 -1.504990
v 1.007458 0.028629 -1.509372
v 1.007458 0.030444 1.504990
v 1.007458 0.024247 1.511187
v 1.007458 0.028629 1.509372
v 0.503729 0.030444 1.504990
v 0.503729 0.024247 1.511187
v 0.503729 0.028629 1.509372
v -0.000000 0.030444 1.504990
v -0.000000 0.024247 1.511187
v -0.000000 0.028629 1.509372
v -0.503729 0.030444 1.504990
v -0.503729 0.024247 1.511187
v -0.503729 0.028629 1.509372
v -1.007458 0.024247 1.511187
v -1.007458 0.030444 1.504990
v -1.007458 0.028629 1.509372
v 1.511187 0.024247 0.260684
v 1.504990 0.030444 0.255489
v 1.509372 0.028629 0.256595
v 1.504990 0.030444 0.348985
v 1.511187 0.024247 0.343791
v 1.509372 0.028629 0.347879
v -0.037670 0.024247 -1.511187
v -0.042050 0.030444 -1.504990
v -0.040968 0.028629 -1.509372
v 0.042050 0.030444 -1.504990
v 0.037670 0.024247 -1.511187
v 0.040968 0.028629 -1.509372
v -1.005576 0.017058 -0.470923
v -1.175978 0.017058 -0.300520
v -1.004872 0.017058 0.027386
v -0.649003 0.017058 -0.299836
v -0.632903 0.030444 -0.302237
v -1.007458 0.030444 -0.481952
v -1.187172 0.030444 -0.302237
v -1.007458 0.030444 0.042166
v -0.649003 0.030444 -0.299836
v -1.005576 0.030444 -0.470923
v -1.175978 0.030444 -0.300520
v -1.004872 0.030444 0.027386
vn -0.0000 -0.0000 -1.0000
vn -0.0000 0.1693 -0.9856
vn -0.0000 0.1951 -0.9808
vn 1.0000 -0.0000 -0.0000
vn 0.9856 0.1693 -0.0000
vn 0.9808 0.1951 -0.0000
vn -0.0000 -0.0000 1.0000
vn -0.0000 0.1693 0.9856
vn -0.0000 0.1951 0.9808
vn -0.0000 1.0000 -0.0000
vn -0.1951 0.9808 -0.0000
vn -0.1481 0.9778 0.1481
vn -0.0000 0.9808 0.1951
vn -0.0000 -1.0000 -0.0000
vn -0.0000 0.9808 -0.1951
vn -0.1481 0.9778 -0.1481
vn -1.0000 -0.0000 -0.0000
vn -0.9808 0.1951 -0.0000
vn -0.9856 0.1693 -0.0000
vn 0.1951 0.9808 -0.0000
vn 0.0082 1.0000 -0.0000
vn 0.1822 0.9833 -0.0000
vn 0.9946 0.1038 -0.0000
vn -0.0000 0.1171 -0.9931
vn -0.0000 0.9875 -0.1577
vn -0.0000 1.0000 -0.0025
vn 0.1597 0.9872 -0.0000
vn 0.2433 0.9700 -0.0000
vn 0.1481 0.9778 -0.1481
vn 0.1481 0.9778 0.1481
vn -0.0000 0.9951 -0.0990
vn -0.0000 0.9788 -0.2048
vn 0.3805 -0.0000 0.9248
vn 0.3805 -0.0000 -0.9248
vn -0.3574 -0.0000 -0.9340
vn -0.3574 -0.0000 0.9340
vn -0.3827 0.9239 -0.0000
vn -0.9239 0.3827 -0.0000
vn -0.0000 0.9239 -0.3827
vn -0.0000 0.3827 -0.9239
vn 0.3827 0.9239 -0.0000
vn 0.9239 0.3827 -0.0000
vn -0.0000 0.9239 0.3827
vn -0.0000 0.3827 0.9239
vn -0.4326 -0.0000 0.9016
vn 0.7071 -0.0000 0.7071
vn 0.8866 -0.0000 -0.4626
vn -0.6769 -0.0000 -0.7361
vt 0.375000 0.250000
vt 0.599556 0.250000
vt 0.599556 0.291667
vt 0.375000 0.291667
vt 0.375000 0.500000
vt 0.599556 0.500000
vt 0.599556 0.550000
vt 0.375000 0.550000
vt 0.375000 0.750000
vt 0.599556 0.750000
vt 0.599556 0.791667
vt 0.375000 0.791667
vt 0.833333 0.700000
vt 0.874487 0.700000
vt 0.874487 0.749487
vt 0.833333 0.749487
vt 0.333333 0.700000
vt 0.375000 0.700000
vt 0.333333 0.750000
vt 0.833333 0.500513
vt 0.874487 0.500513
vt 0.874487 0.550000
vt 0.833333 0.550000
vt 0.375000 0.200000
vt 0.599556 0.200000
vt 0.599556 0.250000
vt 0.625513 0.550000
vt 0.666667 0.550000
vt 0.666667 0.600000
vt 0.625513 0.600000
vt 0.375000 0.150000
vt 0.599556 0.150000
vt 0.599556 0.200000
vt 0.375000 0.100000
vt 0.599556 0.100000
vt 0.599556 0.150000
vt 0.333333 0.500000
vt 0.333333 0.550000
vt 0.375000 0.600000
vt 0.333333 0.600000
vt 0.375000 0.650000
vt 0.333333 0.650000
vt 0.375000 0.050000
vt 0.599556 0.050000
vt 0.599556 0.100000
vt 0.625513 0.600000
vt 0.666667 0.650000
vt 0.649413 0.650000
vt 0.625513 0.646133
vt 0.428943 0.650000
vt 0.599556 0.653437
vt 0.599556 0.700000
vt 0.375000 0.958333
vt 0.599556 0.958333
vt 0.599556 1.000000
vt 0.375000 1.000000
vt 0.833333 0.650000
vt 0.874487 0.650000
vt 0.874487 0.700000
vt 0.833333 0.628488
vt 0.848199 0.600000
vt 0.874487 0.600000
vt 0.874487 0.650000
vt 0.125000 0.650000
vt 0.166667 0.650000
vt 0.166667 0.700000
vt 0.125000 0.700000
vt 0.208333 0.650000
vt 0.208333 0.700000
vt 0.250000 0.650000
vt 0.250000 0.700000
vt 0.291667 0.650000
vt 0.291667 0.700000
vt 0.125000 0.600000
vt 0.166667 0.600000
vt 0.208333 0.600000
vt 0.250000 0.600000
vt 0.291667 0.600000
vt 0.125000 0.550000
vt 0.166667 0.550000
vt 0.208333 0.550000
vt 0.250000 0.550000
vt 0.291667 0.550000
vt 0.125000 0.500000
vt 0.166667 0.500000
vt 0.208333 0.500000
vt 0.250000 0.500000
vt 0.291667 0.500000
vt 0.625513 0.653867
vt 0.666667 0.700000
vt 0.625513 0.700000
vt 0.708333 0.650000
vt 0.708333 0.700000
vt 0.708333 0.600000
vt 0.750000 0.600000
vt 0.750000 0.643041
vt 0.731814 0.650000
vt 0.791667 0.650000
vt 0.791667 0.700000
vt 0.599556 0.291667
vt 0.599556 0.333333
vt 0.375000 0.333333
vt 0.750000 0.656959
vt 0.750000 0.700000
vt 0.766911 0.650000
vt 0.874487 0.550000
vt 0.874487 0.600000
vt 0.833333 0.585135
vt 0.599556 0.550000
vt 0.599556 0.600000
vt 0.708333 0.550000
vt 0.750000 0.550000
vt 0.791667 0.550000
vt 0.791667 0.600000
vt 0.802351 0.600000
vt 0.375000 0.458333
vt 0.599556 0.458333
vt 0.599556 0.500000
vt 0.375000 0.375000
vt 0.450361 0.375000
vt 0.605027 0.378116
vt 0.599556 0.416667
vt 0.375000 0.416667
vt 0.708333 0.500513
vt 0.746522 0.500513
vt 0.750000 0.545030
vt 0.753478 0.500513
vt 0.791667 0.500513
vt 0.599556 0.700000
vt 0.599556 0.750000
vt 0.375000 0.833333
vt 0.599556 0.833333
vt 0.599556 0.875000
vt 0.375000 0.875000
vt 0.599556 0.875000
vt 0.599556 0.916667
vt 0.375000 0.916667
vt 0.599556 0.916667
vt 0.599556 0.958333
vt 0.599556 0.646563
vt 0.623258 0.646108
vt 0.625513 0.653867
vt 0.623258 0.653892
vt 0.599556 0.653437
vt 0.166667 0.750000
vt 0.125000 0.750000
vt 0.208333 0.750000
vt 0.250000 0.750000
vt 0.291667 0.750000
vt 0.625513 0.500513
vt 0.666667 0.500513
vt 0.625513 0.550000
vt 0.708333 0.749487
vt 0.666667 0.749487
vt 0.750000 0.749487
vt 0.708333 0.749487
vt 0.791667 0.749487
vt 0.750000 0.749487
vt 0.833333 0.749487
vt 0.791667 0.749487
vt 0.625513 0.700000
vt 0.666667 0.749487
vt 0.625513 0.749487
vt 0.599556 0.333333
vt 0.605027 0.371884
vt 0.599556 0.791667
vt 0.599556 0.833333
vt 0.622228 0.372855
vt 0.626423 0.373457
vt 0.739235 0.496639
vt 0.712614 0.485704
vt 0.599556 0.600000
vt 0.599556 0.646563
vt 0.428943 0.650000
vt 0.765176 0.650000
vt 0.749991 0.656248
vt 0.733661 0.650000
vt 0.749991 0.643751
vt 0.750000 0.643041
vt 0.599556 0.416667
vt 0.599556 0.458333
vt 0.875000 0.500150
vt 0.875000 0.550000
vt 0.625000 0.200000
vt 0.625000 0.249850
vt 0.625150 0.500000
vt 0.666667 0.500000
vt 0.625000 0.458333
vt 0.625000 0.499850
vt 0.625000 0.749850
vt 0.625000 0.700000
vt 0.874850 0.750000
vt 0.833333 0.750000
vt 0.625000 0.958333
vt 0.625000 0.999850
vt 0.875000 0.700000
vt 0.875000 0.749850
vt 0.625000 0.000150
vt 0.625000 0.050000
vt 0.599556 0.050000
vt 0.599556 0.000000
vt 0.875000 0.650000
vt 0.625000 0.100000
vt 0.875000 0.600000
vt 0.625000 0.150000
vt 0.625000 0.550000
vt 0.625000 0.500150
vt 0.625000 0.600000
vt 0.833333 0.500000
vt 0.874850 0.500000
vt 0.625000 0.250150
vt 0.625000 0.291667
vt 0.791667 0.500000
vt 0.625000 0.333333
vt 0.708333 0.500000
vt 0.625000 0.416667
vt 0.666667 0.750000
vt 0.625150 0.750000
vt 0.625000 0.750150
vt 0.625000 0.791667
vt 0.708333 0.750000
vt 0.625000 0.833333
vt 0.750000 0.750000
vt 0.625000 0.875000
vt 0.791667 0.750000
vt 0.625000 0.916667
vt 0.753518 0.500000
vt 0.625000 0.371482
vt 0.746482 0.500000
vt 0.625000 0.378518
vt 0.375000 0.000000
vt 0.833178 0.586047
vt 0.847273 0.600142
vt 0.833119 0.627265
vt 0.803683 0.600199
vt 0.833333 0.585135
s 1
f 2/1/1 81/2/2 111/3/3 17/4/1
f 4/5/4 87/6/5 102/7/6 12/8/4
f 3/9/7 84/10/8 123/11/9 22/12/7
f 36/13/10 89/14/11 77/15/12 135/16/13
f 56/17/14 9/18/14 3/9/14 22/19/14
f 110/20/15 80/21/16 99/22/11 23/23/10
f 5/24/17 98/25/18 81/26/19 2/1/17
f 101/27/20 27/28/10 31/29/10 104/30/20
f 6/31/17 96/32/18 98/33/18 5/24/17
f 7/34/17 93/35/18 96/36/18 6/31/17
f 13/37/14 4/5/14 12/8/14 41/38/14
f 41/38/14 12/8/14 11/39/14 46/40/14
f 46/40/14 11/39/14 10/41/14 51/42/14
f 51/42/14 10/41/14 9/18/14 56/17/14
f 8/43/17 90/44/18 93/45/18 7/34/17
f 104/46/20 31/29/10 35/47/10 61/48/21 138/49/22
f 10/41/4 62/50/4 141/51/23 107/52/6 9/18/4
f 18/53/7 134/54/9 78/55/8 1/56/7
f 32/57/10 92/58/11 89/59/11 36/13/10
f 156/60/10 155/61/10 95/62/11 92/63/11 32/57/10
f 7/64/14 55/65/14 60/66/14 8/67/14
f 55/65/14 54/68/14 59/69/14 60/66/14
f 54/68/14 53/70/14 58/71/14 59/69/14
f 53/70/14 52/72/14 57/73/14 58/71/14
f 52/72/14 51/42/14 56/17/14 57/73/14
f 6/74/14 50/75/14 55/65/14 7/64/14
f 50/75/14 49/76/14 54/68/14 55/65/14
f 49/76/14 48/77/14 53/70/14 54/68/14
f 48/77/14 47/78/14 52/72/14 53/70/14
f 47/78/14 46/40/14 51/42/14 52/72/14
f 5/79/14 45/80/14 50/75/14 6/74/14
f 45/80/14 44/81/14 49/76/14 50/75/14
f 44/81/14 43/82/14 48/77/14 49/76/14
f 43/82/14 42/83/14 47/78/14 48/77/14
f 42/83/14 41/38/14 46/40/14 47/78/14
f 2/84/14 17/85/14 45/80/14 5/79/14
f 17/85/14 16/86/14 44/81/14 45/80/14
f 16/86/14 15/87/14 43/82/14 44/81/14
f 15/87/14 14/88/14 42/83/14 43/82/14
f 14/88/14 13/37/14 41/38/14 42/83/14
f 140/89/22 61/48/21 35/47/10 40/90/10 108/91/20
f 35/47/10 34/92/10 39/93/10 40/90/10
f 30/94/10 29/95/10 67/96/10 70/97/10 34/92/10
f 33/98/10 32/57/10 36/13/10 37/99/10
f 17/4/1 111/100/3 114/101/3 16/102/1
f 31/29/10 30/94/10 34/92/10 35/47/10
f 34/92/10 70/97/10 69/103/10 38/104/10 39/93/10
f 69/103/10 68/105/10 33/98/10 37/99/10 38/104/10
f 23/23/10 99/106/11 95/107/11 155/61/10 154/108/10
f 12/8/4 102/109/6 105/110/6 11/39/4
f 27/28/10 26/111/10 30/94/10 31/29/10
f 26/111/10 25/112/10 29/95/10 30/94/10
f 25/112/10 24/113/10 28/114/10 29/95/10
f 28/114/10 153/115/10 156/60/10 32/57/10 33/98/10
f 13/116/1 119/117/3 87/118/2 4/5/1
f 15/119/1 76/120/1 147/121/24 116/122/3 14/123/1
f 117/124/15 146/125/25 75/126/26 25/112/10 26/111/10
f 75/126/26 144/127/25 113/128/15 24/113/10 25/112/10
f 9/18/4 107/129/6 84/130/5 3/9/4
f 21/131/7 126/132/9 129/133/9 20/134/7
f 20/134/7 129/135/9 132/136/9 19/137/7
f 19/137/7 132/138/9 134/139/9 18/53/7
f 137/140/27 139/141/28 138/49/22 61/48/21 140/142/22 142/143/28 141/144/27 62/50/27
f 8/67/14 60/66/14 18/145/14 1/146/14
f 60/66/14 59/69/14 19/147/14 18/145/14
f 59/69/14 58/71/14 20/148/14 19/147/14
f 58/71/14 57/73/14 21/149/14 20/148/14
f 57/73/14 56/17/14 22/19/14 21/149/14
f 86/150/29 120/151/15 27/28/10 101/152/20
f 40/90/10 39/93/10 125/153/13 122/154/13
f 39/93/10 38/104/10 128/155/13 125/156/13
f 38/104/10 37/99/10 131/157/13 128/158/13
f 37/99/10 36/13/10 135/159/13 131/160/13
f 108/161/20 40/90/10 122/162/13 83/163/30
f 113/128/15 110/20/15 23/23/10 24/113/10
f 16/102/1 114/164/3 143/165/24 76/120/1 15/119/1
f 22/12/7 123/166/9 126/167/9 21/131/7
f 120/151/15 117/124/15 26/111/10 27/28/10
f 143/165/31 145/168/32 144/169/25 75/126/26 146/125/25 148/170/32 147/171/31 76/120/31
f 11/39/4 105/172/6 137/173/23 62/174/4 10/41/4
f 63/175/10 64/176/10 65/177/10 66/178/10
f 29/95/10 28/114/10 33/98/10 68/105/10 67/179/10
f 72/175/10 71/178/10 67/96/10 68/105/10
f 73/176/10 72/175/10 68/105/10 69/103/10
f 74/177/10 73/176/10 69/103/10 70/97/10
f 71/178/10 74/177/10 70/97/10 67/96/10
f 63/175/33 66/178/33 71/178/33 72/175/33
f 64/176/34 63/175/34 72/175/34 73/176/34
f 65/177/35 64/176/35 73/176/35 74/177/35
f 66/178/36 65/177/36 74/177/36 71/178/36
f 14/123/1 116/180/3 119/181/3 13/116/1
f 99/22/11 80/21/16 82/182/37 100/183/37
f 100/184/38 82/185/38 81/26/19 98/25/18
f 120/151/15 86/150/29 88/186/39 121/187/39
f 121/188/40 88/189/40 87/118/2 119/117/3
f 108/161/20 83/163/30 85/190/41 109/191/41
f 109/191/42 85/190/42 84/130/5 107/129/6
f 135/16/13 77/15/12 79/192/43 136/193/43
f 136/194/44 79/195/44 78/55/8 134/54/9
f 77/15/12 89/14/11 91/196/37 79/197/37
f 79/198/38 91/199/38 90/200/18 78/201/19
f 89/59/11 92/58/11 94/202/37 91/196/37
f 91/199/38 94/203/38 93/45/18 90/44/18
f 92/63/11 95/62/11 97/204/37 94/202/37
f 94/203/38 97/205/38 96/36/18 93/35/18
f 95/107/11 99/106/11 100/183/37 97/204/37
f 97/205/38 100/184/38 98/33/18 96/32/18
f 86/150/29 101/152/20 103/206/41 88/207/41
f 88/207/42 103/206/42 102/7/6 87/6/5
f 101/27/20 104/30/20 106/208/41 103/206/41
f 103/206/42 106/208/42 105/110/6 102/109/6
f 80/21/16 110/20/15 112/209/39 82/210/39
f 82/211/40 112/212/40 111/3/3 81/2/2
f 110/20/15 113/128/15 115/213/39 112/209/39
f 112/212/40 115/214/40 114/101/3 111/100/3
f 117/124/15 120/151/15 121/187/39 118/215/39
f 118/216/40 121/188/40 119/181/3 116/180/3
f 83/163/30 122/162/13 124/217/43 85/218/43
f 85/219/44 124/220/44 123/11/9 84/10/8
f 122/154/13 125/153/13 127/221/43 124/217/43
f 124/220/44 127/222/44 126/167/9 123/166/9
f 125/156/13 128/155/13 130/223/43 127/221/43
f 127/222/44 130/224/44 129/133/9 126/132/9
f 128/158/13 131/157/13 133/225/43 130/223/43
f 130/224/44 133/226/44 132/136/9 129/135/9
f 131/160/13 135/159/13 136/193/43 133/225/43
f 133/226/44 136/194/44 134/139/9 132/138/9
f 137/173/23 105/172/6 106/208/42 139/141/42
f 139/141/28 106/208/41 104/46/20 138/49/22
f 140/89/22 108/91/20 109/191/41 142/143/28
f 142/143/42 109/191/42 107/52/6 141/51/23
f 113/128/15 144/127/25 145/227/32 115/213/39
f 115/214/40 145/228/40 143/165/24 114/164/3
f 146/125/25 117/124/15 118/215/39 148/229/32
f 148/230/40 118/216/40 116/122/3 147/121/24
f 1/231/17 78/201/19 90/200/18 8/43/17
f 149/232/10 150/233/10 151/234/10 152/235/10
f 24/113/10 23/23/10 154/236/10 153/115/10 28/114/10
f 158/232/10 157/235/10 153/115/10 154/236/10
f 159/233/10 158/232/10 154/236/10 155/61/10
f 160/234/10 159/233/10 155/61/10 156/60/10
f 157/235/10 160/234/10 156/60/10 153/115/10
f 149/232/45 152/235/45 157/235/45 158/232/45
f 150/233/46 149/232/46 158/232/46 159/233/46
f 151/234/47 150/233/47 159/233/47 160/234/47
f 152/235/48 151/234/48 160/234/48 157/235/48
