# Blender 4.4.0
# www.blender.org
mtllib CanoComApoio.mtl
o Cylinder.003
v -10.361510 -0.000000 -0.634659
v -5.955798 0.000000 -0.634659
v -10.361510 -0.166263 -0.608951
v -5.955798 -0.166262 -0.608951
v -10.361510 -0.319056 -0.533909
v -5.955798 -0.319055 -0.533909
v -10.361510 -0.446000 -0.415613
v -5.955798 -0.446000 -0.415613
v -10.361510 -0.536813 -0.263647
v -5.955798 -0.536813 -0.263647
v -10.361510 -0.584136 -0.090321
v -5.955798 -0.584136 -0.090321
v -10.361510 -0.584136 0.090321
v -5.955798 -0.584136 0.090321
v -10.361510 -0.536813 0.263647
v -5.955798 -0.536813 0.263647
v -10.361510 -0.446000 0.415613
v -5.955798 -0.446000 0.415613
v -10.361510 -0.319056 0.533909
v -5.955798 -0.319055 0.533909
v -10.361510 -0.166263 0.608951
v -5.955798 -0.166262 0.608951
v -10.361510 -0.000000 0.634659
v -5.955798 0.000000 0.634659
v -10.361510 0.166262 0.608951
v -5.955798 0.166263 0.608951
v -10.361510 0.319055 0.533909
v -5.955798 0.319056 0.533909
v -10.361510 0.446000 0.415613
v -5.955798 0.446000 0.415613
v -10.361510 0.536813 0.263647
v -5.955798 0.536813 0.263647
v -10.361510 0.584136 0.090321
v -5.955798 0.584136 0.090321
v -10.361510 0.584136 -0.090321
v -5.955798 0.584136 -0.090321
v -10.361510 0.536813 -0.263647
v -5.955798 0.536813 -0.263647
v -10.361510 0.446000 -0.415613
v -5.955798 0.446000 -0.415613
v -10.361510 0.319055 -0.533909
v -5.955798 0.319056 -0.533909
v -10.361510 0.166262 -0.608951
v -5.955798 0.166263 -0.608951
v -10.361510 -0.000000 -0.538481
v -5.955798 0.000000 -0.538481
v -10.361510 -0.141067 -0.516669
v -5.955798 -0.141066 -0.516669
v -10.361510 -0.270705 -0.452999
v -5.955798 -0.270705 -0.452999
v -10.361510 -0.378412 -0.352630
v -5.955798 -0.378412 -0.352630
v -10.361510 -0.455463 -0.223693
v -5.955798 -0.455463 -0.223693
v -10.361510 -0.495615 -0.076634
v -5.955798 -0.495614 -0.076634
v -10.361510 -0.495615 0.076634
v -5.955798 -0.495614 0.076634
v -10.361510 -0.455463 0.223693
v -5.955798 -0.455463 0.223693
v -10.361510 -0.378412 0.352630
v -5.955798 -0.378412 0.352630
v -10.361510 -0.270705 0.452999
v -5.955798 -0.270705 0.452999
v -10.361510 -0.141067 0.516669
v -5.955798 -0.141066 0.516669
v -10.361510 -0.000000 0.538481
v -5.955798 0.000000 0.538481
v -10.361510 0.141066 0.516669
v -5.955798 0.141067 0.516669
v -10.361510 0.270705 0.452999
v -5.955798 0.270705 0.452999
v -10.361510 0.378412 0.352630
v -5.955798 0.378412 0.352630
v -10.361510 0.455463 0.223693
v -5.955798 0.455463 0.223693
v -10.361510 0.495614 0.076634
v -5.955798 0.495615 0.076634
v -10.361510 0.495614 -0.076634
v -5.955798 0.495615 -0.076634
v -10.361510 0.455463 -0.223693
v -5.955798 0.455463 -0.223693
v -10.361510 0.378412 -0.352630
v -5.955798 0.378412 -0.352630
v -10.361510 0.270705 -0.452999
v -5.955798 0.270705 -0.452999
v -10.361510 0.141066 -0.516669
v -5.955798 0.141067 -0.516669
vn -0.0000 -0.0000 -1.0000
vn -0.0000 -0.3011 -0.9536
vn -0.0000 -0.5686 -0.8226
vn -0.0000 -0.7787 -0.6274
vn -0.0000 -0.9204 -0.3909
vn -0.0000 -0.9912 -0.1325
vn -0.0000 -0.9912 0.1325
vn -0.0000 -0.9204 0.3909
vn -0.0000 -0.7787 0.6274
vn -0.0000 -0.5686 0.8226
vn -0.0000 -0.3011 0.9536
vn -0.0000 -0.0000 1.0000
vn -0.0000 0.3011 0.9536
vn -0.0000 0.5686 0.8226
vn -0.0000 0.7787 0.6274
vn -0.0000 0.9204 0.3909
vn -0.0000 0.9912 0.1325
vn -0.0000 0.9912 -0.1325
vn -0.0000 0.9204 -0.3909
vn -0.0000 0.7787 -0.6274
vn -0.0000 0.5686 -0.8226
vn -0.0000 0.3011 -0.9536
vn -1.0000 -0.0000 -0.0000
vn 1.0000 -0.0000 -0.0000
vt 1.000000 0.500000
vt 1.000000 1.000000
vt 0.954545 1.000000
vt 0.954545 0.500000
vt 0.909091 1.000000
vt 0.909091 0.500000
vt 0.863636 1.000000
vt 0.863636 0.500000
vt 0.818182 1.000000
vt 0.818182 0.500000
vt 0.772727 1.000000
vt 0.772727 0.500000
vt 0.727273 1.000000
vt 0.727273 0.500000
vt 0.681818 1.000000
vt 0.681818 0.500000
vt 0.636364 1.000000
vt 0.636364 0.500000
vt 0.590909 1.000000
vt 0.590909 0.500000
vt 0.545454 1.000000
vt 0.545454 0.500000
vt 0.500000 1.000000
vt 0.500000 0.500000
vt 0.454545 1.000000
vt 0.454545 0.500000
vt 0.409091 1.000000
vt 0.409091 0.500000
vt 0.363636 1.000000
vt 0.363636 0.500000
vt 0.318182 1.000000
vt 0.318182 0.500000
vt 0.272727 1.000000
vt 0.272727 0.500000
vt 0.227272 1.000000
vt 0.227272 0.500000
vt 0.181818 1.000000
vt 0.181818 0.500000
vt 0.136363 1.000000
vt 0.136363 0.500000
vt 0.090909 1.000000
vt 0.090909 0.500000
vt 0.045454 1.000000
vt 0.045454 0.500000
vt -0.000000 1.000000
vt -0.000000 0.500000
s 1
f 1/1/1 2/2/1 4/3/2 3/4/2
f 3/4/2 4/3/2 6/5/3 5/6/3
f 5/6/3 6/5/3 8/7/4 7/8/4
f 7/8/4 8/7/4 10/9/5 9/10/5
f 9/10/5 10/9/5 12/11/6 11/12/6
f 11/12/6 12/11/6 14/13/7 13/14/7
f 13/14/7 14/13/7 16/15/8 15/16/8
f 15/16/8 16/15/8 18/17/9 17/18/9
f 17/18/9 18/17/9 20/19/10 19/20/10
f 19/20/10 20/19/10 22/21/11 21/22/11
f 21/22/11 22/21/11 24/23/12 23/24/12
f 23/24/12 24/23/12 26/25/13 25/26/13
f 25/26/13 26/25/13 28/27/14 27/28/14
f 27/28/14 28/27/14 30/29/15 29/30/15
f 29/30/15 30/29/15 32/31/16 31/32/16
f 31/32/16 32/31/16 34/33/17 33/34/17
f 33/34/17 34/33/17 36/35/18 35/36/18
f 35/36/18 36/35/18 38/37/19 37/38/19
f 37/38/19 38/37/19 40/39/20 39/40/20
f 39/40/20 40/39/20 42/41/21 41/42/21
f 41/42/21 42/41/21 44/43/22 43/44/22
f 43/44/22 44/43/22 2/45/1 1/46/1
f 45/1/12 47/4/13 48/3/13 46/2/12
f 47/4/13 49/6/14 50/5/14 48/3/13
f 49/6/14 51/8/15 52/7/15 50/5/14
f 51/8/15 53/10/16 54/9/16 52/7/15
f 53/10/16 55/12/17 56/11/17 54/9/16
f 55/12/17 57/14/18 58/13/18 56/11/17
f 57/14/18 59/16/19 60/15/19 58/13/18
f 59/16/19 61/18/20 62/17/20 60/15/19
f 61/18/20 63/20/21 64/19/21 62/17/20
f 63/20/21 65/22/22 66/21/22 64/19/21
f 65/22/22 67/24/1 68/23/1 66/21/22
f 67/24/1 69/26/2 70/25/2 68/23/1
f 69/26/2 71/28/3 72/27/3 70/25/2
f 71/28/3 73/30/4 74/29/4 72/27/3
f 73/30/4 75/32/5 76/31/5 74/29/4
f 75/32/5 77/34/6 78/33/6 76/31/5
f 77/34/6 79/36/7 80/35/7 78/33/6
f 79/36/7 81/38/8 82/37/8 80/35/7
f 81/38/8 83/40/9 84/39/9 82/37/8
f 83/40/9 85/42/10 86/41/10 84/39/9
f 85/42/10 87/44/11 88/43/11 86/41/10
f 87/44/11 45/46/12 46/45/12 88/43/11
f 1/1/23 3/4/23 47/4/23 45/1/23
f 4/3/24 2/2/24 46/2/24 48/3/24
f 3/4/23 5/6/23 49/6/23 47/4/23
f 6/5/24 4/3/24 48/3/24 50/5/24
f 5/6/23 7/8/23 51/8/23 49/6/23
f 8/7/24 6/5/24 50/5/24 52/7/24
f 7/8/23 9/10/23 53/10/23 51/8/23
f 10/9/24 8/7/24 52/7/24 54/9/24
f 9/10/23 11/12/23 55/12/23 53/10/23
f 12/11/24 10/9/24 54/9/24 56/11/24
f 11/12/23 13/14/23 57/14/23 55/12/23
f 14/13/24 12/11/24 56/11/24 58/13/24
f 13/14/23 15/16/23 59/16/23 57/14/23
f 16/15/24 14/13/24 58/13/24 60/15/24
f 15/16/23 17/18/23 61/18/23 59/16/23
f 18/17/24 16/15/24 60/15/24 62/17/24
f 17/18/23 19/20/23 63/20/23 61/18/23
f 20/19/24 18/17/24 62/17/24 64/19/24
f 19/20/23 21/22/23 65/22/23 63/20/23
f 22/21/24 20/19/24 64/19/24 66/21/24
f 21/22/23 23/24/23 67/24/23 65/22/23
f 24/23/24 22/21/24 66/21/24 68/23/24
f 23/24/23 25/26/23 69/26/23 67/24/23
f 26/25/24 24/23/24 68/23/24 70/25/24
f 25/26/23 27/28/23 71/28/23 69/26/23
f 28/27/24 26/25/24 70/25/24 72/27/24
f 27/28/23 29/30/23 73/30/23 71/28/23
f 30/29/24 28/27/24 72/27/24 74/29/24
f 29/30/23 31/32/23 75/32/23 73/30/23
f 32/31/24 30/29/24 74/29/24 76/31/24
f 31/32/23 33/34/23 77/34/23 75/32/23
f 34/33/24 32/31/24 76/31/24 78/33/24
f 33/34/23 35/36/23 79/36/23 77/34/23
f 36/35/24 34/33/24 78/33/24 80/35/24
f 35/36/23 37/38/23 81/38/23 79/36/23
f 38/37/24 36/35/24 80/35/24 82/37/24
f 37/38/23 39/40/23 83/40/23 81/38/23
f 40/39/24 38/37/24 82/37/24 84/39/24
f 39/40/23 41/42/23 85/42/23 83/40/23
f 42/41/24 40/39/24 84/39/24 86/41/24
f 41/42/23 43/44/23 87/44/23 85/42/23
f 44/43/24 42/41/24 86/41/24 88/43/24
f 43/44/23 1/46/23 45/46/23 87/44/23
f 2/45/24 44/43/24 88/43/24 46/45/24
o Plane.014
v -9.667108 -0.025235 1.000000
v -9.466882 -0.025235 1.000000
v -9.667108 -0.025235 -1.000000
v -9.466882 -0.025235 -1.000000
v -9.667108 0.480137 0.408635
v -9.667108 0.480137 -0.408635
v -9.466882 0.480137 -0.408635
v -9.466882 0.480137 0.408635
v -9.667108 -0.025235 1.355700
v -9.466882 -0.025235 1.355700
v -9.667108 -0.025235 -1.355700
v -9.466882 -0.025235 -1.355700
v -9.667108 0.579530 0.207189
v -9.667108 0.619275 0.086325
v -9.667108 0.595260 0.169907
v -9.667108 0.609808 0.125667
v -9.466882 0.619275 0.086325
v -9.466882 0.579530 0.207189
v -9.466882 0.609808 0.125667
v -9.466882 0.595260 0.169907
v -9.466882 0.624358 -0.057916
v -9.466882 0.624358 0.057916
v -9.466882 0.628151 -0.021199
v -9.466882 0.628151 0.021199
v -9.667108 0.624358 0.057916
v -9.667108 0.624358 -0.057916
v -9.667108 0.628151 0.021199
v -9.667108 0.628151 -0.021199
v -9.667108 0.619354 -0.085880
v -9.667108 0.579330 -0.207595
v -9.667108 0.609821 -0.125499
v -9.667108 0.595171 -0.170050
v -9.466882 0.579330 -0.207595
v -9.466882 0.619354 -0.085880
v -9.466882 0.595171 -0.170050
v -9.466882 0.609821 -0.125499
v -9.667108 -0.034616 0.996537
v -9.466882 -0.034616 0.996537
v -9.667108 -0.034616 -0.996537
v -9.466882 -0.034616 -0.996537
v -9.667108 0.471788 0.403132
v -9.667108 0.471788 -0.403132
v -9.466882 0.471788 -0.403132
v -9.466882 0.471788 0.403132
v -9.667108 -0.035235 1.355700
v -9.466882 -0.035235 1.355700
v -9.667108 -0.035235 -1.355700
v -9.466882 -0.035235 -1.355700
v -9.667108 0.570435 0.203031
v -9.667108 0.609487 0.084274
v -9.667108 0.585896 0.166398
v -9.667108 0.600189 0.122933
v -9.466882 0.609487 0.084274
v -9.466882 0.570435 0.203031
v -9.466882 0.600189 0.122933
v -9.466882 0.585896 0.166398
v -9.466882 0.614456 -0.056521
v -9.466882 0.614456 0.056521
v -9.466882 0.618164 -0.020684
v -9.466882 0.618164 0.020684
v -9.667108 0.614456 0.056521
v -9.667108 0.614456 -0.056521
v -9.667108 0.618164 0.020684
v -9.667108 0.618164 -0.020684
v -9.667108 0.609567 -0.083828
v -9.667108 0.570235 -0.203437
v -9.667108 0.600202 -0.122765
v -9.667108 0.585807 -0.166541
v -9.466882 0.570235 -0.203437
v -9.466882 0.609567 -0.083828
v -9.466882 0.585807 -0.166541
v -9.466882 0.600202 -0.122765
vn -0.0000 0.8350 -0.5503
vn -0.0000 0.7602 -0.6497
vn -0.0000 0.9787 -0.2051
vn -0.0000 0.9902 -0.1395
vn -0.0000 0.9095 0.4158
vn -0.0000 0.8350 0.5503
vn -0.0000 0.7602 0.6497
vn -0.0000 1.0000 -0.0000
vn -0.0000 0.9902 0.1395
vn -0.0000 0.9787 0.2051
vn -0.0000 0.9364 0.3509
vn -0.0000 0.9619 0.2734
vn -0.0000 0.9987 0.0514
vn -0.0000 0.9987 -0.0514
vn -0.0000 0.9619 -0.2734
vn -0.0000 0.9364 -0.3509
vn -0.0000 0.9095 -0.4158
vn -0.0000 -0.8352 0.5499
vn -0.0000 -0.7607 0.6491
vn -0.0000 -0.9787 0.2051
vn -0.0000 -0.9902 0.1397
vn -0.0000 -0.9095 -0.4157
vn -0.0000 -0.8352 -0.5499
vn -0.0000 -0.7607 -0.6491
vn -0.0000 -1.0000 -0.0017
vn -0.0000 -1.0000 0.0017
vn -0.0000 -0.9902 -0.1397
vn -0.0000 -0.9787 -0.2051
vn -0.0000 -0.9364 -0.3509
vn -0.0000 -0.9619 -0.2733
vn -0.0000 -0.9987 -0.0515
vn -0.0000 -0.9987 0.0515
vn -0.0000 -0.9619 0.2733
vn -0.0000 -0.9364 0.3509
vn -0.0000 -0.9095 0.4157
vn -1.0000 -0.0000 -0.0000
vn 1.0000 -0.0000 -0.0000
vn -0.0000 -0.0000 1.0000
vn -0.0000 -0.0000 -1.0000
vt 0.000000 0.704317
vt 1.000000 0.704317
vt 1.000000 1.000000
vt 0.000000 1.000000
vt 1.000000 0.556207
vt 0.000000 0.556207
vt 0.000000 0.537905
vt 1.000000 0.537905
vt 1.000000 0.378438
vt 0.000000 0.378438
vt 0.000000 0.295683
vt 1.000000 0.295683
vt 0.000000 0.000000
vt 1.000000 0.000000
vt 1.000000 0.462095
vt 0.000000 0.462095
vt 0.000000 0.443501
vt 1.000000 0.443501
vt 1.000000 0.393319
vt 0.000000 0.393319
vt 1.000000 0.417477
vt 0.000000 0.417477
vt 1.000000 0.485811
vt 0.000000 0.485811
vt 1.000000 0.514189
vt 0.000000 0.514189
vt 1.000000 0.582415
vt 0.000000 0.582415
vt 1.000000 0.606743
vt 0.000000 0.606743
vt 1.000000 0.621729
vt 0.000000 0.621729
s 1
f 94/47/25 95/48/25 92/49/26 91/50/26
f 122/51/27 117/52/27 114/53/28 109/54/28
f 106/55/29 101/56/29 93/57/30 96/58/30
f 89/59/31 90/60/31 96/58/30 93/57/30
f 90/60/32 89/59/32 97/59/32 98/60/32
f 91/50/32 92/49/32 100/49/32 99/50/32
f 110/61/33 113/62/33 102/63/34 105/64/34
f 101/56/29 106/55/29 108/65/35 103/66/35
f 103/66/35 108/65/35 107/67/36 104/68/36
f 104/68/36 107/67/36 105/64/34 102/63/34
f 113/62/33 110/61/33 112/69/37 115/70/37
f 115/70/37 112/69/37 111/71/38 116/72/38
f 116/72/38 111/71/38 109/54/28 114/53/28
f 117/52/27 122/51/27 124/73/39 119/74/39
f 119/74/39 124/73/39 123/75/40 120/76/40
f 120/76/40 123/75/40 121/77/41 118/78/41
f 95/48/25 94/47/25 118/78/41 121/77/41
f 130/47/42 127/50/43 128/49/43 131/48/42
f 158/51/44 145/54/45 150/53/45 153/52/44
f 142/55/46 132/58/47 129/57/47 137/56/46
f 125/59/48 129/57/47 132/58/47 126/60/48
f 126/60/49 134/60/49 133/59/49 125/59/49
f 127/50/50 135/50/50 136/49/50 128/49/50
f 146/61/51 141/64/52 138/63/52 149/62/51
f 137/56/46 139/66/53 144/65/53 142/55/46
f 139/66/53 140/68/54 143/67/54 144/65/53
f 140/68/54 138/63/52 141/64/52 143/67/54
f 149/62/51 151/70/55 148/69/55 146/61/51
f 151/70/55 152/72/56 147/71/56 148/69/55
f 152/72/56 150/53/45 145/54/45 147/71/56
f 153/52/44 155/74/57 160/73/57 158/51/44
f 155/74/57 156/76/58 159/75/58 160/73/57
f 156/76/58 154/78/59 157/77/59 159/75/58
f 131/48/42 157/77/59 154/78/59 130/47/42
f 89/59/60 93/57/60 129/57/60 125/59/60
f 96/58/61 90/60/61 126/60/61 132/58/61
f 94/47/60 91/50/60 127/50/60 130/47/60
f 92/49/61 95/48/61 131/48/61 128/49/61
f 98/60/62 97/59/62 133/59/62 134/60/62
f 90/60/61 98/60/61 134/60/61 126/60/61
f 97/59/60 89/59/60 125/59/60 133/59/60
f 99/50/63 100/49/63 136/49/63 135/50/63
f 91/50/60 99/50/60 135/50/60 127/50/60
f 100/49/61 92/49/61 128/49/61 136/49/61
f 101/56/60 103/66/60 139/66/60 137/56/60
f 108/65/61 106/55/61 142/55/61 144/65/61
f 103/66/60 104/68/60 140/68/60 139/66/60
f 107/67/61 108/65/61 144/65/61 143/67/61
f 104/68/60 102/63/60 138/63/60 140/68/60
f 105/64/61 107/67/61 143/67/61 141/64/61
f 106/55/61 96/58/61 132/58/61 142/55/61
f 93/57/60 101/56/60 137/56/60 129/57/60
f 113/62/60 115/70/60 151/70/60 149/62/60
f 112/69/61 110/61/61 146/61/61 148/69/61
f 115/70/60 116/72/60 152/72/60 151/70/60
f 111/71/61 112/69/61 148/69/61 147/71/61
f 116/72/60 114/53/60 150/53/60 152/72/60
f 109/54/61 111/71/61 147/71/61 145/54/61
f 110/61/61 105/64/61 141/64/61 146/61/61
f 102/63/60 113/62/60 149/62/60 138/63/60
f 117/52/60 119/74/60 155/74/60 153/52/60
f 124/73/61 122/51/61 158/51/61 160/73/61
f 119/74/60 120/76/60 156/76/60 155/74/60
f 123/75/61 124/73/61 160/73/61 159/75/61
f 120/76/60 118/78/60 154/78/60 156/76/60
f 121/77/61 123/75/61 159/75/61 157/77/61
f 95/48/61 121/77/61 157/77/61 131/48/61
f 118/78/60 94/47/60 130/47/60 154/78/60
f 122/51/61 109/54/61 145/54/61 158/51/61
f 114/53/60 117/52/60 153/52/60 150/53/60
o Plane.013
v -6.951365 -0.025235 1.000000
v -6.751139 -0.025235 1.000000
v -6.951365 -0.025235 -1.000000
v -6.751139 -0.025235 -1.000000
v -6.951365 0.480137 0.408635
v -6.951365 0.480137 -0.408635
v -6.751139 0.480137 -0.408635
v -6.751139 0.480137 0.408635
v -6.951365 -0.025235 1.355700
v -6.751139 -0.025235 1.355700
v -6.951365 -0.025235 -1.355700
v -6.751139 -0.025235 -1.355700
v -6.951365 0.579530 0.207189
v -6.951365 0.619275 0.086325
v -6.951365 0.595260 0.169907
v -6.951365 0.609808 0.125667
v -6.751139 0.619275 0.086325
v -6.751139 0.579530 0.207189
v -6.751139 0.609808 0.125667
v -6.751139 0.595260 0.169907
v -6.751139 0.624358 -0.057916
v -6.751139 0.624358 0.057916
v -6.751139 0.628151 -0.021199
v -6.751139 0.628151 0.021199
v -6.951365 0.624358 0.057916
v -6.951365 0.624358 -0.057916
v -6.951365 0.628151 0.021199
v -6.951365 0.628151 -0.021199
v -6.951365 0.619354 -0.085880
v -6.951365 0.579330 -0.207595
v -6.951365 0.609821 -0.125499
v -6.951365 0.595171 -0.170050
v -6.751139 0.579330 -0.207595
v -6.751139 0.619354 -0.085880
v -6.751139 0.595171 -0.170050
v -6.751139 0.609821 -0.125499
v -6.951365 -0.034616 0.996537
v -6.751139 -0.034616 0.996537
v -6.951365 -0.034616 -0.996537
v -6.751139 -0.034616 -0.996537
v -6.951365 0.471788 0.403132
v -6.951365 0.471788 -0.403132
v -6.751139 0.471788 -0.403132
v -6.751139 0.471788 0.403132
v -6.951365 -0.035235 1.355700
v -6.751139 -0.035235 1.355700
v -6.951365 -0.035235 -1.355700
v -6.751139 -0.035235 -1.355700
v -6.951365 0.570435 0.203031
v -6.951365 0.609487 0.084274
v -6.951365 0.585896 0.166398
v -6.951365 0.600189 0.122933
v -6.751139 0.609487 0.084274
v -6.751139 0.570435 0.203031
v -6.751139 0.600189 0.122933
v -6.751139 0.585896 0.166398
v -6.751139 0.614456 -0.056521
v -6.751139 0.614456 0.056521
v -6.751139 0.618164 -0.020684
v -6.751139 0.618164 0.020684
v -6.951365 0.614456 0.056521
v -6.951365 0.614456 -0.056521
v -6.951365 0.618164 0.020684
v -6.951365 0.618164 -0.020684
v -6.951365 0.609567 -0.083828
v -6.951365 0.570235 -0.203437
v -6.951365 0.600202 -0.122765
v -6.951365 0.585807 -0.166541
v -6.751139 0.570235 -0.203437
v -6.751139 0.609567 -0.083828
v -6.751139 0.585807 -0.166541
v -6.751139 0.600202 -0.122765
vn -0.0000 0.8350 -0.5503
vn -0.0000 0.7602 -0.6497
vn -0.0000 0.9787 -0.2051
vn -0.0000 0.9902 -0.1395
vn -0.0000 0.9095 0.4158
vn -0.0000 0.8350 0.5503
vn -0.0000 0.7602 0.6497
vn -0.0000 1.0000 -0.0000
vn -0.0000 0.9902 0.1395
vn -0.0000 0.9787 0.2051
vn -0.0000 0.9364 0.3509
vn -0.0000 0.9619 0.2734
vn -0.0000 0.9987 0.0514
vn -0.0000 0.9987 -0.0514
vn -0.0000 0.9619 -0.2734
vn -0.0000 0.9364 -0.3509
vn -0.0000 0.9095 -0.4158
vn -0.0000 -0.8352 0.5499
vn -0.0000 -0.7607 0.6491
vn -0.0000 -0.9787 0.2051
vn -0.0000 -0.9902 0.1397
vn -0.0000 -0.9095 -0.4157
vn -0.0000 -0.8352 -0.5499
vn -0.0000 -0.7607 -0.6491
vn -0.0000 -1.0000 -0.0017
vn -0.0000 -1.0000 0.0017
vn -0.0000 -0.9902 -0.1397
vn -0.0000 -0.9787 -0.2051
vn -0.0000 -0.9364 -0.3509
vn -0.0000 -0.9619 -0.2733
vn -0.0000 -0.9987 -0.0515
vn -0.0000 -0.9987 0.0515
vn -0.0000 -0.9619 0.2733
vn -0.0000 -0.9364 0.3509
vn -0.0000 -0.9095 0.4157
vn -1.0000 -0.0000 -0.0000
vn 1.0000 -0.0000 -0.0000
vn -0.0000 -0.0000 1.0000
vn -0.0000 -0.0000 -1.0000
vt 0.000000 0.704317
vt 1.000000 0.704317
vt 1.000000 1.000000
vt 0.000000 1.000000
vt 1.000000 0.556207
vt 0.000000 0.556207
vt 0.000000 0.537905
vt 1.000000 0.537905
vt 1.000000 0.378438
vt 0.000000 0.378438
vt 0.000000 0.295683
vt 1.000000 0.295683
vt 0.000000 0.000000
vt 1.000000 0.000000
vt 1.000000 0.462095
vt 0.000000 0.462095
vt 0.000000 0.443501
vt 1.000000 0.443501
vt 1.000000 0.393319
vt 0.000000 0.393319
vt 1.000000 0.417477
vt 0.000000 0.417477
vt 1.000000 0.485811
vt 0.000000 0.485811
vt 1.000000 0.514189
vt 0.000000 0.514189
vt 1.000000 0.582415
vt 0.000000 0.582415
vt 1.000000 0.606743
vt 0.000000 0.606743
vt 1.000000 0.621729
vt 0.000000 0.621729
s 1
f 166/79/64 167/80/64 164/81/65 163/82/65
f 194/83/66 189/84/66 186/85/67 181/86/67
f 178/87/68 173/88/68 165/89/69 168/90/69
f 161/91/70 162/92/70 168/90/69 165/89/69
f 162/92/71 161/91/71 169/91/71 170/92/71
f 163/82/71 164/81/71 172/81/71 171/82/71
f 182/93/72 185/94/72 174/95/73 177/96/73
f 173/88/68 178/87/68 180/97/74 175/98/74
f 175/98/74 180/97/74 179/99/75 176/100/75
f 176/100/75 179/99/75 177/96/73 174/95/73
f 185/94/72 182/93/72 184/101/76 187/102/76
f 187/102/76 184/101/76 183/103/77 188/104/77
f 188/104/77 183/103/77 181/86/67 186/85/67
f 189/84/66 194/83/66 196/105/78 191/106/78
f 191/106/78 196/105/78 195/107/79 192/108/79
f 192/108/79 195/107/79 193/109/80 190/110/80
f 167/80/64 166/79/64 190/110/80 193/109/80
f 202/79/81 199/82/82 200/81/82 203/80/81
f 230/83/83 217/86/84 222/85/84 225/84/83
f 214/87/85 204/90/86 201/89/86 209/88/85
f 197/91/87 201/89/86 204/90/86 198/92/87
f 198/92/88 206/92/88 205/91/88 197/91/88
f 199/82/89 207/82/89 208/81/89 200/81/89
f 218/93/90 213/96/91 210/95/91 221/94/90
f 209/88/85 211/98/92 216/97/92 214/87/85
f 211/98/92 212/100/93 215/99/93 216/97/92
f 212/100/93 210/95/91 213/96/91 215/99/93
f 221/94/90 223/102/94 220/101/94 218/93/90
f 223/102/94 224/104/95 219/103/95 220/101/94
f 224/104/95 222/85/84 217/86/84 219/103/95
f 225/84/83 227/106/96 232/105/96 230/83/83
f 227/106/96 228/108/97 231/107/97 232/105/96
f 228/108/97 226/110/98 229/109/98 231/107/97
f 203/80/81 229/109/98 226/110/98 202/79/81
f 161/91/99 165/89/99 201/89/99 197/91/99
f 168/90/100 162/92/100 198/92/100 204/90/100
f 166/79/99 163/82/99 199/82/99 202/79/99
f 164/81/100 167/80/100 203/80/100 200/81/100
f 170/92/101 169/91/101 205/91/101 206/92/101
f 162/92/100 170/92/100 206/92/100 198/92/100
f 169/91/99 161/91/99 197/91/99 205/91/99
f 171/82/102 172/81/102 208/81/102 207/82/102
f 163/82/99 171/82/99 207/82/99 199/82/99
f 172/81/100 164/81/100 200/81/100 208/81/100
f 173/88/99 175/98/99 211/98/99 209/88/99
f 180/97/100 178/87/100 214/87/100 216/97/100
f 175/98/99 176/100/99 212/100/99 211/98/99
f 179/99/100 180/97/100 216/97/100 215/99/100
f 176/100/99 174/95/99 210/95/99 212/100/99
f 177/96/100 179/99/100 215/99/100 213/96/100
f 178/87/100 168/90/100 204/90/100 214/87/100
f 165/89/99 173/88/99 209/88/99 201/89/99
f 185/94/99 187/102/99 223/102/99 221/94/99
f 184/101/100 182/93/100 218/93/100 220/101/100
f 187/102/99 188/104/99 224/104/99 223/102/99
f 183/103/100 184/101/100 220/101/100 219/103/100
f 188/104/99 186/85/99 222/85/99 224/104/99
f 181/86/100 183/103/100 219/103/100 217/86/100
f 182/93/100 177/96/100 213/96/100 218/93/100
f 174/95/99 185/94/99 221/94/99 210/95/99
f 189/84/99 191/106/99 227/106/99 225/84/99
f 196/105/100 194/83/100 230/83/100 232/105/100
f 191/106/99 192/108/99 228/108/99 227/106/99
f 195/107/100 196/105/100 232/105/100 231/107/100
f 192/108/99 190/110/99 226/110/99 228/108/99
f 193/109/100 195/107/100 231/107/100 229/109/100
f 167/80/100 193/109/100 229/109/100 203/80/100
f 190/110/99 166/79/99 202/79/99 226/110/99
f 194/83/100 181/86/100 217/86/100 230/83/100
f 186/85/99 189/84/99 225/84/99 222/85/99
