# Blender 4.4.0
# www.blender.org
mtllib CanoLongo.mtl
o Cylinder.002
v -2.505432 3.180689 -2.096832
v 14.967231 3.180689 -2.096833
v -2.505432 3.178609 -2.113205
v 14.967231 3.178609 -2.113206
v -2.505432 3.172449 -2.128949
v 14.967231 3.172449 -2.128949
v -2.505432 3.162447 -2.143458
v 14.967231 3.162447 -2.143459
v -2.505432 3.148986 -2.156176
v 14.967231 3.148986 -2.156177
v -2.505432 3.132583 -2.166613
v 14.967231 3.132583 -2.166614
v -2.505432 3.113870 -2.174369
v 14.967231 3.113870 -2.174369
v -2.505432 3.093565 -2.179144
v 14.967231 3.093565 -2.179145
v -2.505432 3.072448 -2.180757
v 14.967231 3.072448 -2.180758
v -2.505432 3.051332 -2.179144
v 14.967231 3.051332 -2.179145
v -2.505432 3.031027 -2.174369
v 14.967231 3.031026 -2.174369
v -2.505432 3.012313 -2.166613
v 14.967231 3.012313 -2.166614
v -2.505432 2.995911 -2.156176
v 14.967231 2.995911 -2.156177
v -2.505432 2.982450 -2.143458
v 14.967231 2.982450 -2.143459
v -2.505432 2.972447 -2.128949
v 14.967231 2.972447 -2.128949
v -2.505432 2.966288 -2.113205
v 14.967231 2.966288 -2.113206
v -2.505432 2.964208 -2.096832
v 14.967231 2.964208 -2.096833
v -2.505432 2.966288 -2.080459
v 14.967231 2.966288 -2.080460
v -2.505432 2.972447 -2.064715
v 14.967231 2.972447 -2.064716
v -2.505432 2.982450 -2.050206
v 14.967231 2.982450 -2.050207
v -2.505432 2.995911 -2.037488
v 14.967231 2.995911 -2.037489
v -2.505432 3.012313 -2.027051
v 14.967231 3.012313 -2.027052
v -2.505432 3.031027 -2.019295
v 14.967231 3.031026 -2.019296
v -2.505432 3.051332 -2.014520
v 14.967231 3.051332 -2.014520
v -2.505432 3.072448 -2.012907
v 14.967231 3.072448 -2.012908
v -2.505432 3.093565 -2.014520
v 14.967231 3.093565 -2.014520
v -2.505432 3.113870 -2.019295
v 14.967231 3.113870 -2.019296
v -2.505432 3.132583 -2.027051
v 14.967231 3.132583 -2.027052
v -2.505432 3.148986 -2.037488
v 14.967231 3.148986 -2.037489
v -2.505432 3.162447 -2.050206
v 14.967231 3.162447 -2.050207
v -2.505432 3.172449 -2.064715
v 14.967231 3.172449 -2.064716
v -2.505432 3.178609 -2.080459
v 14.967231 3.178609 -2.080460
v -0.917008 3.193576 -2.096832
v 0.671417 3.193576 -2.096832
v 2.259839 3.193576 -2.096832
v 3.848264 3.193576 -2.096832
v 5.436687 3.193576 -2.096832
v 7.025111 3.193576 -2.096833
v 8.613535 3.193576 -2.096833
v 10.201959 3.193576 -2.096833
v 11.790382 3.193576 -2.096833
v 13.378807 3.193576 -2.096833
v 13.378807 3.191249 -2.115155
v 11.790383 3.191249 -2.115155
v 10.201960 3.191249 -2.115155
v 8.613536 3.191249 -2.115155
v 7.025112 3.191249 -2.115155
v 5.436688 3.191249 -2.115155
v 3.848264 3.191249 -2.115155
v 2.259840 3.191249 -2.115155
v 0.671417 3.191249 -2.115155
v -0.917008 3.191249 -2.115155
v 13.378807 3.184356 -2.132773
v 11.790383 3.184356 -2.132773
v 10.201960 3.184356 -2.132773
v 8.613536 3.184356 -2.132773
v 7.025112 3.184356 -2.132773
v 5.436688 3.184356 -2.132773
v 3.848264 3.184356 -2.132773
v 2.259840 3.184356 -2.132773
v 0.671417 3.184356 -2.132773
v -0.917008 3.184356 -2.132773
v 13.378807 3.173162 -2.149010
v 11.790383 3.173162 -2.149010
v 10.201960 3.173162 -2.149010
v 8.613536 3.173162 -2.149010
v 7.025112 3.173162 -2.149010
v 5.436688 3.173162 -2.149010
v 3.848264 3.173162 -2.149010
v 2.259840 3.173162 -2.149010
v 0.671417 3.173162 -2.149010
v -0.917008 3.173162 -2.149010
v 13.378807 3.158098 -2.163242
v 11.790383 3.158098 -2.163242
v 10.201960 3.158099 -2.163242
v 8.613536 3.158099 -2.163242
v 7.025112 3.158099 -2.163242
v 5.436688 3.158099 -2.163242
v 3.848264 3.158099 -2.163242
v 2.259840 3.158099 -2.163242
v 0.671417 3.158099 -2.163242
v -0.917008 3.158099 -2.163242
v 13.378807 3.139743 -2.174922
v 11.790383 3.139743 -2.174922
v 10.201960 3.139743 -2.174922
v 8.613536 3.139743 -2.174922
v 7.025112 3.139743 -2.174922
v 5.436688 3.139743 -2.174922
v 3.848264 3.139743 -2.174922
v 2.259840 3.139743 -2.174922
v 0.671417 3.139743 -2.174922
v -0.917008 3.139743 -2.174922
v 13.378807 3.118802 -2.183601
v 11.790383 3.118802 -2.183601
v 10.201960 3.118802 -2.183601
v 8.613536 3.118802 -2.183601
v 7.025112 3.118802 -2.183601
v 5.436688 3.118802 -2.183601
v 3.848264 3.118802 -2.183601
v 2.259840 3.118802 -2.183601
v 0.671417 3.118802 -2.183601
v -0.917008 3.118802 -2.183600
v 13.378807 3.096079 -2.188946
v 11.790383 3.096079 -2.188946
v 10.201960 3.096079 -2.188946
v 8.613536 3.096079 -2.188945
v 7.025112 3.096079 -2.188945
v 5.436688 3.096079 -2.188945
v 3.848264 3.096079 -2.188945
v 2.259840 3.096079 -2.188945
v 0.671417 3.096079 -2.188945
v -0.917008 3.096079 -2.188945
v 13.378807 3.072448 -2.190750
v 11.790383 3.072448 -2.190750
v 10.201960 3.072448 -2.190750
v 8.613536 3.072448 -2.190750
v 7.025112 3.072448 -2.190750
v 5.436688 3.072448 -2.190750
v 3.848264 3.072448 -2.190750
v 2.259840 3.072448 -2.190750
v 0.671417 3.072448 -2.190750
v -0.917008 3.072448 -2.190750
v 13.378807 3.048817 -2.188946
v 11.790383 3.048817 -2.188946
v 10.201960 3.048817 -2.188946
v 8.613536 3.048817 -2.188945
v 7.025112 3.048817 -2.188945
v 5.436688 3.048817 -2.188945
v 3.848264 3.048817 -2.188945
v 2.259840 3.048817 -2.188945
v 0.671417 3.048817 -2.188945
v -0.917008 3.048817 -2.188945
v 13.378807 3.026095 -2.183601
v 11.790383 3.026095 -2.183601
v 10.201960 3.026095 -2.183601
v 8.613536 3.026095 -2.183601
v 7.025112 3.026095 -2.183601
v 5.436688 3.026095 -2.183601
v 3.848264 3.026095 -2.183601
v 2.259840 3.026095 -2.183601
v 0.671417 3.026095 -2.183601
v -0.917008 3.026095 -2.183600
v 13.378807 3.005153 -2.174922
v 11.790383 3.005153 -2.174922
v 10.201960 3.005153 -2.174922
v 8.613536 3.005153 -2.174922
v 7.025112 3.005153 -2.174922
v 5.436688 3.005153 -2.174922
v 3.848264 3.005153 -2.174922
v 2.259840 3.005153 -2.174922
v 0.671417 3.005153 -2.174922
v -0.917008 3.005153 -2.174922
v 13.378807 2.986798 -2.163242
v 11.790383 2.986798 -2.163242
v 10.201960 2.986798 -2.163242
v 8.613536 2.986798 -2.163242
v 7.025112 2.986798 -2.163242
v 5.436688 2.986798 -2.163242
v 3.848264 2.986798 -2.163242
v 2.259840 2.986798 -2.163242
v 0.671417 2.986798 -2.163242
v -0.917008 2.986798 -2.163242
v 13.378807 2.971734 -2.149010
v 11.790383 2.971734 -2.149010
v 10.201960 2.971734 -2.149010
v 8.613536 2.971734 -2.149010
v 7.025112 2.971734 -2.149010
v 5.436688 2.971734 -2.149010
v 3.848264 2.971734 -2.149010
v 2.259840 2.971734 -2.149010
v 0.671417 2.971734 -2.149010
v -0.917008 2.971734 -2.149010
v 13.378807 2.960541 -2.132773
v 11.790383 2.960541 -2.132773
v 10.201960 2.960541 -2.132773
v 8.613536 2.960541 -2.132773
v 7.025112 2.960541 -2.132773
v 5.436688 2.960541 -2.132773
v 3.848264 2.960541 -2.132773
v 2.259840 2.960541 -2.132773
v 0.671417 2.960541 -2.132773
v -0.917008 2.960541 -2.132773
v 13.378807 2.953648 -2.115155
v 11.790383 2.953648 -2.115155
v 10.201960 2.953648 -2.115155
v 8.613536 2.953648 -2.115155
v 7.025112 2.953648 -2.115155
v 5.436688 2.953648 -2.115155
v 3.848264 2.953648 -2.115155
v 2.259840 2.953648 -2.115155
v 0.671417 2.953648 -2.115155
v -0.917008 2.953648 -2.115155
v 13.378807 2.951320 -2.096833
v 11.790383 2.951320 -2.096833
v 10.201960 2.951320 -2.096833
v 8.613536 2.951320 -2.096833
v 7.025112 2.951320 -2.096833
v 5.436688 2.951320 -2.096832
v 3.848264 2.951320 -2.096832
v 2.259840 2.951320 -2.096832
v 0.671417 2.951320 -2.096832
v -0.917008 2.951320 -2.096832
v 13.378807 2.953648 -2.078510
v 11.790383 2.953648 -2.078510
v 10.201960 2.953648 -2.078510
v 8.613536 2.953648 -2.078510
v 7.025112 2.953648 -2.078510
v 5.436688 2.953648 -2.078510
v 3.848264 2.953648 -2.078510
v 2.259840 2.953648 -2.078510
v 0.671417 2.953648 -2.078510
v -0.917008 2.953648 -2.078510
v 13.378807 2.960541 -2.060892
v 11.790383 2.960541 -2.060892
v 10.201960 2.960541 -2.060892
v 8.613536 2.960541 -2.060892
v 7.025112 2.960541 -2.060892
v 5.436688 2.960541 -2.060892
v 3.848264 2.960541 -2.060892
v 2.259840 2.960541 -2.060892
v 0.671417 2.960541 -2.060892
v -0.917008 2.960541 -2.060891
v 13.378807 2.971734 -2.044655
v 11.790383 2.971734 -2.044655
v 10.201960 2.971734 -2.044655
v 8.613536 2.971734 -2.044655
v 7.025112 2.971734 -2.044655
v 5.436688 2.971734 -2.044655
v 3.848264 2.971734 -2.044655
v 2.259840 2.971734 -2.044655
v 0.671417 2.971734 -2.044654
v -0.917008 2.971734 -2.044654
v 13.378807 2.986798 -2.030423
v 11.790383 2.986798 -2.030423
v 10.201960 2.986798 -2.030423
v 8.613536 2.986798 -2.030423
v 7.025112 2.986798 -2.030423
v 5.436688 2.986798 -2.030423
v 3.848264 2.986798 -2.030423
v 2.259840 2.986798 -2.030423
v 0.671417 2.986798 -2.030422
v -0.917008 2.986798 -2.030422
v 13.378807 3.005153 -2.018743
v 11.790383 3.005153 -2.018743
v 10.201960 3.005153 -2.018743
v 8.613536 3.005153 -2.018743
v 7.025112 3.005153 -2.018743
v 5.436688 3.005153 -2.018743
v 3.848264 3.005153 -2.018743
v 2.259840 3.005153 -2.018743
v 0.671417 3.005153 -2.018743
v -0.917008 3.005153 -2.018743
v 13.378807 3.026095 -2.010064
v 11.790383 3.026095 -2.010064
v 10.201960 3.026095 -2.010064
v 8.613536 3.026095 -2.010064
v 7.025112 3.026095 -2.010064
v 5.436688 3.026095 -2.010064
v 3.848264 3.026095 -2.010064
v 2.259840 3.026095 -2.010064
v 0.671417 3.026095 -2.010064
v -0.917008 3.026095 -2.010064
v 13.378807 3.048817 -2.004720
v 11.790383 3.048817 -2.004720
v 10.201960 3.048817 -2.004720
v 8.613536 3.048817 -2.004720
v 7.025112 3.048817 -2.004720
v 5.436688 3.048817 -2.004719
v 3.848264 3.048817 -2.004719
v 2.259840 3.048817 -2.004719
v 0.671417 3.048817 -2.004719
v -0.917008 3.048817 -2.004719
v 13.378807 3.072448 -2.002915
v 11.790383 3.072448 -2.002915
v 10.201960 3.072448 -2.002915
v 8.613536 3.072448 -2.002915
v 7.025112 3.072448 -2.002915
v 5.436688 3.072448 -2.002915
v 3.848264 3.072448 -2.002915
v 2.259840 3.072448 -2.002915
v 0.671417 3.072448 -2.002915
v -0.917008 3.072448 -2.002915
v 13.378807 3.096079 -2.004720
v 11.790383 3.096079 -2.004720
v 10.201960 3.096079 -2.004720
v 8.613536 3.096079 -2.004720
v 7.025112 3.096079 -2.004720
v 5.436688 3.096079 -2.004719
v 3.848264 3.096079 -2.004719
v 2.259840 3.096079 -2.004719
v 0.671417 3.096079 -2.004719
v -0.917008 3.096079 -2.004719
v 13.378807 3.118802 -2.010064
v 11.790383 3.118802 -2.010064
v 10.201960 3.118802 -2.010064
v 8.613536 3.118802 -2.010064
v 7.025112 3.118802 -2.010064
v 5.436688 3.118802 -2.010064
v 3.848264 3.118802 -2.010064
v 2.259840 3.118802 -2.010064
v 0.671417 3.118802 -2.010064
v -0.917008 3.118802 -2.010064
v 13.378807 3.139743 -2.018743
v 11.790383 3.139743 -2.018743
v 10.201960 3.139743 -2.018743
v 8.613536 3.139743 -2.018743
v 7.025112 3.139743 -2.018743
v 5.436688 3.139743 -2.018743
v 3.848264 3.139743 -2.018743
v 2.259840 3.139743 -2.018743
v 0.671417 3.139743 -2.018743
v -0.917008 3.139743 -2.018743
v 13.378807 3.158098 -2.030423
v 11.790383 3.158098 -2.030423
v 10.201960 3.158099 -2.030423
v 8.613536 3.158099 -2.030423
v 7.025112 3.158099 -2.030423
v 5.436688 3.158099 -2.030423
v 3.848264 3.158099 -2.030423
v 2.259840 3.158099 -2.030423
v 0.671417 3.158099 -2.030422
v -0.917008 3.158099 -2.030422
v 13.378807 3.173162 -2.044655
v 11.790383 3.173162 -2.044655
v 10.201960 3.173162 -2.044655
v 8.613536 3.173162 -2.044655
v 7.025112 3.173162 -2.044655
v 5.436688 3.173162 -2.044655
v 3.848264 3.173162 -2.044655
v 2.259840 3.173162 -2.044655
v 0.671417 3.173162 -2.044654
v -0.917008 3.173162 -2.044654
v 13.378807 3.184356 -2.060892
v 11.790383 3.184356 -2.060892
v 10.201960 3.184356 -2.060892
v 8.613536 3.184356 -2.060892
v 7.025112 3.184356 -2.060892
v 5.436688 3.184356 -2.060892
v 3.848264 3.184356 -2.060892
v 2.259840 3.184356 -2.060892
v 0.671417 3.184356 -2.060892
v -0.917008 3.184356 -2.060891
v 13.378807 3.191249 -2.078510
v 11.790383 3.191249 -2.078510
v 10.201960 3.191249 -2.078510
v 8.613536 3.191249 -2.078510
v 7.025112 3.191249 -2.078510
v 5.436688 3.191249 -2.078510
v 3.848264 3.191249 -2.078510
v 2.259840 3.191249 -2.078510
v 0.671417 3.191249 -2.078510
v -0.917008 3.191249 -2.078510
v 0.671417 3.193576 -2.096832
v 2.259839 3.193576 -2.096832
v 3.848264 3.193576 -2.096832
v 5.436687 3.193576 -2.096832
v 8.613535 3.193576 -2.096833
v 10.201959 3.193576 -2.096833
v 11.790382 3.193576 -2.096833
v 13.378807 3.193576 -2.096833
v 13.378807 3.191249 -2.115155
v 11.790383 3.191249 -2.115155
v 10.201960 3.191249 -2.115155
v 8.613536 3.191249 -2.115155
v 5.436688 3.191249 -2.115155
v 3.848264 3.191249 -2.115155
v 2.259840 3.191249 -2.115155
v 0.671417 3.191249 -2.115155
v 13.378807 3.184356 -2.132773
v 11.790383 3.184356 -2.132773
v 10.201960 3.184356 -2.132773
v 8.613536 3.184356 -2.132773
v 5.436688 3.184356 -2.132773
v 3.848264 3.184356 -2.132773
v 2.259840 3.184356 -2.132773
v 0.671417 3.184356 -2.132773
v 13.378807 3.173162 -2.149010
v 11.790383 3.173162 -2.149010
v 10.201960 3.173162 -2.149010
v 8.613536 3.173162 -2.149010
v 5.436688 3.173162 -2.149010
v 3.848264 3.173162 -2.149010
v 2.259840 3.173162 -2.149010
v 0.671417 3.173162 -2.149010
v 13.378807 3.158098 -2.163242
v 11.790383 3.158098 -2.163242
v 10.201960 3.158099 -2.163242
v 8.613536 3.158099 -2.163242
v 5.436688 3.158099 -2.163242
v 3.848264 3.158099 -2.163242
v 2.259840 3.158099 -2.163242
v 0.671417 3.158099 -2.163242
v 13.378807 3.139743 -2.174922
v 11.790383 3.139743 -2.174922
v 10.201960 3.139743 -2.174922
v 8.613536 3.139743 -2.174922
v 5.436688 3.139743 -2.174922
v 3.848264 3.139743 -2.174922
v 2.259840 3.139743 -2.174922
v 0.671417 3.139743 -2.174922
v 13.378807 3.118802 -2.183601
v 11.790383 3.118802 -2.183601
v 10.201960 3.118802 -2.183601
v 8.613536 3.118802 -2.183601
v 5.436688 3.118802 -2.183601
v 3.848264 3.118802 -2.183601
v 2.259840 3.118802 -2.183601
v 0.671417 3.118802 -2.183601
v 13.378807 3.096079 -2.188946
v 11.790383 3.096079 -2.188946
v 10.201960 3.096079 -2.188946
v 8.613536 3.096079 -2.188945
v 5.436688 3.096079 -2.188945
v 3.848264 3.096079 -2.188945
v 2.259840 3.096079 -2.188945
v 0.671417 3.096079 -2.188945
v 13.378807 3.072448 -2.190750
v 11.790383 3.072448 -2.190750
v 10.201960 3.072448 -2.190750
v 8.613536 3.072448 -2.190750
v 5.436688 3.072448 -2.190750
v 3.848264 3.072448 -2.190750
v 2.259840 3.072448 -2.190750
v 0.671417 3.072448 -2.190750
v 13.378807 3.048817 -2.188946
v 11.790383 3.048817 -2.188946
v 10.201960 3.048817 -2.188946
v 8.613536 3.048817 -2.188945
v 5.436688 3.048817 -2.188945
v 3.848264 3.048817 -2.188945
v 2.259840 3.048817 -2.188945
v 0.671417 3.048817 -2.188945
v 13.378807 3.026095 -2.183601
v 11.790383 3.026095 -2.183601
v 10.201960 3.026095 -2.183601
v 8.613536 3.026095 -2.183601
v 5.436688 3.026095 -2.183601
v 3.848264 3.026095 -2.183601
v 2.259840 3.026095 -2.183601
v 0.671417 3.026095 -2.183601
v 13.378807 3.005153 -2.174922
v 11.790383 3.005153 -2.174922
v 10.201960 3.005153 -2.174922
v 8.613536 3.005153 -2.174922
v 5.436688 3.005153 -2.174922
v 3.848264 3.005153 -2.174922
v 2.259840 3.005153 -2.174922
v 0.671417 3.005153 -2.174922
v 13.378807 2.986798 -2.163242
v 11.790383 2.986798 -2.163242
v 10.201960 2.986798 -2.163242
v 8.613536 2.986798 -2.163242
v 5.436688 2.986798 -2.163242
v 3.848264 2.986798 -2.163242
v 2.259840 2.986798 -2.163242
v 0.671417 2.986798 -2.163242
v 13.378807 2.971734 -2.149010
v 11.790383 2.971734 -2.149010
v 10.201960 2.971734 -2.149010
v 8.613536 2.971734 -2.149010
v 5.436688 2.971734 -2.149010
v 3.848264 2.971734 -2.149010
v 2.259840 2.971734 -2.149010
v 0.671417 2.971734 -2.149010
v 13.378807 2.960541 -2.132773
v 11.790383 2.960541 -2.132773
v 10.201960 2.960541 -2.132773
v 8.613536 2.960541 -2.132773
v 5.436688 2.960541 -2.132773
v 3.848264 2.960541 -2.132773
v 2.259840 2.960541 -2.132773
v 0.671417 2.960541 -2.132773
v 13.378807 2.953648 -2.115155
v 11.790383 2.953648 -2.115155
v 10.201960 2.953648 -2.115155
v 8.613536 2.953648 -2.115155
v 5.436688 2.953648 -2.115155
v 3.848264 2.953648 -2.115155
v 2.259840 2.953648 -2.115155
v 0.671417 2.953648 -2.115155
v 13.378807 2.951320 -2.096833
v 11.790383 2.951320 -2.096833
v 10.201960 2.951320 -2.096833
v 8.613536 2.951320 -2.096833
v 5.436688 2.951320 -2.096832
v 3.848264 2.951320 -2.096832
v 2.259840 2.951320 -2.096832
v 0.671417 2.951320 -2.096832
v 13.378807 2.953648 -2.078510
v 11.790383 2.953648 -2.078510
v 10.201960 2.953648 -2.078510
v 8.613536 2.953648 -2.078510
v 5.436688 2.953648 -2.078510
v 3.848264 2.953648 -2.078510
v 2.259840 2.953648 -2.078510
v 0.671417 2.953648 -2.078510
v 13.378807 2.960541 -2.060892
v 11.790383 2.960541 -2.060892
v 10.201960 2.960541 -2.060892
v 8.613536 2.960541 -2.060892
v 5.436688 2.960541 -2.060892
v 3.848264 2.960541 -2.060892
v 2.259840 2.960541 -2.060892
v 0.671417 2.960541 -2.060892
v 13.378807 2.971734 -2.044655
v 11.790383 2.971734 -2.044655
v 10.201960 2.971734 -2.044655
v 8.613536 2.971734 -2.044655
v 5.436688 2.971734 -2.044655
v 3.848264 2.971734 -2.044655
v 2.259840 2.971734 -2.044655
v 0.671417 2.971734 -2.044654
v 13.378807 2.986798 -2.030423
v 11.790383 2.986798 -2.030423
v 10.201960 2.986798 -2.030423
v 8.613536 2.986798 -2.030423
v 5.436688 2.986798 -2.030423
v 3.848264 2.986798 -2.030423
v 2.259840 2.986798 -2.030423
v 0.671417 2.986798 -2.030422
v 13.378807 3.005153 -2.018743
v 11.790383 3.005153 -2.018743
v 10.201960 3.005153 -2.018743
v 8.613536 3.005153 -2.018743
v 5.436688 3.005153 -2.018743
v 3.848264 3.005153 -2.018743
v 2.259840 3.005153 -2.018743
v 0.671417 3.005153 -2.018743
v 13.378807 3.026095 -2.010064
v 11.790383 3.026095 -2.010064
v 10.201960 3.026095 -2.010064
v 8.613536 3.026095 -2.010064
v 5.436688 3.026095 -2.010064
v 3.848264 3.026095 -2.010064
v 2.259840 3.026095 -2.010064
v 0.671417 3.026095 -2.010064
v 13.378807 3.048817 -2.004720
v 11.790383 3.048817 -2.004720
v 10.201960 3.048817 -2.004720
v 8.613536 3.048817 -2.004720
v 5.436688 3.048817 -2.004719
v 3.848264 3.048817 -2.004719
v 2.259840 3.048817 -2.004719
v 0.671417 3.048817 -2.004719
v 13.378807 3.072448 -2.002915
v 11.790383 3.072448 -2.002915
v 10.201960 3.072448 -2.002915
v 8.613536 3.072448 -2.002915
v 5.436688 3.072448 -2.002915
v 3.848264 3.072448 -2.002915
v 2.259840 3.072448 -2.002915
v 0.671417 3.072448 -2.002915
v 13.378807 3.096079 -2.004720
v 11.790383 3.096079 -2.004720
v 10.201960 3.096079 -2.004720
v 8.613536 3.096079 -2.004720
v 5.436688 3.096079 -2.004719
v 3.848264 3.096079 -2.004719
v 2.259840 3.096079 -2.004719
v 0.671417 3.096079 -2.004719
v 13.378807 3.118802 -2.010064
v 11.790383 3.118802 -2.010064
v 10.201960 3.118802 -2.010064
v 8.613536 3.118802 -2.010064
v 5.436688 3.118802 -2.010064
v 3.848264 3.118802 -2.010064
v 2.259840 3.118802 -2.010064
v 0.671417 3.118802 -2.010064
v 13.378807 3.139743 -2.018743
v 11.790383 3.139743 -2.018743
v 10.201960 3.139743 -2.018743
v 8.613536 3.139743 -2.018743
v 5.436688 3.139743 -2.018743
v 3.848264 3.139743 -2.018743
v 2.259840 3.139743 -2.018743
v 0.671417 3.139743 -2.018743
v 13.378807 3.158098 -2.030423
v 11.790383 3.158098 -2.030423
v 10.201960 3.158099 -2.030423
v 8.613536 3.158099 -2.030423
v 5.436688 3.158099 -2.030423
v 3.848264 3.158099 -2.030423
v 2.259840 3.158099 -2.030423
v 0.671417 3.158099 -2.030422
v 13.378807 3.173162 -2.044655
v 11.790383 3.173162 -2.044655
v 10.201960 3.173162 -2.044655
v 8.613536 3.173162 -2.044655
v 5.436688 3.173162 -2.044655
v 3.848264 3.173162 -2.044655
v 2.259840 3.173162 -2.044655
v 0.671417 3.173162 -2.044654
v 13.378807 3.184356 -2.060892
v 11.790383 3.184356 -2.060892
v 10.201960 3.184356 -2.060892
v 8.613536 3.184356 -2.060892
v 5.436688 3.184356 -2.060892
v 3.848264 3.184356 -2.060892
v 2.259840 3.184356 -2.060892
v 0.671417 3.184356 -2.060892
v 13.378807 3.191249 -2.078510
v 11.790383 3.191249 -2.078510
v 10.201960 3.191249 -2.078510
v 8.613536 3.191249 -2.078510
v 5.436688 3.191249 -2.078510
v 3.848264 3.191249 -2.078510
v 2.259840 3.191249 -2.078510
v 0.671417 3.191249 -2.078510
v 0.671417 3.216050 -2.096832
v 2.259839 3.216050 -2.096832
v 3.848264 3.216050 -2.096832
v 5.436687 3.216050 -2.096832
v 8.613535 3.216050 -2.096833
v 10.201959 3.216050 -2.096833
v 11.790382 3.216050 -2.096833
v 13.378807 3.216050 -2.096833
v 13.378807 3.213291 -2.118555
v 11.790383 3.213291 -2.118555
v 10.201960 3.213291 -2.118555
v 8.613536 3.213291 -2.118554
v 5.436688 3.213291 -2.118554
v 3.848264 3.213291 -2.118554
v 2.259840 3.213291 -2.118554
v 0.671417 3.213291 -2.118554
v 13.378807 3.205119 -2.139442
v 11.790383 3.205119 -2.139442
v 10.201960 3.205119 -2.139441
v 8.613536 3.205119 -2.139441
v 5.436688 3.205119 -2.139441
v 3.848264 3.205119 -2.139441
v 2.259840 3.205119 -2.139441
v 0.671417 3.205119 -2.139441
v 13.378807 3.191849 -2.158691
v 11.790383 3.191849 -2.158691
v 10.201960 3.191849 -2.158691
v 8.613536 3.191849 -2.158691
v 5.436688 3.191849 -2.158691
v 3.848264 3.191849 -2.158691
v 2.259840 3.191849 -2.158691
v 0.671417 3.191849 -2.158691
v 13.378807 3.173990 -2.175564
v 11.790383 3.173990 -2.175564
v 10.201960 3.173990 -2.175564
v 8.613536 3.173990 -2.175564
v 5.436688 3.173990 -2.175564
v 3.848264 3.173990 -2.175564
v 2.259840 3.173990 -2.175563
v 0.671417 3.173990 -2.175563
v 13.378807 3.152229 -2.189411
v 11.790383 3.152229 -2.189411
v 10.201960 3.152229 -2.189411
v 8.613536 3.152229 -2.189411
v 5.436688 3.152229 -2.189410
v 3.848264 3.152229 -2.189410
v 2.259840 3.152229 -2.189410
v 0.671417 3.152229 -2.189410
v 13.378807 3.127402 -2.199700
v 11.790383 3.127402 -2.199700
v 10.201960 3.127402 -2.199700
v 8.613536 3.127402 -2.199700
v 5.436688 3.127402 -2.199700
v 3.848264 3.127402 -2.199700
v 2.259840 3.127402 -2.199699
v 0.671417 3.127402 -2.199699
v 13.378807 3.100464 -2.206036
v 11.790383 3.100464 -2.206036
v 10.201960 3.100464 -2.206036
v 8.613536 3.100464 -2.206036
v 5.436688 3.100464 -2.206036
v 3.848264 3.100464 -2.206036
v 2.259840 3.100464 -2.206036
v 0.671417 3.100464 -2.206036
v 13.378807 3.072448 -2.208175
v 11.790383 3.072448 -2.208175
v 10.201960 3.072448 -2.208175
v 8.613536 3.072448 -2.208175
v 5.436688 3.072448 -2.208175
v 3.848264 3.072448 -2.208175
v 2.259840 3.072448 -2.208175
v 0.671417 3.072448 -2.208175
v 13.378807 3.044433 -2.206036
v 11.790383 3.044433 -2.206036
v 10.201960 3.044433 -2.206036
v 8.613536 3.044433 -2.206036
v 5.436688 3.044433 -2.206036
v 3.848264 3.044433 -2.206036
v 2.259840 3.044433 -2.206036
v 0.671417 3.044433 -2.206036
v 13.378807 3.017494 -2.199700
v 11.790383 3.017494 -2.199700
v 10.201960 3.017494 -2.199700
v 8.613536 3.017494 -2.199700
v 5.436688 3.017494 -2.199700
v 3.848264 3.017494 -2.199700
v 2.259840 3.017494 -2.199699
v 0.671417 3.017494 -2.199699
v 13.378807 2.992667 -2.189411
v 11.790383 2.992667 -2.189411
v 10.201960 2.992667 -2.189411
v 8.613536 2.992667 -2.189411
v 5.436688 2.992667 -2.189410
v 3.848264 2.992667 -2.189410
v 2.259840 2.992667 -2.189410
v 0.671417 2.992667 -2.189410
v 13.378807 2.970906 -2.175564
v 11.790383 2.970906 -2.175564
v 10.201960 2.970906 -2.175564
v 8.613536 2.970906 -2.175564
v 5.436688 2.970906 -2.175564
v 3.848264 2.970906 -2.175564
v 2.259840 2.970906 -2.175563
v 0.671417 2.970906 -2.175563
v 13.378807 2.953048 -2.158691
v 11.790383 2.953048 -2.158691
v 10.201960 2.953048 -2.158691
v 8.613536 2.953048 -2.158691
v 5.436688 2.953048 -2.158691
v 3.848264 2.953048 -2.158691
v 2.259840 2.953048 -2.158691
v 0.671417 2.953048 -2.158691
v 13.378807 2.939778 -2.139442
v 11.790383 2.939778 -2.139442
v 10.201960 2.939778 -2.139441
v 8.613536 2.939778 -2.139441
v 5.436688 2.939778 -2.139441
v 3.848264 2.939778 -2.139441
v 2.259840 2.939778 -2.139441
v 0.671417 2.939778 -2.139441
v 13.378807 2.931606 -2.118555
v 11.790383 2.931606 -2.118555
v 10.201960 2.931606 -2.118555
v 8.613536 2.931606 -2.118554
v 5.436688 2.931606 -2.118554
v 3.848264 2.931606 -2.118554
v 2.259840 2.931606 -2.118554
v 0.671417 2.931606 -2.118554
v 13.378807 2.928846 -2.096833
v 11.790383 2.928846 -2.096833
v 10.201960 2.928846 -2.096833
v 8.613536 2.928846 -2.096833
v 5.436688 2.928847 -2.096832
v 3.848264 2.928847 -2.096832
v 2.259840 2.928847 -2.096832
v 0.671417 2.928847 -2.096832
v 13.378807 2.931606 -2.075111
v 11.790383 2.931606 -2.075111
v 10.201960 2.931606 -2.075111
v 8.613536 2.931606 -2.075111
v 5.436688 2.931606 -2.075110
v 3.848264 2.931606 -2.075110
v 2.259840 2.931606 -2.075110
v 0.671417 2.931606 -2.075110
v 13.378807 2.939778 -2.054224
v 11.790383 2.939778 -2.054224
v 10.201960 2.939778 -2.054224
v 8.613536 2.939778 -2.054224
v 5.436688 2.939778 -2.054223
v 3.848264 2.939778 -2.054223
v 2.259840 2.939778 -2.054223
v 0.671417 2.939778 -2.054223
v 13.378807 2.953048 -2.034974
v 11.790383 2.953048 -2.034974
v 10.201960 2.953048 -2.034974
v 8.613536 2.953048 -2.034974
v 5.436688 2.953048 -2.034974
v 3.848264 2.953048 -2.034974
v 2.259840 2.953048 -2.034974
v 0.671417 2.953048 -2.034973
v 13.378807 2.970906 -2.018101
v 11.790383 2.970906 -2.018101
v 10.201960 2.970906 -2.018101
v 8.613536 2.970906 -2.018101
v 5.436688 2.970906 -2.018101
v 3.848264 2.970906 -2.018101
v 2.259840 2.970906 -2.018101
v 0.671417 2.970906 -2.018101
v 13.378807 2.992667 -2.004255
v 11.790383 2.992667 -2.004255
v 10.201960 2.992667 -2.004255
v 8.613536 2.992667 -2.004254
v 5.436688 2.992667 -2.004254
v 3.848264 2.992667 -2.004254
v 2.259840 2.992667 -2.004254
v 0.671417 2.992667 -2.004254
v 13.378807 3.017494 -1.993965
v 11.790383 3.017494 -1.993965
v 10.201960 3.017494 -1.993965
v 8.613536 3.017494 -1.993965
v 5.436688 3.017494 -1.993965
v 3.848264 3.017494 -1.993965
v 2.259840 3.017494 -1.993965
v 0.671417 3.017494 -1.993965
v 13.378807 3.044433 -1.987629
v 11.790383 3.044433 -1.987629
v 10.201960 3.044433 -1.987629
v 8.613536 3.044433 -1.987629
v 5.436688 3.044433 -1.987629
v 3.848264 3.044433 -1.987629
v 2.259840 3.044433 -1.987629
v 0.671417 3.044433 -1.987629
v 13.378807 3.072448 -1.985490
v 11.790383 3.072448 -1.985490
v 10.201960 3.072448 -1.985490
v 8.613536 3.072448 -1.985490
v 5.436688 3.072448 -1.985490
v 3.848264 3.072448 -1.985490
v 2.259840 3.072448 -1.985489
v 0.671417 3.072448 -1.985489
v 13.378807 3.100464 -1.987629
v 11.790383 3.100464 -1.987629
v 10.201960 3.100464 -1.987629
v 8.613536 3.100464 -1.987629
v 5.436688 3.100464 -1.987629
v 3.848264 3.100464 -1.987629
v 2.259840 3.100464 -1.987629
v 0.671417 3.100464 -1.987629
v 13.378807 3.127402 -1.993965
v 11.790383 3.127402 -1.993965
v 10.201960 3.127402 -1.993965
v 8.613536 3.127402 -1.993965
v 5.436688 3.127402 -1.993965
v 3.848264 3.127402 -1.993965
v 2.259840 3.127402 -1.993965
v 0.671417 3.127402 -1.993965
v 13.378807 3.152229 -2.004255
v 11.790383 3.152229 -2.004255
v 10.201960 3.152229 -2.004255
v 8.613536 3.152229 -2.004254
v 5.436688 3.152229 -2.004254
v 3.848264 3.152229 -2.004254
v 2.259840 3.152229 -2.004254
v 0.671417 3.152229 -2.004254
v 13.378807 3.173990 -2.018101
v 11.790383 3.173990 -2.018101
v 10.201960 3.173990 -2.018101
v 8.613536 3.173990 -2.018101
v 5.436688 3.173990 -2.018101
v 3.848264 3.173990 -2.018101
v 2.259840 3.173990 -2.018101
v 0.671417 3.173990 -2.018101
v 13.378807 3.191849 -2.034974
v 11.790383 3.191849 -2.034974
v 10.201960 3.191849 -2.034974
v 8.613536 3.191849 -2.034974
v 5.436688 3.191849 -2.034974
v 3.848264 3.191849 -2.034974
v 2.259840 3.191849 -2.034974
v 0.671417 3.191849 -2.034973
v 13.378807 3.205119 -2.054224
v 11.790383 3.205119 -2.054224
v 10.201960 3.205119 -2.054224
v 8.613536 3.205119 -2.054224
v 5.436688 3.205119 -2.054223
v 3.848264 3.205119 -2.054223
v 2.259840 3.205119 -2.054223
v 0.671417 3.205119 -2.054223
v 13.378807 3.213291 -2.075111
v 11.790383 3.213291 -2.075111
v 10.201960 3.213291 -2.075111
v 8.613536 3.213291 -2.075111
v 5.436688 3.213291 -2.075110
v 3.848264 3.213291 -2.075110
v 2.259840 3.213291 -2.075110
v 0.671417 3.213291 -2.075110
v -2.505432 3.193576 -2.096832
v -2.505432 3.191249 -2.115155
v 14.967231 3.191249 -2.115155
v 14.967231 3.193576 -2.096833
v -2.505432 3.184356 -2.132773
v 14.967231 3.184356 -2.132773
v -2.505432 3.173162 -2.149010
v 14.967231 3.173162 -2.149010
v -2.505432 3.158099 -2.163242
v 14.967231 3.158098 -2.163242
v -2.505432 3.139743 -2.174922
v 14.967231 3.139743 -2.174922
v -2.505432 3.118802 -2.183600
v 14.967231 3.118802 -2.183601
v -2.505432 3.096079 -2.188945
v 14.967231 3.096079 -2.188946
v -2.505432 3.072448 -2.190749
v 14.967231 3.072448 -2.190750
v -2.505432 3.048817 -2.188945
v 14.967231 3.048817 -2.188946
v -2.505432 3.026095 -2.183600
v 14.967231 3.026095 -2.183601
v -2.505432 3.005153 -2.174922
v 14.967231 3.005153 -2.174922
v -2.505432 2.986798 -2.163242
v 14.967231 2.986798 -2.163242
v -2.505432 2.971734 -2.149010
v 14.967231 2.971734 -2.149010
v -2.505432 2.960541 -2.132773
v 14.967231 2.960541 -2.132773
v -2.505432 2.953648 -2.115155
v 14.967231 2.953648 -2.115155
v -2.505432 2.951320 -2.096832
v 14.967231 2.951320 -2.096833
v -2.505432 2.953648 -2.078510
v 14.967231 2.953648 -2.078511
v -2.505432 2.960541 -2.060891
v 14.967231 2.960541 -2.060892
v -2.505432 2.971734 -2.044654
v 14.967231 2.971734 -2.044655
v -2.505432 2.986798 -2.030422
v 14.967231 2.986798 -2.030423
v -2.505432 3.005153 -2.018743
v 14.967231 3.005153 -2.018743
v -2.505432 3.026095 -2.010064
v 14.967231 3.026095 -2.010064
v -2.505432 3.048817 -2.004719
v 14.967231 3.048817 -2.004720
v -2.505432 3.072448 -2.002915
v 14.967231 3.072448 -2.002915
v -2.505432 3.096079 -2.004719
v 14.967231 3.096079 -2.004720
v -2.505432 3.118802 -2.010064
v 14.967231 3.118802 -2.010064
v -2.505432 3.139743 -2.018743
v 14.967231 3.139743 -2.018743
v -2.505432 3.158099 -2.030422
v 14.967231 3.158098 -2.030423
v -2.505432 3.173162 -2.044654
v 14.967231 3.173162 -2.044655
v -2.505432 3.184356 -2.060891
v 14.967231 3.184356 -2.060892
v -2.505432 3.191249 -2.078510
v 14.967231 3.191249 -2.078511
vn -0.0000 1.0000 -0.0000
vn -0.0000 0.9686 -0.2485
vn -0.0000 0.8820 -0.4712
vn -0.0000 0.7575 -0.6528
vn -0.0000 0.6127 -0.7903
vn -0.0000 0.4600 -0.8879
vn -0.0000 0.3058 -0.9521
vn -0.0000 0.1524 -0.9883
vn -0.0000 -0.0000 -1.0000
vn -0.0000 -0.1524 -0.9883
vn -0.0000 -0.3058 -0.9521
vn -0.0000 -0.4600 -0.8879
vn -0.0000 -0.6127 -0.7903
vn -0.0000 -0.7575 -0.6528
vn -0.0000 -0.8820 -0.4712
vn -0.0000 -0.9686 -0.2485
vn -0.0000 -1.0000 -0.0000
vn -0.0000 -0.9686 0.2485
vn -0.0000 -0.8820 0.4712
vn -0.0000 -0.7575 0.6528
vn -0.0000 -0.6127 0.7903
vn -0.0000 -0.4600 0.8879
vn -0.0000 -0.3058 0.9521
vn -0.0000 -0.1524 0.9883
vn -0.0000 -0.0000 1.0000
vn -0.0000 0.1524 0.9883
vn -0.0000 0.3058 0.9521
vn -0.0000 0.4600 0.8879
vn -0.0000 0.6127 0.7903
vn -0.0000 0.7575 0.6528
vn -0.0000 0.8820 0.4712
vn -0.0000 0.9686 0.2485
vn -1.0000 -0.0000 -0.0000
vn 1.0000 -0.0000 -0.0000
vn -1.0000 -0.0001 -0.0000
vn -1.0000 0.0001 -0.0000
vt 1.000000 0.954545
vt 1.000000 1.000000
vt 0.968750 1.000000
vt 0.968750 0.954545
vt 0.937500 1.000000
vt 0.937500 0.954545
vt 0.906250 1.000000
vt 0.906250 0.954545
vt 0.875000 1.000000
vt 0.875000 0.954545
vt 0.843750 1.000000
vt 0.843750 0.954545
vt 0.812500 1.000000
vt 0.812500 0.954545
vt 0.781250 1.000000
vt 0.781250 0.954545
vt 0.750000 1.000000
vt 0.750000 0.954545
vt 0.718750 1.000000
vt 0.718750 0.954545
vt 0.687500 1.000000
vt 0.687500 0.954545
vt 0.656250 1.000000
vt 0.656250 0.954545
vt 0.625000 1.000000
vt 0.625000 0.954545
vt 0.593750 1.000000
vt 0.593750 0.954545
vt 0.562500 1.000000
vt 0.562500 0.954545
vt 0.531250 1.000000
vt 0.531250 0.954545
vt 0.500000 1.000000
vt 0.500000 0.954545
vt 0.468750 1.000000
vt 0.468750 0.954545
vt 0.437500 1.000000
vt 0.437500 0.954545
vt 0.406250 1.000000
vt 0.406250 0.954545
vt 0.375000 1.000000
vt 0.375000 0.954545
vt 0.343750 1.000000
vt 0.343750 0.954545
vt 0.312500 1.000000
vt 0.312500 0.954545
vt 0.281250 1.000000
vt 0.281250 0.954545
vt 0.250000 1.000000
vt 0.250000 0.954545
vt 0.218750 1.000000
vt 0.218750 0.954545
vt 0.187500 1.000000
vt 0.187500 0.954545
vt 0.156250 1.000000
vt 0.156250 0.954545
vt 0.125000 1.000000
vt 0.125000 0.954545
vt 0.093750 1.000000
vt 0.093750 0.954545
vt 0.062500 1.000000
vt 0.062500 0.954545
vt 0.031250 1.000000
vt 0.031250 0.954545
vt 0.000000 1.000000
vt 0.000000 0.954545
vt 0.031250 0.500000
vt 0.031250 0.545455
vt 0.000000 0.545455
vt 0.000000 0.500000
vt 0.031250 0.590909
vt 0.000000 0.590909
vt 0.031250 0.636364
vt 0.000000 0.636364
vt 0.031250 0.681818
vt 0.000000 0.681818
vt 0.031250 0.727273
vt 0.000000 0.727273
vt 0.031250 0.772727
vt 0.000000 0.772727
vt 0.031250 0.818182
vt 0.000000 0.818182
vt 0.031250 0.863636
vt 0.000000 0.863636
vt 0.031250 0.909091
vt 0.000000 0.909091
vt 0.062500 0.500000
vt 0.062500 0.545455
vt 0.062500 0.590909
vt 0.062500 0.636364
vt 0.062500 0.681818
vt 0.062500 0.727273
vt 0.062500 0.772727
vt 0.062500 0.818182
vt 0.062500 0.863636
vt 0.062500 0.909091
vt 0.093750 0.500000
vt 0.093750 0.545455
vt 0.093750 0.590909
vt 0.093750 0.636364
vt 0.093750 0.681818
vt 0.093750 0.727273
vt 0.093750 0.772727
vt 0.093750 0.818182
vt 0.093750 0.863636
vt 0.093750 0.909091
vt 0.125000 0.500000
vt 0.125000 0.545455
vt 0.125000 0.590909
vt 0.125000 0.636364
vt 0.125000 0.681818
vt 0.125000 0.727273
vt 0.125000 0.772727
vt 0.125000 0.818182
vt 0.125000 0.863636
vt 0.125000 0.909091
vt 0.156250 0.500000
vt 0.156250 0.545455
vt 0.156250 0.590909
vt 0.156250 0.636364
vt 0.156250 0.681818
vt 0.156250 0.727273
vt 0.156250 0.772727
vt 0.156250 0.818182
vt 0.156250 0.863636
vt 0.156250 0.909091
vt 0.187500 0.500000
vt 0.187500 0.545455
vt 0.187500 0.590909
vt 0.187500 0.636364
vt 0.187500 0.681818
vt 0.187500 0.727273
vt 0.187500 0.772727
vt 0.187500 0.818182
vt 0.187500 0.863636
vt 0.187500 0.909091
vt 0.218750 0.500000
vt 0.218750 0.545455
vt 0.218750 0.590909
vt 0.218750 0.636364
vt 0.218750 0.681818
vt 0.218750 0.727273
vt 0.218750 0.772727
vt 0.218750 0.818182
vt 0.218750 0.863636
vt 0.218750 0.909091
vt 0.250000 0.500000
vt 0.250000 0.545455
vt 0.250000 0.590909
vt 0.250000 0.636364
vt 0.250000 0.681818
vt 0.250000 0.727273
vt 0.250000 0.772727
vt 0.250000 0.818182
vt 0.250000 0.863636
vt 0.250000 0.909091
vt 0.281250 0.500000
vt 0.281250 0.545455
vt 0.281250 0.590909
vt 0.281250 0.636364
vt 0.281250 0.681818
vt 0.281250 0.727273
vt 0.281250 0.772727
vt 0.281250 0.818182
vt 0.281250 0.863636
vt 0.281250 0.909091
vt 0.312500 0.500000
vt 0.312500 0.545455
vt 0.312500 0.590909
vt 0.312500 0.636364
vt 0.312500 0.681818
vt 0.312500 0.727273
vt 0.312500 0.772727
vt 0.312500 0.818182
vt 0.312500 0.863636
vt 0.312500 0.909091
vt 0.343750 0.500000
vt 0.343750 0.545455
vt 0.343750 0.590909
vt 0.343750 0.636364
vt 0.343750 0.681818
vt 0.343750 0.727273
vt 0.343750 0.772727
vt 0.343750 0.818182
vt 0.343750 0.863636
vt 0.343750 0.909091
vt 0.375000 0.500000
vt 0.375000 0.545455
vt 0.375000 0.590909
vt 0.375000 0.636364
vt 0.375000 0.681818
vt 0.375000 0.727273
vt 0.375000 0.772727
vt 0.375000 0.818182
vt 0.375000 0.863636
vt 0.375000 0.909091
vt 0.406250 0.500000
vt 0.406250 0.545455
vt 0.406250 0.590909
vt 0.406250 0.636364
vt 0.406250 0.681818
vt 0.406250 0.727273
vt 0.406250 0.772727
vt 0.406250 0.818182
vt 0.406250 0.863636
vt 0.406250 0.909091
vt 0.437500 0.500000
vt 0.437500 0.545455
vt 0.437500 0.590909
vt 0.437500 0.636364
vt 0.437500 0.681818
vt 0.437500 0.727273
vt 0.437500 0.772727
vt 0.437500 0.818182
vt 0.437500 0.863636
vt 0.437500 0.909091
vt 0.468750 0.500000
vt 0.468750 0.545455
vt 0.468750 0.590909
vt 0.468750 0.636364
vt 0.468750 0.681818
vt 0.468750 0.727273
vt 0.468750 0.772727
vt 0.468750 0.818182
vt 0.468750 0.863636
vt 0.468750 0.909091
vt 0.500000 0.500000
vt 0.500000 0.545455
vt 0.500000 0.590909
vt 0.500000 0.636364
vt 0.500000 0.681818
vt 0.500000 0.727273
vt 0.500000 0.772727
vt 0.500000 0.818182
vt 0.500000 0.863636
vt 0.500000 0.909091
vt 0.531250 0.500000
vt 0.531250 0.545455
vt 0.531250 0.590909
vt 0.531250 0.636364
vt 0.531250 0.681818
vt 0.531250 0.727273
vt 0.531250 0.772727
vt 0.531250 0.818182
vt 0.531250 0.863636
vt 0.531250 0.909091
vt 0.562500 0.500000
vt 0.562500 0.545455
vt 0.562500 0.590909
vt 0.562500 0.636364
vt 0.562500 0.681818
vt 0.562500 0.727273
vt 0.562500 0.772727
vt 0.562500 0.818182
vt 0.562500 0.863636
vt 0.562500 0.909091
vt 0.593750 0.500000
vt 0.593750 0.545455
vt 0.593750 0.590909
vt 0.593750 0.636364
vt 0.593750 0.681818
vt 0.593750 0.727273
vt 0.593750 0.772727
vt 0.593750 0.818182
vt 0.593750 0.863636
vt 0.593750 0.909091
vt 0.625000 0.500000
vt 0.625000 0.545455
vt 0.625000 0.590909
vt 0.625000 0.636364
vt 0.625000 0.681818
vt 0.625000 0.727273
vt 0.625000 0.772727
vt 0.625000 0.818182
vt 0.625000 0.863636
vt 0.625000 0.909091
vt 0.656250 0.500000
vt 0.656250 0.545455
vt 0.656250 0.590909
vt 0.656250 0.636364
vt 0.656250 0.681818
vt 0.656250 0.727273
vt 0.656250 0.772727
vt 0.656250 0.818182
vt 0.656250 0.863636
vt 0.656250 0.909091
vt 0.687500 0.500000
vt 0.687500 0.545455
vt 0.687500 0.590909
vt 0.687500 0.636364
vt 0.687500 0.681818
vt 0.687500 0.727273
vt 0.687500 0.772727
vt 0.687500 0.818182
vt 0.687500 0.863636
vt 0.687500 0.909091
vt 0.718750 0.500000
vt 0.718750 0.545455
vt 0.718750 0.590909
vt 0.718750 0.636364
vt 0.718750 0.681818
vt 0.718750 0.727273
vt 0.718750 0.772727
vt 0.718750 0.818182
vt 0.718750 0.863636
vt 0.718750 0.909091
vt 0.750000 0.500000
vt 0.750000 0.545455
vt 0.750000 0.590909
vt 0.750000 0.636364
vt 0.750000 0.681818
vt 0.750000 0.727273
vt 0.750000 0.772727
vt 0.750000 0.818182
vt 0.750000 0.863636
vt 0.750000 0.909091
vt 0.781250 0.500000
vt 0.781250 0.545455
vt 0.781250 0.590909
vt 0.781250 0.636364
vt 0.781250 0.681818
vt 0.781250 0.727273
vt 0.781250 0.772727
vt 0.781250 0.818182
vt 0.781250 0.863636
vt 0.781250 0.909091
vt 0.812500 0.500000
vt 0.812500 0.545455
vt 0.812500 0.590909
vt 0.812500 0.636364
vt 0.812500 0.681818
vt 0.812500 0.727273
vt 0.812500 0.772727
vt 0.812500 0.818182
vt 0.812500 0.863636
vt 0.812500 0.909091
vt 0.843750 0.500000
vt 0.843750 0.545455
vt 0.843750 0.590909
vt 0.843750 0.636364
vt 0.843750 0.681818
vt 0.843750 0.727273
vt 0.843750 0.772727
vt 0.843750 0.818182
vt 0.843750 0.863636
vt 0.843750 0.909091
vt 0.875000 0.500000
vt 0.875000 0.545455
vt 0.875000 0.590909
vt 0.875000 0.636364
vt 0.875000 0.681818
vt 0.875000 0.727273
vt 0.875000 0.772727
vt 0.875000 0.818182
vt 0.875000 0.863636
vt 0.875000 0.909091
vt 0.906250 0.500000
vt 0.906250 0.545455
vt 0.906250 0.590909
vt 0.906250 0.636364
vt 0.906250 0.681818
vt 0.906250 0.727273
vt 0.906250 0.772727
vt 0.906250 0.818182
vt 0.906250 0.863636
vt 0.906250 0.909091
vt 0.937500 0.500000
vt 0.937500 0.545455
vt 0.937500 0.590909
vt 0.937500 0.636364
vt 0.937500 0.681818
vt 0.937500 0.727273
vt 0.937500 0.772727
vt 0.937500 0.818182
vt 0.937500 0.863636
vt 0.937500 0.909091
vt 0.968750 0.500000
vt 0.968750 0.545455
vt 0.968750 0.590909
vt 0.968750 0.636364
vt 0.968750 0.681818
vt 0.968750 0.727273
vt 0.968750 0.772727
vt 0.968750 0.818182
vt 0.968750 0.863636
vt 0.968750 0.909091
vt 1.000000 0.500000
vt 1.000000 0.545455
vt 1.000000 0.590909
vt 1.000000 0.636364
vt 1.000000 0.681818
vt 1.000000 0.727273
vt 1.000000 0.772727
vt 1.000000 0.818182
vt 1.000000 0.863636
vt 1.000000 0.909091
vt 0.791840 0.460344
vt 0.750000 0.464465
vt 0.750000 0.490000
vt 0.796822 0.485388
vt 0.250000 0.464465
vt 0.291840 0.460344
vt 0.296822 0.485388
vt 0.250000 0.490000
vt 0.832072 0.448139
vt 0.841844 0.471731
vt 0.332072 0.448140
vt 0.341844 0.471731
vt 0.869150 0.428321
vt 0.883337 0.449553
vt 0.369150 0.428321
vt 0.383337 0.449553
vt 0.901650 0.401649
vt 0.919706 0.419706
vt 0.401650 0.401650
vt 0.419706 0.419706
vt 0.928321 0.369150
vt 0.949553 0.383337
vt 0.428321 0.369150
vt 0.449553 0.383337
vt 0.948139 0.332072
vt 0.971731 0.341844
vt 0.448140 0.332072
vt 0.471731 0.341844
vt 0.960344 0.291840
vt 0.985388 0.296822
vt 0.460344 0.291840
vt 0.485388 0.296822
vt 0.964464 0.250000
vt 0.990000 0.250000
vt 0.464465 0.250000
vt 0.490000 0.250000
vt 0.960344 0.208160
vt 0.985388 0.203178
vt 0.460344 0.208160
vt 0.485388 0.203178
vt 0.948139 0.167928
vt 0.971731 0.158156
vt 0.448140 0.167928
vt 0.471731 0.158156
vt 0.928321 0.130850
vt 0.949553 0.116663
vt 0.428321 0.130850
vt 0.449553 0.116663
vt 0.901649 0.098350
vt 0.919706 0.080294
vt 0.401650 0.098350
vt 0.419706 0.080294
vt 0.869150 0.071679
vt 0.883337 0.050447
vt 0.369150 0.071679
vt 0.383337 0.050447
vt 0.832072 0.051860
vt 0.841844 0.028269
vt 0.332072 0.051860
vt 0.341844 0.028269
vt 0.791840 0.039656
vt 0.796822 0.014612
vt 0.291840 0.039656
vt 0.296822 0.014612
vt 0.750000 0.035535
vt 0.750000 0.010000
vt 0.250000 0.035535
vt 0.250000 0.010000
vt 0.708160 0.039656
vt 0.703178 0.014612
vt 0.208160 0.039656
vt 0.203178 0.014612
vt 0.667928 0.051860
vt 0.658156 0.028269
vt 0.167928 0.051860
vt 0.158156 0.028269
vt 0.630850 0.071679
vt 0.616663 0.050447
vt 0.130850 0.071679
vt 0.116663 0.050447
vt 0.598350 0.098350
vt 0.580294 0.080294
vt 0.098350 0.098350
vt 0.080294 0.080294
vt 0.571679 0.130850
vt 0.550447 0.116663
vt 0.071679 0.130850
vt 0.050447 0.116663
vt 0.551860 0.167928
vt 0.528269 0.158156
vt 0.051860 0.167928
vt 0.028269 0.158156
vt 0.539656 0.208160
vt 0.514612 0.203178
vt 0.039656 0.208160
vt 0.014612 0.203178
vt 0.535535 0.250000
vt 0.510000 0.250000
vt 0.035535 0.250000
vt 0.010000 0.250000
vt 0.539656 0.291840
vt 0.514612 0.296822
vt 0.039656 0.291840
vt 0.014612 0.296822
vt 0.551860 0.332072
vt 0.528269 0.341844
vt 0.051860 0.332072
vt 0.028269 0.341844
vt 0.571679 0.369150
vt 0.550447 0.383337
vt 0.071679 0.369150
vt 0.050447 0.383337
vt 0.598350 0.401650
vt 0.580294 0.419706
vt 0.098350 0.401649
vt 0.080294 0.419706
vt 0.630850 0.428321
vt 0.616663 0.449553
vt 0.130850 0.428321
vt 0.116663 0.449553
vt 0.667928 0.448140
vt 0.658156 0.471731
vt 0.167928 0.448140
vt 0.158156 0.471731
vt 0.708160 0.460344
vt 0.703178 0.485388
vt 0.208160 0.460344
vt 0.203178 0.485388
s 1
usemtl Material.001
f 74/1/1 900/2/1 899/3/2 75/4/2
f 75/4/2 899/3/2 902/5/3 85/6/3
f 85/6/3 902/5/3 904/7/4 95/8/4
f 95/8/4 904/7/4 906/9/5 105/10/5
f 105/10/5 906/9/5 908/11/6 115/12/6
f 115/12/6 908/11/6 910/13/7 125/14/7
f 125/14/7 910/13/7 912/15/8 135/16/8
f 135/16/8 912/15/8 914/17/9 145/18/9
f 145/18/9 914/17/9 916/19/10 155/20/10
f 155/20/10 916/19/10 918/21/11 165/22/11
f 165/22/11 918/21/11 920/23/12 175/24/12
f 175/24/12 920/23/12 922/25/13 185/26/13
f 185/26/13 922/25/13 924/27/14 195/28/14
f 195/28/14 924/27/14 926/29/15 205/30/15
f 205/30/15 926/29/15 928/31/16 215/32/16
f 215/32/16 928/31/16 930/33/17 225/34/17
f 225/34/17 930/33/17 932/35/18 235/36/18
f 235/36/18 932/35/18 934/37/19 245/38/19
f 245/38/19 934/37/19 936/39/20 255/40/20
f 255/40/20 936/39/20 938/41/21 265/42/21
f 265/42/21 938/41/21 940/43/22 275/44/22
f 275/44/22 940/43/22 942/45/23 285/46/23
f 285/46/23 942/45/23 944/47/24 295/48/24
f 295/48/24 944/47/24 946/49/25 305/50/25
f 305/50/25 946/49/25 948/51/26 315/52/26
f 315/52/26 948/51/26 950/53/27 325/54/27
f 325/54/27 950/53/27 952/55/28 335/56/28
f 335/56/28 952/55/28 954/57/29 345/58/29
f 345/58/29 954/57/29 956/59/30 355/60/30
f 355/60/30 956/59/30 958/61/31 365/62/31
f 365/62/31 958/61/31 960/63/32 375/64/32
f 375/64/32 960/63/32 900/65/1 74/66/1
f 959/67/32 384/68/32 65/69/1 897/70/1
f 384/68/32 383/71/32 66/72/1 65/69/1
f 383/71/32 382/73/32 67/74/1 66/72/1
f 382/73/32 381/75/32 68/76/1 67/74/1
f 381/75/32 380/77/32 69/78/1 68/76/1
f 380/77/32 379/79/32 70/80/1 69/78/1
f 379/79/32 378/81/32 71/82/1 70/80/1
f 378/81/32 377/83/32 72/84/1 71/82/1
f 377/83/32 376/85/32 73/86/1 72/84/1
f 376/85/32 375/64/32 74/66/1 73/86/1
f 957/87/31 374/88/31 384/68/32 959/67/32
f 374/88/31 373/89/31 383/71/32 384/68/32
f 373/89/31 372/90/31 382/73/32 383/71/32
f 372/90/31 371/91/31 381/75/32 382/73/32
f 371/91/31 370/92/31 380/77/32 381/75/32
f 370/92/31 369/93/31 379/79/32 380/77/32
f 369/93/31 368/94/31 378/81/32 379/79/32
f 368/94/31 367/95/31 377/83/32 378/81/32
f 367/95/31 366/96/31 376/85/32 377/83/32
f 366/96/31 365/62/31 375/64/32 376/85/32
f 955/97/30 364/98/30 374/88/31 957/87/31
f 364/98/30 363/99/30 373/89/31 374/88/31
f 363/99/30 362/100/30 372/90/31 373/89/31
f 362/100/30 361/101/30 371/91/31 372/90/31
f 361/101/30 360/102/30 370/92/31 371/91/31
f 360/102/30 359/103/30 369/93/31 370/92/31
f 359/103/30 358/104/30 368/94/31 369/93/31
f 358/104/30 357/105/30 367/95/31 368/94/31
f 357/105/30 356/106/30 366/96/31 367/95/31
f 356/106/30 355/60/30 365/62/31 366/96/31
f 953/107/29 354/108/29 364/98/30 955/97/30
f 354/108/29 353/109/29 363/99/30 364/98/30
f 353/109/29 352/110/29 362/100/30 363/99/30
f 352/110/29 351/111/29 361/101/30 362/100/30
f 351/111/29 350/112/29 360/102/30 361/101/30
f 350/112/29 349/113/29 359/103/30 360/102/30
f 349/113/29 348/114/29 358/104/30 359/103/30
f 348/114/29 347/115/29 357/105/30 358/104/30
f 347/115/29 346/116/29 356/106/30 357/105/30
f 346/116/29 345/58/29 355/60/30 356/106/30
f 951/117/28 344/118/28 354/108/29 953/107/29
f 344/118/28 343/119/28 353/109/29 354/108/29
f 343/119/28 342/120/28 352/110/29 353/109/29
f 342/120/28 341/121/28 351/111/29 352/110/29
f 341/121/28 340/122/28 350/112/29 351/111/29
f 340/122/28 339/123/28 349/113/29 350/112/29
f 339/123/28 338/124/28 348/114/29 349/113/29
f 338/124/28 337/125/28 347/115/29 348/114/29
f 337/125/28 336/126/28 346/116/29 347/115/29
f 336/126/28 335/56/28 345/58/29 346/116/29
f 949/127/27 334/128/27 344/118/28 951/117/28
f 334/128/27 333/129/27 343/119/28 344/118/28
f 333/129/27 332/130/27 342/120/28 343/119/28
f 332/130/27 331/131/27 341/121/28 342/120/28
f 331/131/27 330/132/27 340/122/28 341/121/28
f 330/132/27 329/133/27 339/123/28 340/122/28
f 329/133/27 328/134/27 338/124/28 339/123/28
f 328/134/27 327/135/27 337/125/28 338/124/28
f 327/135/27 326/136/27 336/126/28 337/125/28
f 326/136/27 325/54/27 335/56/28 336/126/28
f 947/137/26 324/138/26 334/128/27 949/127/27
f 324/138/26 323/139/26 333/129/27 334/128/27
f 323/139/26 322/140/26 332/130/27 333/129/27
f 322/140/26 321/141/26 331/131/27 332/130/27
f 321/141/26 320/142/26 330/132/27 331/131/27
f 320/142/26 319/143/26 329/133/27 330/132/27
f 319/143/26 318/144/26 328/134/27 329/133/27
f 318/144/26 317/145/26 327/135/27 328/134/27
f 317/145/26 316/146/26 326/136/27 327/135/27
f 316/146/26 315/52/26 325/54/27 326/136/27
f 945/147/25 314/148/25 324/138/26 947/137/26
f 314/148/25 313/149/25 323/139/26 324/138/26
f 313/149/25 312/150/25 322/140/26 323/139/26
f 312/150/25 311/151/25 321/141/26 322/140/26
f 311/151/25 310/152/25 320/142/26 321/141/26
f 310/152/25 309/153/25 319/143/26 320/142/26
f 309/153/25 308/154/25 318/144/26 319/143/26
f 308/154/25 307/155/25 317/145/26 318/144/26
f 307/155/25 306/156/25 316/146/26 317/145/26
f 306/156/25 305/50/25 315/52/26 316/146/26
f 943/157/24 304/158/24 314/148/25 945/147/25
f 304/158/24 303/159/24 313/149/25 314/148/25
f 303/159/24 302/160/24 312/150/25 313/149/25
f 302/160/24 301/161/24 311/151/25 312/150/25
f 301/161/24 300/162/24 310/152/25 311/151/25
f 300/162/24 299/163/24 309/153/25 310/152/25
f 299/163/24 298/164/24 308/154/25 309/153/25
f 298/164/24 297/165/24 307/155/25 308/154/25
f 297/165/24 296/166/24 306/156/25 307/155/25
f 296/166/24 295/48/24 305/50/25 306/156/25
f 941/167/23 294/168/23 304/158/24 943/157/24
f 294/168/23 293/169/23 303/159/24 304/158/24
f 293/169/23 292/170/23 302/160/24 303/159/24
f 292/170/23 291/171/23 301/161/24 302/160/24
f 291/171/23 290/172/23 300/162/24 301/161/24
f 290/172/23 289/173/23 299/163/24 300/162/24
f 289/173/23 288/174/23 298/164/24 299/163/24
f 288/174/23 287/175/23 297/165/24 298/164/24
f 287/175/23 286/176/23 296/166/24 297/165/24
f 286/176/23 285/46/23 295/48/24 296/166/24
f 939/177/22 284/178/22 294/168/23 941/167/23
f 284/178/22 283/179/22 293/169/23 294/168/23
f 283/179/22 282/180/22 292/170/23 293/169/23
f 282/180/22 281/181/22 291/171/23 292/170/23
f 281/181/22 280/182/22 290/172/23 291/171/23
f 280/182/22 279/183/22 289/173/23 290/172/23
f 279/183/22 278/184/22 288/174/23 289/173/23
f 278/184/22 277/185/22 287/175/23 288/174/23
f 277/185/22 276/186/22 286/176/23 287/175/23
f 276/186/22 275/44/22 285/46/23 286/176/23
f 937/187/21 274/188/21 284/178/22 939/177/22
f 274/188/21 273/189/21 283/179/22 284/178/22
f 273/189/21 272/190/21 282/180/22 283/179/22
f 272/190/21 271/191/21 281/181/22 282/180/22
f 271/191/21 270/192/21 280/182/22 281/181/22
f 270/192/21 269/193/21 279/183/22 280/182/22
f 269/193/21 268/194/21 278/184/22 279/183/22
f 268/194/21 267/195/21 277/185/22 278/184/22
f 267/195/21 266/196/21 276/186/22 277/185/22
f 266/196/21 265/42/21 275/44/22 276/186/22
f 935/197/20 264/198/20 274/188/21 937/187/21
f 264/198/20 263/199/20 273/189/21 274/188/21
f 263/199/20 262/200/20 272/190/21 273/189/21
f 262/200/20 261/201/20 271/191/21 272/190/21
f 261/201/20 260/202/20 270/192/21 271/191/21
f 260/202/20 259/203/20 269/193/21 270/192/21
f 259/203/20 258/204/20 268/194/21 269/193/21
f 258/204/20 257/205/20 267/195/21 268/194/21
f 257/205/20 256/206/20 266/196/21 267/195/21
f 256/206/20 255/40/20 265/42/21 266/196/21
f 933/207/19 254/208/19 264/198/20 935/197/20
f 254/208/19 253/209/19 263/199/20 264/198/20
f 253/209/19 252/210/19 262/200/20 263/199/20
f 252/210/19 251/211/19 261/201/20 262/200/20
f 251/211/19 250/212/19 260/202/20 261/201/20
f 250/212/19 249/213/19 259/203/20 260/202/20
f 249/213/19 248/214/19 258/204/20 259/203/20
f 248/214/19 247/215/19 257/205/20 258/204/20
f 247/215/19 246/216/19 256/206/20 257/205/20
f 246/216/19 245/38/19 255/40/20 256/206/20
f 931/217/18 244/218/18 254/208/19 933/207/19
f 244/218/18 243/219/18 253/209/19 254/208/19
f 243/219/18 242/220/18 252/210/19 253/209/19
f 242/220/18 241/221/18 251/211/19 252/210/19
f 241/221/18 240/222/18 250/212/19 251/211/19
f 240/222/18 239/223/18 249/213/19 250/212/19
f 239/223/18 238/224/18 248/214/19 249/213/19
f 238/224/18 237/225/18 247/215/19 248/214/19
f 237/225/18 236/226/18 246/216/19 247/215/19
f 236/226/18 235/36/18 245/38/19 246/216/19
f 929/227/17 234/228/17 244/218/18 931/217/18
f 234/228/17 233/229/17 243/219/18 244/218/18
f 233/229/17 232/230/17 242/220/18 243/219/18
f 232/230/17 231/231/17 241/221/18 242/220/18
f 231/231/17 230/232/17 240/222/18 241/221/18
f 230/232/17 229/233/17 239/223/18 240/222/18
f 229/233/17 228/234/17 238/224/18 239/223/18
f 228/234/17 227/235/17 237/225/18 238/224/18
f 227/235/17 226/236/17 236/226/18 237/225/18
f 226/236/17 225/34/17 235/36/18 236/226/18
f 927/237/16 224/238/16 234/228/17 929/227/17
f 224/238/16 223/239/16 233/229/17 234/228/17
f 223/239/16 222/240/16 232/230/17 233/229/17
f 222/240/16 221/241/16 231/231/17 232/230/17
f 221/241/16 220/242/16 230/232/17 231/231/17
f 220/242/16 219/243/16 229/233/17 230/232/17
f 219/243/16 218/244/16 228/234/17 229/233/17
f 218/244/16 217/245/16 227/235/17 228/234/17
f 217/245/16 216/246/16 226/236/17 227/235/17
f 216/246/16 215/32/16 225/34/17 226/236/17
f 925/247/15 214/248/15 224/238/16 927/237/16
f 214/248/15 213/249/15 223/239/16 224/238/16
f 213/249/15 212/250/15 222/240/16 223/239/16
f 212/250/15 211/251/15 221/241/16 222/240/16
f 211/251/15 210/252/15 220/242/16 221/241/16
f 210/252/15 209/253/15 219/243/16 220/242/16
f 209/253/15 208/254/15 218/244/16 219/243/16
f 208/254/15 207/255/15 217/245/16 218/244/16
f 207/255/15 206/256/15 216/246/16 217/245/16
f 206/256/15 205/30/15 215/32/16 216/246/16
f 923/257/14 204/258/14 214/248/15 925/247/15
f 204/258/14 203/259/14 213/249/15 214/248/15
f 203/259/14 202/260/14 212/250/15 213/249/15
f 202/260/14 201/261/14 211/251/15 212/250/15
f 201/261/14 200/262/14 210/252/15 211/251/15
f 200/262/14 199/263/14 209/253/15 210/252/15
f 199/263/14 198/264/14 208/254/15 209/253/15
f 198/264/14 197/265/14 207/255/15 208/254/15
f 197/265/14 196/266/14 206/256/15 207/255/15
f 196/266/14 195/28/14 205/30/15 206/256/15
f 921/267/13 194/268/13 204/258/14 923/257/14
f 194/268/13 193/269/13 203/259/14 204/258/14
f 193/269/13 192/270/13 202/260/14 203/259/14
f 192/270/13 191/271/13 201/261/14 202/260/14
f 191/271/13 190/272/13 200/262/14 201/261/14
f 190/272/13 189/273/13 199/263/14 200/262/14
f 189/273/13 188/274/13 198/264/14 199/263/14
f 188/274/13 187/275/13 197/265/14 198/264/14
f 187/275/13 186/276/13 196/266/14 197/265/14
f 186/276/13 185/26/13 195/28/14 196/266/14
f 919/277/12 184/278/12 194/268/13 921/267/13
f 184/278/12 183/279/12 193/269/13 194/268/13
f 183/279/12 182/280/12 192/270/13 193/269/13
f 182/280/12 181/281/12 191/271/13 192/270/13
f 181/281/12 180/282/12 190/272/13 191/271/13
f 180/282/12 179/283/12 189/273/13 190/272/13
f 179/283/12 178/284/12 188/274/13 189/273/13
f 178/284/12 177/285/12 187/275/13 188/274/13
f 177/285/12 176/286/12 186/276/13 187/275/13
f 176/286/12 175/24/12 185/26/13 186/276/13
f 917/287/11 174/288/11 184/278/12 919/277/12
f 174/288/11 173/289/11 183/279/12 184/278/12
f 173/289/11 172/290/11 182/280/12 183/279/12
f 172/290/11 171/291/11 181/281/12 182/280/12
f 171/291/11 170/292/11 180/282/12 181/281/12
f 170/292/11 169/293/11 179/283/12 180/282/12
f 169/293/11 168/294/11 178/284/12 179/283/12
f 168/294/11 167/295/11 177/285/12 178/284/12
f 167/295/11 166/296/11 176/286/12 177/285/12
f 166/296/11 165/22/11 175/24/12 176/286/12
f 915/297/10 164/298/10 174/288/11 917/287/11
f 164/298/10 163/299/10 173/289/11 174/288/11
f 163/299/10 162/300/10 172/290/11 173/289/11
f 162/300/10 161/301/10 171/291/11 172/290/11
f 161/301/10 160/302/10 170/292/11 171/291/11
f 160/302/10 159/303/10 169/293/11 170/292/11
f 159/303/10 158/304/10 168/294/11 169/293/11
f 158/304/10 157/305/10 167/295/11 168/294/11
f 157/305/10 156/306/10 166/296/11 167/295/11
f 156/306/10 155/20/10 165/22/11 166/296/11
f 913/307/9 154/308/9 164/298/10 915/297/10
f 154/308/9 153/309/9 163/299/10 164/298/10
f 153/309/9 152/310/9 162/300/10 163/299/10
f 152/310/9 151/311/9 161/301/10 162/300/10
f 151/311/9 150/312/9 160/302/10 161/301/10
f 150/312/9 149/313/9 159/303/10 160/302/10
f 149/313/9 148/314/9 158/304/10 159/303/10
f 148/314/9 147/315/9 157/305/10 158/304/10
f 147/315/9 146/316/9 156/306/10 157/305/10
f 146/316/9 145/18/9 155/20/10 156/306/10
f 911/317/8 144/318/8 154/308/9 913/307/9
f 144/318/8 143/319/8 153/309/9 154/308/9
f 143/319/8 142/320/8 152/310/9 153/309/9
f 142/320/8 141/321/8 151/311/9 152/310/9
f 141/321/8 140/322/8 150/312/9 151/311/9
f 140/322/8 139/323/8 149/313/9 150/312/9
f 139/323/8 138/324/8 148/314/9 149/313/9
f 138/324/8 137/325/8 147/315/9 148/314/9
f 137/325/8 136/326/8 146/316/9 147/315/9
f 136/326/8 135/16/8 145/18/9 146/316/9
f 909/327/7 134/328/7 144/318/8 911/317/8
f 134/328/7 133/329/7 143/319/8 144/318/8
f 133/329/7 132/330/7 142/320/8 143/319/8
f 132/330/7 131/331/7 141/321/8 142/320/8
f 131/331/7 130/332/7 140/322/8 141/321/8
f 130/332/7 129/333/7 139/323/8 140/322/8
f 129/333/7 128/334/7 138/324/8 139/323/8
f 128/334/7 127/335/7 137/325/8 138/324/8
f 127/335/7 126/336/7 136/326/8 137/325/8
f 126/336/7 125/14/7 135/16/8 136/326/8
f 907/337/6 124/338/6 134/328/7 909/327/7
f 124/338/6 123/339/6 133/329/7 134/328/7
f 123/339/6 122/340/6 132/330/7 133/329/7
f 122/340/6 121/341/6 131/331/7 132/330/7
f 121/341/6 120/342/6 130/332/7 131/331/7
f 120/342/6 119/343/6 129/333/7 130/332/7
f 119/343/6 118/344/6 128/334/7 129/333/7
f 118/344/6 117/345/6 127/335/7 128/334/7
f 117/345/6 116/346/6 126/336/7 127/335/7
f 116/346/6 115/12/6 125/14/7 126/336/7
f 905/347/5 114/348/5 124/338/6 907/337/6
f 114/348/5 113/349/5 123/339/6 124/338/6
f 113/349/5 112/350/5 122/340/6 123/339/6
f 112/350/5 111/351/5 121/341/6 122/340/6
f 111/351/5 110/352/5 120/342/6 121/341/6
f 110/352/5 109/353/5 119/343/6 120/342/6
f 109/353/5 108/354/5 118/344/6 119/343/6
f 108/354/5 107/355/5 117/345/6 118/344/6
f 107/355/5 106/356/5 116/346/6 117/345/6
f 106/356/5 105/10/5 115/12/6 116/346/6
f 903/357/4 104/358/4 114/348/5 905/347/5
f 104/358/4 103/359/4 113/349/5 114/348/5
f 103/359/4 102/360/4 112/350/5 113/349/5
f 102/360/4 101/361/4 111/351/5 112/350/5
f 101/361/4 100/362/4 110/352/5 111/351/5
f 100/362/4 99/363/4 109/353/5 110/352/5
f 99/363/4 98/364/4 108/354/5 109/353/5
f 98/364/4 97/365/4 107/355/5 108/354/5
f 97/365/4 96/366/4 106/356/5 107/355/5
f 96/366/4 95/8/4 105/10/5 106/356/5
f 901/367/3 94/368/3 104/358/4 903/357/4
f 94/368/3 93/369/3 103/359/4 104/358/4
f 93/369/3 92/370/3 102/360/4 103/359/4
f 92/370/3 91/371/3 101/361/4 102/360/4
f 91/371/3 90/372/3 100/362/4 101/361/4
f 90/372/3 89/373/3 99/363/4 100/362/4
f 89/373/3 88/374/3 98/364/4 99/363/4
f 88/374/3 87/375/3 97/365/4 98/364/4
f 87/375/3 86/376/3 96/366/4 97/365/4
f 86/376/3 85/6/3 95/8/4 96/366/4
f 898/377/2 84/378/2 94/368/3 901/367/3
f 84/378/2 83/379/2 93/369/3 94/368/3
f 83/379/2 82/380/2 92/370/3 93/369/3
f 82/380/2 81/381/2 91/371/3 92/370/3
f 81/381/2 80/382/2 90/372/3 91/371/3
f 80/382/2 79/383/2 89/373/3 90/372/3
f 79/383/2 78/384/2 88/374/3 89/373/3
f 78/384/2 77/385/2 87/375/3 88/374/3
f 77/385/2 76/386/2 86/376/3 87/375/3
f 76/386/2 75/4/2 85/6/3 86/376/3
f 897/387/1 65/388/1 84/378/2 898/377/2
f 65/388/1 66/389/1 83/379/2 84/378/2
f 66/389/1 67/390/1 82/380/2 83/379/2
f 67/390/1 68/391/1 81/381/2 82/380/2
f 68/391/1 69/392/1 80/382/2 81/381/2
f 69/392/1 70/393/1 79/383/2 80/382/2
f 70/393/1 71/394/1 78/384/2 79/383/2
f 71/394/1 72/395/1 77/385/2 78/384/2
f 72/395/1 73/396/1 76/386/2 77/385/2
f 73/396/1 74/1/1 75/4/2 76/386/2
f 640/71/16 385/72/17 386/74/17 639/73/16
f 638/75/16 387/76/17 388/78/17 637/77/16
f 636/81/16 389/82/17 390/84/17 635/83/16
f 634/85/16 391/86/17 392/66/17 633/64/16
f 632/89/15 640/71/16 639/73/16 631/90/15
f 630/91/15 638/75/16 637/77/16 629/92/15
f 628/94/15 636/81/16 635/83/16 627/95/15
f 626/96/15 634/85/16 633/64/16 625/62/15
f 624/99/14 632/89/15 631/90/15 623/100/14
f 622/101/14 630/91/15 629/92/15 621/102/14
f 620/104/14 628/94/15 627/95/15 619/105/14
f 618/106/14 626/96/15 625/62/15 617/60/14
f 616/109/13 624/99/14 623/100/14 615/110/13
f 614/111/13 622/101/14 621/102/14 613/112/13
f 612/114/13 620/104/14 619/105/14 611/115/13
f 610/116/13 618/106/14 617/60/14 609/58/13
f 608/119/12 616/109/13 615/110/13 607/120/12
f 606/121/12 614/111/13 613/112/13 605/122/12
f 604/124/12 612/114/13 611/115/13 603/125/12
f 602/126/12 610/116/13 609/58/13 601/56/12
f 600/129/11 608/119/12 607/120/12 599/130/11
f 598/131/11 606/121/12 605/122/12 597/132/11
f 596/134/11 604/124/12 603/125/12 595/135/11
f 594/136/11 602/126/12 601/56/12 593/54/11
f 592/139/10 600/129/11 599/130/11 591/140/10
f 590/141/10 598/131/11 597/132/11 589/142/10
f 588/144/10 596/134/11 595/135/11 587/145/10
f 586/146/10 594/136/11 593/54/11 585/52/10
f 584/149/9 592/139/10 591/140/10 583/150/9
f 582/151/9 590/141/10 589/142/10 581/152/9
f 580/154/9 588/144/10 587/145/10 579/155/9
f 578/156/9 586/146/10 585/52/10 577/50/9
f 576/159/8 584/149/9 583/150/9 575/160/8
f 574/161/8 582/151/9 581/152/9 573/162/8
f 572/164/8 580/154/9 579/155/9 571/165/8
f 570/166/8 578/156/9 577/50/9 569/48/8
f 568/169/7 576/159/8 575/160/8 567/170/7
f 566/171/7 574/161/8 573/162/8 565/172/7
f 564/174/7 572/164/8 571/165/8 563/175/7
f 562/176/7 570/166/8 569/48/8 561/46/7
f 560/179/6 568/169/7 567/170/7 559/180/6
f 558/181/6 566/171/7 565/172/7 557/182/6
f 556/184/6 564/174/7 563/175/7 555/185/6
f 554/186/6 562/176/7 561/46/7 553/44/6
f 552/189/5 560/179/6 559/180/6 551/190/5
f 550/191/5 558/181/6 557/182/6 549/192/5
f 548/194/5 556/184/6 555/185/6 547/195/5
f 546/196/5 554/186/6 553/44/6 545/42/5
f 544/199/4 552/189/5 551/190/5 543/200/4
f 542/201/4 550/191/5 549/192/5 541/202/4
f 540/204/4 548/194/5 547/195/5 539/205/4
f 538/206/4 546/196/5 545/42/5 537/40/4
f 536/209/3 544/199/4 543/200/4 535/210/3
f 534/211/3 542/201/4 541/202/4 533/212/3
f 532/214/3 540/204/4 539/205/4 531/215/3
f 530/216/3 538/206/4 537/40/4 529/38/3
f 528/219/2 536/209/3 535/210/3 527/220/2
f 526/221/2 534/211/3 533/212/3 525/222/2
f 524/224/2 532/214/3 531/215/3 523/225/2
f 522/226/2 530/216/3 529/38/3 521/36/2
f 520/229/1 528/219/2 527/220/2 519/230/1
f 518/231/1 526/221/2 525/222/2 517/232/1
f 516/234/1 524/224/2 523/225/2 515/235/1
f 514/236/1 522/226/2 521/36/2 513/34/1
f 512/239/32 520/229/1 519/230/1 511/240/32
f 510/241/32 518/231/1 517/232/1 509/242/32
f 508/244/32 516/234/1 515/235/1 507/245/32
f 506/246/32 514/236/1 513/34/1 505/32/32
f 504/249/31 512/239/32 511/240/32 503/250/31
f 502/251/31 510/241/32 509/242/32 501/252/31
f 500/254/31 508/244/32 507/245/32 499/255/31
f 498/256/31 506/246/32 505/32/32 497/30/31
f 496/259/30 504/249/31 503/250/31 495/260/30
f 494/261/30 502/251/31 501/252/31 493/262/30
f 492/264/30 500/254/31 499/255/31 491/265/30
f 490/266/30 498/256/31 497/30/31 489/28/30
f 488/269/29 496/259/30 495/260/30 487/270/29
f 486/271/29 494/261/30 493/262/30 485/272/29
f 484/274/29 492/264/30 491/265/30 483/275/29
f 482/276/29 490/266/30 489/28/30 481/26/29
f 480/279/28 488/269/29 487/270/29 479/280/28
f 478/281/28 486/271/29 485/272/29 477/282/28
f 476/284/28 484/274/29 483/275/29 475/285/28
f 474/286/28 482/276/29 481/26/29 473/24/28
f 472/289/27 480/279/28 479/280/28 471/290/27
f 470/291/27 478/281/28 477/282/28 469/292/27
f 468/294/27 476/284/28 475/285/28 467/295/27
f 466/296/27 474/286/28 473/24/28 465/22/27
f 464/299/26 472/289/27 471/290/27 463/300/26
f 462/301/26 470/291/27 469/292/27 461/302/26
f 460/304/26 468/294/27 467/295/27 459/305/26
f 458/306/26 466/296/27 465/22/27 457/20/26
f 456/309/25 464/299/26 463/300/26 455/310/25
f 454/311/25 462/301/26 461/302/26 453/312/25
f 452/314/25 460/304/26 459/305/26 451/315/25
f 450/316/25 458/306/26 457/20/26 449/18/25
f 448/319/24 456/309/25 455/310/25 447/320/24
f 446/321/24 454/311/25 453/312/25 445/322/24
f 444/324/24 452/314/25 451/315/25 443/325/24
f 442/326/24 450/316/25 449/18/25 441/16/24
f 440/329/23 448/319/24 447/320/24 439/330/23
f 438/331/23 446/321/24 445/322/24 437/332/23
f 436/334/23 444/324/24 443/325/24 435/335/23
f 434/336/23 442/326/24 441/16/24 433/14/23
f 432/339/22 440/329/23 439/330/23 431/340/22
f 430/341/22 438/331/23 437/332/23 429/342/22
f 428/344/22 436/334/23 435/335/23 427/345/22
f 426/346/22 434/336/23 433/14/23 425/12/22
f 424/349/21 432/339/22 431/340/22 423/350/21
f 422/351/21 430/341/22 429/342/22 421/352/21
f 420/354/21 428/344/22 427/345/22 419/355/21
f 418/356/21 426/346/22 425/12/22 417/10/21
f 416/359/20 424/349/21 423/350/21 415/360/20
f 414/361/20 422/351/21 421/352/21 413/362/20
f 412/364/20 420/354/21 419/355/21 411/365/20
f 410/366/20 418/356/21 417/10/21 409/8/20
f 408/369/19 416/359/20 415/360/20 407/370/19
f 406/371/19 414/361/20 413/362/20 405/372/19
f 404/374/19 412/364/20 411/365/20 403/375/19
f 402/376/19 410/366/20 409/8/20 401/6/19
f 400/379/18 408/369/19 407/370/19 399/380/18
f 398/381/18 406/371/19 405/372/19 397/382/18
f 396/384/18 404/374/19 403/375/19 395/385/18
f 394/386/18 402/376/19 401/6/19 393/4/18
f 385/389/17 400/379/18 399/380/18 386/390/17
f 387/391/17 398/381/18 397/382/18 388/392/17
f 389/394/17 396/384/18 395/385/18 390/395/17
f 391/396/17 394/386/18 393/4/18 392/1/17
f 896/71/32 895/73/32 642/74/1 641/72/1
f 894/75/32 893/77/32 644/78/1 643/76/1
f 892/81/32 891/83/32 646/84/1 645/82/1
f 890/85/32 889/64/32 648/66/1 647/86/1
f 888/89/31 887/90/31 895/73/32 896/71/32
f 886/91/31 885/92/31 893/77/32 894/75/32
f 884/94/31 883/95/31 891/83/32 892/81/32
f 882/96/31 881/62/31 889/64/32 890/85/32
f 880/99/30 879/100/30 887/90/31 888/89/31
f 878/101/30 877/102/30 885/92/31 886/91/31
f 876/104/30 875/105/30 883/95/31 884/94/31
f 874/106/30 873/60/30 881/62/31 882/96/31
f 872/109/29 871/110/29 879/100/30 880/99/30
f 870/111/29 869/112/29 877/102/30 878/101/30
f 868/114/29 867/115/29 875/105/30 876/104/30
f 866/116/29 865/58/29 873/60/30 874/106/30
f 864/119/28 863/120/28 871/110/29 872/109/29
f 862/121/28 861/122/28 869/112/29 870/111/29
f 860/124/28 859/125/28 867/115/29 868/114/29
f 858/126/28 857/56/28 865/58/29 866/116/29
f 856/129/27 855/130/27 863/120/28 864/119/28
f 854/131/27 853/132/27 861/122/28 862/121/28
f 852/134/27 851/135/27 859/125/28 860/124/28
f 850/136/27 849/54/27 857/56/28 858/126/28
f 848/139/26 847/140/26 855/130/27 856/129/27
f 846/141/26 845/142/26 853/132/27 854/131/27
f 844/144/26 843/145/26 851/135/27 852/134/27
f 842/146/26 841/52/26 849/54/27 850/136/27
f 840/149/25 839/150/25 847/140/26 848/139/26
f 838/151/25 837/152/25 845/142/26 846/141/26
f 836/154/25 835/155/25 843/145/26 844/144/26
f 834/156/25 833/50/25 841/52/26 842/146/26
f 832/159/24 831/160/24 839/150/25 840/149/25
f 830/161/24 829/162/24 837/152/25 838/151/25
f 828/164/24 827/165/24 835/155/25 836/154/25
f 826/166/24 825/48/24 833/50/25 834/156/25
f 824/169/23 823/170/23 831/160/24 832/159/24
f 822/171/23 821/172/23 829/162/24 830/161/24
f 820/174/23 819/175/23 827/165/24 828/164/24
f 818/176/23 817/46/23 825/48/24 826/166/24
f 816/179/22 815/180/22 823/170/23 824/169/23
f 814/181/22 813/182/22 821/172/23 822/171/23
f 812/184/22 811/185/22 819/175/23 820/174/23
f 810/186/22 809/44/22 817/46/23 818/176/23
f 808/189/21 807/190/21 815/180/22 816/179/22
f 806/191/21 805/192/21 813/182/22 814/181/22
f 804/194/21 803/195/21 811/185/22 812/184/22
f 802/196/21 801/42/21 809/44/22 810/186/22
f 800/199/20 799/200/20 807/190/21 808/189/21
f 798/201/20 797/202/20 805/192/21 806/191/21
f 796/204/20 795/205/20 803/195/21 804/194/21
f 794/206/20 793/40/20 801/42/21 802/196/21
f 792/209/19 791/210/19 799/200/20 800/199/20
f 790/211/19 789/212/19 797/202/20 798/201/20
f 788/214/19 787/215/19 795/205/20 796/204/20
f 786/216/19 785/38/19 793/40/20 794/206/20
f 784/219/18 783/220/18 791/210/19 792/209/19
f 782/221/18 781/222/18 789/212/19 790/211/19
f 780/224/18 779/225/18 787/215/19 788/214/19
f 778/226/18 777/36/18 785/38/19 786/216/19
f 776/229/17 775/230/17 783/220/18 784/219/18
f 774/231/17 773/232/17 781/222/18 782/221/18
f 772/234/17 771/235/17 779/225/18 780/224/18
f 770/236/17 769/34/17 777/36/18 778/226/18
f 768/239/16 767/240/16 775/230/17 776/229/17
f 766/241/16 765/242/16 773/232/17 774/231/17
f 764/244/16 763/245/16 771/235/17 772/234/17
f 762/246/16 761/32/16 769/34/17 770/236/17
f 760/249/15 759/250/15 767/240/16 768/239/16
f 758/251/15 757/252/15 765/242/16 766/241/16
f 756/254/15 755/255/15 763/245/16 764/244/16
f 754/256/15 753/30/15 761/32/16 762/246/16
f 752/259/14 751/260/14 759/250/15 760/249/15
f 750/261/14 749/262/14 757/252/15 758/251/15
f 748/264/14 747/265/14 755/255/15 756/254/15
f 746/266/14 745/28/14 753/30/15 754/256/15
f 744/269/13 743/270/13 751/260/14 752/259/14
f 742/271/13 741/272/13 749/262/14 750/261/14
f 740/274/13 739/275/13 747/265/14 748/264/14
f 738/276/13 737/26/13 745/28/14 746/266/14
f 736/279/12 735/280/12 743/270/13 744/269/13
f 734/281/12 733/282/12 741/272/13 742/271/13
f 732/284/12 731/285/12 739/275/13 740/274/13
f 730/286/12 729/24/12 737/26/13 738/276/13
f 728/289/11 727/290/11 735/280/12 736/279/12
f 726/291/11 725/292/11 733/282/12 734/281/12
f 724/294/11 723/295/11 731/285/12 732/284/12
f 722/296/11 721/22/11 729/24/12 730/286/12
f 720/299/10 719/300/10 727/290/11 728/289/11
f 718/301/10 717/302/10 725/292/11 726/291/11
f 716/304/10 715/305/10 723/295/11 724/294/11
f 714/306/10 713/20/10 721/22/11 722/296/11
f 712/309/9 711/310/9 719/300/10 720/299/10
f 710/311/9 709/312/9 717/302/10 718/301/10
f 708/314/9 707/315/9 715/305/10 716/304/10
f 706/316/9 705/18/9 713/20/10 714/306/10
f 704/319/8 703/320/8 711/310/9 712/309/9
f 702/321/8 701/322/8 709/312/9 710/311/9
f 700/324/8 699/325/8 707/315/9 708/314/9
f 698/326/8 697/16/8 705/18/9 706/316/9
f 696/329/7 695/330/7 703/320/8 704/319/8
f 694/331/7 693/332/7 701/322/8 702/321/8
f 692/334/7 691/335/7 699/325/8 700/324/8
f 690/336/7 689/14/7 697/16/8 698/326/8
f 688/339/6 687/340/6 695/330/7 696/329/7
f 686/341/6 685/342/6 693/332/7 694/331/7
f 684/344/6 683/345/6 691/335/7 692/334/7
f 682/346/6 681/12/6 689/14/7 690/336/7
f 680/349/5 679/350/5 687/340/6 688/339/6
f 678/351/5 677/352/5 685/342/6 686/341/6
f 676/354/5 675/355/5 683/345/6 684/344/6
f 674/356/5 673/10/5 681/12/6 682/346/6
f 672/359/4 671/360/4 679/350/5 680/349/5
f 670/361/4 669/362/4 677/352/5 678/351/5
f 668/364/4 667/365/4 675/355/5 676/354/5
f 666/366/4 665/8/4 673/10/5 674/356/5
f 664/369/3 663/370/3 671/360/4 672/359/4
f 662/371/3 661/372/3 669/362/4 670/361/4
f 660/374/3 659/375/3 667/365/4 668/364/4
f 658/376/3 657/6/3 665/8/4 666/366/4
f 656/379/2 655/380/2 663/370/3 664/369/3
f 654/381/2 653/382/2 661/372/3 662/371/3
f 652/384/2 651/385/2 659/375/3 660/374/3
f 650/386/2 649/4/2 657/6/3 658/376/3
f 641/389/1 642/390/1 655/380/2 656/379/2
f 643/391/1 644/392/1 653/382/2 654/381/2
f 645/394/1 646/395/1 651/385/2 652/384/2
f 647/396/1 648/1/1 649/4/2 650/386/2
f 410/366/33 402/376/33 658/376/33 666/366/33
f 514/236/33 506/246/33 762/246/33 770/236/33
f 618/106/33 610/116/33 866/116/33 874/106/33
f 401/6/34 409/8/34 665/8/34 657/6/34
f 505/32/34 513/34/34 769/34/34 761/32/34
f 609/58/34 617/60/34 873/60/34 865/58/34
f 408/369/33 400/379/33 656/379/33 664/369/33
f 512/239/33 504/249/33 760/249/33 768/239/33
f 616/109/33 608/119/33 864/119/33 872/109/33
f 399/380/34 407/370/34 663/370/34 655/380/34
f 503/250/34 511/240/34 767/240/34 759/250/34
f 607/120/34 615/110/34 871/110/34 863/120/34
f 406/371/33 398/381/33 654/381/33 662/371/33
f 510/241/33 502/251/33 758/251/33 766/241/33
f 614/111/33 606/121/33 862/121/33 870/111/33
f 397/382/34 405/372/34 661/372/34 653/382/34
f 501/252/34 509/242/34 765/242/34 757/252/34
f 605/122/34 613/112/34 869/112/34 861/122/34
f 404/374/33 396/384/33 652/384/33 660/374/33
f 508/244/33 500/254/33 756/254/33 764/244/33
f 612/114/33 604/124/33 860/124/33 868/114/33
f 395/385/34 403/375/34 659/375/34 651/385/34
f 499/255/34 507/245/34 763/245/34 755/255/34
f 603/125/34 611/115/34 867/115/34 859/125/34
f 402/376/33 394/386/33 650/386/33 658/376/33
f 506/246/33 498/256/33 754/256/33 762/246/33
f 610/116/33 602/126/33 858/126/33 866/116/33
f 393/4/34 401/6/34 657/6/34 649/4/34
f 497/30/34 505/32/34 761/32/34 753/30/34
f 601/56/34 609/58/34 865/58/34 857/56/34
f 400/379/33 385/389/33 641/389/33 656/379/33
f 504/249/33 496/259/33 752/259/33 760/249/33
f 608/119/33 600/129/33 856/129/33 864/119/33
f 386/390/34 399/380/34 655/380/34 642/390/34
f 495/260/34 503/250/34 759/250/34 751/260/34
f 599/130/34 607/120/34 863/120/34 855/130/34
f 398/381/33 387/391/33 643/391/33 654/381/33
f 502/251/33 494/261/33 750/261/33 758/251/33
f 606/121/33 598/131/33 854/131/33 862/121/33
f 388/392/34 397/382/34 653/382/34 644/392/34
f 493/262/34 501/252/34 757/252/34 749/262/34
f 597/132/34 605/122/34 861/122/34 853/132/34
f 396/384/33 389/394/33 645/394/33 652/384/33
f 500/254/33 492/264/33 748/264/33 756/254/33
f 604/124/33 596/134/33 852/134/33 860/124/33
f 390/395/34 395/385/34 651/385/34 646/395/34
f 491/265/34 499/255/34 755/255/34 747/265/34
f 595/135/34 603/125/34 859/125/34 851/135/34
f 394/386/33 391/396/33 647/396/33 650/386/33
f 498/256/33 490/266/33 746/266/33 754/256/33
f 602/126/33 594/136/33 850/136/33 858/126/33
f 392/1/34 393/4/34 649/4/34 648/1/34
f 489/28/34 497/30/34 753/30/34 745/28/34
f 593/54/34 601/56/34 857/56/34 849/54/34
f 496/259/33 488/269/33 744/269/33 752/259/33
f 600/129/33 592/139/33 848/139/33 856/129/33
f 487/270/34 495/260/34 751/260/34 743/270/34
f 591/140/34 599/130/34 855/130/34 847/140/34
f 494/261/33 486/271/33 742/271/33 750/261/33
f 598/131/33 590/141/33 846/141/33 854/131/33
f 485/272/34 493/262/34 749/262/34 741/272/34
f 589/142/34 597/132/34 853/132/34 845/142/34
f 492/264/33 484/274/33 740/274/33 748/264/33
f 596/134/33 588/144/33 844/144/33 852/134/33
f 483/275/34 491/265/34 747/265/34 739/275/34
f 587/145/34 595/135/34 851/135/34 843/145/34
f 490/266/33 482/276/33 738/276/33 746/266/33
f 594/136/33 586/146/33 842/146/33 850/136/33
f 481/26/34 489/28/34 745/28/34 737/26/34
f 585/52/34 593/54/34 849/54/34 841/52/34
f 488/269/33 480/279/33 736/279/33 744/269/33
f 592/139/33 584/149/33 840/149/33 848/139/33
f 479/280/34 487/270/34 743/270/34 735/280/34
f 583/150/34 591/140/34 847/140/34 839/150/34
f 486/271/33 478/281/33 734/281/33 742/271/33
f 590/141/33 582/151/33 838/151/33 846/141/33
f 477/282/34 485/272/34 741/272/34 733/282/34
f 581/152/34 589/142/34 845/142/34 837/152/34
f 484/274/33 476/284/33 732/284/33 740/274/33
f 588/144/33 580/154/33 836/154/33 844/144/33
f 475/285/34 483/275/34 739/275/34 731/285/34
f 579/155/34 587/145/34 843/145/34 835/155/34
f 482/276/33 474/286/33 730/286/33 738/276/33
f 586/146/33 578/156/33 834/156/33 842/146/33
f 473/24/34 481/26/34 737/26/34 729/24/34
f 577/50/34 585/52/34 841/52/34 833/50/34
f 480/279/33 472/289/33 728/289/33 736/279/33
f 584/149/33 576/159/33 832/159/33 840/149/33
f 471/290/34 479/280/34 735/280/34 727/290/34
f 575/160/34 583/150/34 839/150/34 831/160/34
f 478/281/33 470/291/33 726/291/33 734/281/33
f 582/151/33 574/161/33 830/161/33 838/151/33
f 469/292/34 477/282/34 733/282/34 725/292/34
f 573/162/34 581/152/34 837/152/34 829/162/34
f 476/284/33 468/294/33 724/294/33 732/284/33
f 580/154/33 572/164/33 828/164/33 836/154/33
f 467/295/34 475/285/34 731/285/34 723/295/34
f 571/165/34 579/155/34 835/155/34 827/165/34
f 474/286/33 466/296/33 722/296/33 730/286/33
f 578/156/33 570/166/33 826/166/33 834/156/33
f 465/22/34 473/24/34 729/24/34 721/22/34
f 569/48/34 577/50/34 833/50/34 825/48/34
f 472/289/33 464/299/33 720/299/33 728/289/33
f 576/159/33 568/169/33 824/169/33 832/159/33
f 463/300/34 471/290/34 727/290/34 719/300/34
f 567/170/34 575/160/34 831/160/34 823/170/34
f 470/291/33 462/301/33 718/301/33 726/291/33
f 574/161/33 566/171/33 822/171/33 830/161/33
f 461/302/34 469/292/34 725/292/34 717/302/34
f 565/172/34 573/162/34 829/162/34 821/172/34
f 468/294/33 460/304/33 716/304/33 724/294/33
f 572/164/33 564/174/33 820/174/33 828/164/33
f 459/305/34 467/295/34 723/295/34 715/305/34
f 563/175/34 571/165/34 827/165/34 819/175/34
f 466/296/33 458/306/33 714/306/33 722/296/33
f 570/166/33 562/176/33 818/176/33 826/166/33
f 457/20/34 465/22/34 721/22/34 713/20/34
f 561/46/34 569/48/34 825/48/34 817/46/34
f 464/299/33 456/309/33 712/309/33 720/299/33
f 568/169/33 560/179/33 816/179/33 824/169/33
f 455/310/34 463/300/34 719/300/34 711/310/34
f 559/180/34 567/170/34 823/170/34 815/180/34
f 462/301/33 454/311/33 710/311/33 718/301/33
f 566/171/33 558/181/33 814/181/33 822/171/33
f 453/312/34 461/302/34 717/302/34 709/312/34
f 557/182/34 565/172/34 821/172/34 813/182/34
f 460/304/33 452/314/33 708/314/33 716/304/33
f 564/174/33 556/184/33 812/184/33 820/174/33
f 451/315/34 459/305/34 715/305/34 707/315/34
f 555/185/34 563/175/34 819/175/34 811/185/34
f 458/306/33 450/316/33 706/316/33 714/306/33
f 562/176/33 554/186/33 810/186/33 818/176/33
f 449/18/34 457/20/34 713/20/34 705/18/34
f 553/44/34 561/46/34 817/46/34 809/44/34
f 456/309/33 448/319/33 704/319/33 712/309/33
f 560/179/33 552/189/33 808/189/33 816/179/33
f 447/320/34 455/310/34 711/310/34 703/320/34
f 551/190/34 559/180/34 815/180/34 807/190/34
f 454/311/33 446/321/33 702/321/33 710/311/33
f 558/181/33 550/191/33 806/191/33 814/181/33
f 445/322/34 453/312/34 709/312/34 701/322/34
f 549/192/34 557/182/34 813/182/34 805/192/34
f 452/314/33 444/324/33 700/324/33 708/314/33
f 556/184/33 548/194/33 804/194/33 812/184/33
f 443/325/34 451/315/34 707/315/34 699/325/34
f 547/195/34 555/185/34 811/185/34 803/195/34
f 450/316/33 442/326/33 698/326/33 706/316/33
f 554/186/33 546/196/33 802/196/33 810/186/33
f 441/16/34 449/18/34 705/18/34 697/16/34
f 545/42/34 553/44/34 809/44/34 801/42/34
f 448/319/33 440/329/33 696/329/33 704/319/33
f 552/189/33 544/199/33 800/199/33 808/189/33
f 439/330/34 447/320/34 703/320/34 695/330/34
f 543/200/34 551/190/34 807/190/34 799/200/34
f 446/321/33 438/331/33 694/331/33 702/321/33
f 550/191/33 542/201/33 798/201/33 806/191/33
f 437/332/34 445/322/34 701/322/34 693/332/34
f 541/202/34 549/192/34 805/192/34 797/202/34
f 444/324/33 436/334/33 692/334/33 700/324/33
f 548/194/33 540/204/33 796/204/33 804/194/33
f 435/335/34 443/325/34 699/325/34 691/335/34
f 539/205/34 547/195/34 803/195/34 795/205/34
f 442/326/33 434/336/33 690/336/33 698/326/33
f 546/196/33 538/206/33 794/206/33 802/196/33
f 433/14/34 441/16/34 697/16/34 689/14/34
f 537/40/34 545/42/34 801/42/34 793/40/34
f 440/329/33 432/339/33 688/339/33 696/329/33
f 544/199/33 536/209/33 792/209/33 800/199/33
f 385/72/33 640/71/33 896/71/33 641/72/33
f 431/340/34 439/330/34 695/330/34 687/340/34
f 535/210/34 543/200/34 799/200/34 791/210/34
f 639/73/34 386/74/34 642/74/34 895/73/34
f 438/331/33 430/341/33 686/341/33 694/331/33
f 542/201/33 534/211/33 790/211/33 798/201/33
f 387/76/33 638/75/33 894/75/33 643/76/33
f 429/342/34 437/332/34 693/332/34 685/342/34
f 533/212/34 541/202/34 797/202/34 789/212/34
f 637/77/34 388/78/34 644/78/34 893/77/34
f 436/334/33 428/344/33 684/344/33 692/334/33
f 540/204/33 532/214/33 788/214/33 796/204/33
f 389/82/33 636/81/33 892/81/33 645/82/33
f 427/345/34 435/335/34 691/335/34 683/345/34
f 531/215/34 539/205/34 795/205/34 787/215/34
f 635/83/34 390/84/34 646/84/34 891/83/34
f 434/336/33 426/346/33 682/346/33 690/336/33
f 538/206/33 530/216/33 786/216/33 794/206/33
f 391/86/33 634/85/33 890/85/33 647/86/33
f 425/12/34 433/14/34 689/14/34 681/12/34
f 529/38/34 537/40/34 793/40/34 785/38/34
f 633/64/34 392/66/34 648/66/34 889/64/34
f 432/339/33 424/349/33 680/349/33 688/339/33
f 536/209/33 528/219/33 784/219/33 792/209/33
f 640/71/33 632/89/33 888/89/33 896/71/33
f 423/350/34 431/340/34 687/340/34 679/350/34
f 527/220/34 535/210/34 791/210/34 783/220/34
f 631/90/34 639/73/34 895/73/34 887/90/34
f 430/341/33 422/351/33 678/351/33 686/341/33
f 534/211/33 526/221/33 782/221/33 790/211/33
f 638/75/33 630/91/33 886/91/33 894/75/33
f 421/352/34 429/342/34 685/342/34 677/352/34
f 525/222/34 533/212/34 789/212/34 781/222/34
f 629/92/34 637/77/34 893/77/34 885/92/34
f 428/344/33 420/354/33 676/354/33 684/344/33
f 532/214/33 524/224/33 780/224/33 788/214/33
f 636/81/33 628/94/33 884/94/33 892/81/33
f 419/355/34 427/345/34 683/345/34 675/355/34
f 523/225/34 531/215/34 787/215/34 779/225/34
f 627/95/34 635/83/34 891/83/34 883/95/34
f 426/346/33 418/356/33 674/356/33 682/346/33
f 530/216/33 522/226/33 778/226/33 786/216/33
f 634/85/33 626/96/33 882/96/33 890/85/33
f 417/10/34 425/12/34 681/12/34 673/10/34
f 521/36/34 529/38/34 785/38/34 777/36/34
f 625/62/34 633/64/34 889/64/34 881/62/34
f 424/349/33 416/359/33 672/359/33 680/349/33
f 528/219/33 520/229/33 776/229/33 784/219/33
f 632/89/33 624/99/33 880/99/33 888/89/33
f 415/360/34 423/350/34 679/350/34 671/360/34
f 519/230/34 527/220/34 783/220/34 775/230/34
f 623/100/34 631/90/34 887/90/34 879/100/34
f 422/351/33 414/361/33 670/361/33 678/351/33
f 526/221/33 518/231/33 774/231/33 782/221/33
f 630/91/33 622/101/33 878/101/33 886/91/33
f 413/362/34 421/352/34 677/352/34 669/362/34
f 517/232/34 525/222/34 781/222/34 773/232/34
f 621/102/34 629/92/34 885/92/34 877/102/34
f 420/354/33 412/364/33 668/364/33 676/354/33
f 524/224/33 516/234/33 772/234/33 780/224/33
f 628/94/33 620/104/33 876/104/33 884/94/33
f 411/365/34 419/355/34 675/355/34 667/365/34
f 515/235/34 523/225/34 779/225/34 771/235/34
f 619/105/34 627/95/34 883/95/34 875/105/34
f 418/356/33 410/366/33 666/366/33 674/356/33
f 522/226/33 514/236/33 770/236/33 778/226/33
f 626/96/33 618/106/33 874/106/33 882/96/33
f 409/8/34 417/10/34 673/10/34 665/8/34
f 513/34/34 521/36/34 777/36/34 769/34/34
f 617/60/34 625/62/34 881/62/34 873/60/34
f 416/359/33 408/369/33 664/369/33 672/359/33
f 520/229/33 512/239/33 768/239/33 776/229/33
f 624/99/33 616/109/33 872/109/33 880/99/33
f 407/370/34 415/360/34 671/360/34 663/370/34
f 511/240/34 519/230/34 775/230/34 767/240/34
f 615/110/34 623/100/34 879/100/34 871/110/34
f 414/361/33 406/371/33 662/371/33 670/361/33
f 518/231/33 510/241/33 766/241/33 774/231/33
f 622/101/33 614/111/33 870/111/33 878/101/33
f 405/372/34 413/362/34 669/362/34 661/372/34
f 509/242/34 517/232/34 773/232/34 765/242/34
f 613/112/34 621/102/34 877/102/34 869/112/34
f 412/364/33 404/374/33 660/374/33 668/364/33
f 516/234/33 508/244/33 764/244/33 772/234/33
f 620/104/33 612/114/33 868/114/33 876/104/33
f 403/375/34 411/365/34 667/365/34 659/375/34
f 507/245/34 515/235/34 771/235/34 763/245/34
f 611/115/34 619/105/34 875/105/34 867/115/34
f 3/397/33 1/398/33 897/399/33 898/400/33
f 2/401/34 4/402/34 899/403/34 900/404/34
f 5/405/35 3/397/33 898/400/33 901/406/35
f 4/402/34 6/407/34 902/408/34 899/403/34
f 7/409/33 5/405/35 901/406/35 903/410/33
f 6/407/34 8/411/34 904/412/34 902/408/34
f 9/413/33 7/409/33 903/410/33 905/414/33
f 8/411/34 10/415/34 906/416/34 904/412/34
f 11/417/33 9/413/33 905/414/33 907/418/33
f 10/415/34 12/419/34 908/420/34 906/416/34
f 13/421/33 11/417/33 907/418/33 909/422/33
f 12/419/34 14/423/34 910/424/34 908/420/34
f 15/425/33 13/421/33 909/422/33 911/426/33
f 14/423/34 16/427/34 912/428/34 910/424/34
f 17/429/33 15/425/33 911/426/33 913/430/33
f 16/427/34 18/431/34 914/432/34 912/428/34
f 19/433/33 17/429/33 913/430/33 915/434/33
f 18/431/34 20/435/34 916/436/34 914/432/34
f 21/437/33 19/433/33 915/434/33 917/438/33
f 20/435/34 22/439/34 918/440/34 916/436/34
f 23/441/33 21/437/33 917/438/33 919/442/33
f 22/439/34 24/443/34 920/444/34 918/440/34
f 25/445/33 23/441/33 919/442/33 921/446/33
f 24/443/34 26/447/34 922/448/34 920/444/34
f 27/449/33 25/445/33 921/446/33 923/450/33
f 26/447/34 28/451/34 924/452/34 922/448/34
f 29/453/33 27/449/33 923/450/33 925/454/33
f 28/451/34 30/455/34 926/456/34 924/452/34
f 31/457/33 29/453/33 925/454/33 927/458/33
f 30/455/34 32/459/34 928/460/34 926/456/34
f 33/461/33 31/457/33 927/458/33 929/462/33
f 32/459/34 34/463/34 930/464/34 928/460/34
f 35/465/33 33/461/33 929/462/33 931/466/33
f 34/463/34 36/467/34 932/468/34 930/464/34
f 37/469/36 35/465/33 931/466/33 933/470/36
f 36/467/34 38/471/34 934/472/34 932/468/34
f 39/473/33 37/469/36 933/470/36 935/474/33
f 38/471/34 40/475/34 936/476/34 934/472/34
f 41/477/33 39/473/33 935/474/33 937/478/33
f 40/475/34 42/479/34 938/480/34 936/476/34
f 43/481/33 41/477/33 937/478/33 939/482/33
f 42/479/34 44/483/34 940/484/34 938/480/34
f 45/485/33 43/481/33 939/482/33 941/486/33
f 44/483/34 46/487/34 942/488/34 940/484/34
f 47/489/33 45/485/33 941/486/33 943/490/33
f 46/487/34 48/491/34 944/492/34 942/488/34
f 49/493/33 47/489/33 943/490/33 945/494/33
f 48/491/34 50/495/34 946/496/34 944/492/34
f 51/497/33 49/493/33 945/494/33 947/498/33
f 50/495/34 52/499/34 948/500/34 946/496/34
f 53/501/33 51/497/33 947/498/33 949/502/33
f 52/499/34 54/503/34 950/504/34 948/500/34
f 55/505/33 53/501/33 949/502/33 951/506/33
f 54/503/34 56/507/34 952/508/34 950/504/34
f 57/509/33 55/505/33 951/506/33 953/510/33
f 56/507/34 58/511/34 954/512/34 952/508/34
f 59/513/33 57/509/33 953/510/33 955/514/33
f 58/511/34 60/515/34 956/516/34 954/512/34
f 61/517/33 59/513/33 955/514/33 957/518/33
f 60/515/34 62/519/34 958/520/34 956/516/34
f 63/521/33 61/517/33 957/518/33 959/522/33
f 62/519/34 64/523/34 960/524/34 958/520/34
f 1/398/33 63/521/33 959/522/33 897/399/33
f 64/523/34 2/401/34 900/404/34 960/524/34
