# Blender 4.4.0
# www.blender.org
o Cube.021
v -9.621589 5.017283 -4.181565
v -9.621589 5.023405 -4.175445
v -9.627710 5.023405 -4.181565
v -9.621589 5.019076 -4.177237
v -9.625123 5.019871 -4.178031
v -9.625917 5.023405 -4.177237
v -9.625917 5.019076 -4.181565
v -9.621589 5.473804 -4.175445
v -9.621589 5.479925 -4.181565
v -9.627710 5.473804 -4.181565
v -9.621589 5.478132 -4.177237
v -9.625123 5.477337 -4.178031
v -9.625917 5.478132 -4.181565
v -9.625917 5.473804 -4.177237
v -9.621589 5.017283 -4.459533
v -9.627710 5.023405 -4.459533
v -9.621589 5.023405 -4.465653
v -9.625917 5.019076 -4.459533
v -9.625123 5.019871 -4.463067
v -9.625917 5.023405 -4.463861
v -9.621589 5.019076 -4.463861
v -9.621589 5.479925 -4.459533
v -9.621589 5.473804 -4.465653
v -9.627710 5.473804 -4.459533
v -9.621589 5.478132 -4.463861
v -9.625123 5.477337 -4.463067
v -9.625917 5.473804 -4.463861
v -9.625917 5.478132 -4.459533
v -9.343623 5.017283 -4.181565
v -9.337502 5.023405 -4.181565
v -9.343623 5.023405 -4.175445
v -9.339294 5.019076 -4.181565
v -9.340088 5.019871 -4.178031
v -9.339294 5.023405 -4.177237
v -9.343623 5.019076 -4.177237
v -9.343623 5.479925 -4.181565
v -9.343623 5.473804 -4.175445
v -9.337502 5.473804 -4.181565
v -9.343623 5.478132 -4.177237
v -9.340088 5.477337 -4.178031
v -9.339294 5.473804 -4.177237
v -9.339294 5.478132 -4.181565
v -9.343623 5.017283 -4.459533
v -9.343623 5.023405 -4.465653
v -9.337502 5.023405 -4.459533
v -9.343623 5.019076 -4.463861
v -9.340088 5.019871 -4.463067
v -9.339294 5.023405 -4.463861
v -9.339294 5.019076 -4.459533
v -9.343623 5.479925 -4.459533
v -9.337502 5.473804 -4.459533
v -9.343623 5.473804 -4.465653
v -9.339294 5.478132 -4.459533
v -9.340088 5.477337 -4.463067
v -9.339294 5.473804 -4.463861
v -9.343623 5.478132 -4.463861
vn -0.1794 -0.9673 0.1794
vn -0.1794 -0.1794 0.9673
vn -0.9673 -0.1794 0.1794
vn -0.1726 -0.6965 0.6965
vn -0.5773 -0.5773 0.5774
vn -0.6965 -0.1726 0.6965
vn -0.6965 -0.6965 0.1726
vn -0.1794 0.1794 0.9673
vn -0.1794 0.9673 0.1794
vn -0.9673 0.1794 0.1794
vn -0.1726 0.6965 0.6965
vn -0.5773 0.5773 0.5774
vn -0.6965 0.6965 0.1726
vn -0.6965 0.1726 0.6965
vn -0.1794 -0.9673 -0.1794
vn -0.9673 -0.1794 -0.1794
vn -0.1794 -0.1794 -0.9673
vn -0.6965 -0.6965 -0.1726
vn -0.5773 -0.5773 -0.5774
vn -0.6965 -0.1726 -0.6965
vn -0.1726 -0.6965 -0.6965
vn -0.1794 0.9673 -0.1794
vn -0.1794 0.1794 -0.9673
vn -0.9673 0.1794 -0.1794
vn -0.1726 0.6965 -0.6965
vn -0.5773 0.5773 -0.5774
vn -0.6965 0.1726 -0.6965
vn -0.6965 0.6965 -0.1726
vn 0.1794 -0.9673 0.1794
vn 0.9673 -0.1794 0.1794
vn 0.1794 -0.1794 0.9673
vn 0.6965 -0.6965 0.1726
vn 0.5773 -0.5773 0.5774
vn 0.6965 -0.1726 0.6965
vn 0.1726 -0.6965 0.6965
vn 0.1794 0.9673 0.1794
vn 0.1794 0.1794 0.9673
vn 0.9673 0.1794 0.1794
vn 0.1726 0.6965 0.6965
vn 0.5773 0.5773 0.5774
vn 0.6965 0.1726 0.6965
vn 0.6965 0.6965 0.1726
vn 0.1794 -0.9673 -0.1794
vn 0.1794 -0.1794 -0.9673
vn 0.9673 -0.1794 -0.1794
vn 0.1726 -0.6965 -0.6965
vn 0.5773 -0.5773 -0.5774
vn 0.6965 -0.1726 -0.6965
vn 0.6965 -0.6965 -0.1726
vn 0.1794 0.9673 -0.1794
vn 0.9673 0.1794 -0.1794
vn 0.1794 0.1794 -0.9673
vn 0.6965 0.6965 -0.1726
vn 0.5773 0.5773 -0.5774
vn 0.6965 0.1726 -0.6965
vn 0.1726 0.6965 -0.6965
vt 0.638983 0.274801
vt 0.638983 0.725199
vt 0.361017 0.725199
vt 0.361017 0.274801
vt 0.638984 0.274801
vt 0.638984 0.725199
vt 0.361016 0.725199
vt 0.361016 0.274801
vt 0.638983 0.638984
vt 0.361017 0.638984
vt 0.361017 0.361016
vt 0.638983 0.361016
vt 0.361017 0.356688
vt 0.357483 0.357482
vt 0.356688 0.361016
vt 0.356688 0.274801
vt 0.357483 0.271267
vt 0.361017 0.270472
vt 0.361016 0.270472
vt 0.357482 0.271267
vt 0.356688 0.274801
vt 0.361017 0.729528
vt 0.357483 0.728733
vt 0.356688 0.725199
vt 0.356688 0.725199
vt 0.357482 0.728733
vt 0.361016 0.729528
vt 0.356688 0.638984
vt 0.357483 0.642518
vt 0.361017 0.643312
vt 0.643312 0.274801
vt 0.642518 0.271267
vt 0.638984 0.270472
vt 0.638984 0.729528
vt 0.642518 0.728733
vt 0.643312 0.725199
vt 0.643312 0.361016
vt 0.642517 0.357482
vt 0.638983 0.356688
vt 0.638983 0.270472
vt 0.642517 0.271267
vt 0.643312 0.274801
vt 0.643312 0.725199
vt 0.642517 0.728733
vt 0.638983 0.729528
vt 0.638983 0.643312
vt 0.642517 0.642518
vt 0.643312 0.638984
s 1
f 31/1/31 37/2/37 8/3/8 2/4/2
f 45/5/45 51/6/51 38/7/38 30/8/30
f 50/9/50 22/10/22 9/11/9 36/12/36
f 3/8/3 10/7/10 24/6/24 16/5/16
f 17/4/17 23/3/23 52/2/52 44/1/44
f 1/11/1 4/13/4 5/14/5 7/15/7
f 2/4/2 6/16/6 5/17/5 4/18/4
f 3/8/3 7/19/7 5/20/5 6/21/6
f 8/3/8 11/22/11 12/23/12 14/24/14
f 9/11/9 13/15/13 12/14/12 11/13/11
f 10/7/10 14/25/14 12/26/12 13/27/13
f 15/10/15 18/28/18 19/29/19 21/30/21
f 16/5/16 20/31/20 19/32/19 18/33/18
f 17/4/17 21/18/21 19/17/19 20/16/20
f 22/10/22 25/30/25 26/29/26 28/28/28
f 23/3/23 27/24/27 26/23/26 25/22/25
f 24/6/24 28/34/28 26/35/26 27/36/27
f 29/12/29 32/37/32 33/38/33 35/39/35
f 30/8/30 34/21/34 33/20/33 32/19/32
f 31/1/31 35/40/35 33/41/33 34/42/34
f 36/12/36 39/39/39 40/38/40 42/37/42
f 37/2/37 41/43/41 40/44/40 39/45/39
f 38/7/38 42/27/42 40/26/40 41/25/41
f 43/9/43 46/46/46 47/47/47 49/48/49
f 44/1/44 48/42/48 47/41/47 46/40/46
f 45/5/45 49/33/49 47/32/47 48/31/48
f 50/9/50 53/48/53 54/47/54 56/46/56
f 51/6/51 55/36/55 54/35/54 53/34/53
f 52/2/52 56/45/56 54/44/54 55/43/55
f 15/10/15 1/11/1 7/15/7 18/28/18
f 18/33/18 7/19/7 3/8/3 16/5/16
f 2/4/2 8/3/8 14/24/14 6/16/6
f 6/21/6 14/25/14 10/7/10 3/8/3
f 9/11/9 22/10/22 28/28/28 13/15/13
f 13/27/13 28/34/28 24/6/24 10/7/10
f 23/3/23 17/4/17 20/16/20 27/24/27
f 27/36/27 20/31/20 16/5/16 24/6/24
f 43/9/43 15/10/15 21/30/21 46/46/46
f 46/40/46 21/18/21 17/4/17 44/1/44
f 22/10/22 50/9/50 56/46/56 25/30/25
f 25/22/25 56/45/56 52/2/52 23/3/23
f 51/6/51 45/5/45 48/31/48 55/36/55
f 55/43/55 48/42/48 44/1/44 52/2/52
f 29/12/29 43/9/43 49/48/49 32/37/32
f 32/19/32 49/33/49 45/5/45 30/8/30
f 50/9/50 36/12/36 42/37/42 53/48/53
f 53/34/53 42/27/42 38/7/38 51/6/51
f 37/2/37 31/1/31 34/42/34 41/43/41
f 41/25/41 34/21/34 30/8/30 38/7/38
f 1/11/1 29/12/29 35/39/35 4/13/4
f 4/18/4 35/40/35 31/1/31 2/4/2
f 36/12/36 9/11/9 11/13/11 39/39/39
f 39/45/39 11/22/11 8/3/8 37/2/37
f 15/10/15 43/9/43 29/12/29 1/11/1
