# Blender 4.4.0
# www.blender.org
o Plane
v 0.007452 0.000000 0.000000
v 0.115042 0.000000 0.000000
v 0.113898 0.000000 -0.196858
v 0.007452 0.000000 -0.196858
v 0.007452 2.495204 0.000000
v 0.115042 2.495204 0.012284
v 0.113898 2.495204 -0.209142
v 0.007452 2.495204 -0.196858
v -0.100138 0.000000 0.000000
v -0.098993 0.000000 -0.196858
v -0.100138 2.495204 0.012284
v -0.098993 2.495204 -0.209142
v 0.014132 0.000238 -0.013339
v 0.115612 0.000178 -0.009984
v 0.114474 0.000178 -0.186875
v 0.014133 0.000238 -0.183520
v 0.014132 2.495442 -0.013339
v 0.115612 2.495382 0.002300
v 0.114474 2.495382 -0.199159
v 0.014133 2.495442 -0.183520
v -0.100708 0.000178 -0.009984
v -0.099569 0.000178 -0.186875
v -0.100708 2.495382 0.002300
v -0.099569 2.495382 -0.199159
vn -1.0000 -0.0000 -0.0000
vn -0.0576 -0.0025 -0.9983
vn -0.0570 -0.0025 0.9984
vn 0.0576 -0.0025 -0.9983
vn 0.0570 -0.0025 0.9984
vn 1.0000 -0.0000 -0.0000
vn 0.0942 0.0025 0.9955
vn 0.0932 0.0025 -0.9956
vn -0.0832 0.0025 0.9965
vn -0.0824 0.0025 -0.9966
vn -0.0000 -0.9998 -0.0179
vn -0.0000 -0.9998 0.0179
vn 0.0356 -0.9994 -0.0000
vn -0.0020 0.9998 0.0172
vn -0.0020 0.9998 -0.0172
vn -0.0356 0.9994 -0.0000
vn 0.9983 -0.0003 -0.0576
vn 0.9984 -0.0003 0.0570
vn 0.0020 0.9998 0.0184
vn 0.0021 0.9998 -0.0184
vn -0.9983 -0.0003 -0.0576
vn -0.9984 -0.0003 0.0570
vt 0.605492 -0.837237
vt 0.394508 -0.837237
vt 0.394508 1.837014
vt 0.605492 1.837014
vt 0.612294 -0.837237
vt 0.498210 -0.837237
vt 0.498210 1.837014
vt 0.612294 1.837014
vt 0.613520 -0.837237
vt 0.613520 1.837014
vt 0.384126 -0.837237
vt 0.384126 1.837014
vt 0.382900 1.837014
vt 0.382900 -0.837237
vt 0.591196 -0.836982
vt 0.591196 1.837269
vt 0.408803 1.837269
vt 0.408803 -0.836982
vt 0.612911 -0.837046
vt 0.612911 1.837205
vt 0.505370 1.837269
vt 0.505370 -0.836982
vt 0.505370 -0.836982
vt 0.505370 1.837269
vt 0.614131 1.837205
vt 0.614131 -0.837046
vt 0.383509 -0.837046
vt 0.383509 1.837205
vt 0.382289 -0.837046
vt 0.382289 1.837205
vt 0.613520 0.394508
vt 0.498210 0.394508
vt 0.505370 0.408803
vt 0.614131 0.405208
vt 0.498210 0.605492
vt 0.612294 0.605492
vt 0.612911 0.594793
vt 0.505370 0.591196
vt 0.613520 0.381343
vt 0.614131 0.392042
vt 0.612294 0.618657
vt 0.612911 0.607958
vt 0.618657 1.837014
vt 0.607958 1.837205
vt 0.594793 -0.837046
vt 0.381343 1.837014
vt 0.405208 -0.837046
vt 0.392042 1.837205
vt 0.382900 0.394508
vt 0.382289 0.405208
vt 0.384126 0.605492
vt 0.383509 0.594793
vt 0.382900 0.381343
vt 0.382289 0.392042
vt 0.384126 0.618657
vt 0.383509 0.607958
s 0
f 4/1/1 1/2/1 5/3/1 8/4/1
f 3/5/2 4/6/2 8/7/2 7/8/2
f 1/6/3 2/9/3 6/10/3 5/7/3
f 10/11/4 12/12/4 8/7/4 4/6/4
f 1/6/5 5/7/5 11/13/5 9/14/5
f 16/15/6 20/16/6 17/17/6 13/18/6
f 15/19/7 19/20/7 20/21/7 16/22/7
f 13/23/8 17/24/8 18/25/8 14/26/8
f 22/27/9 16/22/9 20/21/9 24/28/9
f 13/23/10 21/29/10 23/30/10 17/24/10
f 2/31/11 1/32/11 13/33/11 14/34/11
f 4/35/12 3/36/12 15/37/12 16/38/12
f 1/32/13 4/35/13 16/38/13 13/33/13
f 5/32/14 6/39/14 18/40/14 17/33/14
f 7/41/15 8/35/15 20/38/15 19/42/15
f 8/35/16 5/32/16 17/33/16 20/38/16
f 3/1/17 7/43/17 19/44/17 15/45/17
f 6/46/18 2/2/18 14/47/18 18/48/18
f 1/32/11 9/49/11 21/50/11 13/33/11
f 10/51/12 4/35/12 16/38/12 22/52/12
f 11/53/19 5/32/19 17/33/19 23/54/19
f 8/35/20 12/55/20 24/56/20 20/38/20
f 12/43/21 10/1/21 22/45/21 24/44/21
f 9/2/22 11/46/22 23/48/22 21/47/22
o Plane.001
v 0.138677 2.603364 0.027581
v 0.138677 2.495774 0.027581
v 0.138677 2.496919 -0.169277
v 0.138677 2.603364 -0.169277
v 4.638308 2.603364 0.027581
v 4.638308 2.495774 0.039865
v 4.638308 2.496919 -0.181561
v 4.638308 2.603364 -0.169277
v 0.138677 2.710954 0.027581
v 0.138677 2.709810 -0.169277
v 4.638308 2.710954 0.039865
v 4.638308 2.709810 -0.181561
v 0.139106 2.596684 0.014243
v 0.138998 2.495204 0.017598
v 0.138998 2.496343 -0.159294
v 0.139106 2.596684 -0.155939
v 4.638737 2.596684 0.014243
v 4.638629 2.495204 0.029881
v 4.638629 2.496343 -0.171578
v 4.638737 2.596684 -0.155939
v 0.138998 2.711524 0.017598
v 0.138998 2.710386 -0.159294
v 4.638629 2.711524 0.029881
v 4.638629 2.710386 -0.171578
vn -0.0000 1.0000 -0.0000
vn -0.0014 0.0576 -0.9983
vn -0.0014 0.0570 0.9984
vn -0.0014 -0.0576 -0.9983
vn -0.0014 -0.0570 0.9984
vn -0.0000 -1.0000 -0.0000
vn 0.0014 -0.0942 0.9955
vn 0.0014 -0.0932 -0.9956
vn 0.0014 0.0832 0.9965
vn 0.0014 0.0824 -0.9966
vn -0.9995 -0.0000 -0.0322
vn -0.9995 -0.0000 0.0322
vn -0.9979 -0.0642 -0.0000
vn 0.9995 0.0036 0.0311
vn 0.9995 0.0037 -0.0311
vn 0.9979 0.0642 -0.0000
vn -0.0002 -0.9983 -0.0576
vn -0.0002 -0.9984 0.0570
vn 0.9994 -0.0037 0.0332
vn 0.9994 -0.0037 -0.0332
vn -0.0002 0.9983 -0.0576
vn -0.0002 0.9984 0.0570
vt 0.605492 0.003652
vt 0.394508 0.003652
vt 0.394508 0.996265
vt 0.605492 0.996265
vt 0.612294 0.003652
vt 0.498210 0.003652
vt 0.498210 0.996265
vt 0.612294 0.996265
vt 0.613520 0.003652
vt 0.613520 0.996265
vt 0.384126 0.003652
vt 0.384126 0.996265
vt 0.382900 0.996265
vt 0.382900 0.003652
vt 0.591196 0.003747
vt 0.591196 0.996360
vt 0.408803 0.996360
vt 0.408803 0.003747
vt 0.612911 0.003723
vt 0.612911 0.996336
vt 0.505370 0.996360
vt 0.505370 0.003747
vt 0.505370 0.003747
vt 0.505370 0.996360
vt 0.614131 0.996336
vt 0.614131 0.003723
vt 0.383509 0.003723
vt 0.383509 0.996336
vt 0.382289 0.003723
vt 0.382289 0.996336
vt 0.613520 0.394508
vt 0.498210 0.394508
vt 0.505370 0.408803
vt 0.614131 0.405208
vt 0.498210 0.605492
vt 0.612294 0.605492
vt 0.612911 0.594793
vt 0.505370 0.591196
vt 0.613520 0.381343
vt 0.614131 0.392042
vt 0.612294 0.618657
vt 0.612911 0.607958
vt 0.618657 0.996265
vt 0.607958 0.996336
vt 0.594793 0.003723
vt 0.381343 0.996265
vt 0.405208 0.003723
vt 0.392042 0.996336
vt 0.382900 0.394508
vt 0.382289 0.405208
vt 0.384126 0.605492
vt 0.383509 0.594793
vt 0.382900 0.381343
vt 0.382289 0.392042
vt 0.384126 0.618657
vt 0.383509 0.607958
s 0
f 28/57/23 25/58/23 29/59/23 32/60/23
f 27/61/24 28/62/24 32/63/24 31/64/24
f 25/62/25 26/65/25 30/66/25 29/63/25
f 34/67/26 36/68/26 32/63/26 28/62/26
f 25/62/27 29/63/27 35/69/27 33/70/27
f 40/71/28 44/72/28 41/73/28 37/74/28
f 39/75/29 43/76/29 44/77/29 40/78/29
f 37/79/30 41/80/30 42/81/30 38/82/30
f 46/83/31 40/78/31 44/77/31 48/84/31
f 37/79/32 45/85/32 47/86/32 41/80/32
f 26/87/33 25/88/33 37/89/33 38/90/33
f 28/91/34 27/92/34 39/93/34 40/94/34
f 25/88/35 28/91/35 40/94/35 37/89/35
f 29/88/36 30/95/36 42/96/36 41/89/36
f 31/97/37 32/91/37 44/94/37 43/98/37
f 32/91/38 29/88/38 41/89/38 44/94/38
f 27/57/39 31/99/39 43/100/39 39/101/39
f 30/102/40 26/58/40 38/103/40 42/104/40
f 25/88/33 33/105/33 45/106/33 37/89/33
f 34/107/34 28/91/34 40/94/34 46/108/34
f 35/109/41 29/88/41 41/89/41 47/110/41
f 32/91/42 36/111/42 48/112/42 44/94/42
f 36/99/43 34/57/43 46/101/43 48/100/43
f 33/58/44 35/102/44 47/104/44 45/103/44
o Plane.002
v 0.007452 0.000000 -4.225684
v 0.115042 0.000000 -4.225684
v 0.113898 0.000000 -4.422542
v 0.007452 0.000000 -4.422542
v 0.007452 2.495204 -4.225684
v 0.115042 2.495204 -4.213400
v 0.113898 2.495204 -4.434826
v 0.007452 2.495204 -4.422542
v -0.100138 0.000000 -4.225684
v -0.098993 0.000000 -4.422542
v -0.100138 2.495204 -4.213400
v -0.098993 2.495204 -4.434826
v 0.014132 0.000238 -4.239022
v 0.115612 0.000178 -4.235667
v 0.114474 0.000178 -4.412559
v 0.014133 0.000238 -4.409204
v 0.014132 2.495442 -4.239022
v 0.115612 2.495382 -4.223383
v 0.114474 2.495382 -4.424843
v 0.014133 2.495442 -4.409204
v -0.100708 0.000178 -4.235667
v -0.099569 0.000178 -4.412559
v -0.100708 2.495382 -4.223383
v -0.099569 2.495382 -4.424843
vn -1.0000 -0.0000 -0.0000
vn -0.0576 -0.0025 -0.9983
vn -0.0570 -0.0025 0.9984
vn 0.0576 -0.0025 -0.9983
vn 0.0570 -0.0025 0.9984
vn 1.0000 -0.0000 -0.0000
vn 0.0942 0.0025 0.9955
vn 0.0932 0.0025 -0.9956
vn -0.0832 0.0025 0.9965
vn -0.0824 0.0025 -0.9966
vn -0.0000 -0.9998 -0.0179
vn -0.0000 -0.9998 0.0179
vn 0.0356 -0.9994 -0.0000
vn -0.0020 0.9998 0.0172
vn -0.0020 0.9998 -0.0172
vn -0.0356 0.9994 -0.0000
vn 0.9983 -0.0003 -0.0576
vn 0.9984 -0.0003 0.0570
vn 0.0020 0.9998 0.0184
vn 0.0021 0.9998 -0.0184
vn -0.9983 -0.0003 -0.0576
vn -0.9984 -0.0003 0.0570
vt 0.605492 -0.837237
vt 0.394508 -0.837237
vt 0.394508 1.837014
vt 0.605492 1.837014
vt 0.612294 -0.837237
vt 0.498210 -0.837237
vt 0.498210 1.837014
vt 0.612294 1.837014
vt 0.613520 -0.837237
vt 0.613520 1.837014
vt 0.384126 -0.837237
vt 0.384126 1.837014
vt 0.382900 1.837014
vt 0.382900 -0.837237
vt 0.591196 -0.836982
vt 0.591196 1.837269
vt 0.408803 1.837269
vt 0.408803 -0.836982
vt 0.612911 -0.837046
vt 0.612911 1.837205
vt 0.505370 1.837269
vt 0.505370 -0.836982
vt 0.505370 -0.836982
vt 0.505370 1.837269
vt 0.614131 1.837205
vt 0.614131 -0.837046
vt 0.383509 -0.837046
vt 0.383509 1.837205
vt 0.382289 -0.837046
vt 0.382289 1.837205
vt 0.613520 0.394508
vt 0.498210 0.394508
vt 0.505370 0.408803
vt 0.614131 0.405208
vt 0.498210 0.605492
vt 0.612294 0.605492
vt 0.612911 0.594793
vt 0.505370 0.591196
vt 0.613520 0.381343
vt 0.614131 0.392042
vt 0.612294 0.618657
vt 0.612911 0.607958
vt 0.618657 1.837014
vt 0.607958 1.837205
vt 0.594793 -0.837046
vt 0.381343 1.837014
vt 0.405208 -0.837046
vt 0.392042 1.837205
vt 0.382900 0.394508
vt 0.382289 0.405208
vt 0.384126 0.605492
vt 0.383509 0.594793
vt 0.382900 0.381343
vt 0.382289 0.392042
vt 0.384126 0.618657
vt 0.383509 0.607958
s 0
f 52/113/45 49/114/45 53/115/45 56/116/45
f 51/117/46 52/118/46 56/119/46 55/120/46
f 49/118/47 50/121/47 54/122/47 53/119/47
f 58/123/48 60/124/48 56/119/48 52/118/48
f 49/118/49 53/119/49 59/125/49 57/126/49
f 64/127/50 68/128/50 65/129/50 61/130/50
f 63/131/51 67/132/51 68/133/51 64/134/51
f 61/135/52 65/136/52 66/137/52 62/138/52
f 70/139/53 64/134/53 68/133/53 72/140/53
f 61/135/54 69/141/54 71/142/54 65/136/54
f 50/143/55 49/144/55 61/145/55 62/146/55
f 52/147/56 51/148/56 63/149/56 64/150/56
f 49/144/57 52/147/57 64/150/57 61/145/57
f 53/144/58 54/151/58 66/152/58 65/145/58
f 55/153/59 56/147/59 68/150/59 67/154/59
f 56/147/60 53/144/60 65/145/60 68/150/60
f 51/113/61 55/155/61 67/156/61 63/157/61
f 54/158/62 50/114/62 62/159/62 66/160/62
f 49/144/55 57/161/55 69/162/55 61/145/55
f 58/163/56 52/147/56 64/150/56 70/164/56
f 59/165/63 53/144/63 65/145/63 71/166/63
f 56/147/64 60/167/64 72/168/64 68/150/64
f 60/155/65 58/113/65 70/157/65 72/156/65
f 57/114/66 59/158/66 71/160/66 69/159/66
o Plane.003
v 0.138677 2.603364 -4.231132
v 0.138677 2.495774 -4.231132
v 0.138677 2.496919 -4.427990
v 0.138677 2.603364 -4.427990
v 4.638308 2.603364 -4.231132
v 4.638308 2.495774 -4.218848
v 4.638308 2.496919 -4.440274
v 4.638308 2.603364 -4.427990
v 0.138677 2.710954 -4.231132
v 0.138677 2.709810 -4.427990
v 4.638308 2.710954 -4.218848
v 4.638308 2.709810 -4.440274
v 0.139106 2.596684 -4.244471
v 0.138998 2.495204 -4.241116
v 0.138998 2.496343 -4.418007
v 0.139106 2.596684 -4.414652
v 4.638737 2.596684 -4.244471
v 4.638629 2.495204 -4.228832
v 4.638629 2.496343 -4.430291
v 4.638737 2.596684 -4.414652
v 0.138998 2.711524 -4.241116
v 0.138998 2.710386 -4.418007
v 4.638629 2.711524 -4.228832
v 4.638629 2.710386 -4.430291
vn -0.0000 1.0000 -0.0000
vn -0.0014 0.0576 -0.9983
vn -0.0014 0.0570 0.9984
vn -0.0014 -0.0576 -0.9983
vn -0.0014 -0.0570 0.9984
vn -0.0000 -1.0000 -0.0000
vn 0.0014 -0.0942 0.9955
vn 0.0014 -0.0932 -0.9956
vn 0.0014 0.0832 0.9965
vn 0.0014 0.0824 -0.9966
vn -0.9995 -0.0000 -0.0322
vn -0.9995 -0.0000 0.0322
vn -0.9979 -0.0642 -0.0000
vn 0.9995 0.0036 0.0311
vn 0.9995 0.0037 -0.0311
vn 0.9979 0.0642 -0.0000
vn -0.0002 -0.9983 -0.0576
vn -0.0002 -0.9984 0.0570
vn 0.9994 -0.0037 0.0332
vn 0.9994 -0.0037 -0.0332
vn -0.0002 0.9983 -0.0576
vn -0.0002 0.9984 0.0570
vt 0.605492 0.003652
vt 0.394508 0.003652
vt 0.394508 0.996265
vt 0.605492 0.996265
vt 0.612294 0.003652
vt 0.498210 0.003652
vt 0.498210 0.996265
vt 0.612294 0.996265
vt 0.613520 0.003652
vt 0.613520 0.996265
vt 0.384126 0.003652
vt 0.384126 0.996265
vt 0.382900 0.996265
vt 0.382900 0.003652
vt 0.591196 0.003747
vt 0.591196 0.996360
vt 0.408803 0.996360
vt 0.408803 0.003747
vt 0.612911 0.003723
vt 0.612911 0.996336
vt 0.505370 0.996360
vt 0.505370 0.003747
vt 0.505370 0.003747
vt 0.505370 0.996360
vt 0.614131 0.996336
vt 0.614131 0.003723
vt 0.383509 0.003723
vt 0.383509 0.996336
vt 0.382289 0.003723
vt 0.382289 0.996336
vt 0.613520 0.394508
vt 0.498210 0.394508
vt 0.505370 0.408803
vt 0.614131 0.405208
vt 0.498210 0.605492
vt 0.612294 0.605492
vt 0.612911 0.594793
vt 0.505370 0.591196
vt 0.613520 0.381343
vt 0.614131 0.392042
vt 0.612294 0.618657
vt 0.612911 0.607958
vt 0.618657 0.996265
vt 0.607958 0.996336
vt 0.594793 0.003723
vt 0.381343 0.996265
vt 0.405208 0.003723
vt 0.392042 0.996336
vt 0.382900 0.394508
vt 0.382289 0.405208
vt 0.384126 0.605492
vt 0.383509 0.594793
vt 0.382900 0.381343
vt 0.382289 0.392042
vt 0.384126 0.618657
vt 0.383509 0.607958
s 0
f 76/169/67 73/170/67 77/171/67 80/172/67
f 75/173/68 76/174/68 80/175/68 79/176/68
f 73/174/69 74/177/69 78/178/69 77/175/69
f 82/179/70 84/180/70 80/175/70 76/174/70
f 73/174/71 77/175/71 83/181/71 81/182/71
f 88/183/72 92/184/72 89/185/72 85/186/72
f 87/187/73 91/188/73 92/189/73 88/190/73
f 85/191/74 89/192/74 90/193/74 86/194/74
f 94/195/75 88/190/75 92/189/75 96/196/75
f 85/191/76 93/197/76 95/198/76 89/192/76
f 74/199/77 73/200/77 85/201/77 86/202/77
f 76/203/78 75/204/78 87/205/78 88/206/78
f 73/200/79 76/203/79 88/206/79 85/201/79
f 77/200/80 78/207/80 90/208/80 89/201/80
f 79/209/81 80/203/81 92/206/81 91/210/81
f 80/203/82 77/200/82 89/201/82 92/206/82
f 75/169/83 79/211/83 91/212/83 87/213/83
f 78/214/84 74/170/84 86/215/84 90/216/84
f 73/200/77 81/217/77 93/218/77 85/201/77
f 82/219/78 76/203/78 88/206/78 94/220/78
f 83/221/85 77/200/85 89/201/85 95/222/85
f 80/203/86 84/223/86 96/224/86 92/206/86
f 84/211/87 82/169/87 94/213/87 96/212/87
f 81/170/88 83/214/88 95/216/88 93/215/88
o Plane.004
v 4.848151 0.000000 -0.105859
v 4.848151 0.000000 -0.213449
v 4.651292 0.000000 -0.212305
v 4.651292 0.000000 -0.105859
v 4.848151 2.495204 -0.105859
v 4.860435 2.495204 -0.213449
v 4.639009 2.495204 -0.212305
v 4.651292 2.495204 -0.105859
v 4.848151 0.000000 0.001731
v 4.651292 0.000000 0.000586
v 4.860435 2.495204 0.001731
v 4.639009 2.495204 0.000586
v 4.834812 0.000238 -0.112540
v 4.838167 0.000178 -0.214019
v 4.661275 0.000178 -0.212881
v 4.664631 0.000238 -0.112540
v 4.834812 2.495442 -0.112540
v 4.850451 2.495382 -0.214019
v 4.648992 2.495382 -0.212881
v 4.664631 2.495442 -0.112540
v 4.838167 0.000178 0.002301
v 4.661275 0.000178 0.001162
v 4.850451 2.495382 0.002301
v 4.648992 2.495382 0.001162
vn -0.0000 -0.0000 1.0000
vn -0.9983 -0.0025 0.0576
vn 0.9984 -0.0025 0.0570
vn -0.9983 -0.0025 -0.0576
vn 0.9984 -0.0025 -0.0570
vn -0.0000 -0.0000 -1.0000
vn 0.9955 0.0025 -0.0942
vn -0.9956 0.0025 -0.0932
vn 0.9965 0.0025 0.0832
vn -0.9966 0.0025 0.0824
vn -0.0178 -0.9998 -0.0000
vn 0.0179 -0.9998 -0.0000
vn -0.0000 -0.9994 -0.0356
vn 0.0172 0.9998 0.0020
vn -0.0172 0.9998 0.0020
vn -0.0000 0.9994 0.0357
vn -0.0576 -0.0003 -0.9983
vn 0.0570 -0.0003 -0.9984
vn -0.0179 -0.9998 -0.0000
vn 0.0184 0.9998 -0.0020
vn -0.0184 0.9998 -0.0021
vn -0.0576 -0.0003 0.9983
vn 0.0570 -0.0003 0.9984
vt 0.394508 -0.837237
vt 0.605492 -0.837237
vt 0.605492 1.837014
vt 0.394508 1.837014
vt 0.612294 -0.837237
vt 0.498210 -0.837237
vt 0.498210 1.837014
vt 0.612294 1.837014
vt 0.498210 -0.837237
vt 0.613520 -0.837237
vt 0.613520 1.837014
vt 0.498210 1.837014
vt 0.384126 -0.837237
vt 0.384126 1.837014
vt 0.382900 1.837014
vt 0.382900 -0.837237
vt 0.408804 -0.836982
vt 0.408804 1.837270
vt 0.591197 1.837270
vt 0.591197 -0.836982
vt 0.612911 -0.837046
vt 0.612911 1.837205
vt 0.505370 1.837270
vt 0.505370 -0.836982
vt 0.505370 -0.836982
vt 0.505370 1.837270
vt 0.614131 1.837205
vt 0.614131 -0.837046
vt 0.383509 -0.837046
vt 0.383509 1.837205
vt 0.382289 -0.837046
vt 0.382289 1.837205
vt 0.605492 0.613520
vt 0.605492 0.498210
vt 0.591197 0.505370
vt 0.594792 0.614131
vt 0.394508 0.498210
vt 0.394508 0.612294
vt 0.405207 0.612911
vt 0.408804 0.505370
vt 0.618657 0.613520
vt 0.607958 0.614131
vt 0.381343 0.612294
vt 0.392042 0.612911
vt 0.381343 1.837014
vt 0.392042 1.837205
vt 0.405207 -0.837046
vt 0.618657 1.837014
vt 0.594792 -0.837046
vt 0.607958 1.837205
vt 0.605492 0.382900
vt 0.594792 0.382289
vt 0.394508 0.384126
vt 0.405207 0.383509
vt 0.618657 0.382900
vt 0.607958 0.382289
vt 0.381343 0.384126
vt 0.392042 0.383509
s 0
f 100/225/89 97/226/89 101/227/89 104/228/89
f 99/229/90 100/230/90 104/231/90 103/232/90
f 97/233/91 98/234/91 102/235/91 101/236/91
f 106/237/92 108/238/92 104/231/92 100/230/92
f 97/233/93 101/236/93 107/239/93 105/240/93
f 112/241/94 116/242/94 113/243/94 109/244/94
f 111/245/95 115/246/95 116/247/95 112/248/95
f 109/249/96 113/250/96 114/251/96 110/252/96
f 118/253/97 112/248/97 116/247/97 120/254/97
f 109/249/98 117/255/98 119/256/98 113/250/98
f 98/257/99 97/258/99 109/259/99 110/260/99
f 100/261/100 99/262/100 111/263/100 112/264/100
f 97/258/101 100/261/101 112/264/101 109/259/101
f 101/258/102 102/265/102 114/266/102 113/259/102
f 103/267/103 104/261/103 116/264/103 115/268/103
f 104/261/104 101/258/104 113/259/104 116/264/104
f 99/225/105 103/269/105 115/270/105 111/271/105
f 102/272/106 98/226/106 110/273/106 114/274/106
f 97/258/107 105/275/107 117/276/107 109/259/107
f 106/277/100 100/261/100 112/264/100 118/278/100
f 107/279/108 101/258/108 113/259/108 119/280/108
f 104/261/109 108/281/109 120/282/109 116/264/109
f 108/269/110 106/225/110 118/271/110 120/270/110
f 105/226/111 107/272/111 119/274/111 117/273/111
o Plane.005
v 4.842702 2.603364 0.056000
v 4.842702 2.495774 0.056000
v 4.645844 2.496918 0.056000
v 4.645844 2.603364 0.056000
v 4.842702 2.603364 -4.443631
v 4.854986 2.495774 -4.443631
v 4.633560 2.496918 -4.443631
v 4.645844 2.603364 -4.443631
v 4.842702 2.710954 0.056000
v 4.645844 2.709809 0.056000
v 4.854986 2.710954 -4.443631
v 4.633560 2.709809 -4.443631
v 4.829364 2.596684 0.055570
v 4.832719 2.495204 0.055678
v 4.655828 2.496342 0.055678
v 4.659183 2.596684 0.055570
v 4.829364 2.596684 -4.444061
v 4.845003 2.495204 -4.443953
v 4.643543 2.496342 -4.443953
v 4.659183 2.596684 -4.444061
v 4.832719 2.711524 0.055678
v 4.655828 2.710385 0.055678
v 4.845003 2.711524 -4.443953
v 4.643543 2.710385 -4.443953
vn -0.0000 1.0000 -0.0000
vn -0.9983 0.0576 0.0014
vn 0.9984 0.0570 0.0014
vn -0.9983 -0.0576 0.0014
vn 0.9984 -0.0570 0.0014
vn -0.0000 -1.0000 -0.0000
vn 0.9955 -0.0942 -0.0014
vn -0.9956 -0.0932 -0.0014
vn 0.9965 0.0832 -0.0014
vn -0.9966 0.0824 -0.0014
vn -0.0322 -0.0000 0.9995
vn 0.0322 -0.0000 0.9995
vn -0.0000 -0.0642 0.9979
vn 0.0311 0.0036 -0.9995
vn -0.0311 0.0037 -0.9995
vn -0.0000 0.0642 -0.9979
vn -0.0576 -0.9983 0.0002
vn 0.0570 -0.9984 0.0002
vn 0.0332 -0.0037 -0.9994
vn -0.0332 -0.0037 -0.9994
vn -0.0576 0.9983 0.0002
vn 0.0570 0.9984 0.0002
vt 0.605492 0.003652
vt 0.394508 0.003652
vt 0.394508 0.996265
vt 0.605492 0.996265
vt 0.612294 0.003652
vt 0.498210 0.003652
vt 0.498210 0.996265
vt 0.612294 0.996265
vt 0.613520 0.003652
vt 0.613520 0.996265
vt 0.384126 0.003652
vt 0.384126 0.996265
vt 0.382900 0.996265
vt 0.382900 0.003652
vt 0.591196 0.003747
vt 0.591196 0.996360
vt 0.408803 0.996360
vt 0.408803 0.003747
vt 0.612911 0.003723
vt 0.612911 0.996336
vt 0.505370 0.996360
vt 0.505370 0.003747
vt 0.505370 0.003747
vt 0.505370 0.996360
vt 0.614131 0.996336
vt 0.614131 0.003723
vt 0.383509 0.003723
vt 0.383509 0.996336
vt 0.382289 0.003723
vt 0.382289 0.996336
vt 0.613520 0.394508
vt 0.498210 0.394508
vt 0.505370 0.408803
vt 0.614131 0.405208
vt 0.498210 0.605492
vt 0.612294 0.605492
vt 0.612911 0.594793
vt 0.505370 0.591196
vt 0.613520 0.381343
vt 0.614131 0.392042
vt 0.612294 0.618657
vt 0.612911 0.607958
vt 0.618657 0.996265
vt 0.607958 0.996336
vt 0.594793 0.003723
vt 0.381343 0.996265
vt 0.405208 0.003723
vt 0.392042 0.996336
vt 0.382900 0.394508
vt 0.382289 0.405208
vt 0.384126 0.605492
vt 0.383509 0.594793
vt 0.382900 0.381343
vt 0.382289 0.392042
vt 0.384126 0.618657
vt 0.383509 0.607958
s 0
f 124/283/112 121/284/112 125/285/112 128/286/112
f 123/287/113 124/288/113 128/289/113 127/290/113
f 121/288/114 122/291/114 126/292/114 125/289/114
f 130/293/115 132/294/115 128/289/115 124/288/115
f 121/288/116 125/289/116 131/295/116 129/296/116
f 136/297/117 140/298/117 137/299/117 133/300/117
f 135/301/118 139/302/118 140/303/118 136/304/118
f 133/305/119 137/306/119 138/307/119 134/308/119
f 142/309/120 136/304/120 140/303/120 144/310/120
f 133/305/121 141/311/121 143/312/121 137/306/121
f 122/313/122 121/314/122 133/315/122 134/316/122
f 124/317/123 123/318/123 135/319/123 136/320/123
f 121/314/124 124/317/124 136/320/124 133/315/124
f 125/314/125 126/321/125 138/322/125 137/315/125
f 127/323/126 128/317/126 140/320/126 139/324/126
f 128/317/127 125/314/127 137/315/127 140/320/127
f 123/283/128 127/325/128 139/326/128 135/327/128
f 126/328/129 122/284/129 134/329/129 138/330/129
f 121/314/122 129/331/122 141/332/122 133/315/122
f 130/333/123 124/317/123 136/320/123 142/334/123
f 131/335/130 125/314/130 137/315/130 143/336/130
f 128/317/131 132/337/131 144/338/131 140/320/131
f 132/325/132 130/283/132 142/327/132 144/326/132
f 129/284/133 131/328/133 143/330/133 141/329/133
o Plane.006
v 0.111104 2.603364 0.056000
v 0.111104 2.495774 0.056000
v -0.085754 2.496918 0.056000
v -0.085754 2.603364 0.056000
v 0.111104 2.603364 -4.443631
v 0.123388 2.495774 -4.443631
v -0.098038 2.496918 -4.443631
v -0.085755 2.603364 -4.443631
v 0.111104 2.710954 0.056000
v -0.085754 2.709809 0.056000
v 0.123388 2.710954 -4.443631
v -0.098038 2.709809 -4.443631
v 0.097765 2.596684 0.055570
v 0.101120 2.495204 0.055678
v -0.075771 2.496342 0.055678
v -0.072416 2.596684 0.055570
v 0.097765 2.596684 -4.444061
v 0.113404 2.495204 -4.443954
v -0.088055 2.496342 -4.443954
v -0.072416 2.596684 -4.444061
v 0.101120 2.711524 0.055678
v -0.075771 2.710385 0.055678
v 0.113404 2.711524 -4.443954
v -0.088055 2.710385 -4.443954
vn -0.0000 1.0000 -0.0000
vn -0.9983 0.0576 0.0014
vn 0.9984 0.0570 0.0014
vn -0.9983 -0.0576 0.0014
vn 0.9984 -0.0570 0.0014
vn -0.0000 -1.0000 -0.0000
vn 0.9955 -0.0942 -0.0014
vn -0.9956 -0.0932 -0.0014
vn 0.9965 0.0832 -0.0014
vn -0.9966 0.0824 -0.0014
vn -0.0322 -0.0000 0.9995
vn 0.0322 -0.0000 0.9995
vn -0.0000 -0.0642 0.9979
vn 0.0311 0.0036 -0.9995
vn -0.0311 0.0037 -0.9995
vn -0.0000 0.0643 -0.9979
vn -0.0576 -0.9983 0.0002
vn 0.0570 -0.9984 0.0002
vn 0.0332 -0.0037 -0.9994
vn -0.0332 -0.0037 -0.9994
vn -0.0576 0.9983 0.0002
vn 0.0570 0.9984 0.0002
vt 0.394508 -1.911456
vt 0.605492 -1.911456
vt 0.605492 2.911053
vt 0.394508 2.911053
vt -1.911456 0.387706
vt -1.911456 0.501790
vt 2.911053 0.501790
vt 2.911053 0.387706
vt -1.911456 0.386480
vt 2.911053 0.386480
vt -1.911456 0.615873
vt 2.911053 0.615873
vt 2.911053 0.617100
vt -1.911456 0.617100
vt 0.408804 -1.910995
vt 0.408804 2.911514
vt 0.591196 2.911514
vt 0.591197 -1.910995
vt -1.911111 0.387089
vt 2.911399 0.387089
vt 2.911514 0.494630
vt -1.910995 0.494630
vt -1.910995 0.494630
vt 2.911514 0.494630
vt 2.911399 0.385869
vt -1.911111 0.385869
vt -1.911111 0.616491
vt 2.911399 0.616491
vt -1.911111 0.617711
vt 2.911399 0.617711
vt 0.605492 0.386480
vt 0.605492 0.501790
vt 0.591197 0.494630
vt 0.594792 0.385869
vt 0.394508 0.501790
vt 0.394508 0.387706
vt 0.405208 0.387089
vt 0.408804 0.494630
vt 0.605492 0.501790
vt 0.618657 0.386480
vt 0.607957 0.385869
vt 0.591196 0.494630
vt 0.381343 0.387706
vt 0.394508 0.501790
vt 0.408804 0.494630
vt 0.392042 0.387089
vt 0.381343 2.911053
vt 0.392042 2.911399
vt 0.405208 -1.911111
vt 0.618657 2.911053
vt 0.594792 -1.911111
vt 0.607957 2.911399
vt 0.605492 0.617100
vt 0.594792 0.617711
vt 0.394508 0.615873
vt 0.405208 0.616491
vt 0.618657 0.617100
vt 0.607957 0.617711
vt 0.381343 0.615873
vt 0.392042 0.616491
vt 0.394508 -1.911456
vt 0.392042 2.911399
vt 0.618657 2.911053
s 0
f 148/339/134 145/340/134 149/341/134 152/342/134
f 147/343/135 148/344/135 152/345/135 151/346/135
f 145/344/136 146/347/136 150/348/136 149/345/136
f 154/349/137 156/350/137 152/345/137 148/344/137
f 145/344/138 149/345/138 155/351/138 153/352/138
f 160/353/139 164/354/139 161/355/139 157/356/139
f 159/357/140 163/358/140 164/359/140 160/360/140
f 157/361/141 161/362/141 162/363/141 158/364/141
f 166/365/142 160/360/142 164/359/142 168/366/142
f 157/361/143 165/367/143 167/368/143 161/362/143
f 146/369/144 145/370/144 157/371/144 158/372/144
f 148/373/145 147/374/145 159/375/145 160/376/145
f 145/370/146 148/373/146 160/376/146 157/371/146
f 149/377/147 150/378/147 162/379/147 161/380/147
f 151/381/148 152/382/148 164/383/148 163/384/148
f 152/382/149 149/377/149 161/380/149 164/383/149
f 147/339/150 151/385/150 163/386/150 159/387/150
f 150/388/151 146/340/151 158/389/151 162/390/151
f 145/370/144 153/391/144 165/392/144 157/371/144
f 154/393/145 148/373/145 160/376/145 166/394/145
f 155/395/152 149/377/152 161/380/152 167/396/152
f 152/382/153 156/397/153 168/398/153 164/383/153
f 156/385/154 154/399/154 166/387/154 168/400/154
f 153/340/155 155/401/155 167/390/155 165/389/155
o Plane.007
v 4.742683 0.000000 -4.225684
v 4.850274 0.000000 -4.225684
v 4.849129 0.000000 -4.422542
v 4.742683 0.000000 -4.422542
v 4.742683 2.495204 -4.225684
v 4.850274 2.495204 -4.213400
v 4.849129 2.495204 -4.434826
v 4.742683 2.495204 -4.422542
v 4.635093 0.000000 -4.225684
v 4.636238 0.000000 -4.422542
v 4.635093 2.495204 -4.213400
v 4.636238 2.495204 -4.434826
v 4.749364 0.000238 -4.239022
v 4.850843 0.000178 -4.235667
v 4.849705 0.000178 -4.412559
v 4.749364 0.000238 -4.409204
v 4.749364 2.495442 -4.239022
v 4.850843 2.495382 -4.223383
v 4.849705 2.495382 -4.424843
v 4.749364 2.495442 -4.409204
v 4.634523 0.000178 -4.235667
v 4.635662 0.000178 -4.412559
v 4.634523 2.495382 -4.223383
v 4.635662 2.495382 -4.424843
vn -1.0000 -0.0000 -0.0000
vn -0.0576 -0.0025 -0.9983
vn -0.0570 -0.0025 0.9984
vn 0.0576 -0.0025 -0.9983
vn 0.0570 -0.0025 0.9984
vn 1.0000 -0.0000 -0.0000
vn 0.0942 0.0025 0.9955
vn 0.0932 0.0025 -0.9956
vn -0.0832 0.0025 0.9965
vn -0.0824 0.0025 -0.9966
vn -0.0000 -0.9998 -0.0179
vn -0.0000 -0.9998 0.0179
vn 0.0356 -0.9994 -0.0000
vn -0.0020 0.9998 0.0172
vn -0.0020 0.9998 -0.0172
vn -0.0356 0.9994 -0.0000
vn 0.9983 -0.0003 -0.0576
vn 0.9984 -0.0003 0.0570
vn 0.0020 0.9998 0.0184
vn 0.0021 0.9998 -0.0184
vn -0.9983 -0.0003 -0.0576
vn -0.9984 -0.0003 0.0570
vt 0.605492 -0.837237
vt 0.394508 -0.837237
vt 0.394508 1.837014
vt 0.605492 1.837014
vt 0.612293 -0.837237
vt 0.498210 -0.837237
vt 0.498210 1.837014
vt 0.612293 1.837014
vt 0.613521 -0.837237
vt 0.613521 1.837014
vt 0.384127 -0.837237
vt 0.384127 1.837014
vt 0.382900 1.837014
vt 0.382900 -0.837237
vt 0.591196 -0.836982
vt 0.591196 1.837269
vt 0.408803 1.837269
vt 0.408803 -0.836982
vt 0.612911 -0.837046
vt 0.612911 1.837205
vt 0.505370 1.837269
vt 0.505370 -0.836982
vt 0.614131 1.837205
vt 0.614131 -0.837046
vt 0.383509 -0.837046
vt 0.383509 1.837205
vt 0.382289 -0.837046
vt 0.382289 1.837205
vt 0.613521 0.394508
vt 0.498210 0.394508
vt 0.505370 0.408803
vt 0.614131 0.405208
vt 0.498210 0.605492
vt 0.612293 0.605492
vt 0.612911 0.594793
vt 0.505370 0.591196
vt 0.613521 0.381343
vt 0.614131 0.392042
vt 0.612293 0.618657
vt 0.612911 0.607958
vt 0.618657 1.837014
vt 0.607958 1.837205
vt 0.594793 -0.837046
vt 0.381343 1.837014
vt 0.405208 -0.837046
vt 0.392042 1.837205
vt 0.382900 0.394508
vt 0.382289 0.405208
vt 0.384127 0.605492
vt 0.383509 0.594793
vt 0.382900 0.381343
vt 0.382289 0.392042
vt 0.384127 0.618657
vt 0.383509 0.607958
s 0
f 172/402/156 169/403/156 173/404/156 176/405/156
f 171/406/157 172/407/157 176/408/157 175/409/157
f 169/407/158 170/410/158 174/411/158 173/408/158
f 178/412/159 180/413/159 176/408/159 172/407/159
f 169/407/160 173/408/160 179/414/160 177/415/160
f 184/416/161 188/417/161 185/418/161 181/419/161
f 183/420/162 187/421/162 188/422/162 184/423/162
f 181/423/163 185/422/163 186/424/163 182/425/163
f 190/426/164 184/423/164 188/422/164 192/427/164
f 181/423/165 189/428/165 191/429/165 185/422/165
f 170/430/166 169/431/166 181/432/166 182/433/166
f 172/434/167 171/435/167 183/436/167 184/437/167
f 169/431/168 172/434/168 184/437/168 181/432/168
f 173/431/169 174/438/169 186/439/169 185/432/169
f 175/440/170 176/434/170 188/437/170 187/441/170
f 176/434/171 173/431/171 185/432/171 188/437/171
f 171/402/172 175/442/172 187/443/172 183/444/172
f 174/445/173 170/403/173 182/446/173 186/447/173
f 169/431/166 177/448/166 189/449/166 181/432/166
f 178/450/167 172/434/167 184/437/167 190/451/167
f 179/452/174 173/431/174 185/432/174 191/453/174
f 176/434/175 180/454/175 192/455/175 188/437/175
f 180/442/176 178/402/176 190/444/176 192/443/176
f 177/403/177 179/445/177 191/447/177 189/446/177
o Cube.001
v 4.612267 2.428407 0.059542
v 4.612267 2.434528 0.065663
v 4.606145 2.434528 0.059542
v 4.612267 2.430200 0.063870
v 4.608732 2.430994 0.063076
v 4.607938 2.434528 0.063870
v 4.607938 2.430200 0.059542
v 4.612267 2.884927 0.065663
v 4.612267 2.891048 0.059542
v 4.606145 2.884927 0.059542
v 4.612267 2.889255 0.063870
v 4.608732 2.888461 0.063076
v 4.607938 2.889255 0.059542
v 4.607938 2.884927 0.063870
v 4.612267 2.428407 -0.218425
v 4.606145 2.434528 -0.218425
v 4.612267 2.434528 -0.224546
v 4.607938 2.430200 -0.218425
v 4.608732 2.430994 -0.221959
v 4.607938 2.434528 -0.222753
v 4.612267 2.430200 -0.222753
v 4.612267 2.891048 -0.218425
v 4.612267 2.884927 -0.224546
v 4.606145 2.884927 -0.218425
v 4.612267 2.889255 -0.222753
v 4.608732 2.888461 -0.221959
v 4.607938 2.884927 -0.222753
v 4.607938 2.889255 -0.218425
v 4.890233 2.428407 0.059542
v 4.896354 2.434528 0.059542
v 4.890233 2.434528 0.065663
v 4.894561 2.430200 0.059542
v 4.893767 2.430994 0.063076
v 4.894561 2.434528 0.063870
v 4.890233 2.430200 0.063870
v 4.890233 2.891048 0.059542
v 4.890233 2.884927 0.065663
v 4.896354 2.884927 0.059542
v 4.890233 2.889255 0.063870
v 4.893767 2.888461 0.063076
v 4.894561 2.884927 0.063870
v 4.894561 2.889255 0.059542
v 4.890233 2.428407 -0.218425
v 4.890233 2.434528 -0.224546
v 4.896354 2.434528 -0.218425
v 4.890233 2.430200 -0.222753
v 4.893767 2.430994 -0.221959
v 4.894561 2.434528 -0.222753
v 4.894561 2.430200 -0.218425
v 4.890233 2.891048 -0.218425
v 4.896354 2.884927 -0.218425
v 4.890233 2.884927 -0.224546
v 4.894561 2.889255 -0.218425
v 4.893767 2.888461 -0.221959
v 4.894561 2.884927 -0.222753
v 4.890233 2.889255 -0.222753
vn -0.1794 -0.9673 0.1794
vn -0.1794 -0.1794 0.9673
vn -0.9673 -0.1794 0.1794
vn -0.1726 -0.6965 0.6965
vn -0.5773 -0.5773 0.5774
vn -0.6965 -0.1726 0.6965
vn -0.6965 -0.6965 0.1726
vn -0.1794 0.1794 0.9673
vn -0.1794 0.9673 0.1794
vn -0.9673 0.1794 0.1794
vn -0.1726 0.6965 0.6965
vn -0.5773 0.5773 0.5774
vn -0.6965 0.6965 0.1726
vn -0.6965 0.1726 0.6965
vn -0.1794 -0.9673 -0.1794
vn -0.9673 -0.1794 -0.1794
vn -0.1794 -0.1794 -0.9673
vn -0.6965 -0.6965 -0.1726
vn -0.5773 -0.5773 -0.5774
vn -0.6965 -0.1726 -0.6965
vn -0.1726 -0.6965 -0.6965
vn -0.1794 0.9673 -0.1794
vn -0.1794 0.1794 -0.9673
vn -0.9673 0.1794 -0.1794
vn -0.1726 0.6965 -0.6965
vn -0.5773 0.5773 -0.5774
vn -0.6965 0.1726 -0.6965
vn -0.6965 0.6965 -0.1726
vn 0.1794 -0.9673 0.1794
vn 0.9673 -0.1794 0.1794
vn 0.1794 -0.1794 0.9673
vn 0.6965 -0.6965 0.1726
vn 0.5773 -0.5773 0.5774
vn 0.6965 -0.1726 0.6965
vn 0.1726 -0.6965 0.6965
vn 0.1794 0.9673 0.1794
vn 0.1794 0.1794 0.9673
vn 0.9673 0.1794 0.1794
vn 0.1726 0.6965 0.6965
vn 0.5773 0.5773 0.5774
vn 0.6965 0.1726 0.6965
vn 0.6965 0.6965 0.1726
vn 0.1794 -0.9673 -0.1794
vn 0.1794 -0.1794 -0.9673
vn 0.9673 -0.1794 -0.1794
vn 0.1726 -0.6965 -0.6965
vn 0.5773 -0.5773 -0.5774
vn 0.6965 -0.1726 -0.6965
vn 0.6965 -0.6965 -0.1726
vn 0.1794 0.9673 -0.1794
vn 0.9673 0.1794 -0.1794
vn 0.1794 0.1794 -0.9673
vn 0.6965 0.6965 -0.1726
vn 0.5773 0.5773 -0.5774
vn 0.6965 0.1726 -0.6965
vn 0.1726 0.6965 -0.6965
vt 0.638983 0.274801
vt 0.638983 0.725199
vt 0.361017 0.725199
vt 0.361017 0.274801
vt 0.638984 0.274801
vt 0.638984 0.725199
vt 0.361016 0.725199
vt 0.361016 0.274801
vt 0.638983 0.638984
vt 0.361017 0.638984
vt 0.361017 0.361016
vt 0.638983 0.361016
vt 0.361017 0.356688
vt 0.357483 0.357482
vt 0.356688 0.361016
vt 0.356688 0.274801
vt 0.357483 0.271267
vt 0.361017 0.270472
vt 0.361016 0.270472
vt 0.357482 0.271267
vt 0.356688 0.274801
vt 0.361017 0.729528
vt 0.357483 0.728733
vt 0.356688 0.725199
vt 0.356688 0.725199
vt 0.357482 0.728733
vt 0.361016 0.729528
vt 0.356688 0.638984
vt 0.357483 0.642518
vt 0.361017 0.643312
vt 0.643312 0.274801
vt 0.642518 0.271267
vt 0.638984 0.270472
vt 0.638984 0.729528
vt 0.642518 0.728733
vt 0.643312 0.725199
vt 0.643312 0.361016
vt 0.642517 0.357482
vt 0.638983 0.356688
vt 0.638983 0.270472
vt 0.642517 0.271267
vt 0.643312 0.274801
vt 0.643312 0.725199
vt 0.642517 0.728733
vt 0.638983 0.729528
vt 0.638983 0.643312
vt 0.642517 0.642518
vt 0.643312 0.638984
s 1
f 223/456/208 229/457/214 200/458/185 194/459/179
f 237/460/222 243/461/228 230/462/215 222/463/207
f 242/464/227 214/465/199 201/466/186 228/467/213
f 195/463/180 202/462/187 216/461/201 208/460/193
f 209/459/194 215/458/200 244/457/229 236/456/221
f 193/466/178 196/468/181 197/469/182 199/470/184
f 194/459/179 198/471/183 197/472/182 196/473/181
f 195/463/180 199/474/184 197/475/182 198/476/183
f 200/458/185 203/477/188 204/478/189 206/479/191
f 201/466/186 205/470/190 204/469/189 203/468/188
f 202/462/187 206/480/191 204/481/189 205/482/190
f 207/465/192 210/483/195 211/484/196 213/485/198
f 208/460/193 212/486/197 211/487/196 210/488/195
f 209/459/194 213/473/198 211/472/196 212/471/197
f 214/465/199 217/485/202 218/484/203 220/483/205
f 215/458/200 219/479/204 218/478/203 217/477/202
f 216/461/201 220/489/205 218/490/203 219/491/204
f 221/467/206 224/492/209 225/493/210 227/494/212
f 222/463/207 226/476/211 225/475/210 224/474/209
f 223/456/208 227/495/212 225/496/210 226/497/211
f 228/467/213 231/494/216 232/493/217 234/492/219
f 229/457/214 233/498/218 232/499/217 231/500/216
f 230/462/215 234/482/219 232/481/217 233/480/218
f 235/464/220 238/501/223 239/502/224 241/503/226
f 236/456/221 240/497/225 239/496/224 238/495/223
f 237/460/222 241/488/226 239/487/224 240/486/225
f 242/464/227 245/503/230 246/502/231 248/501/233
f 243/461/228 247/491/232 246/490/231 245/489/230
f 244/457/229 248/500/233 246/499/231 247/498/232
f 207/465/192 193/466/178 199/470/184 210/483/195
f 210/488/195 199/474/184 195/463/180 208/460/193
f 194/459/179 200/458/185 206/479/191 198/471/183
f 198/476/183 206/480/191 202/462/187 195/463/180
f 201/466/186 214/465/199 220/483/205 205/470/190
f 205/482/190 220/489/205 216/461/201 202/462/187
f 215/458/200 209/459/194 212/471/197 219/479/204
f 219/491/204 212/486/197 208/460/193 216/461/201
f 235/464/220 207/465/192 213/485/198 238/501/223
f 238/495/223 213/473/198 209/459/194 236/456/221
f 214/465/199 242/464/227 248/501/233 217/485/202
f 217/477/202 248/500/233 244/457/229 215/458/200
f 243/461/228 237/460/222 240/486/225 247/491/232
f 247/498/232 240/497/225 236/456/221 244/457/229
f 221/467/206 235/464/220 241/503/226 224/492/209
f 224/474/209 241/488/226 237/460/222 222/463/207
f 242/464/227 228/467/213 234/492/219 245/503/230
f 245/489/230 234/482/219 230/462/215 243/461/228
f 229/457/214 223/456/208 226/497/211 233/498/218
f 233/480/218 226/476/211 222/463/207 230/462/215
f 193/466/178 221/467/206 227/494/212 196/468/181
f 196/473/181 227/495/212 223/456/208 194/459/179
f 228/467/213 201/466/186 203/468/188 231/494/216
f 231/500/216 203/477/188 200/458/185 229/457/214
f 207/465/192 235/464/220 221/467/206 193/466/178
o Cube.002
v -0.109680 2.428407 0.059542
v -0.109680 2.434528 0.065663
v -0.115802 2.434528 0.059542
v -0.109680 2.430200 0.063870
v -0.113215 2.430994 0.063076
v -0.114009 2.434528 0.063870
v -0.114009 2.430200 0.059542
v -0.109680 2.884927 0.065663
v -0.109680 2.891048 0.059542
v -0.115802 2.884927 0.059542
v -0.109680 2.889255 0.063870
v -0.113215 2.888461 0.063076
v -0.114009 2.889255 0.059542
v -0.114009 2.884927 0.063870
v -0.109680 2.428407 -0.218425
v -0.115802 2.434528 -0.218425
v -0.109680 2.434528 -0.224546
v -0.114009 2.430200 -0.218425
v -0.113215 2.430994 -0.221959
v -0.114009 2.434528 -0.222753
v -0.109680 2.430200 -0.222753
v -0.109680 2.891048 -0.218425
v -0.109680 2.884927 -0.224546
v -0.115802 2.884927 -0.218425
v -0.109680 2.889255 -0.222753
v -0.113215 2.888461 -0.221959
v -0.114009 2.884927 -0.222753
v -0.114009 2.889255 -0.218425
v 0.168286 2.428407 0.059542
v 0.174407 2.434528 0.059542
v 0.168286 2.434528 0.065663
v 0.172614 2.430200 0.059542
v 0.171820 2.430994 0.063076
v 0.172614 2.434528 0.063870
v 0.168286 2.430200 0.063870
v 0.168286 2.891048 0.059542
v 0.168286 2.884927 0.065663
v 0.174407 2.884927 0.059542
v 0.168286 2.889255 0.063870
v 0.171820 2.888461 0.063076
v 0.172614 2.884927 0.063870
v 0.172614 2.889255 0.059542
v 0.168286 2.428407 -0.218425
v 0.168286 2.434528 -0.224546
v 0.174407 2.434528 -0.218425
v 0.168286 2.430200 -0.222753
v 0.171820 2.430994 -0.221959
v 0.172614 2.434528 -0.222753
v 0.172614 2.430200 -0.218425
v 0.168286 2.891048 -0.218425
v 0.174407 2.884927 -0.218425
v 0.168286 2.884927 -0.224546
v 0.172614 2.889255 -0.218425
v 0.171820 2.888461 -0.221959
v 0.172614 2.884927 -0.222753
v 0.168286 2.889255 -0.222753
vn -0.1794 -0.9673 0.1794
vn -0.1794 -0.1794 0.9673
vn -0.9673 -0.1794 0.1794
vn -0.1726 -0.6965 0.6965
vn -0.5773 -0.5773 0.5774
vn -0.6965 -0.1726 0.6965
vn -0.6965 -0.6965 0.1726
vn -0.1794 0.1794 0.9673
vn -0.1794 0.9673 0.1794
vn -0.9673 0.1794 0.1794
vn -0.1726 0.6965 0.6965
vn -0.5773 0.5773 0.5774
vn -0.6965 0.6965 0.1726
vn -0.6965 0.1726 0.6965
vn -0.1794 -0.9673 -0.1794
vn -0.9673 -0.1794 -0.1794
vn -0.1794 -0.1794 -0.9673
vn -0.6965 -0.6965 -0.1726
vn -0.5773 -0.5773 -0.5774
vn -0.6965 -0.1726 -0.6965
vn -0.1726 -0.6965 -0.6965
vn -0.1794 0.9673 -0.1794
vn -0.1794 0.1794 -0.9673
vn -0.9673 0.1794 -0.1794
vn -0.1726 0.6965 -0.6965
vn -0.5773 0.5773 -0.5774
vn -0.6965 0.1726 -0.6965
vn -0.6965 0.6965 -0.1726
vn 0.1794 -0.9673 0.1794
vn 0.9673 -0.1794 0.1794
vn 0.1794 -0.1794 0.9673
vn 0.6965 -0.6965 0.1726
vn 0.5773 -0.5773 0.5774
vn 0.6965 -0.1726 0.6965
vn 0.1726 -0.6965 0.6965
vn 0.1794 0.9673 0.1794
vn 0.1794 0.1794 0.9673
vn 0.9673 0.1794 0.1794
vn 0.1726 0.6965 0.6965
vn 0.5773 0.5773 0.5774
vn 0.6965 0.1726 0.6965
vn 0.6965 0.6965 0.1726
vn 0.1794 -0.9673 -0.1794
vn 0.1794 -0.1794 -0.9673
vn 0.9673 -0.1794 -0.1794
vn 0.1726 -0.6965 -0.6965
vn 0.5773 -0.5773 -0.5774
vn 0.6965 -0.1726 -0.6965
vn 0.6965 -0.6965 -0.1726
vn 0.1794 0.9673 -0.1794
vn 0.9673 0.1794 -0.1794
vn 0.1794 0.1794 -0.9673
vn 0.6965 0.6965 -0.1726
vn 0.5773 0.5773 -0.5774
vn 0.6965 0.1726 -0.6965
vn 0.1726 0.6965 -0.6965
vt 0.638983 0.274801
vt 0.638983 0.725199
vt 0.361017 0.725199
vt 0.361017 0.274801
vt 0.638984 0.274801
vt 0.638984 0.725199
vt 0.361016 0.725199
vt 0.361016 0.274801
vt 0.638983 0.638984
vt 0.361017 0.638984
vt 0.361017 0.361016
vt 0.638983 0.361016
vt 0.361017 0.356688
vt 0.357483 0.357482
vt 0.356688 0.361016
vt 0.356688 0.274801
vt 0.357483 0.271267
vt 0.361017 0.270472
vt 0.361016 0.270472
vt 0.357482 0.271267
vt 0.356688 0.274801
vt 0.361017 0.729528
vt 0.357483 0.728733
vt 0.356688 0.725199
vt 0.356688 0.725199
vt 0.357482 0.728733
vt 0.361016 0.729528
vt 0.356688 0.638984
vt 0.357483 0.642518
vt 0.361017 0.643312
vt 0.643312 0.274801
vt 0.642518 0.271267
vt 0.638984 0.270472
vt 0.638984 0.729528
vt 0.642518 0.728733
vt 0.643312 0.725199
vt 0.643312 0.361016
vt 0.642517 0.357482
vt 0.638983 0.356688
vt 0.638983 0.270472
vt 0.642517 0.271267
vt 0.643312 0.274801
vt 0.643312 0.725199
vt 0.642517 0.728733
vt 0.638983 0.729528
vt 0.638983 0.643312
vt 0.642517 0.642518
vt 0.643312 0.638984
s 1
f 279/504/264 285/505/270 256/506/241 250/507/235
f 293/508/278 299/509/284 286/510/271 278/511/263
f 298/512/283 270/513/255 257/514/242 284/515/269
f 251/511/236 258/510/243 272/509/257 264/508/249
f 265/507/250 271/506/256 300/505/285 292/504/277
f 249/514/234 252/516/237 253/517/238 255/518/240
f 250/507/235 254/519/239 253/520/238 252/521/237
f 251/511/236 255/522/240 253/523/238 254/524/239
f 256/506/241 259/525/244 260/526/245 262/527/247
f 257/514/242 261/518/246 260/517/245 259/516/244
f 258/510/243 262/528/247 260/529/245 261/530/246
f 263/513/248 266/531/251 267/532/252 269/533/254
f 264/508/249 268/534/253 267/535/252 266/536/251
f 265/507/250 269/521/254 267/520/252 268/519/253
f 270/513/255 273/533/258 274/532/259 276/531/261
f 271/506/256 275/527/260 274/526/259 273/525/258
f 272/509/257 276/537/261 274/538/259 275/539/260
f 277/515/262 280/540/265 281/541/266 283/542/268
f 278/511/263 282/524/267 281/523/266 280/522/265
f 279/504/264 283/543/268 281/544/266 282/545/267
f 284/515/269 287/542/272 288/541/273 290/540/275
f 285/505/270 289/546/274 288/547/273 287/548/272
f 286/510/271 290/530/275 288/529/273 289/528/274
f 291/512/276 294/549/279 295/550/280 297/551/282
f 292/504/277 296/545/281 295/544/280 294/543/279
f 293/508/278 297/536/282 295/535/280 296/534/281
f 298/512/283 301/551/286 302/550/287 304/549/289
f 299/509/284 303/539/288 302/538/287 301/537/286
f 300/505/285 304/548/289 302/547/287 303/546/288
f 263/513/248 249/514/234 255/518/240 266/531/251
f 266/536/251 255/522/240 251/511/236 264/508/249
f 250/507/235 256/506/241 262/527/247 254/519/239
f 254/524/239 262/528/247 258/510/243 251/511/236
f 257/514/242 270/513/255 276/531/261 261/518/246
f 261/530/246 276/537/261 272/509/257 258/510/243
f 271/506/256 265/507/250 268/519/253 275/527/260
f 275/539/260 268/534/253 264/508/249 272/509/257
f 291/512/276 263/513/248 269/533/254 294/549/279
f 294/543/279 269/521/254 265/507/250 292/504/277
f 270/513/255 298/512/283 304/549/289 273/533/258
f 273/525/258 304/548/289 300/505/285 271/506/256
f 299/509/284 293/508/278 296/534/281 303/539/288
f 303/546/288 296/545/281 292/504/277 300/505/285
f 277/515/262 291/512/276 297/551/282 280/540/265
f 280/522/265 297/536/282 293/508/278 278/511/263
f 298/512/283 284/515/269 290/540/275 301/551/286
f 301/537/286 290/530/275 286/510/271 299/509/284
f 285/505/270 279/504/264 282/545/267 289/546/274
f 289/528/274 282/524/267 278/511/263 286/510/271
f 249/514/234 277/515/262 283/542/268 252/516/237
f 252/521/237 283/543/268 279/504/264 250/507/235
f 284/515/269 257/514/242 259/516/244 287/542/272
f 287/548/272 259/525/244 256/506/241 285/505/270
f 263/513/248 291/512/276 277/515/262 249/514/234
o Cube.003
v 4.612267 2.428407 -4.181565
v 4.612267 2.434528 -4.175445
v 4.606145 2.434528 -4.181565
v 4.612267 2.430200 -4.177237
v 4.608732 2.430994 -4.178031
v 4.607938 2.434528 -4.177237
v 4.607938 2.430200 -4.181565
v 4.612267 2.884927 -4.175445
v 4.612267 2.891048 -4.181565
v 4.606145 2.884927 -4.181565
v 4.612267 2.889255 -4.177237
v 4.608732 2.888461 -4.178031
v 4.607938 2.889255 -4.181565
v 4.607938 2.884927 -4.177237
v 4.612267 2.428407 -4.459533
v 4.606145 2.434528 -4.459533
v 4.612267 2.434528 -4.465653
v 4.607938 2.430200 -4.459533
v 4.608732 2.430994 -4.463067
v 4.607938 2.434528 -4.463861
v 4.612267 2.430200 -4.463861
v 4.612267 2.891048 -4.459533
v 4.612267 2.884927 -4.465653
v 4.606145 2.884927 -4.459533
v 4.612267 2.889255 -4.463861
v 4.608732 2.888461 -4.463067
v 4.607938 2.884927 -4.463861
v 4.607938 2.889255 -4.459533
v 4.890233 2.428407 -4.181565
v 4.896354 2.434528 -4.181565
v 4.890233 2.434528 -4.175445
v 4.894561 2.430200 -4.181565
v 4.893767 2.430994 -4.178031
v 4.894561 2.434528 -4.177237
v 4.890233 2.430200 -4.177237
v 4.890233 2.891048 -4.181565
v 4.890233 2.884927 -4.175445
v 4.896354 2.884927 -4.181565
v 4.890233 2.889255 -4.177237
v 4.893767 2.888461 -4.178031
v 4.894561 2.884927 -4.177237
v 4.894561 2.889255 -4.181565
v 4.890233 2.428407 -4.459533
v 4.890233 2.434528 -4.465653
v 4.896354 2.434528 -4.459533
v 4.890233 2.430200 -4.463861
v 4.893767 2.430994 -4.463067
v 4.894561 2.434528 -4.463861
v 4.894561 2.430200 -4.459533
v 4.890233 2.891048 -4.459533
v 4.896354 2.884927 -4.459533
v 4.890233 2.884927 -4.465653
v 4.894561 2.889255 -4.459533
v 4.893767 2.888461 -4.463067
v 4.894561 2.884927 -4.463861
v 4.890233 2.889255 -4.463861
vn -0.1794 -0.9673 0.1794
vn -0.1794 -0.1794 0.9673
vn -0.9673 -0.1794 0.1794
vn -0.1726 -0.6965 0.6965
vn -0.5773 -0.5773 0.5774
vn -0.6965 -0.1726 0.6965
vn -0.6965 -0.6965 0.1726
vn -0.1794 0.1794 0.9673
vn -0.1794 0.9673 0.1794
vn -0.9673 0.1794 0.1794
vn -0.1726 0.6965 0.6965
vn -0.5773 0.5773 0.5774
vn -0.6965 0.6965 0.1726
vn -0.6965 0.1726 0.6965
vn -0.1794 -0.9673 -0.1794
vn -0.9673 -0.1794 -0.1794
vn -0.1794 -0.1794 -0.9673
vn -0.6965 -0.6965 -0.1726
vn -0.5773 -0.5773 -0.5774
vn -0.6965 -0.1726 -0.6965
vn -0.1726 -0.6965 -0.6965
vn -0.1794 0.9673 -0.1794
vn -0.1794 0.1794 -0.9673
vn -0.9673 0.1794 -0.1794
vn -0.1726 0.6965 -0.6965
vn -0.5773 0.5773 -0.5774
vn -0.6965 0.1726 -0.6965
vn -0.6965 0.6965 -0.1726
vn 0.1794 -0.9673 0.1794
vn 0.9673 -0.1794 0.1794
vn 0.1794 -0.1794 0.9673
vn 0.6965 -0.6965 0.1726
vn 0.5773 -0.5773 0.5774
vn 0.6965 -0.1726 0.6965
vn 0.1726 -0.6965 0.6965
vn 0.1794 0.9673 0.1794
vn 0.1794 0.1794 0.9673
vn 0.9673 0.1794 0.1794
vn 0.1726 0.6965 0.6965
vn 0.5773 0.5773 0.5774
vn 0.6965 0.1726 0.6965
vn 0.6965 0.6965 0.1726
vn 0.1794 -0.9673 -0.1794
vn 0.1794 -0.1794 -0.9673
vn 0.9673 -0.1794 -0.1794
vn 0.1726 -0.6965 -0.6965
vn 0.5773 -0.5773 -0.5774
vn 0.6965 -0.1726 -0.6965
vn 0.6965 -0.6965 -0.1726
vn 0.1794 0.9673 -0.1794
vn 0.9673 0.1794 -0.1794
vn 0.1794 0.1794 -0.9673
vn 0.6965 0.6965 -0.1726
vn 0.5773 0.5773 -0.5774
vn 0.6965 0.1726 -0.6965
vn 0.1726 0.6965 -0.6965
vt 0.638983 0.274801
vt 0.638983 0.725199
vt 0.361017 0.725199
vt 0.361017 0.274801
vt 0.638984 0.274801
vt 0.638984 0.725199
vt 0.361016 0.725199
vt 0.361016 0.274801
vt 0.638983 0.638984
vt 0.361017 0.638984
vt 0.361017 0.361016
vt 0.638983 0.361016
vt 0.361017 0.356688
vt 0.357483 0.357482
vt 0.356688 0.361016
vt 0.356688 0.274801
vt 0.357483 0.271267
vt 0.361017 0.270472
vt 0.361016 0.270472
vt 0.357482 0.271267
vt 0.356688 0.274801
vt 0.361017 0.729528
vt 0.357483 0.728733
vt 0.356688 0.725199
vt 0.356688 0.725199
vt 0.357482 0.728733
vt 0.361016 0.729528
vt 0.356688 0.638984
vt 0.357483 0.642518
vt 0.361017 0.643312
vt 0.643312 0.274801
vt 0.642518 0.271267
vt 0.638984 0.270472
vt 0.638984 0.729528
vt 0.642518 0.728733
vt 0.643312 0.725199
vt 0.643312 0.361016
vt 0.642517 0.357482
vt 0.638983 0.356688
vt 0.638983 0.270472
vt 0.642517 0.271267
vt 0.643312 0.274801
vt 0.643312 0.725199
vt 0.642517 0.728733
vt 0.638983 0.729528
vt 0.638983 0.643312
vt 0.642517 0.642518
vt 0.643312 0.638984
s 1
f 335/552/320 341/553/326 312/554/297 306/555/291
f 349/556/334 355/557/340 342/558/327 334/559/319
f 354/560/339 326/561/311 313/562/298 340/563/325
f 307/559/292 314/558/299 328/557/313 320/556/305
f 321/555/306 327/554/312 356/553/341 348/552/333
f 305/562/290 308/564/293 309/565/294 311/566/296
f 306/555/291 310/567/295 309/568/294 308/569/293
f 307/559/292 311/570/296 309/571/294 310/572/295
f 312/554/297 315/573/300 316/574/301 318/575/303
f 313/562/298 317/566/302 316/565/301 315/564/300
f 314/558/299 318/576/303 316/577/301 317/578/302
f 319/561/304 322/579/307 323/580/308 325/581/310
f 320/556/305 324/582/309 323/583/308 322/584/307
f 321/555/306 325/569/310 323/568/308 324/567/309
f 326/561/311 329/581/314 330/580/315 332/579/317
f 327/554/312 331/575/316 330/574/315 329/573/314
f 328/557/313 332/585/317 330/586/315 331/587/316
f 333/563/318 336/588/321 337/589/322 339/590/324
f 334/559/319 338/572/323 337/571/322 336/570/321
f 335/552/320 339/591/324 337/592/322 338/593/323
f 340/563/325 343/590/328 344/589/329 346/588/331
f 341/553/326 345/594/330 344/595/329 343/596/328
f 342/558/327 346/578/331 344/577/329 345/576/330
f 347/560/332 350/597/335 351/598/336 353/599/338
f 348/552/333 352/593/337 351/592/336 350/591/335
f 349/556/334 353/584/338 351/583/336 352/582/337
f 354/560/339 357/599/342 358/598/343 360/597/345
f 355/557/340 359/587/344 358/586/343 357/585/342
f 356/553/341 360/596/345 358/595/343 359/594/344
f 319/561/304 305/562/290 311/566/296 322/579/307
f 322/584/307 311/570/296 307/559/292 320/556/305
f 306/555/291 312/554/297 318/575/303 310/567/295
f 310/572/295 318/576/303 314/558/299 307/559/292
f 313/562/298 326/561/311 332/579/317 317/566/302
f 317/578/302 332/585/317 328/557/313 314/558/299
f 327/554/312 321/555/306 324/567/309 331/575/316
f 331/587/316 324/582/309 320/556/305 328/557/313
f 347/560/332 319/561/304 325/581/310 350/597/335
f 350/591/335 325/569/310 321/555/306 348/552/333
f 326/561/311 354/560/339 360/597/345 329/581/314
f 329/573/314 360/596/345 356/553/341 327/554/312
f 355/557/340 349/556/334 352/582/337 359/587/344
f 359/594/344 352/593/337 348/552/333 356/553/341
f 333/563/318 347/560/332 353/599/338 336/588/321
f 336/570/321 353/584/338 349/556/334 334/559/319
f 354/560/339 340/563/325 346/588/331 357/599/342
f 357/585/342 346/578/331 342/558/327 355/557/340
f 341/553/326 335/552/320 338/593/323 345/594/330
f 345/576/330 338/572/323 334/559/319 342/558/327
f 305/562/290 333/563/318 339/590/324 308/564/293
f 308/569/293 339/591/324 335/552/320 306/555/291
f 340/563/325 313/562/298 315/564/300 343/590/328
f 343/596/328 315/573/300 312/554/297 341/553/326
f 319/561/304 347/560/332 333/563/318 305/562/290
o Cube.004
v -0.109680 2.428407 -4.181565
v -0.109680 2.434528 -4.175445
v -0.115802 2.434528 -4.181565
v -0.109680 2.430200 -4.177237
v -0.113215 2.430994 -4.178031
v -0.114009 2.434528 -4.177237
v -0.114009 2.430200 -4.181565
v -0.109680 2.884927 -4.175445
v -0.109680 2.891048 -4.181565
v -0.115802 2.884927 -4.181565
v -0.109680 2.889255 -4.177237
v -0.113215 2.888461 -4.178031
v -0.114009 2.889255 -4.181565
v -0.114009 2.884927 -4.177237
v -0.109680 2.428407 -4.459533
v -0.115802 2.434528 -4.459533
v -0.109680 2.434528 -4.465653
v -0.114009 2.430200 -4.459533
v -0.113215 2.430994 -4.463067
v -0.114009 2.434528 -4.463861
v -0.109680 2.430200 -4.463861
v -0.109680 2.891048 -4.459533
v -0.109680 2.884927 -4.465653
v -0.115802 2.884927 -4.459533
v -0.109680 2.889255 -4.463861
v -0.113215 2.888461 -4.463067
v -0.114009 2.884927 -4.463861
v -0.114009 2.889255 -4.459533
v 0.168286 2.428407 -4.181565
v 0.174407 2.434528 -4.181565
v 0.168286 2.434528 -4.175445
v 0.172614 2.430200 -4.181565
v 0.171820 2.430994 -4.178031
v 0.172614 2.434528 -4.177237
v 0.168286 2.430200 -4.177237
v 0.168286 2.891048 -4.181565
v 0.168286 2.884927 -4.175445
v 0.174407 2.884927 -4.181565
v 0.168286 2.889255 -4.177237
v 0.171820 2.888461 -4.178031
v 0.172614 2.884927 -4.177237
v 0.172614 2.889255 -4.181565
v 0.168286 2.428407 -4.459533
v 0.168286 2.434528 -4.465653
v 0.174407 2.434528 -4.459533
v 0.168286 2.430200 -4.463861
v 0.171820 2.430994 -4.463067
v 0.172614 2.434528 -4.463861
v 0.172614 2.430200 -4.459533
v 0.168286 2.891048 -4.459533
v 0.174407 2.884927 -4.459533
v 0.168286 2.884927 -4.465653
v 0.172614 2.889255 -4.459533
v 0.171820 2.888461 -4.463067
v 0.172614 2.884927 -4.463861
v 0.168286 2.889255 -4.463861
vn -0.1794 -0.9673 0.1794
vn -0.1794 -0.1794 0.9673
vn -0.9673 -0.1794 0.1794
vn -0.1726 -0.6965 0.6965
vn -0.5773 -0.5773 0.5774
vn -0.6965 -0.1726 0.6965
vn -0.6965 -0.6965 0.1726
vn -0.1794 0.1794 0.9673
vn -0.1794 0.9673 0.1794
vn -0.9673 0.1794 0.1794
vn -0.1726 0.6965 0.6965
vn -0.5773 0.5773 0.5774
vn -0.6965 0.6965 0.1726
vn -0.6965 0.1726 0.6965
vn -0.1794 -0.9673 -0.1794
vn -0.9673 -0.1794 -0.1794
vn -0.1794 -0.1794 -0.9673
vn -0.6965 -0.6965 -0.1726
vn -0.5773 -0.5773 -0.5774
vn -0.6965 -0.1726 -0.6965
vn -0.1726 -0.6965 -0.6965
vn -0.1794 0.9673 -0.1794
vn -0.1794 0.1794 -0.9673
vn -0.9673 0.1794 -0.1794
vn -0.1726 0.6965 -0.6965
vn -0.5773 0.5773 -0.5774
vn -0.6965 0.1726 -0.6965
vn -0.6965 0.6965 -0.1726
vn 0.1794 -0.9673 0.1794
vn 0.9673 -0.1794 0.1794
vn 0.1794 -0.1794 0.9673
vn 0.6965 -0.6965 0.1726
vn 0.5773 -0.5773 0.5774
vn 0.6965 -0.1726 0.6965
vn 0.1726 -0.6965 0.6965
vn 0.1794 0.9673 0.1794
vn 0.1794 0.1794 0.9673
vn 0.9673 0.1794 0.1794
vn 0.1726 0.6965 0.6965
vn 0.5773 0.5773 0.5774
vn 0.6965 0.1726 0.6965
vn 0.6965 0.6965 0.1726
vn 0.1794 -0.9673 -0.1794
vn 0.1794 -0.1794 -0.9673
vn 0.9673 -0.1794 -0.1794
vn 0.1726 -0.6965 -0.6965
vn 0.5773 -0.5773 -0.5774
vn 0.6965 -0.1726 -0.6965
vn 0.6965 -0.6965 -0.1726
vn 0.1794 0.9673 -0.1794
vn 0.9673 0.1794 -0.1794
vn 0.1794 0.1794 -0.9673
vn 0.6965 0.6965 -0.1726
vn 0.5773 0.5773 -0.5774
vn 0.6965 0.1726 -0.6965
vn 0.1726 0.6965 -0.6965
vt 0.638983 0.274801
vt 0.638983 0.725199
vt 0.361017 0.725199
vt 0.361017 0.274801
vt 0.638984 0.274801
vt 0.638984 0.725199
vt 0.361016 0.725199
vt 0.361016 0.274801
vt 0.638983 0.638984
vt 0.361017 0.638984
vt 0.361017 0.361016
vt 0.638983 0.361016
vt 0.361017 0.356688
vt 0.357483 0.357482
vt 0.356688 0.361016
vt 0.356688 0.274801
vt 0.357483 0.271267
vt 0.361017 0.270472
vt 0.361016 0.270472
vt 0.357482 0.271267
vt 0.356688 0.274801
vt 0.361017 0.729528
vt 0.357483 0.728733
vt 0.356688 0.725199
vt 0.356688 0.725199
vt 0.357482 0.728733
vt 0.361016 0.729528
vt 0.356688 0.638984
vt 0.357483 0.642518
vt 0.361017 0.643312
vt 0.643312 0.274801
vt 0.642518 0.271267
vt 0.638984 0.270472
vt 0.638984 0.729528
vt 0.642518 0.728733
vt 0.643312 0.725199
vt 0.643312 0.361016
vt 0.642517 0.357482
vt 0.638983 0.356688
vt 0.638983 0.270472
vt 0.642517 0.271267
vt 0.643312 0.274801
vt 0.643312 0.725199
vt 0.642517 0.728733
vt 0.638983 0.729528
vt 0.638983 0.643312
vt 0.642517 0.642518
vt 0.643312 0.638984
s 1
f 391/600/376 397/601/382 368/602/353 362/603/347
f 405/604/390 411/605/396 398/606/383 390/607/375
f 410/608/395 382/609/367 369/610/354 396/611/381
f 363/607/348 370/606/355 384/605/369 376/604/361
f 377/603/362 383/602/368 412/601/397 404/600/389
f 361/610/346 364/612/349 365/613/350 367/614/352
f 362/603/347 366/615/351 365/616/350 364/617/349
f 363/607/348 367/618/352 365/619/350 366/620/351
f 368/602/353 371/621/356 372/622/357 374/623/359
f 369/610/354 373/614/358 372/613/357 371/612/356
f 370/606/355 374/624/359 372/625/357 373/626/358
f 375/609/360 378/627/363 379/628/364 381/629/366
f 376/604/361 380/630/365 379/631/364 378/632/363
f 377/603/362 381/617/366 379/616/364 380/615/365
f 382/609/367 385/629/370 386/628/371 388/627/373
f 383/602/368 387/623/372 386/622/371 385/621/370
f 384/605/369 388/633/373 386/634/371 387/635/372
f 389/611/374 392/636/377 393/637/378 395/638/380
f 390/607/375 394/620/379 393/619/378 392/618/377
f 391/600/376 395/639/380 393/640/378 394/641/379
f 396/611/381 399/638/384 400/637/385 402/636/387
f 397/601/382 401/642/386 400/643/385 399/644/384
f 398/606/383 402/626/387 400/625/385 401/624/386
f 403/608/388 406/645/391 407/646/392 409/647/394
f 404/600/389 408/641/393 407/640/392 406/639/391
f 405/604/390 409/632/394 407/631/392 408/630/393
f 410/608/395 413/647/398 414/646/399 416/645/401
f 411/605/396 415/635/400 414/634/399 413/633/398
f 412/601/397 416/644/401 414/643/399 415/642/400
f 375/609/360 361/610/346 367/614/352 378/627/363
f 378/632/363 367/618/352 363/607/348 376/604/361
f 362/603/347 368/602/353 374/623/359 366/615/351
f 366/620/351 374/624/359 370/606/355 363/607/348
f 369/610/354 382/609/367 388/627/373 373/614/358
f 373/626/358 388/633/373 384/605/369 370/606/355
f 383/602/368 377/603/362 380/615/365 387/623/372
f 387/635/372 380/630/365 376/604/361 384/605/369
f 403/608/388 375/609/360 381/629/366 406/645/391
f 406/639/391 381/617/366 377/603/362 404/600/389
f 382/609/367 410/608/395 416/645/401 385/629/370
f 385/621/370 416/644/401 412/601/397 383/602/368
f 411/605/396 405/604/390 408/630/393 415/635/400
f 415/642/400 408/641/393 404/600/389 412/601/397
f 389/611/374 403/608/388 409/647/394 392/636/377
f 392/618/377 409/632/394 405/604/390 390/607/375
f 410/608/395 396/611/381 402/636/387 413/647/398
f 413/633/398 402/626/387 398/606/383 411/605/396
f 397/601/382 391/600/376 394/641/379 401/642/386
f 401/624/386 394/620/379 390/607/375 398/606/383
f 361/610/346 389/611/374 395/638/380 364/612/349
f 364/617/349 395/639/380 391/600/376 362/603/347
f 396/611/381 369/610/354 371/612/356 399/638/384
f 399/644/384 371/621/356 368/602/353 397/601/382
f 375/609/360 403/608/388 389/611/374 361/610/346
o Plane.011
v -4.688357 0.000000 0.000000
v -4.580767 0.000000 0.000000
v -4.581912 0.000000 -0.196858
v -4.688357 0.000000 -0.196858
v -4.688357 2.495204 0.000000
v -4.580767 2.495204 0.012284
v -4.581912 2.495204 -0.209142
v -4.688357 2.495204 -0.196858
v -4.795948 0.000000 0.000000
v -4.794803 0.000000 -0.196858
v -4.795948 2.495204 0.012284
v -4.794803 2.495204 -0.209142
v -4.681677 0.000238 -0.013339
v -4.580197 0.000178 -0.009984
v -4.581336 0.000178 -0.186875
v -4.681677 0.000238 -0.183520
v -4.681677 2.495442 -0.013339
v -4.580197 2.495382 0.002300
v -4.581336 2.495382 -0.199159
v -4.681677 2.495442 -0.183520
v -4.796517 0.000178 -0.009984
v -4.795379 0.000178 -0.186875
v -4.796517 2.495382 0.002300
v -4.795379 2.495382 -0.199159
vn -1.0000 -0.0000 -0.0000
vn -0.0576 -0.0025 -0.9983
vn -0.0570 -0.0025 0.9984
vn 0.0576 -0.0025 -0.9983
vn 0.0570 -0.0025 0.9984
vn 1.0000 -0.0000 -0.0000
vn 0.0942 0.0025 0.9955
vn 0.0932 0.0025 -0.9956
vn -0.0832 0.0025 0.9965
vn -0.0824 0.0025 -0.9966
vn -0.0000 -0.9998 -0.0179
vn -0.0000 -0.9998 0.0179
vn 0.0356 -0.9994 -0.0000
vn -0.0020 0.9998 0.0172
vn -0.0020 0.9998 -0.0172
vn -0.0356 0.9994 -0.0000
vn 0.9983 -0.0003 -0.0576
vn 0.9984 -0.0003 0.0570
vn 0.0020 0.9998 0.0184
vn 0.0021 0.9998 -0.0184
vn -0.9983 -0.0003 -0.0576
vn -0.9984 -0.0003 0.0570
vt 0.605492 -0.837237
vt 0.394508 -0.837237
vt 0.394508 1.837014
vt 0.605492 1.837014
vt 0.612294 -0.837237
vt 0.498210 -0.837237
vt 0.498210 1.837014
vt 0.612294 1.837014
vt 0.613520 -0.837237
vt 0.613520 1.837014
vt 0.384126 -0.837237
vt 0.384126 1.837014
vt 0.382900 1.837014
vt 0.382900 -0.837237
vt 0.591196 -0.836982
vt 0.591196 1.837269
vt 0.408803 1.837269
vt 0.408803 -0.836982
vt 0.612911 -0.837046
vt 0.612911 1.837205
vt 0.505370 1.837269
vt 0.505370 -0.836982
vt 0.505370 -0.836982
vt 0.505370 1.837269
vt 0.614131 1.837205
vt 0.614131 -0.837046
vt 0.383509 -0.837046
vt 0.383509 1.837205
vt 0.382289 -0.837046
vt 0.382289 1.837205
vt 0.613520 0.394508
vt 0.498210 0.394508
vt 0.505370 0.408803
vt 0.614131 0.405208
vt 0.498210 0.605492
vt 0.612294 0.605492
vt 0.612911 0.594793
vt 0.505370 0.591196
vt 0.613520 0.381343
vt 0.614131 0.392042
vt 0.612294 0.618657
vt 0.612911 0.607958
vt 0.618657 1.837014
vt 0.607958 1.837205
vt 0.594793 -0.837046
vt 0.381343 1.837014
vt 0.405208 -0.837046
vt 0.392042 1.837205
vt 0.382900 0.394508
vt 0.382289 0.405208
vt 0.384126 0.605492
vt 0.383509 0.594793
vt 0.382900 0.381343
vt 0.382289 0.392042
vt 0.384126 0.618657
vt 0.383509 0.607958
s 0
f 420/648/402 417/649/402 421/650/402 424/651/402
f 419/652/403 420/653/403 424/654/403 423/655/403
f 417/653/404 418/656/404 422/657/404 421/654/404
f 426/658/405 428/659/405 424/654/405 420/653/405
f 417/653/406 421/654/406 427/660/406 425/661/406
f 432/662/407 436/663/407 433/664/407 429/665/407
f 431/666/408 435/667/408 436/668/408 432/669/408
f 429/670/409 433/671/409 434/672/409 430/673/409
f 438/674/410 432/669/410 436/668/410 440/675/410
f 429/670/411 437/676/411 439/677/411 433/671/411
f 418/678/412 417/679/412 429/680/412 430/681/412
f 420/682/413 419/683/413 431/684/413 432/685/413
f 417/679/414 420/682/414 432/685/414 429/680/414
f 421/679/415 422/686/415 434/687/415 433/680/415
f 423/688/416 424/682/416 436/685/416 435/689/416
f 424/682/417 421/679/417 433/680/417 436/685/417
f 419/648/418 423/690/418 435/691/418 431/692/418
f 422/693/419 418/649/419 430/694/419 434/695/419
f 417/679/412 425/696/412 437/697/412 429/680/412
f 426/698/413 420/682/413 432/685/413 438/699/413
f 427/700/420 421/679/420 433/680/420 439/701/420
f 424/682/421 428/702/421 440/703/421 436/685/421
f 428/690/422 426/648/422 438/692/422 440/691/422
f 425/649/423 427/693/423 439/695/423 437/694/423
o Plane.012
v -5.342959 2.603364 0.027581
v -5.342959 2.495774 0.027581
v -5.342959 2.496919 -0.169277
v -5.342959 2.603364 -0.169277
v -0.057502 2.603364 0.027581
v -0.057502 2.495774 0.039865
v -0.057502 2.496919 -0.181561
v -0.057502 2.603364 -0.169277
v -5.342959 2.710954 0.027581
v -5.342959 2.709810 -0.169277
v -0.057502 2.710954 0.039865
v -0.057502 2.709810 -0.181561
v -5.342529 2.596684 0.014243
v -5.342638 2.495204 0.017598
v -5.342638 2.496343 -0.159294
v -5.342529 2.596684 -0.155939
v -0.057072 2.596684 0.014243
v -0.057180 2.495204 0.029881
v -0.057180 2.496343 -0.171578
v -0.057072 2.596684 -0.155939
v -5.342638 2.711524 0.017598
v -5.342638 2.710386 -0.159294
v -0.057180 2.711524 0.029881
v -0.057180 2.710386 -0.171578
vn -0.0000 1.0000 -0.0000
vn -0.0012 0.0576 -0.9983
vn -0.0012 0.0570 0.9984
vn -0.0012 -0.0576 -0.9983
vn -0.0012 -0.0570 0.9984
vn -0.0000 -1.0000 -0.0000
vn 0.0012 -0.0942 0.9955
vn 0.0012 -0.0932 -0.9956
vn 0.0012 0.0832 0.9965
vn 0.0012 0.0824 -0.9966
vn -0.9995 -0.0000 -0.0322
vn -0.9995 -0.0000 0.0322
vn -0.9979 -0.0642 -0.0000
vn 0.9995 0.0036 0.0311
vn 0.9995 0.0037 -0.0311
vn 0.9979 0.0642 -0.0000
vn -0.0001 -0.9983 -0.0576
vn -0.0001 -0.9984 0.0570
vn 0.9994 -0.0037 0.0332
vn 0.9994 -0.0037 -0.0332
vn -0.0001 0.9983 -0.0576
vn -0.0001 0.9984 0.0570
vt 0.605492 -0.083024
vt 0.394508 -0.083024
vt 0.394508 1.082941
vt 0.605492 1.082941
vt 0.612294 -0.083024
vt 0.498210 -0.083024
vt 0.498210 1.082941
vt 0.612294 1.082941
vt 0.613520 -0.083024
vt 0.613520 1.082941
vt 0.384126 -0.083024
vt 0.384126 1.082941
vt 0.382900 1.082941
vt 0.382900 -0.083024
vt 0.591196 -0.082929
vt 0.591196 1.083036
vt 0.408803 1.083036
vt 0.408803 -0.082929
vt 0.612911 -0.082953
vt 0.612911 1.083012
vt 0.505370 1.083036
vt 0.505370 -0.082929
vt 0.505370 -0.082929
vt 0.505370 1.083036
vt 0.614131 1.083012
vt 0.614131 -0.082953
vt 0.383509 -0.082953
vt 0.383509 1.083012
vt 0.382289 -0.082953
vt 0.382289 1.083012
vt 0.613520 0.394508
vt 0.498210 0.394508
vt 0.505370 0.408803
vt 0.614131 0.405208
vt 0.498210 0.605492
vt 0.612294 0.605492
vt 0.612911 0.594793
vt 0.505370 0.591196
vt 0.498210 0.394508
vt 0.613520 0.381343
vt 0.614131 0.392042
vt 0.505370 0.408803
vt 0.612294 0.618657
vt 0.498210 0.605492
vt 0.505370 0.591196
vt 0.612911 0.607958
vt 0.618657 1.082941
vt 0.607958 1.083012
vt 0.594793 -0.082953
vt 0.381343 1.082941
vt 0.405208 -0.082953
vt 0.392042 1.083012
vt 0.382900 0.394508
vt 0.382289 0.405208
vt 0.384126 0.605492
vt 0.383509 0.594793
vt 0.382900 0.381343
vt 0.382289 0.392042
vt 0.384126 0.618657
vt 0.383509 0.607958
s 0
f 444/704/424 441/705/424 445/706/424 448/707/424
f 443/708/425 444/709/425 448/710/425 447/711/425
f 441/709/426 442/712/426 446/713/426 445/710/426
f 450/714/427 452/715/427 448/710/427 444/709/427
f 441/709/428 445/710/428 451/716/428 449/717/428
f 456/718/429 460/719/429 457/720/429 453/721/429
f 455/722/430 459/723/430 460/724/430 456/725/430
f 453/726/431 457/727/431 458/728/431 454/729/431
f 462/730/432 456/725/432 460/724/432 464/731/432
f 453/726/433 461/732/433 463/733/433 457/727/433
f 442/734/434 441/735/434 453/736/434 454/737/434
f 444/738/435 443/739/435 455/740/435 456/741/435
f 441/735/436 444/738/436 456/741/436 453/736/436
f 445/742/437 446/743/437 458/744/437 457/745/437
f 447/746/438 448/747/438 460/748/438 459/749/438
f 448/747/439 445/742/439 457/745/439 460/748/439
f 443/704/440 447/750/440 459/751/440 455/752/440
f 446/753/441 442/705/441 454/754/441 458/755/441
f 441/735/434 449/756/434 461/757/434 453/736/434
f 450/758/435 444/738/435 456/741/435 462/759/435
f 451/760/442 445/742/442 457/745/442 463/761/442
f 448/747/443 452/762/443 464/763/443 460/748/443
f 452/750/444 450/704/444 462/752/444 464/751/444
f 449/705/445 451/753/445 463/755/445 461/754/445
o Plane.013
v -4.688357 0.000000 -4.225684
v -4.580767 0.000000 -4.225684
v -4.581912 0.000000 -4.422542
v -4.688357 0.000000 -4.422542
v -4.688357 2.495204 -4.225684
v -4.580767 2.495204 -4.213400
v -4.581912 2.495204 -4.434826
v -4.688357 2.495204 -4.422542
v -4.795948 0.000000 -4.225684
v -4.794803 0.000000 -4.422542
v -4.795948 2.495204 -4.213400
v -4.794803 2.495204 -4.434826
v -4.681677 0.000238 -4.239022
v -4.580197 0.000178 -4.235667
v -4.581336 0.000178 -4.412559
v -4.681677 0.000238 -4.409204
v -4.681677 2.495442 -4.239022
v -4.580197 2.495382 -4.223383
v -4.581336 2.495382 -4.424843
v -4.681677 2.495442 -4.409204
v -4.796517 0.000178 -4.235667
v -4.795379 0.000178 -4.412559
v -4.796517 2.495382 -4.223383
v -4.795379 2.495382 -4.424843
vn -1.0000 -0.0000 -0.0000
vn -0.0576 -0.0025 -0.9983
vn -0.0570 -0.0025 0.9984
vn 0.0576 -0.0025 -0.9983
vn 0.0570 -0.0025 0.9984
vn 1.0000 -0.0000 -0.0000
vn 0.0942 0.0025 0.9955
vn 0.0932 0.0025 -0.9956
vn -0.0832 0.0025 0.9965
vn -0.0824 0.0025 -0.9966
vn -0.0000 -0.9998 -0.0179
vn -0.0000 -0.9998 0.0179
vn 0.0356 -0.9994 -0.0000
vn -0.0020 0.9998 0.0172
vn -0.0020 0.9998 -0.0172
vn -0.0356 0.9994 -0.0000
vn 0.9983 -0.0003 -0.0576
vn 0.9984 -0.0003 0.0570
vn 0.0020 0.9998 0.0184
vn 0.0021 0.9998 -0.0184
vn -0.9983 -0.0003 -0.0576
vn -0.9984 -0.0003 0.0570
vt 0.605492 -0.837237
vt 0.394508 -0.837237
vt 0.394508 1.837014
vt 0.605492 1.837014
vt 0.612294 -0.837237
vt 0.498210 -0.837237
vt 0.498210 1.837014
vt 0.612294 1.837014
vt 0.613520 -0.837237
vt 0.613520 1.837014
vt 0.384126 -0.837237
vt 0.384126 1.837014
vt 0.382900 1.837014
vt 0.382900 -0.837237
vt 0.591196 -0.836982
vt 0.591196 1.837269
vt 0.408803 1.837269
vt 0.408803 -0.836982
vt 0.612911 -0.837046
vt 0.612911 1.837205
vt 0.505370 1.837269
vt 0.505370 -0.836982
vt 0.505370 -0.836982
vt 0.505370 1.837269
vt 0.614131 1.837205
vt 0.614131 -0.837046
vt 0.383509 -0.837046
vt 0.383509 1.837205
vt 0.382289 -0.837046
vt 0.382289 1.837205
vt 0.613520 0.394508
vt 0.498210 0.394508
vt 0.505370 0.408803
vt 0.614131 0.405208
vt 0.498210 0.605492
vt 0.612294 0.605492
vt 0.612911 0.594793
vt 0.505370 0.591196
vt 0.613520 0.381343
vt 0.614131 0.392042
vt 0.612294 0.618657
vt 0.612911 0.607958
vt 0.618657 1.837014
vt 0.607958 1.837205
vt 0.594793 -0.837046
vt 0.381343 1.837014
vt 0.405208 -0.837046
vt 0.392042 1.837205
vt 0.382900 0.394508
vt 0.382289 0.405208
vt 0.384126 0.605492
vt 0.383509 0.594793
vt 0.382900 0.381343
vt 0.382289 0.392042
vt 0.384126 0.618657
vt 0.383509 0.607958
s 0
f 468/764/446 465/765/446 469/766/446 472/767/446
f 467/768/447 468/769/447 472/770/447 471/771/447
f 465/769/448 466/772/448 470/773/448 469/770/448
f 474/774/449 476/775/449 472/770/449 468/769/449
f 465/769/450 469/770/450 475/776/450 473/777/450
f 480/778/451 484/779/451 481/780/451 477/781/451
f 479/782/452 483/783/452 484/784/452 480/785/452
f 477/786/453 481/787/453 482/788/453 478/789/453
f 486/790/454 480/785/454 484/784/454 488/791/454
f 477/786/455 485/792/455 487/793/455 481/787/455
f 466/794/456 465/795/456 477/796/456 478/797/456
f 468/798/457 467/799/457 479/800/457 480/801/457
f 465/795/458 468/798/458 480/801/458 477/796/458
f 469/795/459 470/802/459 482/803/459 481/796/459
f 471/804/460 472/798/460 484/801/460 483/805/460
f 472/798/461 469/795/461 481/796/461 484/801/461
f 467/764/462 471/806/462 483/807/462 479/808/462
f 470/809/463 466/765/463 478/810/463 482/811/463
f 465/795/456 473/812/456 485/813/456 477/796/456
f 474/814/457 468/798/457 480/801/457 486/815/457
f 475/816/464 469/795/464 481/796/464 487/817/464
f 472/798/465 476/818/465 488/819/465 484/801/465
f 476/806/466 474/764/466 486/808/466 488/807/466
f 473/765/467 475/809/467 487/811/467 485/810/467
o Plane.014
v -5.501472 2.603364 -4.231132
v -5.501472 2.495774 -4.231132
v -5.501472 2.496919 -4.427990
v -5.501472 2.603364 -4.427990
v -0.057502 2.603364 -4.231132
v -0.057502 2.495774 -4.218848
v -0.057502 2.496919 -4.440274
v -0.057502 2.603364 -4.427990
v -5.501472 2.710954 -4.231132
v -5.501472 2.709810 -4.427990
v -0.057502 2.710954 -4.218848
v -0.057502 2.709810 -4.440274
v -5.501042 2.596684 -4.244471
v -5.501151 2.495204 -4.241116
v -5.501151 2.496343 -4.418007
v -5.501042 2.596684 -4.414652
v -0.057072 2.596684 -4.244471
v -0.057180 2.495204 -4.228832
v -0.057180 2.496343 -4.430291
v -0.057072 2.596684 -4.414652
v -5.501151 2.711524 -4.241116
v -5.501151 2.710386 -4.418007
v -0.057180 2.711524 -4.228832
v -0.057180 2.710386 -4.430291
vn -0.0000 1.0000 -0.0000
vn -0.0011 0.0576 -0.9983
vn -0.0011 0.0570 0.9984
vn -0.0011 -0.0576 -0.9983
vn -0.0011 -0.0570 0.9984
vn -0.0000 -1.0000 -0.0000
vn 0.0011 -0.0942 0.9955
vn 0.0011 -0.0932 -0.9956
vn 0.0011 0.0832 0.9965
vn 0.0011 0.0824 -0.9966
vn -0.9995 -0.0000 -0.0322
vn -0.9995 -0.0000 0.0322
vn -0.9979 -0.0642 -0.0000
vn 0.9995 0.0036 0.0311
vn 0.9995 0.0037 -0.0311
vn 0.9979 0.0642 -0.0000
vn -0.0001 -0.9983 -0.0576
vn -0.0001 -0.9984 0.0570
vn 0.9994 -0.0037 0.0332
vn 0.9994 -0.0037 -0.0332
vn -0.0001 0.9983 -0.0576
vn -0.0001 0.9984 0.0570
vt 0.605492 -0.100508
vt 0.394508 -0.100508
vt 0.394508 1.100425
vt 0.605492 1.100425
vt 0.612294 -0.100508
vt 0.498210 -0.100508
vt 0.498210 1.100425
vt 0.612294 1.100425
vt 0.613520 -0.100508
vt 0.613520 1.100425
vt 0.384126 -0.100508
vt 0.384126 1.100425
vt 0.382900 1.100425
vt 0.382900 -0.100508
vt 0.591196 -0.100413
vt 0.591196 1.100520
vt 0.408803 1.100520
vt 0.408803 -0.100413
vt 0.612911 -0.100437
vt 0.612911 1.100496
vt 0.505370 1.100520
vt 0.505370 -0.100413
vt 0.505370 -0.100413
vt 0.505370 1.100520
vt 0.614131 1.100496
vt 0.614131 -0.100437
vt 0.383509 -0.100437
vt 0.383509 1.100496
vt 0.382289 -0.100437
vt 0.382289 1.100496
vt 0.613520 0.394508
vt 0.498210 0.394508
vt 0.505370 0.408803
vt 0.614131 0.405208
vt 0.498210 0.605492
vt 0.612294 0.605492
vt 0.612911 0.594793
vt 0.505370 0.591196
vt 0.498210 0.394508
vt 0.613520 0.381343
vt 0.614131 0.392042
vt 0.505370 0.408803
vt 0.612294 0.618657
vt 0.498210 0.605492
vt 0.505370 0.591196
vt 0.612911 0.607958
vt 0.618657 1.100425
vt 0.607958 1.100496
vt 0.594793 -0.100437
vt 0.381343 1.100425
vt 0.405208 -0.100437
vt 0.392042 1.100496
vt 0.382900 0.394508
vt 0.382289 0.405208
vt 0.384126 0.605492
vt 0.383509 0.594793
vt 0.382900 0.381343
vt 0.382289 0.392042
vt 0.384126 0.618657
vt 0.383509 0.607958
s 0
f 492/820/468 489/821/468 493/822/468 496/823/468
f 491/824/469 492/825/469 496/826/469 495/827/469
f 489/825/470 490/828/470 494/829/470 493/826/470
f 498/830/471 500/831/471 496/826/471 492/825/471
f 489/825/472 493/826/472 499/832/472 497/833/472
f 504/834/473 508/835/473 505/836/473 501/837/473
f 503/838/474 507/839/474 508/840/474 504/841/474
f 501/842/475 505/843/475 506/844/475 502/845/475
f 510/846/476 504/841/476 508/840/476 512/847/476
f 501/842/477 509/848/477 511/849/477 505/843/477
f 490/850/478 489/851/478 501/852/478 502/853/478
f 492/854/479 491/855/479 503/856/479 504/857/479
f 489/851/480 492/854/480 504/857/480 501/852/480
f 493/858/481 494/859/481 506/860/481 505/861/481
f 495/862/482 496/863/482 508/864/482 507/865/482
f 496/863/483 493/858/483 505/861/483 508/864/483
f 491/820/484 495/866/484 507/867/484 503/868/484
f 494/869/485 490/821/485 502/870/485 506/871/485
f 489/851/478 497/872/478 509/873/478 501/852/478
f 498/874/479 492/854/479 504/857/479 510/875/479
f 499/876/486 493/858/486 505/861/486 511/877/486
f 496/863/487 500/878/487 512/879/487 508/864/487
f 500/866/488 498/820/488 510/868/488 512/867/488
f 497/821/489 499/869/489 511/871/489 509/870/489
o Plane.017
v -4.584705 2.603364 0.056000
v -4.584705 2.495774 0.056000
v -4.781564 2.496918 0.056000
v -4.781564 2.603364 0.056000
v -4.584705 2.603364 -4.443631
v -4.572422 2.495774 -4.443631
v -4.793848 2.496918 -4.443631
v -4.781564 2.603364 -4.443631
v -4.584705 2.710954 0.056000
v -4.781564 2.709809 0.056000
v -4.572422 2.710954 -4.443631
v -4.793848 2.709809 -4.443631
v -4.598044 2.596684 0.055570
v -4.594689 2.495204 0.055678
v -4.771580 2.496342 0.055678
v -4.768225 2.596684 0.055570
v -4.598044 2.596684 -4.444061
v -4.582405 2.495204 -4.443954
v -4.783864 2.496342 -4.443954
v -4.768225 2.596684 -4.444061
v -4.594689 2.711524 0.055678
v -4.771580 2.710385 0.055678
v -4.582405 2.711524 -4.443954
v -4.783864 2.710385 -4.443954
vn -0.0000 1.0000 -0.0000
vn -0.9983 0.0576 0.0014
vn 0.9984 0.0570 0.0014
vn -0.9983 -0.0576 0.0014
vn 0.9984 -0.0570 0.0014
vn -0.0000 -1.0000 -0.0000
vn 0.9955 -0.0942 -0.0014
vn -0.9956 -0.0932 -0.0014
vn 0.9965 0.0832 -0.0014
vn -0.9966 0.0824 -0.0014
vn -0.0322 -0.0000 0.9995
vn 0.0322 -0.0000 0.9995
vn -0.0000 -0.0642 0.9979
vn 0.0311 0.0036 -0.9995
vn -0.0311 0.0037 -0.9995
vn -0.0000 0.0643 -0.9979
vn -0.0576 -0.9983 0.0002
vn 0.0570 -0.9984 0.0002
vn 0.0332 -0.0037 -0.9994
vn -0.0332 -0.0037 -0.9994
vn -0.0576 0.9983 0.0002
vn 0.0570 0.9984 0.0002
vt 0.394508 -1.911456
vt 0.605492 -1.911456
vt 0.605492 2.911053
vt 0.394508 2.911053
vt -1.911456 0.387706
vt -1.911456 0.501790
vt 2.911053 0.501790
vt 2.911053 0.387706
vt -1.911456 0.386480
vt 2.911053 0.386480
vt -1.911456 0.615873
vt 2.911053 0.615873
vt 2.911053 0.617100
vt -1.911456 0.617100
vt 0.408804 -1.910995
vt 0.408804 2.911514
vt 0.591196 2.911514
vt 0.591197 -1.910995
vt -1.911111 0.387089
vt 2.911399 0.387089
vt 2.911514 0.494630
vt -1.910995 0.494630
vt -1.910995 0.494630
vt 2.911514 0.494630
vt 2.911399 0.385869
vt -1.911111 0.385869
vt -1.911111 0.616491
vt 2.911399 0.616491
vt -1.911111 0.617711
vt 2.911399 0.617711
vt 0.605492 0.386480
vt 0.605492 0.501790
vt 0.591197 0.494630
vt 0.594792 0.385869
vt 0.394508 0.501790
vt 0.394508 0.387706
vt 0.405208 0.387089
vt 0.408804 0.494630
vt 0.605492 0.501790
vt 0.618657 0.386480
vt 0.607957 0.385869
vt 0.591196 0.494630
vt 0.381343 0.387706
vt 0.394508 0.501790
vt 0.408804 0.494630
vt 0.392042 0.387089
vt 0.381343 2.911053
vt 0.392042 2.911399
vt 0.405208 -1.911111
vt 0.618657 2.911053
vt 0.594792 -1.911111
vt 0.607957 2.911399
vt 0.605492 0.617100
vt 0.594792 0.617711
vt 0.394508 0.615873
vt 0.405208 0.616491
vt 0.618657 0.617100
vt 0.607957 0.617711
vt 0.381343 0.615873
vt 0.392042 0.616491
vt 0.394508 -1.911456
vt 0.392042 2.911399
vt 0.618657 2.911053
s 0
f 516/880/490 513/881/490 517/882/490 520/883/490
f 515/884/491 516/885/491 520/886/491 519/887/491
f 513/885/492 514/888/492 518/889/492 517/886/492
f 522/890/493 524/891/493 520/886/493 516/885/493
f 513/885/494 517/886/494 523/892/494 521/893/494
f 528/894/495 532/895/495 529/896/495 525/897/495
f 527/898/496 531/899/496 532/900/496 528/901/496
f 525/902/497 529/903/497 530/904/497 526/905/497
f 534/906/498 528/901/498 532/900/498 536/907/498
f 525/902/499 533/908/499 535/909/499 529/903/499
f 514/910/500 513/911/500 525/912/500 526/913/500
f 516/914/501 515/915/501 527/916/501 528/917/501
f 513/911/502 516/914/502 528/917/502 525/912/502
f 517/918/503 518/919/503 530/920/503 529/921/503
f 519/922/504 520/923/504 532/924/504 531/925/504
f 520/923/505 517/918/505 529/921/505 532/924/505
f 515/880/506 519/926/506 531/927/506 527/928/506
f 518/929/507 514/881/507 526/930/507 530/931/507
f 513/911/500 521/932/500 533/933/500 525/912/500
f 522/934/501 516/914/501 528/917/501 534/935/501
f 523/936/508 517/918/508 529/921/508 535/937/508
f 520/923/509 524/938/509 536/939/509 532/924/509
f 524/926/510 522/940/510 534/928/510 536/941/510
f 521/881/511 523/942/511 535/931/511 533/930/511
o Cube.006
v -4.805490 2.428407 0.059542
v -4.805490 2.434528 0.065663
v -4.811611 2.434528 0.059542
v -4.805490 2.430200 0.063870
v -4.809024 2.430994 0.063076
v -4.809818 2.434528 0.063870
v -4.809818 2.430200 0.059542
v -4.805490 2.884927 0.065663
v -4.805490 2.891048 0.059542
v -4.811611 2.884927 0.059542
v -4.805490 2.889255 0.063870
v -4.809024 2.888461 0.063076
v -4.809818 2.889255 0.059542
v -4.809818 2.884927 0.063870
v -4.805490 2.428407 -0.218425
v -4.811611 2.434528 -0.218425
v -4.805490 2.434528 -0.224546
v -4.809818 2.430200 -0.218425
v -4.809024 2.430994 -0.221959
v -4.809818 2.434528 -0.222753
v -4.805490 2.430200 -0.222753
v -4.805490 2.891048 -0.218425
v -4.805490 2.884927 -0.224546
v -4.811611 2.884927 -0.218425
v -4.805490 2.889255 -0.222753
v -4.809024 2.888461 -0.221959
v -4.809818 2.884927 -0.222753
v -4.809818 2.889255 -0.218425
v -4.527524 2.428407 0.059542
v -4.521402 2.434528 0.059542
v -4.527524 2.434528 0.065663
v -4.523195 2.430200 0.059542
v -4.523989 2.430994 0.063076
v -4.523195 2.434528 0.063870
v -4.527524 2.430200 0.063870
v -4.527524 2.891048 0.059542
v -4.527524 2.884927 0.065663
v -4.521402 2.884927 0.059542
v -4.527524 2.889255 0.063870
v -4.523989 2.888461 0.063076
v -4.523195 2.884927 0.063870
v -4.523195 2.889255 0.059542
v -4.527524 2.428407 -0.218425
v -4.527524 2.434528 -0.224546
v -4.521402 2.434528 -0.218425
v -4.527524 2.430200 -0.222753
v -4.523989 2.430994 -0.221959
v -4.523195 2.434528 -0.222753
v -4.523195 2.430200 -0.218425
v -4.527524 2.891048 -0.218425
v -4.521402 2.884927 -0.218425
v -4.527524 2.884927 -0.224546
v -4.523195 2.889255 -0.218425
v -4.523989 2.888461 -0.221959
v -4.523195 2.884927 -0.222753
v -4.527524 2.889255 -0.222753
vn -0.1794 -0.9673 0.1794
vn -0.1794 -0.1794 0.9673
vn -0.9673 -0.1794 0.1794
vn -0.1726 -0.6965 0.6965
vn -0.5773 -0.5773 0.5774
vn -0.6965 -0.1726 0.6965
vn -0.6965 -0.6965 0.1726
vn -0.1794 0.1794 0.9673
vn -0.1794 0.9673 0.1794
vn -0.9673 0.1794 0.1794
vn -0.1726 0.6965 0.6965
vn -0.5773 0.5773 0.5774
vn -0.6965 0.6965 0.1726
vn -0.6965 0.1726 0.6965
vn -0.1794 -0.9673 -0.1794
vn -0.9673 -0.1794 -0.1794
vn -0.1794 -0.1794 -0.9673
vn -0.6965 -0.6965 -0.1726
vn -0.5773 -0.5773 -0.5774
vn -0.6965 -0.1726 -0.6965
vn -0.1726 -0.6965 -0.6965
vn -0.1794 0.9673 -0.1794
vn -0.1794 0.1794 -0.9673
vn -0.9673 0.1794 -0.1794
vn -0.1726 0.6965 -0.6965
vn -0.5773 0.5773 -0.5774
vn -0.6965 0.1726 -0.6965
vn -0.6965 0.6965 -0.1726
vn 0.1794 -0.9673 0.1794
vn 0.9673 -0.1794 0.1794
vn 0.1794 -0.1794 0.9673
vn 0.6965 -0.6965 0.1726
vn 0.5773 -0.5773 0.5774
vn 0.6965 -0.1726 0.6965
vn 0.1726 -0.6965 0.6965
vn 0.1794 0.9673 0.1794
vn 0.1794 0.1794 0.9673
vn 0.9673 0.1794 0.1794
vn 0.1726 0.6965 0.6965
vn 0.5773 0.5773 0.5774
vn 0.6965 0.1726 0.6965
vn 0.6965 0.6965 0.1726
vn 0.1794 -0.9673 -0.1794
vn 0.1794 -0.1794 -0.9673
vn 0.9673 -0.1794 -0.1794
vn 0.1726 -0.6965 -0.6965
vn 0.5773 -0.5773 -0.5774
vn 0.6965 -0.1726 -0.6965
vn 0.6965 -0.6965 -0.1726
vn 0.1794 0.9673 -0.1794
vn 0.9673 0.1794 -0.1794
vn 0.1794 0.1794 -0.9673
vn 0.6965 0.6965 -0.1726
vn 0.5773 0.5773 -0.5774
vn 0.6965 0.1726 -0.6965
vn 0.1726 0.6965 -0.6965
vt 0.638983 0.274801
vt 0.638983 0.725199
vt 0.361017 0.725199
vt 0.361017 0.274801
vt 0.638984 0.274801
vt 0.638984 0.725199
vt 0.361016 0.725199
vt 0.361016 0.274801
vt 0.638983 0.638984
vt 0.361017 0.638984
vt 0.361017 0.361016
vt 0.638983 0.361016
vt 0.361017 0.356688
vt 0.357483 0.357482
vt 0.356688 0.361016
vt 0.356688 0.274801
vt 0.357483 0.271267
vt 0.361017 0.270472
vt 0.361016 0.270472
vt 0.357482 0.271267
vt 0.356688 0.274801
vt 0.361017 0.729528
vt 0.357483 0.728733
vt 0.356688 0.725199
vt 0.356688 0.725199
vt 0.357482 0.728733
vt 0.361016 0.729528
vt 0.356688 0.638984
vt 0.357483 0.642518
vt 0.361017 0.643312
vt 0.643312 0.274801
vt 0.642518 0.271267
vt 0.638984 0.270472
vt 0.638984 0.729528
vt 0.642518 0.728733
vt 0.643312 0.725199
vt 0.643312 0.361016
vt 0.642517 0.357482
vt 0.638983 0.356688
vt 0.638983 0.270472
vt 0.642517 0.271267
vt 0.643312 0.274801
vt 0.643312 0.725199
vt 0.642517 0.728733
vt 0.638983 0.729528
vt 0.638983 0.643312
vt 0.642517 0.642518
vt 0.643312 0.638984
s 1
f 567/943/542 573/944/548 544/945/519 538/946/513
f 581/947/556 587/948/562 574/949/549 566/950/541
f 586/951/561 558/952/533 545/953/520 572/954/547
f 539/950/514 546/949/521 560/948/535 552/947/527
f 553/946/528 559/945/534 588/944/563 580/943/555
f 537/953/512 540/955/515 541/956/516 543/957/518
f 538/946/513 542/958/517 541/959/516 540/960/515
f 539/950/514 543/961/518 541/962/516 542/963/517
f 544/945/519 547/964/522 548/965/523 550/966/525
f 545/953/520 549/957/524 548/956/523 547/955/522
f 546/949/521 550/967/525 548/968/523 549/969/524
f 551/952/526 554/970/529 555/971/530 557/972/532
f 552/947/527 556/973/531 555/974/530 554/975/529
f 553/946/528 557/960/532 555/959/530 556/958/531
f 558/952/533 561/972/536 562/971/537 564/970/539
f 559/945/534 563/966/538 562/965/537 561/964/536
f 560/948/535 564/976/539 562/977/537 563/978/538
f 565/954/540 568/979/543 569/980/544 571/981/546
f 566/950/541 570/963/545 569/962/544 568/961/543
f 567/943/542 571/982/546 569/983/544 570/984/545
f 572/954/547 575/981/550 576/980/551 578/979/553
f 573/944/548 577/985/552 576/986/551 575/987/550
f 574/949/549 578/969/553 576/968/551 577/967/552
f 579/951/554 582/988/557 583/989/558 585/990/560
f 580/943/555 584/984/559 583/983/558 582/982/557
f 581/947/556 585/975/560 583/974/558 584/973/559
f 586/951/561 589/990/564 590/989/565 592/988/567
f 587/948/562 591/978/566 590/977/565 589/976/564
f 588/944/563 592/987/567 590/986/565 591/985/566
f 551/952/526 537/953/512 543/957/518 554/970/529
f 554/975/529 543/961/518 539/950/514 552/947/527
f 538/946/513 544/945/519 550/966/525 542/958/517
f 542/963/517 550/967/525 546/949/521 539/950/514
f 545/953/520 558/952/533 564/970/539 549/957/524
f 549/969/524 564/976/539 560/948/535 546/949/521
f 559/945/534 553/946/528 556/958/531 563/966/538
f 563/978/538 556/973/531 552/947/527 560/948/535
f 579/951/554 551/952/526 557/972/532 582/988/557
f 582/982/557 557/960/532 553/946/528 580/943/555
f 558/952/533 586/951/561 592/988/567 561/972/536
f 561/964/536 592/987/567 588/944/563 559/945/534
f 587/948/562 581/947/556 584/973/559 591/978/566
f 591/985/566 584/984/559 580/943/555 588/944/563
f 565/954/540 579/951/554 585/990/560 568/979/543
f 568/961/543 585/975/560 581/947/556 566/950/541
f 586/951/561 572/954/547 578/979/553 589/990/564
f 589/976/564 578/969/553 574/949/549 587/948/562
f 573/944/548 567/943/542 570/984/545 577/985/552
f 577/967/552 570/963/545 566/950/541 574/949/549
f 537/953/512 565/954/540 571/981/546 540/955/515
f 540/960/515 571/982/546 567/943/542 538/946/513
f 572/954/547 545/953/520 547/955/522 575/981/550
f 575/987/550 547/964/522 544/945/519 573/944/548
f 551/952/526 579/951/554 565/954/540 537/953/512
o Cube.008
v -4.805490 2.428407 -4.181565
v -4.805490 2.434528 -4.175445
v -4.811611 2.434528 -4.181565
v -4.805490 2.430200 -4.177237
v -4.809024 2.430994 -4.178031
v -4.809818 2.434528 -4.177237
v -4.809818 2.430200 -4.181565
v -4.805490 2.884927 -4.175445
v -4.805490 2.891048 -4.181565
v -4.811611 2.884927 -4.181565
v -4.805490 2.889255 -4.177237
v -4.809024 2.888461 -4.178031
v -4.809818 2.889255 -4.181565
v -4.809818 2.884927 -4.177237
v -4.805490 2.428407 -4.459533
v -4.811611 2.434528 -4.459533
v -4.805490 2.434528 -4.465653
v -4.809818 2.430200 -4.459533
v -4.809024 2.430994 -4.463067
v -4.809818 2.434528 -4.463861
v -4.805490 2.430200 -4.463861
v -4.805490 2.891048 -4.459533
v -4.805490 2.884927 -4.465653
v -4.811611 2.884927 -4.459533
v -4.805490 2.889255 -4.463861
v -4.809024 2.888461 -4.463067
v -4.809818 2.884927 -4.463861
v -4.809818 2.889255 -4.459533
v -4.527524 2.428407 -4.181565
v -4.521402 2.434528 -4.181565
v -4.527524 2.434528 -4.175445
v -4.523195 2.430200 -4.181565
v -4.523989 2.430994 -4.178031
v -4.523195 2.434528 -4.177237
v -4.527524 2.430200 -4.177237
v -4.527524 2.891048 -4.181565
v -4.527524 2.884927 -4.175445
v -4.521402 2.884927 -4.181565
v -4.527524 2.889255 -4.177237
v -4.523989 2.888461 -4.178031
v -4.523195 2.884927 -4.177237
v -4.523195 2.889255 -4.181565
v -4.527524 2.428407 -4.459533
v -4.527524 2.434528 -4.465653
v -4.521402 2.434528 -4.459533
v -4.527524 2.430200 -4.463861
v -4.523989 2.430994 -4.463067
v -4.523195 2.434528 -4.463861
v -4.523195 2.430200 -4.459533
v -4.527524 2.891048 -4.459533
v -4.521402 2.884927 -4.459533
v -4.527524 2.884927 -4.465653
v -4.523195 2.889255 -4.459533
v -4.523989 2.888461 -4.463067
v -4.523195 2.884927 -4.463861
v -4.527524 2.889255 -4.463861
vn -0.1794 -0.9673 0.1794
vn -0.1794 -0.1794 0.9673
vn -0.9673 -0.1794 0.1794
vn -0.1726 -0.6965 0.6965
vn -0.5773 -0.5773 0.5774
vn -0.6965 -0.1726 0.6965
vn -0.6965 -0.6965 0.1726
vn -0.1794 0.1794 0.9673
vn -0.1794 0.9673 0.1794
vn -0.9673 0.1794 0.1794
vn -0.1726 0.6965 0.6965
vn -0.5773 0.5773 0.5774
vn -0.6965 0.6965 0.1726
vn -0.6965 0.1726 0.6965
vn -0.1794 -0.9673 -0.1794
vn -0.9673 -0.1794 -0.1794
vn -0.1794 -0.1794 -0.9673
vn -0.6965 -0.6965 -0.1726
vn -0.5773 -0.5773 -0.5774
vn -0.6965 -0.1726 -0.6965
vn -0.1726 -0.6965 -0.6965
vn -0.1794 0.9673 -0.1794
vn -0.1794 0.1794 -0.9673
vn -0.9673 0.1794 -0.1794
vn -0.1726 0.6965 -0.6965
vn -0.5773 0.5773 -0.5774
vn -0.6965 0.1726 -0.6965
vn -0.6965 0.6965 -0.1726
vn 0.1794 -0.9673 0.1794
vn 0.9673 -0.1794 0.1794
vn 0.1794 -0.1794 0.9673
vn 0.6965 -0.6965 0.1726
vn 0.5773 -0.5773 0.5774
vn 0.6965 -0.1726 0.6965
vn 0.1726 -0.6965 0.6965
vn 0.1794 0.9673 0.1794
vn 0.1794 0.1794 0.9673
vn 0.9673 0.1794 0.1794
vn 0.1726 0.6965 0.6965
vn 0.5773 0.5773 0.5774
vn 0.6965 0.1726 0.6965
vn 0.6965 0.6965 0.1726
vn 0.1794 -0.9673 -0.1794
vn 0.1794 -0.1794 -0.9673
vn 0.9673 -0.1794 -0.1794
vn 0.1726 -0.6965 -0.6965
vn 0.5773 -0.5773 -0.5774
vn 0.6965 -0.1726 -0.6965
vn 0.6965 -0.6965 -0.1726
vn 0.1794 0.9673 -0.1794
vn 0.9673 0.1794 -0.1794
vn 0.1794 0.1794 -0.9673
vn 0.6965 0.6965 -0.1726
vn 0.5773 0.5773 -0.5774
vn 0.6965 0.1726 -0.6965
vn 0.1726 0.6965 -0.6965
vt 0.638983 0.274801
vt 0.638983 0.725199
vt 0.361017 0.725199
vt 0.361017 0.274801
vt 0.638984 0.274801
vt 0.638984 0.725199
vt 0.361016 0.725199
vt 0.361016 0.274801
vt 0.638983 0.638984
vt 0.361017 0.638984
vt 0.361017 0.361016
vt 0.638983 0.361016
vt 0.361017 0.356688
vt 0.357483 0.357482
vt 0.356688 0.361016
vt 0.356688 0.274801
vt 0.357483 0.271267
vt 0.361017 0.270472
vt 0.361016 0.270472
vt 0.357482 0.271267
vt 0.356688 0.274801
vt 0.361017 0.729528
vt 0.357483 0.728733
vt 0.356688 0.725199
vt 0.356688 0.725199
vt 0.357482 0.728733
vt 0.361016 0.729528
vt 0.356688 0.638984
vt 0.357483 0.642518
vt 0.361017 0.643312
vt 0.643312 0.274801
vt 0.642518 0.271267
vt 0.638984 0.270472
vt 0.638984 0.729528
vt 0.642518 0.728733
vt 0.643312 0.725199
vt 0.643312 0.361016
vt 0.642517 0.357482
vt 0.638983 0.356688
vt 0.638983 0.270472
vt 0.642517 0.271267
vt 0.643312 0.274801
vt 0.643312 0.725199
vt 0.642517 0.728733
vt 0.638983 0.729528
vt 0.638983 0.643312
vt 0.642517 0.642518
vt 0.643312 0.638984
s 1
f 623/991/598 629/992/604 600/993/575 594/994/569
f 637/995/612 643/996/618 630/997/605 622/998/597
f 642/999/617 614/1000/589 601/1001/576 628/1002/603
f 595/998/570 602/997/577 616/996/591 608/995/583
f 609/994/584 615/993/590 644/992/619 636/991/611
f 593/1001/568 596/1003/571 597/1004/572 599/1005/574
f 594/994/569 598/1006/573 597/1007/572 596/1008/571
f 595/998/570 599/1009/574 597/1010/572 598/1011/573
f 600/993/575 603/1012/578 604/1013/579 606/1014/581
f 601/1001/576 605/1005/580 604/1004/579 603/1003/578
f 602/997/577 606/1015/581 604/1016/579 605/1017/580
f 607/1000/582 610/1018/585 611/1019/586 613/1020/588
f 608/995/583 612/1021/587 611/1022/586 610/1023/585
f 609/994/584 613/1008/588 611/1007/586 612/1006/587
f 614/1000/589 617/1020/592 618/1019/593 620/1018/595
f 615/993/590 619/1014/594 618/1013/593 617/1012/592
f 616/996/591 620/1024/595 618/1025/593 619/1026/594
f 621/1002/596 624/1027/599 625/1028/600 627/1029/602
f 622/998/597 626/1011/601 625/1010/600 624/1009/599
f 623/991/598 627/1030/602 625/1031/600 626/1032/601
f 628/1002/603 631/1029/606 632/1028/607 634/1027/609
f 629/992/604 633/1033/608 632/1034/607 631/1035/606
f 630/997/605 634/1017/609 632/1016/607 633/1015/608
f 635/999/610 638/1036/613 639/1037/614 641/1038/616
f 636/991/611 640/1032/615 639/1031/614 638/1030/613
f 637/995/612 641/1023/616 639/1022/614 640/1021/615
f 642/999/617 645/1038/620 646/1037/621 648/1036/623
f 643/996/618 647/1026/622 646/1025/621 645/1024/620
f 644/992/619 648/1035/623 646/1034/621 647/1033/622
f 607/1000/582 593/1001/568 599/1005/574 610/1018/585
f 610/1023/585 599/1009/574 595/998/570 608/995/583
f 594/994/569 600/993/575 606/1014/581 598/1006/573
f 598/1011/573 606/1015/581 602/997/577 595/998/570
f 601/1001/576 614/1000/589 620/1018/595 605/1005/580
f 605/1017/580 620/1024/595 616/996/591 602/997/577
f 615/993/590 609/994/584 612/1006/587 619/1014/594
f 619/1026/594 612/1021/587 608/995/583 616/996/591
f 635/999/610 607/1000/582 613/1020/588 638/1036/613
f 638/1030/613 613/1008/588 609/994/584 636/991/611
f 614/1000/589 642/999/617 648/1036/623 617/1020/592
f 617/1012/592 648/1035/623 644/992/619 615/993/590
f 643/996/618 637/995/612 640/1021/615 647/1026/622
f 647/1033/622 640/1032/615 636/991/611 644/992/619
f 621/1002/596 635/999/610 641/1038/616 624/1027/599
f 624/1009/599 641/1023/616 637/995/612 622/998/597
f 642/999/617 628/1002/603 634/1027/609 645/1038/620
f 645/1024/620 634/1017/609 630/997/605 643/996/618
f 629/992/604 623/991/598 626/1032/601 633/1033/608
f 633/1015/608 626/1011/601 622/998/597 630/997/605
f 593/1001/568 621/1002/596 627/1029/602 596/1003/571
f 596/1008/571 627/1030/602 623/991/598 594/994/569
f 628/1002/603 601/1001/576 603/1003/578 631/1029/606
f 631/1035/606 603/1012/578 600/993/575 629/992/604
f 607/1000/582 635/999/610 621/1002/596 593/1001/568
