# This file uses centimeters as units for non-parametric coordinates.

mtllib flo02.mtl
g default
v -0.500000 0.129649 0.500000
v 0.000000 0.000000 0.500000
v 0.500000 0.129649 0.500000
v -0.500000 0.000000 0.000000
v 0.000000 -0.063587 0.000000
v 0.500000 0.000000 0.000000
v -0.500000 0.129649 -0.500000
v 0.000000 0.000000 -0.500000
v 0.500000 0.129649 -0.500000
vt 0.000000 0.000000
vt 0.500000 0.000000
vt 1.000000 0.000000
vt 0.000000 0.500000
vt 0.500000 0.500000
vt 1.000000 0.500000
vt 0.000000 1.000000
vt 0.500000 1.000000
vt 1.000000 1.000000
vn 0.186401 0.964629 -0.186401
vn 0.000000 0.981837 -0.189726
vn 0.000000 1.000000 0.000000
vn 0.189726 0.981837 0.000000
vn -0.186401 0.964629 -0.186401
vn -0.189726 0.981837 0.000000
vn 0.000000 0.981837 0.189726
vn 0.186401 0.964629 0.186401
vn -0.186401 0.964629 0.186401
s 1
g pPlane1
usemtl initialShadingGroup
f 1/1/1 2/2/2 5/5/3 4/4/4
f 2/2/2 3/3/5 6/6/6 5/5/3
f 4/4/4 5/5/3 8/8/7 7/7/8
f 5/5/3 6/6/6 9/9/9 8/8/7
g default
v -0.032940 0.109633 0.460922
v 0.213991 0.013524 0.246931
v 0.460922 0.109633 0.032940
v -0.246931 0.013524 0.213991
v 0.000000 -0.028628 0.000000
v 0.246931 0.013524 -0.213991
v -0.460922 0.109633 -0.032940
v -0.213991 0.013524 -0.246931
v 0.032940 0.109633 -0.460922
vt 0.000000 0.000000
vt 0.500000 0.000000
vt 1.000000 0.000000
vt 0.000000 0.500000
vt 0.500000 0.500000
vt 1.000000 0.500000
vt 0.000000 1.000000
vt 0.500000 1.000000
vt 1.000000 1.000000
vn 0.020433 0.958037 -0.285917
vn -0.135556 0.978344 -0.156422
vn -0.000000 1.000000 0.000000
vn 0.156422 0.978344 -0.135556
vn -0.285917 0.958036 -0.020433
vn -0.156422 0.978344 0.135556
vn 0.135556 0.978344 0.156422
vn 0.285917 0.958036 0.020433
vn -0.020433 0.958036 0.285917
s 1
g pPlane2
usemtl initialShadingGroup
f 10/10/10 11/11/11 14/14/12 13/13/13
f 11/11/11 12/12/14 15/15/15 14/14/12
f 13/13/13 14/14/12 17/17/16 16/16/17
f 14/14/12 15/15/15 18/18/18 17/17/16
g default
v -0.226842 0.083680 0.099178
v -0.063832 0.019582 0.163010
v 0.099178 0.083680 0.226842
v -0.163010 0.019582 -0.063832
v 0.000000 -0.005807 0.000000
v 0.163010 0.019582 0.063832
v -0.099178 0.083680 -0.226842
v 0.063832 0.019582 -0.163010
v 0.226842 0.083680 -0.099178
vt 0.000000 0.000000
vt 0.500000 0.000000
vt 1.000000 0.000000
vt 0.000000 0.500000
vt 0.500000 0.500000
vt 1.000000 0.500000
vt 0.000000 1.000000
vt 0.500000 1.000000
vt 1.000000 1.000000
vn 0.311463 0.940450 -0.136176
vn 0.090291 0.968855 -0.230580
vn 0.000000 1.000000 0.000000
vn 0.230580 0.968855 0.090291
vn -0.136176 0.940450 -0.311463
vn -0.230580 0.968855 -0.090291
vn -0.090291 0.968855 0.230580
vn 0.136176 0.940450 0.311463
vn -0.311463 0.940450 0.136176
s 1
g pPlane3
usemtl initialShadingGroup
f 19/19/19 20/20/20 23/23/21 22/22/22
f 20/20/20 21/21/23 24/24/24 23/23/21
f 22/22/22 23/23/21 26/26/25 25/25/26
f 23/23/21 24/24/24 27/27/27 26/26/25
