# This file uses centimeters as units for non-parametric coordinates.

mtllib flor01.mtl
g default
v -0.232502 0.123250 0.667789
v 0.217644 0.007667 0.450146
v 0.667789 0.123250 0.232502
v -0.450146 0.007667 0.217644
v 0.000000 -0.051894 0.000000
v 0.450146 0.007667 -0.217644
v -0.667789 0.123250 -0.232502
v -0.217644 0.007667 -0.450146
v 0.232502 0.123250 -0.667789
vt 0.018895 0.019637
vt 0.961935 0.046873
vt 0.980358 0.019637
vt 0.039532 0.028731
vt 0.027437 0.030241
vt 0.953123 0.962677
vt 0.018895 0.971938
vt 0.037151 0.955882
vt 0.980358 0.976519
vt 0.027437 0.965915
vt 0.965173 0.972559
vt 0.965173 0.019017
vt 0.961935 0.944703
vt 0.953123 0.033480
vt 0.039532 0.962845
vt 0.037151 0.040275
vn 0.079054 0.970667 -0.227057
vn -0.075095 0.985006 -0.155317
vn 0.000000 1.000000 0.000000
vn 0.155317 0.985006 -0.075095
vn -0.227057 0.970667 -0.079054
vn -0.155317 0.985006 0.075095
vn 0.075095 0.985006 0.155317
vn 0.227057 0.970667 0.079054
vn -0.079054 0.970667 0.227057
s 1
g pPlane1
usemtl initialShadingGroup
f 1/1/1 2/2/2 5/11/3 4/15/4
f 2/16/2 3/3/5 6/6/6 5/10/3
f 4/4/4 5/12/3 8/13/7 7/7/8
f 5/5/3 6/14/6 9/9/9 8/8/7
g default
v -0.019767 0.104437 0.220213
v 0.100223 0.008090 0.119990
v 0.220213 0.104437 0.019767
v -0.119990 0.008090 0.100223
v 0.000000 0.032408 0.000000
v 0.119990 0.008090 -0.100223
v -0.220213 0.104437 -0.019767
v -0.100223 0.008090 -0.119990
v 0.019767 0.104437 -0.220213
vt 0.000436 0.931328
vt 0.168101 0.027017
vt 0.012569 0.948017
vt 0.149506 0.032682
vt 0.940174 0.027474
vt 0.145978 0.038021
vt 0.027071 0.944219
vt 0.147819 0.035650
vt 0.018641 0.946256
vt 0.938362 0.033528
vt 0.960090 0.052437
vt 0.941779 0.018642
vt 0.937099 0.811025
vt 0.929630 0.819801
vt 0.915967 0.843605
vt 0.924135 0.825797
vn 0.027694 0.950817 -0.308514
vn -0.143905 0.974479 -0.172287
vn 0.000000 1.000000 -0.000000
vn 0.172287 0.974479 -0.143905
vn -0.308514 0.950817 -0.027694
vn -0.172287 0.974479 0.143905
vn 0.143905 0.974479 0.172287
vn 0.308514 0.950817 0.027694
vn -0.027694 0.950817 0.308514
s 1
g pPlane2
usemtl initialShadingGroup
f 10/17/10 11/18/11 14/27/12 13/31/13
f 11/32/11 12/19/14 15/22/15 14/26/12
f 13/20/13 14/28/12 17/29/16 16/23/17
f 14/21/12 15/30/15 18/25/18 17/24/16
g default
v -0.293020 0.104924 0.399945
v 0.053462 0.024904 0.346483
v 0.399945 0.104924 0.293020
v -0.346483 0.024904 0.053462
v 0.000000 -0.010114 0.000000
v 0.346483 0.024904 -0.053462
v -0.399945 0.104924 -0.293020
v -0.053462 0.024904 -0.346483
v 0.293020 0.104924 -0.399945
vt 0.018895 0.019637
vt 0.962620 0.045349
vt 0.966614 0.019637
vt 0.039945 0.014353
vt 0.034245 0.035091
vt 0.940903 0.963363
vt 0.018895 0.958194
vt 0.041098 0.960051
vt 0.984939 0.981101
vt 0.015920 0.965647
vt 0.964905 0.970332
vt 0.964905 0.007500
vt 0.962620 0.932482
vt 0.959228 0.037375
vt 0.039945 0.963479
vt 0.022774 0.040688
vn 0.133579 0.974123 -0.182323
vn -0.024689 0.986807 -0.160008
vn 0.000000 1.000000 -0.000000
vn 0.160008 0.986807 -0.024689
vn -0.182323 0.974123 -0.133579
vn -0.160008 0.986807 0.024689
vn 0.024689 0.986807 0.160008
vn 0.182323 0.974123 0.133579
vn -0.133579 0.974123 0.182323
s 1
g pPlane3
usemtl initialShadingGroup
f 19/33/19 20/34/20 23/43/21 22/47/22
f 20/48/20 21/35/23 24/38/24 23/42/21
f 22/36/22 23/44/21 26/45/25 25/39/26
f 23/37/21 24/46/24 27/41/27 26/40/25
