# Blender 4.4.0
# www.blender.org
o Plane
v 0.000000 0.060087 0.000000
v 0.049195 0.085043 0.000000
v 0.045095 0.128344 0.000000
v 0.046376 0.240058 0.000000
v 0.013836 0.325380 0.000000
v 0.013580 0.332042 0.000000
v 0.014805 0.063431 0.000200
v 0.013391 0.062503 0.002160
v 0.007132 0.060507 0.000000
v 0.020828 0.058309 0.000176
v 0.043035 0.062822 0.000000
v 0.038229 0.058981 0.000000
v 0.041207 0.060182 0.000000
v 0.050781 0.119485 0.000000
v 0.047363 0.126668 0.000000
v 0.049866 0.123454 0.000000
v 0.050101 0.246697 -0.000007
v 0.045299 0.286324 0.000023
v 0.024204 0.318344 0.000000
v 0.028916 0.313994 0.000061
v 0.018172 0.331154 -0.000449
v 0.016728 0.337997 0.000079
v 0.018548 0.336420 0.000040
v 0.000000 0.060087 0.000000
v 0.045450 0.085043 -0.018826
v 0.041663 0.128344 -0.017257
v 0.042846 0.240058 -0.017747
v 0.012783 0.325380 -0.005295
v 0.012546 0.332042 -0.005197
v 0.015623 0.352539 -0.006471
v 0.013685 0.063436 -0.005820
v 0.006589 0.060507 -0.002729
v 0.009364 0.061963 -0.001848
v 0.019242 0.058330 -0.007970
v 0.039759 0.062822 -0.016469
v 0.035319 0.058981 -0.014630
v 0.038070 0.060182 -0.015769
v 0.046916 0.119485 -0.019433
v 0.045675 0.124531 -0.018747
v 0.046285 0.246697 -0.019179
v 0.041859 0.286324 -0.017314
v 0.022362 0.318344 -0.009263
v 0.026738 0.313994 -0.011009
v 0.016841 0.331349 -0.007116
v 0.015485 0.337997 -0.006329
v 0.017151 0.336420 -0.007061
v 0.000000 0.060087 0.000000
v 0.034786 0.085043 -0.034786
v 0.032793 0.240058 -0.032793
v 0.009784 0.325380 -0.009784
v 0.009602 0.332042 -0.009602
v 0.011958 0.352539 -0.011958
v 0.010339 0.063412 -0.010526
v 0.011014 0.062512 -0.007939
v 0.005043 0.060507 -0.005043
v 0.006699 0.061986 -0.006699
v 0.007017 0.060915 -0.004766
v 0.014718 0.058295 -0.014718
v 0.030430 0.062822 -0.030430
v 0.028421 0.059631 -0.028904
v 0.035908 0.119485 -0.035908
v 0.031712 0.128437 -0.032352
v 0.035260 0.123454 -0.035260
v 0.035341 0.246580 -0.035492
v 0.032047 0.286324 -0.032015
v 0.017115 0.318344 -0.017115
v 0.020490 0.313994 -0.020403
v 0.012532 0.331154 -0.013167
v 0.011906 0.338005 -0.011732
v 0.013143 0.336420 -0.013087
v 0.000000 0.060087 0.000000
v 0.018826 0.085043 -0.045450
v 0.017747 0.240058 -0.042846
v 0.005295 0.325380 -0.012783
v 0.005197 0.332042 -0.012546
v 0.006471 0.352539 -0.015623
v 0.005561 0.063436 -0.013792
v 0.005119 0.062522 -0.012359
v 0.002729 0.060507 -0.006589
v 0.007978 0.058300 -0.019298
v 0.016469 0.062822 -0.039759
v 0.014630 0.058981 -0.035319
v 0.015769 0.060182 -0.038070
v 0.019433 0.119485 -0.046916
v 0.017210 0.128427 -0.041836
v 0.019083 0.123454 -0.046070
v 0.019086 0.246840 -0.046336
v 0.017356 0.286324 -0.041842
v 0.009263 0.318344 -0.022362
v 0.011122 0.313994 -0.026691
v 0.006876 0.331349 -0.016940
v 0.006569 0.337973 -0.015426
v 0.007135 0.336420 -0.017121
v 0.000000 0.060087 0.000000
v 0.000000 0.085043 -0.049195
v 0.000000 0.240058 -0.046376
v 0.000000 0.325380 -0.013836
v 0.000000 0.332042 -0.013580
v 0.016911 0.352539 0.000000
v -0.000132 0.063412 -0.014754
v -0.000000 0.060507 -0.007132
v 0.002615 0.061818 -0.009080
v 0.000000 0.058352 -0.020724
v -0.000000 0.062822 -0.043035
v -0.000000 0.058981 -0.038229
v -0.000000 0.060182 -0.041207
v 0.000000 0.119485 -0.050781
v 0.000192 0.128473 -0.045265
v 0.000000 0.123454 -0.049866
v -0.000107 0.246580 -0.050087
v 0.000023 0.286324 -0.045299
v 0.000000 0.318344 -0.024204
v 0.000061 0.313994 -0.028916
v -0.000130 0.331349 -0.018282
v 0.000079 0.337997 -0.016728
v 0.000040 0.336420 -0.018548
v 0.000000 0.060087 0.000000
v -0.018826 0.085043 -0.045450
v -0.017257 0.128344 -0.041663
v -0.017747 0.240058 -0.042846
v -0.005295 0.325380 -0.012783
v -0.005197 0.332042 -0.012546
v -0.006373 0.337935 -0.015387
v -0.006471 0.352539 -0.015623
v -0.005820 0.063436 -0.013685
v -0.003128 0.062503 -0.013198
v -0.002729 0.060507 -0.006589
v -0.001904 0.060913 -0.008320
v -0.008006 0.058278 -0.019328
v -0.015963 0.060680 -0.038708
v -0.014630 0.058981 -0.035319
v -0.019433 0.119485 -0.046916
v -0.018925 0.124444 -0.045690
v -0.019268 0.246840 -0.046261
v -0.017314 0.286324 -0.041859
v -0.009263 0.318344 -0.022362
v -0.011009 0.313994 -0.026738
v -0.006623 0.331081 -0.016859
v -0.007116 0.336735 -0.017064
v 0.000000 0.060087 0.000000
v -0.034786 0.085043 -0.034786
v -0.032793 0.240058 -0.032793
v -0.009784 0.325380 -0.009784
v -0.009602 0.332042 -0.009602
v -0.011958 0.352539 -0.011958
v -0.010526 0.063412 -0.010339
v -0.009459 0.062522 -0.009459
v -0.005043 0.060507 -0.005043
v -0.005389 0.061989 -0.008066
v -0.014654 0.058352 -0.014654
v -0.030430 0.062822 -0.030430
v -0.027032 0.058981 -0.027032
v -0.029138 0.060182 -0.029138
v -0.035908 0.119485 -0.035908
v -0.032315 0.128394 -0.031822
v -0.035260 0.123454 -0.035260
v -0.035492 0.246580 -0.035341
v -0.032015 0.286324 -0.032047
v -0.017115 0.318344 -0.017115
v -0.020403 0.313994 -0.020490
v -0.012840 0.331144 -0.012903
v -0.011773 0.337997 -0.011884
v -0.013114 0.336463 -0.013076
v 0.000000 0.060087 0.000000
v -0.045450 0.085043 -0.018826
v -0.041663 0.128344 -0.017257
v -0.042846 0.240058 -0.017747
v -0.012783 0.325380 -0.005295
v -0.012546 0.332042 -0.005197
v -0.015623 0.352539 -0.006471
v -0.013602 0.063431 -0.005850
v -0.006589 0.060507 -0.002729
v -0.008753 0.061986 -0.003626
v -0.007079 0.060946 -0.004730
v -0.018925 0.058490 -0.007955
v -0.039759 0.062822 -0.016469
v -0.037580 0.059631 -0.015197
v -0.046916 0.119485 -0.019433
v -0.045675 0.124531 -0.018747
v -0.046336 0.246840 -0.019086
v -0.041842 0.286324 -0.017356
v -0.022362 0.318344 -0.009263
v -0.026691 0.313994 -0.011122
v -0.016834 0.331133 -0.006825
v -0.015425 0.337997 -0.006474
v -0.017121 0.336420 -0.007135
v 0.000000 0.060087 0.000000
v -0.049195 0.085043 0.000000
v -0.046376 0.240058 -0.000000
v -0.013836 0.325380 -0.000000
v -0.013580 0.332042 -0.000000
v -0.016911 0.352539 -0.000000
v -0.014870 0.063436 0.000140
v -0.013402 0.062512 -0.002175
v -0.007132 0.060507 0.000000
v -0.008472 0.060978 0.000000
v -0.021742 0.058185 -0.004325
v -0.020553 0.058491 -0.000017
v -0.041936 0.060800 0.000000
v -0.038229 0.058981 0.000000
v -0.050781 0.119485 -0.000000
v -0.045234 0.128498 0.000277
v -0.049866 0.123454 -0.000000
v -0.050101 0.246697 0.000007
v -0.045299 0.286324 -0.000023
v -0.024204 0.318344 -0.000000
v -0.028916 0.313994 -0.000061
v -0.018172 0.331154 0.000449
v -0.016715 0.338005 -0.000123
v -0.018548 0.336420 -0.000040
v 0.000000 0.060087 0.000000
v -0.045450 0.085043 0.018826
v -0.041663 0.128344 0.017257
v -0.042846 0.240058 0.017747
v -0.012783 0.325380 0.005295
v -0.012546 0.332042 0.005197
v 0.000000 0.352539 -0.016911
v -0.013511 0.063417 0.006108
v -0.006589 0.060507 0.002729
v -0.009358 0.061963 0.001876
v -0.018912 0.058506 0.007928
v -0.039759 0.062822 0.016469
v -0.035319 0.058981 0.014630
v -0.038070 0.060182 0.015769
v -0.046916 0.119485 0.019433
v -0.045508 0.124653 0.018850
v -0.046233 0.246580 0.019266
v -0.041859 0.286324 0.017314
v -0.022362 0.318344 0.009263
v -0.026738 0.313994 0.011009
v -0.016841 0.331349 0.007116
v -0.015553 0.337973 0.006263
v -0.017151 0.336420 0.007061
v 0.000000 0.060087 0.000000
v -0.034786 0.085043 0.034786
v -0.032793 0.240058 0.032793
v -0.009784 0.325380 0.009784
v -0.009602 0.332042 0.009602
v -0.011777 0.337935 0.011776
v -0.011958 0.352539 0.011958
v -0.010145 0.063417 0.010814
v -0.011008 0.062493 0.007902
v -0.005043 0.060507 0.005043
v -0.007017 0.060915 0.004766
v -0.018885 0.058193 0.011783
v -0.014438 0.058506 0.014561
v -0.030430 0.062822 0.030430
v -0.027032 0.058981 0.027032
v -0.029138 0.060182 0.029138
v -0.035908 0.119485 0.035908
v -0.031910 0.128427 0.032066
v -0.035260 0.123454 0.035260
v -0.035366 0.246840 0.035505
v -0.032047 0.286324 0.032015
v -0.017115 0.318344 0.017115
v -0.020490 0.313994 0.020403
v -0.012850 0.331125 0.012780
v -0.013042 0.336735 0.013105
v 0.000000 0.060087 0.000000
v -0.018826 0.085043 0.045450
v -0.017257 0.128344 0.041663
v -0.017747 0.240058 0.042846
v -0.005295 0.325380 0.012783
v -0.005197 0.332042 0.012546
v -0.006471 0.352539 0.015623
v -0.005524 0.063412 0.013682
v -0.005119 0.062522 0.012359
v -0.002729 0.060507 0.006589
v -0.005627 0.061980 0.007803
v -0.007940 0.058319 0.019200
v -0.016048 0.060800 0.038744
v -0.014630 0.058981 0.035319
v -0.019433 0.119485 0.046916
v -0.018747 0.124531 0.045675
v -0.019069 0.246580 0.046315
v -0.017356 0.286324 0.041842
v -0.009263 0.318344 0.022362
v -0.011122 0.313994 0.026691
v -0.007007 0.331144 0.016800
v -0.006474 0.337997 0.015425
v -0.007062 0.336463 0.017119
v 0.000000 0.060087 0.000000
v -0.000000 0.085043 0.049195
v -0.000000 0.240058 0.046376
v -0.000000 0.325380 0.013836
v -0.000000 0.332042 0.013580
v -0.000000 0.352539 0.016911
v -0.000200 0.063431 0.014805
v 0.000000 0.060507 0.007132
v -0.000000 0.061986 0.009474
v -0.001948 0.060969 0.008368
v -0.000122 0.058508 0.020504
v -0.000000 0.062822 0.043035
v -0.000000 0.058981 0.038229
v -0.000000 0.060182 0.041207
v -0.000000 0.119485 0.050781
v -0.000000 0.128459 0.045199
v -0.000000 0.123454 0.049866
v 0.000098 0.246840 0.050113
v -0.000023 0.286324 0.045299
v -0.000000 0.318344 0.024204
v -0.000061 0.313994 0.028916
v 0.000449 0.331154 0.018172
v -0.000123 0.338005 0.016715
v -0.000040 0.336420 0.018548
v 0.000000 0.060087 0.000000
v 0.018826 0.085043 0.045450
v 0.017257 0.128344 0.041663
v 0.017747 0.240058 0.042846
v 0.005295 0.325380 0.012783
v 0.005197 0.332042 0.012546
v 0.006471 0.352539 0.015623
v -0.015623 0.352539 0.006471
v 0.005820 0.063436 0.013685
v 0.003128 0.062503 0.013198
v 0.002729 0.060507 0.006589
v 0.003242 0.060978 0.007827
v 0.004406 0.058203 0.021932
v 0.007850 0.058518 0.018953
v 0.016469 0.062822 0.039759
v 0.014630 0.058981 0.035319
v 0.015769 0.060182 0.038070
v 0.019433 0.119485 0.046916
v 0.018747 0.124531 0.045675
v 0.019266 0.246580 0.046233
v 0.017314 0.286324 0.041859
v 0.009263 0.318344 0.022362
v 0.011009 0.313994 0.026738
v 0.007116 0.331349 0.016841
v 0.006263 0.337973 0.015553
v 0.007061 0.336420 0.017151
v 0.000000 0.060087 0.000000
v 0.034786 0.085043 0.034786
v 0.032793 0.240058 0.032793
v 0.009784 0.325380 0.009784
v 0.009602 0.332042 0.009602
v 0.011958 0.352539 0.011958
v 0.010526 0.063412 0.010339
v 0.009459 0.062522 0.009459
v 0.005043 0.060507 0.005043
v 0.005627 0.061980 0.007803
v 0.014700 0.058319 0.014683
v 0.029653 0.060800 0.029653
v 0.027032 0.058981 0.027032
v 0.035908 0.119485 0.035908
v 0.031910 0.128427 0.032066
v 0.035260 0.123454 0.035260
v 0.035566 0.246694 0.035281
v 0.032015 0.286324 0.032047
v 0.017115 0.318344 0.017115
v 0.020403 0.313994 0.020490
v 0.013167 0.331154 0.012532
v 0.011732 0.338005 0.011906
v 0.013087 0.336420 0.013143
v 0.000000 0.060087 0.000000
v 0.045450 0.085043 0.018826
v 0.042846 0.240058 0.017747
v 0.012783 0.325380 0.005295
v 0.012546 0.332042 0.005197
v 0.015623 0.352539 0.006471
v 0.013602 0.063431 0.005850
v 0.006589 0.060507 0.002729
v 0.009192 0.061560 0.000930
v 0.007017 0.060915 0.004766
v 0.019176 0.058309 0.008133
v 0.039759 0.062822 0.016469
v 0.035319 0.058981 0.014630
v 0.038070 0.060182 0.015769
v 0.046916 0.119485 0.019433
v 0.041767 0.128394 0.017678
v 0.046070 0.123454 0.019083
v 0.046336 0.246840 0.019086
v 0.041842 0.286324 0.017356
v 0.022362 0.318344 0.009263
v 0.026691 0.313994 0.011122
v 0.016940 0.331349 0.006876
v 0.015426 0.337973 0.006569
v 0.017121 0.336420 0.007135
vn 0.3511 -0.9030 -0.2476
vn -0.1161 -0.9899 0.0808
vn -0.1639 -0.9818 0.0964
vn -0.0928 -0.9030 -0.4194
vn 0.0368 -0.9879 0.1508
vn 0.0228 -0.9875 0.1558
vn -0.4179 -0.9053 -0.0760
vn 0.1898 -0.9815 0.0258
vn 0.1614 -0.9858 0.0460
vn -0.3423 -0.9080 0.2416
vn 0.1260 -0.9875 -0.0951
vn 0.1610 -0.9820 -0.0991
vn 0.0887 -0.9038 0.4186
vn -0.0375 -0.9872 -0.1548
vn -0.0197 -0.9858 -0.1667
vn 0.4280 -0.9007 0.0741
vn -0.1757 -0.9840 -0.0297
vn -0.1576 -0.9864 -0.0459
vn 0.1666 -0.9586 -0.2308
vn 0.5003 -0.8017 -0.3271
vn 0.2633 -0.9623 -0.0678
vn -0.1165 -0.9719 -0.2044
vn -0.1223 -0.6873 -0.7160
vn 0.0367 -0.9634 -0.2654
vn -0.2120 -0.9748 -0.0700
vn -0.5019 -0.7981 -0.3332
vn -0.1528 -0.9705 -0.1867
vn -0.1492 -0.9711 0.1865
vn -0.5431 -0.7587 0.3598
vn -0.2102 -0.9753 0.0678
vn 0.0165 -0.9735 0.2282
vn -0.1481 -0.7651 0.6266
vn -0.1141 -0.9713 0.2085
vn 0.2463 -0.9294 -0.2747
vn 0.3327 -0.9381 -0.0960
vn 0.0905 -0.9470 -0.3082
vn -0.1885 -0.9424 -0.2763
vn -0.1976 -0.9391 0.2810
vn -0.3561 -0.9311 0.0786
vn 0.0294 -0.9093 0.4150
vn 0.2878 -0.9576 -0.0106
vn 0.0084 1.0000 -0.0017
vn 0.0071 1.0000 -0.0047
vn 0.0047 1.0000 -0.0071
vn 0.1259 -0.9509 -0.2829
vn 0.0017 1.0000 -0.0084
vn -0.0017 1.0000 -0.0084
vn -0.0047 1.0000 -0.0071
vn -0.0071 1.0000 -0.0047
vn -0.0084 1.0000 -0.0017
vn -0.2320 -0.9727 -0.0005
vn -0.0084 1.0000 0.0017
vn -0.0071 1.0000 0.0047
vn -0.0047 1.0000 0.0071
vn -0.0017 1.0000 0.0084
vn 0.0017 1.0000 0.0084
vn 0.0862 -0.9725 0.2166
vn 0.0047 1.0000 0.0071
vn 0.1410 -0.9760 0.1659
vn 0.0071 1.0000 0.0047
vn 0.2397 -0.9685 0.0678
vn 0.0084 1.0000 0.0017
vn -0.1246 -0.9414 0.3133
vn 0.3387 -0.9408 0.0113
vn 0.2005 -0.9578 0.2058
vn 0.5556 -0.7763 0.2978
vn 0.0346 -0.9994 0.0039
vn 0.4439 -0.7101 -0.5466
vn 0.1098 -0.9577 -0.2662
vn 0.0380 -0.9990 -0.0219
vn 0.0026 -0.7627 -0.6467
vn -0.2938 -0.6384 -0.7114
vn -0.0008 -0.4125 -0.9110
vn -0.4755 -0.8568 -0.1994
vn -0.7801 -0.6257 0.0028
vn -0.8331 -0.4299 -0.3479
vn -0.4592 -0.7614 0.4577
vn -0.2964 -0.6327 0.7155
vn -0.6434 -0.4128 0.6448
vn 0.2471 -0.7614 0.5994
vn 0.5476 -0.6327 0.5476
vn 0.3495 -0.4128 0.8411
vn 0.2071 -0.9745 -0.0864
vn 0.3637 -0.8540 -0.3720
vn 0.3488 -0.9274 -0.1350
vn -0.1624 -0.9723 -0.1682
vn -0.2630 -0.9216 -0.2854
vn -0.2567 -0.9665 -0.0009
vn -0.1673 -0.9701 0.1759
vn -0.2276 -0.9697 0.0889
vn -0.0070 -0.9993 -0.0367
vn 0.0985 -0.9701 0.2220
vn -0.0060 -0.9701 0.2427
vn 0.7952 0.5102 -0.3277
vn 0.7051 0.7091 0.0007
vn 0.9013 0.4332 0.0034
vn 0.0024 0.4548 -0.8906
vn -0.3313 0.5014 -0.7993
vn 0.0058 0.3788 -0.9254
vn -0.7991 0.5049 -0.3262
vn -0.6566 0.3829 -0.6499
vn -0.6287 0.4561 -0.6299
vn -0.7938 0.5109 0.3300
vn -0.9240 0.3824 0.0037
vn -0.8888 0.4582 -0.0004
vn -0.6274 0.4623 0.6266
vn -0.3268 0.5056 0.7985
vn -0.6512 0.3857 0.6536
vn -0.0000 0.4588 0.8885
vn 0.3268 0.5056 0.7985
vn -0.0000 0.3861 0.9225
vn 0.6473 0.3800 -0.6607
vn 0.8328 0.4312 -0.3471
vn -0.3466 0.4238 -0.8368
vn -0.8371 0.4248 -0.3446
vn -0.8347 0.4265 0.3484
vn -0.3470 0.4249 0.8361
vn 0.6542 0.3790 0.6546
vn 0.3470 0.4249 0.8361
vn 0.4616 -0.7468 -0.4788
vn 0.7089 -0.6366 -0.3037
vn 0.6646 -0.7471 -0.0158
vn -0.4583 -0.7520 0.4738
vn -0.7154 -0.6282 0.3059
vn -0.6650 -0.7468 0.0050
vn 0.4811 -0.7471 0.4588
vn 0.3037 -0.6366 0.7089
vn 0.0045 -0.7466 0.6653
vn 0.7160 -0.6366 0.2865
vn 0.0041 0.3688 -0.9295
vn -0.3507 0.4249 -0.8345
vn 0.0076 0.4358 -0.9000
vn -0.8606 0.3668 0.3533
vn -0.6376 0.4256 0.6421
vn -0.8351 0.4378 0.3331
vn -0.6370 0.4374 -0.6348
vn -0.3298 0.4968 -0.8028
vn -0.3427 0.4374 0.8314
vn -0.6157 0.4963 0.6120
vn 0.9244 -0.0112 -0.3812
vn 0.7068 -0.0103 -0.7073
vn 0.3527 0.3741 -0.8577
vn 0.3811 -0.0097 -0.9245
vn -0.0014 -0.0104 -0.9999
vn -0.3820 -0.0108 -0.9241
vn -0.7082 -0.0103 -0.7060
vn -0.9251 -0.0105 -0.3795
vn -0.9999 -0.0109 0.0012
vn -0.9234 -0.0108 0.3836
vn -0.7067 -0.0108 0.7074
vn -0.3819 -0.0109 0.9241
vn -0.0000 -0.0110 0.9999
vn 0.3819 -0.0109 0.9241
vn 0.7035 -0.0101 0.7106
vn 0.9239 -0.0101 0.3826
vn 0.8547 0.3733 0.3607
vn 0.8902 0.4555 -0.0094
vn 0.9999 -0.0110 -0.0025
vn 0.9232 0.0384 -0.3824
vn 0.9993 0.0384 -0.0000
vn 0.7066 0.0384 -0.7066
vn 0.3824 0.0384 -0.9232
vn -0.0000 0.0384 -0.9993
vn -0.3824 0.0384 -0.9232
vn -0.7066 0.0384 -0.7066
vn -0.9232 0.0384 -0.3824
vn -0.9993 0.0384 -0.0000
vn -0.9232 0.0384 0.3824
vn -0.7066 0.0384 0.7066
vn -0.3824 0.0384 0.9232
vn -0.0000 0.0384 0.9993
vn 0.3824 0.0384 0.9232
vn 0.7066 0.0384 0.7066
vn 0.9232 0.0384 0.3824
vn 0.7503 0.6611 0.0007
vn 0.9027 0.4304 0.0034
vn 0.8353 0.4305 -0.3420
vn 0.6936 0.6611 -0.2861
vn 0.6436 0.4287 -0.6340
vn 0.7099 -0.0120 -0.7042
vn 0.3855 -0.0116 -0.9226
vn 0.3522 0.4324 -0.8300
vn -0.0018 0.6607 -0.7506
vn -0.2867 0.6599 -0.6945
vn -0.7043 -0.0135 -0.7097
vn -0.8323 0.4316 -0.3480
vn -0.9232 -0.0126 -0.3840
vn -0.9034 0.4287 -0.0068
vn -0.9999 -0.0120 -0.0040
vn -0.6930 0.6612 0.2873
vn -0.5315 0.6600 0.5310
vn -0.3860 -0.0136 0.9224
vn -0.0061 0.4299 0.9029
vn -0.0040 -0.0120 0.9999
vn 0.3800 -0.0117 0.9249
vn 0.3379 0.4324 0.8360
vn 0.6343 0.4286 0.6434
vn 0.7047 -0.0117 0.7094
vn 0.9226 -0.0116 0.3855
vn 0.8300 0.4324 0.3522
vn -0.0000 1.0000 -0.0000
vn -0.0702 -0.9839 0.1645
vn 0.1358 -0.9372 -0.3213
vn 0.1189 -0.9856 0.1201
vn -0.2430 -0.9405 -0.2373
vn 0.0684 -0.9854 -0.1559
vn -0.1159 -0.9857 -0.1227
vn 0.2482 -0.9370 0.2456
vn -0.5559 -0.8303 -0.0397
vn 0.1706 -0.8295 0.5319
vn 0.6278 -0.6858 0.3682
vn -0.3943 -0.9091 -0.1341
vn 0.2118 -0.9354 0.2830
vn 0.5458 -0.8368 -0.0426
vn 0.5158 -0.8405 -0.1661
vn -0.2629 -0.9595 0.1016
vn -0.2850 -0.9585 -0.0029
vn 0.0514 -0.8283 -0.5580
vn -0.2543 -0.8348 -0.4883
vn -0.2025 -0.9575 -0.2051
vn -0.1948 -0.9611 0.1960
vn -0.1000 -0.9603 0.2603
vn 0.0007 -0.9566 0.2913
vn 0.1072 -0.9602 0.2579
vn -0.2623 -0.9585 -0.1116
vn 0.8359 -0.4251 -0.3471
vn 0.9092 -0.4163 -0.0000
vn 0.8222 -0.5692 -0.0000
vn 0.7469 -0.5862 -0.3139
vn 0.6407 -0.4299 -0.6362
vn 0.3474 -0.4220 -0.8374
vn 0.2434 -0.7658 -0.5953
vn -0.6409 -0.4214 -0.6416
vn -0.5825 -0.5863 -0.5629
vn -0.8419 -0.4128 0.3477
vn -0.7557 -0.5691 0.3240
vn -0.0010 -0.4128 0.9108
vn 0.0102 -0.5691 0.8222
vn 0.8411 -0.4128 0.3495
vn 0.7635 -0.5691 0.3052
vn 0.3739 -0.9275 -0.0000
vn 0.2295 -0.9733 -0.0002
vn -0.0030 -0.9715 -0.2372
vn 0.0848 -0.9747 -0.2069
vn -0.0944 -0.9693 -0.2269
vn -0.3662 -0.9197 0.1414
vn -0.0972 -0.9673 0.2345
vn -0.0095 -0.9197 0.3924
vn 0.1795 -0.9674 0.1784
vn 0.3589 -0.9197 0.1589
vn 0.2202 -0.9707 0.0962
vn 0.9126 -0.1554 -0.3780
vn 0.9878 -0.1554 -0.0000
vn 0.6985 -0.1554 -0.6985
vn 0.3780 -0.1554 -0.9126
vn -0.0033 -0.1583 -0.9874
vn -0.3777 -0.1606 -0.9119
vn -0.6957 -0.1584 -0.7006
vn -0.9135 -0.1582 -0.3749
vn -0.9871 -0.1603 -0.0000
vn -0.9135 -0.1582 0.3749
vn -0.6959 -0.1582 0.7005
vn -0.3777 -0.1603 0.9119
vn -0.0032 -0.1582 0.9874
vn 0.3808 -0.1582 0.9110
vn 0.6980 -0.1603 0.6980
vn 0.9110 -0.1582 0.3808
vn 0.9955 0.0943 -0.0009
vn 0.9186 0.1009 -0.3821
vn 0.6284 0.4576 -0.6291
vn 0.7047 0.0958 -0.7030
vn 0.3415 0.4529 -0.8236
vn 0.3812 0.0887 -0.9202
vn -0.0008 0.0935 -0.9956
vn -0.3808 0.0979 -0.9194
vn -0.7038 0.1006 -0.7033
vn -0.9186 0.1009 -0.3821
vn -0.9947 0.1027 0.0005
vn -0.9188 0.1049 0.3806
vn -0.7034 0.1043 0.7031
vn -0.3821 0.1009 0.9186
vn -0.0000 0.0998 0.9950
vn 0.3821 0.1009 0.9186
vn 0.6308 0.4568 0.6273
vn 0.7030 0.0958 0.7047
vn 0.9202 0.0887 0.3812
vn 0.8263 0.4471 0.3425
vn 0.9075 -0.1871 -0.3761
vn 0.9824 -0.1870 -0.0000
vn 0.8728 -0.4880 0.0007
vn 0.8055 -0.4900 -0.3332
vn 0.6930 -0.1893 -0.6957
vn 0.6164 -0.4899 -0.6165
vn 0.3343 -0.4882 -0.8062
vn 0.3745 -0.1841 -0.9088
vn -0.0019 -0.1892 -0.9819
vn 0.0006 -0.4886 -0.8725
vn -0.3337 -0.4882 -0.8064
vn -0.3778 -0.1841 -0.9074
vn -0.6957 -0.1892 -0.6930
vn -0.6165 -0.4886 -0.6173
vn -0.8067 -0.4875 -0.3341
vn -0.9087 -0.1841 -0.3746
vn -0.9824 -0.1870 0.0002
vn -0.8724 -0.4888 -0.0012
vn -0.9064 -0.1893 0.3775
vn -0.8054 -0.4899 0.3337
vn -0.6174 -0.4882 0.6169
vn -0.6937 -0.1841 0.6963
vn -0.3740 -0.1892 0.9079
vn -0.3344 -0.4886 0.8059
vn -0.0003 -0.4882 0.8727
vn 0.0018 -0.1841 0.9829
vn 0.3776 -0.1892 0.9064
vn 0.3326 -0.4897 0.8060
vn 0.6170 -0.4888 0.6167
vn 0.6972 -0.1870 0.6921
vn 0.8070 -0.4866 0.3347
vn 0.9087 -0.1841 0.3745
vn 0.8772 0.3141 -0.3631
vn 0.9493 0.3144 0.0002
vn 0.6717 0.3141 -0.6710
vn 0.3634 0.3143 -0.8770
vn 0.0002 0.3142 -0.9494
vn -0.3631 0.3143 -0.8771
vn -0.6712 0.3142 -0.6714
vn -0.8768 0.3144 -0.3637
vn -0.9493 0.3142 0.0001
vn -0.8773 0.3141 0.3629
vn -0.6714 0.3143 0.6712
vn -0.3635 0.3142 0.8770
vn -0.0002 0.3143 0.9493
vn 0.3635 0.3141 0.8770
vn 0.6710 0.3142 0.6716
vn 0.8769 0.3145 0.3634
vn 0.5796 0.7788 -0.2400
vn 0.6273 0.7788 -0.0000
vn 0.7846 0.6200 0.0014
vn 0.7254 0.6200 -0.2990
vn 0.4436 0.7788 -0.4436
vn 0.5557 0.6200 -0.5538
vn 0.2401 0.7788 -0.5796
vn 0.3015 0.6200 -0.7243
vn -0.0000 0.7788 -0.6273
vn 0.0014 0.6200 -0.7846
vn -0.2400 0.7788 -0.5796
vn -0.2990 0.6200 -0.7254
vn -0.4436 0.7788 -0.4436
vn -0.5538 0.6200 -0.5557
vn -0.5796 0.7788 -0.2401
vn -0.7243 0.6200 -0.3015
vn -0.6273 0.7788 -0.0000
vn -0.7846 0.6200 -0.0014
vn -0.5796 0.7788 0.2400
vn -0.7254 0.6200 0.2990
vn -0.4436 0.7788 0.4436
vn -0.5557 0.6200 0.5538
vn -0.2401 0.7788 0.5796
vn -0.3015 0.6200 0.7243
vn -0.0000 0.7788 0.6273
vn -0.0014 0.6200 0.7846
vn 0.2400 0.7788 0.5796
vn 0.2990 0.6200 0.7254
vn 0.4436 0.7788 0.4436
vn 0.5538 0.6200 0.5557
vn 0.5796 0.7788 0.2401
vn 0.7243 0.6200 0.3015
vn 0.5188 0.8275 -0.2149
vn 0.5615 0.8275 -0.0000
vn 0.3970 0.8275 -0.3970
vn 0.2149 0.8275 -0.5188
vn -0.0000 0.8275 -0.5615
vn -0.2149 0.8275 -0.5188
vn -0.3970 0.8275 -0.3970
vn -0.5188 0.8275 -0.2149
vn -0.5615 0.8275 -0.0000
vn -0.5188 0.8275 0.2149
vn -0.3970 0.8275 0.3970
vn -0.2149 0.8275 0.5188
vn -0.0000 0.8275 0.5615
vn 0.2149 0.8275 0.5188
vn 0.3970 0.8275 0.3970
vn 0.5188 0.8275 0.2149
vn 0.2789 -0.6532 -0.7039
vn -0.2565 -0.7525 -0.6066
vn 0.0014 -0.6506 -0.7594
vn -0.1641 -0.9776 0.1320
vn -0.2105 -0.9730 0.0946
vn -0.2094 -0.9776 -0.0227
vn -0.0557 -0.9244 0.3772
vn -0.0837 -0.9262 0.3675
vn 0.1360 -0.9807 0.1407
vn -0.4671 -0.7472 -0.4728
vn 0.0752 -0.9792 0.1885
vn 0.1788 -0.9811 0.0738
vn -0.6111 -0.7519 -0.2473
vn 0.1899 -0.9818 0.0027
vn 0.1644 -0.9769 -0.1361
vn 0.2107 -0.9729 -0.0948
vn 0.0748 -0.9812 -0.1777
vn -0.2562 -0.7473 0.6131
vn 0.0022 -0.9819 -0.1894
vn -0.1320 -0.9776 -0.1641
vn -0.0946 -0.9730 -0.2105
vn -0.2157 -0.9730 -0.0820
vn 0.9295 0.3688 0.0030
vn 0.8585 0.3686 -0.3566
vn 0.6593 0.3680 -0.6557
vn 0.3561 0.3721 -0.8572
vn -0.6628 0.3628 -0.6550
vn -0.8608 0.3631 -0.3566
vn -0.9308 0.3655 -0.0046
vn -0.3494 0.3628 0.8639
vn -0.0044 0.3661 0.9306
vn 0.3576 0.3685 0.8581
vn 0.6556 0.3682 0.6593
vn 0.8596 0.3687 0.3538
vt 0.535471 0.525631
vt 0.534668 0.534668
vt 0.545590 0.518884
vt 0.489855 0.542571
vt 0.481116 0.545590
vt 0.500000 0.549028
vt 0.456795 0.506958
vt 0.450654 0.500000
vt 0.454584 0.518812
vt 0.464479 0.474444
vt 0.465197 0.465197
vt 0.454528 0.481165
vt 0.510145 0.457429
vt 0.518884 0.454410
vt 0.500000 0.450842
vt 0.543213 0.493082
vt 0.549158 0.500000
vt 0.545416 0.481188
vt 0.516811 0.516811
vt 0.522911 0.515567
vt 0.521964 0.509098
vt 0.490902 0.521964
vt 0.493797 0.527007
vt 0.500000 0.523774
vt 0.478036 0.509098
vt 0.476970 0.515388
vt 0.483189 0.516811
vt 0.483189 0.483189
vt 0.477089 0.484433
vt 0.478036 0.490902
vt 0.500000 0.476226
vt 0.493686 0.473015
vt 0.490902 0.478036
vt 0.522331 0.522331
vt 0.529176 0.512085
vt 0.511686 0.528213
vt 0.493797 0.011157
vt 0.482792 0.014516
vt 0.507498 0.013467
vt 0.481840 0.474882
vt 0.470824 0.487915
vt 0.493686 0.011157
vt 0.500000 0.014516
vt 0.481840 0.014516
vt 0.523774 0.500000
vt 0.500000 0.500000
vt 0.509098 0.521964
vt 0.476226 0.500000
vt 0.509098 0.478036
vt 0.516811 0.483189
vt 0.521964 0.490902
vt 0.522331 0.014516
vt 0.525631 0.038169
vt 0.505995 0.014516
vt 0.493910 0.014516
vt 0.474444 0.038169
vt 0.506958 0.038169
vt 0.482936 0.038169
vt 0.493082 0.038169
vt 0.496470 0.012138
vt 0.451010 0.548990
vt 0.436666 0.526234
vt 0.429808 0.513962
vt 0.451583 0.451583
vt 0.473397 0.435775
vt 0.439207 0.462165
vt 0.500000 0.030369
vt 0.446864 0.032527
vt 0.500000 0.039169
vt 0.552564 0.030369
vt 0.500000 0.032899
vt 0.554895 0.039169
vt 0.402874 0.030369
vt 0.446766 0.032899
vt 0.398566 0.039169
vt 0.552564 0.030369
vt 0.598365 0.032899
vt 0.554895 0.039169
vt 0.617731 0.548766
vt 0.595313 0.595313
vt 0.626901 0.552564
vt 0.409893 0.590107
vt 0.375467 0.551583
vt 0.402874 0.597126
vt 0.372569 0.500000
vt 0.362643 0.500000
vt 0.409893 0.409893
vt 0.382269 0.451234
vt 0.514102 0.429835
vt 0.548766 0.382269
vt 0.500000 0.372569
vt 0.562706 0.244308
vt 0.500000 0.251990
vt 0.500000 0.241277
vt 0.500000 0.241277
vt 0.437200 0.243994
vt 0.500000 0.251990
vt 0.562706 0.244308
vt 0.611635 0.251990
vt 0.617535 0.241277
vt 0.437425 0.244747
vt 0.382465 0.241277
vt 0.437294 0.244308
vt 0.388365 0.251990
vt 0.606499 0.606499
vt 0.638875 0.557524
vt 0.645859 0.560417
vt 0.393374 0.606626
vt 0.442476 0.638875
vt 0.439583 0.645859
vt 0.349629 0.500000
vt 0.361125 0.557524
vt 0.354141 0.560417
vt 0.393586 0.393586
vt 0.361125 0.442476
vt 0.354141 0.439583
vt 0.500000 0.349642
vt 0.442476 0.361125
vt 0.439583 0.354141
vt 0.606414 0.393586
vt 0.557524 0.361125
vt 0.560417 0.354141
vt 0.541531 0.543098
vt 0.555746 0.523091
vt 0.559842 0.501108
vt 0.457664 0.457664
vt 0.444254 0.476909
vt 0.440158 0.498892
vt 0.543098 0.458469
vt 0.523091 0.444254
vt 0.501108 0.440158
vt 0.555746 0.476909
vt 0.500000 0.561216
vt 0.476884 0.555807
vt 0.500000 0.555628
vt 0.443444 0.476574
vt 0.457287 0.457287
vt 0.448485 0.478662
vt 0.460665 0.539335
vt 0.478755 0.551289
vt 0.478712 0.448607
vt 0.460745 0.460745
vt 0.559158 0.629954
vt 0.557524 0.257577
vt 0.606290 0.257577
vt 0.609310 0.629954
vt 0.609310 0.629954
vt 0.606291 0.257577
vt 0.557524 0.257577
vt 0.559158 0.629954
vt 0.500000 0.257577
vt 0.500000 0.629954
vt 0.442476 0.257577
vt 0.440842 0.629954
vt 0.390690 0.629954
vt 0.393710 0.257577
vt 0.440842 0.629954
vt 0.393709 0.257577
vt 0.390690 0.629954
vt 0.440842 0.629954
vt 0.500000 0.257577
vt 0.500000 0.629954
vt 0.440842 0.629954
vt 0.390690 0.629954
vt 0.442476 0.257577
vt 0.517322 0.936568
vt 0.500000 0.936568
vt 0.500000 0.914362
vt 0.517649 0.914362
vt 0.532612 0.914362
vt 0.532008 0.936568
vt 0.532008 0.936568
vt 0.532612 0.914362
vt 0.517650 0.914362
vt 0.517323 0.936568
vt 0.500000 0.936568
vt 0.500000 0.914362
vt 0.482678 0.936568
vt 0.482351 0.914362
vt 0.467992 0.936568
vt 0.467388 0.914362
vt 0.482678 0.936568
vt 0.482351 0.914362
vt 0.467992 0.936568
vt 0.467388 0.914362
vt 0.482350 0.914362
vt 0.482677 0.936568
vt 0.500000 1.004894
vt 0.500000 0.956211
vt 0.521245 0.956211
vt 0.521571 1.004894
vt 0.539255 0.956211
vt 0.539859 1.004894
vt 0.521572 1.004894
vt 0.539859 1.004894
vt 0.539255 0.956211
vt 0.521245 0.956211
vt 0.500000 0.956211
vt 0.500000 1.004894
vt 0.478755 0.956211
vt 0.478429 1.004894
vt 0.460745 0.956211
vt 0.460141 1.004894
vt 0.539255 0.956211
vt 0.478429 1.004894
vt 0.460141 1.004894
vt 0.460745 0.956211
vt 0.478755 0.956211
vt 0.478428 1.004894
vt 0.500000 1.004894
vt 0.539255 0.956211
vt 0.539859 1.004894
vt 0.478428 1.004894
vt 0.460745 0.956211
vt 0.478755 0.956211
vt 0.552078 0.521571
vt 0.539859 0.539859
vt 0.556369 0.500000
vt 0.521572 0.552078
vt 0.500000 0.556369
vt 0.478429 0.552078
vt 0.460141 0.539859
vt 0.447922 0.521572
vt 0.443631 0.500000
vt 0.447922 0.478429
vt 0.460141 0.460141
vt 0.478428 0.447922
vt 0.500000 0.443631
vt 0.521571 0.447922
vt 0.539859 0.460141
vt 0.552078 0.478428
vt 0.518884 0.545590
vt 0.517064 0.541195
vt 0.465332 0.534668
vt 0.468471 0.531529
vt 0.481238 0.454704
vt 0.482936 0.458805
vt 0.534668 0.465332
vt 0.531529 0.468471
vt 0.528241 0.500000
vt 0.471759 0.500000
vt 0.510807 0.473909
vt 0.522911 0.484433
vt 0.512085 0.014516
vt 0.510807 0.011157
vt 0.500000 0.011157
vt 0.482792 0.525753
vt 0.470824 0.512085
vt 0.518160 0.014516
vt 0.489193 0.011157
vt 0.517064 0.038169
vt 0.518160 0.474882
vt 0.529176 0.487915
vt 0.531529 0.038169
vt 0.489855 0.038169
vt 0.468471 0.038169
vt 0.510145 0.038169
vt 0.477669 0.014516
vt 0.431389 0.500000
vt 0.436740 0.473797
vt 0.564286 0.526628
vt 0.569532 0.500000
vt 0.500000 0.431535
vt 0.526205 0.436737
vt 0.549115 0.450885
vt 0.549212 0.549212
vt 0.526698 0.564456
vt 0.500000 0.569283
vt 0.473251 0.564578
vt 0.564288 0.473371
vt 0.601434 0.039169
vt 0.597126 0.030369
vt 0.398566 0.039169
vt 0.445105 0.039169
vt 0.447436 0.030369
vt 0.401635 0.032899
vt 0.637357 0.500000
vt 0.627431 0.500000
vt 0.500000 0.627431
vt 0.500000 0.637357
vt 0.552564 0.626901
vt 0.548766 0.617731
vt 0.447436 0.626901
vt 0.451234 0.617731
vt 0.373099 0.447436
vt 0.402874 0.402874
vt 0.451234 0.382269
vt 0.447436 0.373099
vt 0.500000 0.362643
vt 0.552564 0.373099
vt 0.590107 0.409893
vt 0.597126 0.402874
vt 0.626901 0.447436
vt 0.617731 0.451234
vt 0.562753 0.113238
vt 0.500000 0.113238
vt 0.615953 0.113238
vt 0.615953 0.113238
vt 0.437247 0.113238
vt 0.384047 0.113238
vt 0.437247 0.113238
vt 0.384047 0.113238
vt 0.500000 0.113238
vt 0.562753 0.113238
vt 0.500000 0.228046
vt 0.564777 0.228046
vt 0.617535 0.241277
vt 0.619692 0.228046
vt 0.563609 0.241277
vt 0.564777 0.228046
vt 0.500000 0.228046
vt 0.435223 0.228046
vt 0.380308 0.228046
vt 0.382465 0.241277
vt 0.380308 0.228046
vt 0.435223 0.228046
vt 0.436391 0.241277
vt 0.560417 0.251990
vt 0.611635 0.251990
vt 0.439583 0.251990
vt 0.388365 0.251990
vt 0.650317 0.500000
vt 0.657876 0.500000
vt 0.563479 0.652350
vt 0.500000 0.652350
vt 0.500000 0.650478
vt 0.639313 0.442294
vt 0.617214 0.651981
vt 0.563534 0.652794
vt 0.500000 0.651981
vt 0.436466 0.652794
vt 0.382786 0.651981
vt 0.563534 0.652794
vt 0.617214 0.651981
vt 0.500000 0.652350
vt 0.436564 0.651981
vt 0.382605 0.652794
vt 0.436564 0.651981
vt 0.500000 0.652794
vt 0.563436 0.651981
vt 0.617293 0.652326
vt 0.436466 0.652794
vt 0.382707 0.652326
vt 0.557459 0.783910
vt 0.500000 0.783910
vt 0.606170 0.783910
vt 0.557459 0.783910
vt 0.500000 0.783910
vt 0.442541 0.783910
vt 0.393830 0.783910
vt 0.557459 0.783910
vt 0.606170 0.783910
vt 0.442541 0.783910
vt 0.393830 0.783910
vt 0.442541 0.783910
vt 0.500000 0.783910
vt 0.557464 0.783912
vt 0.606134 0.783898
vt 0.442541 0.783910
vt 0.393866 0.783898
vt 0.574540 0.530875
vt 0.580681 0.500000
vt 0.592457 0.500000
vt 0.585419 0.535382
vt 0.557050 0.557050
vt 0.565377 0.565377
vt 0.530875 0.574540
vt 0.535382 0.585419
vt 0.500000 0.580681
vt 0.500000 0.592457
vt 0.469125 0.574540
vt 0.464618 0.585419
vt 0.442950 0.557050
vt 0.434623 0.565377
vt 0.425460 0.530875
vt 0.414581 0.535382
vt 0.419319 0.500000
vt 0.407543 0.500000
vt 0.425460 0.469125
vt 0.414581 0.464618
vt 0.442950 0.442950
vt 0.434623 0.434623
vt 0.469125 0.425460
vt 0.464618 0.414581
vt 0.500000 0.419319
vt 0.500000 0.407543
vt 0.530875 0.425460
vt 0.535382 0.414581
vt 0.557050 0.442950
vt 0.565377 0.434623
vt 0.574540 0.469125
vt 0.585419 0.464618
vt 0.542610 0.517649
vt 0.546120 0.500000
vt 0.532612 0.532612
vt 0.517650 0.542609
vt 0.500000 0.546120
vt 0.482351 0.542610
vt 0.467388 0.532612
vt 0.457391 0.517650
vt 0.453880 0.500000
vt 0.457390 0.482351
vt 0.467388 0.467388
vt 0.482350 0.457391
vt 0.500000 0.453880
vt 0.517649 0.457391
vt 0.532612 0.467388
vt 0.542609 0.482350
vt 0.536710 0.876052
vt 0.500000 0.876052
vt 0.567832 0.876052
vt 0.536711 0.876052
vt 0.500000 0.876052
vt 0.463290 0.876052
vt 0.432168 0.876052
vt 0.432168 0.876052
vt 0.393830 0.783910
vt 0.463289 0.876052
vt 0.567832 0.876052
vt 0.463289 0.876052
vt 0.432168 0.876052
vt 0.523091 0.555746
vt 0.478204 0.555662
vt 0.500000 0.560339
vt 0.532008 0.532008
vt 0.541820 0.517322
vt 0.545266 0.500000
vt 0.500000 0.545266
vt 0.517323 0.541820
vt 0.467992 0.532008
vt 0.457819 0.542182
vt 0.482678 0.541820
vt 0.458180 0.517323
vt 0.444658 0.522923
vt 0.454734 0.500000
vt 0.467992 0.467992
vt 0.458180 0.482678
vt 0.482677 0.458180
vt 0.477171 0.444887
vt 0.500000 0.454734
vt 0.532008 0.467992
vt 0.517322 0.458180
vt 0.541820 0.482677
vt 0.551393 0.521288
vt 0.555628 0.500000
vt 0.561216 0.500000
vt 0.556556 0.523426
vt 0.539302 0.539302
vt 0.543286 0.543286
vt 0.521338 0.551514
vt 0.523426 0.556556
vt 0.448607 0.521288
vt 0.456714 0.543286
vt 0.443444 0.523426
vt 0.444419 0.500000
vt 0.438784 0.500000
vt 0.500000 0.444419
vt 0.476574 0.443444
vt 0.500000 0.438784
vt 0.521338 0.448485
vt 0.523426 0.443444
vt 0.539302 0.460698
vt 0.543286 0.456714
vt 0.551515 0.478662
vt 0.556556 0.476573
vt 0.523538 0.951074
vt 0.500000 0.951074
vt 0.500000 0.934419
vt 0.523196 0.934419
vt 0.543493 0.951075
vt 0.542861 0.934419
vt 0.523538 0.951075
vt 0.523196 0.934419
vt 0.500000 0.951074
vt 0.500000 0.934419
vt 0.476479 0.951240
vt 0.476824 0.934313
vt 0.457135 0.934431
vt 0.456538 0.951232
vt 0.523538 0.951074
vt 0.543462 0.951232
vt 0.542866 0.934431
vt 0.523196 0.934419
vt 0.476462 0.951075
vt 0.476804 0.934419
vt 0.456539 0.951240
vt 0.457176 0.934313
vt 0.476801 0.934431
vt 0.476478 0.951232
vt 0.523538 0.951075
vt 0.523196 0.934419
vt 0.542861 0.934419
vt 0.476462 0.951075
vt 0.456507 0.951075
vt 0.457139 0.934419
vt 0.476804 0.934419
s 1
f 54/1/1 53/2/2 31/3/3
f 126/4/4 125/5/5 100/6/6
f 194/7/7 193/8/8 171/9/9
f 242/10/10 241/11/11 218/12/12
f 315/13/13 314/14/14 288/15/15
f 8/16/16 7/17/17 361/18/18
f 55/19/19 57/20/20 32/21/21
f 127/22/22 128/23/23 101/24/24
f 172/25/25 174/26/26 148/27/27
f 243/28/28 244/29/29 219/30/30
f 289/31/31 291/32/32 268/33/33
f 57/20/20 56/34/34 33/35/35
f 102/36/36 56/34/34 57/20/20
f 128/37/23 149/38/37 102/39/36
f 244/29/29 269/40/38 220/41/39
f 291/32/32 269/40/38 244/29/29
f 291/42/32 290/43/40 269/44/38
f 9/45/41 24/46/42 32/21/21
f 32/21/21 47/46/43 55/19/19
f 55/19/19 71/46/44 79/47/45
f 79/47/45 94/46/46 101/24/24
f 101/24/24 117/46/47 127/22/22
f 127/22/22 140/46/48 148/27/27
f 148/27/27 164/46/49 172/25/25
f 172/25/25 187/46/50 195/48/51
f 195/48/51 211/46/52 219/30/30
f 219/30/30 234/46/53 243/28/28
f 243/28/28 259/46/54 268/33/33
f 268/33/33 282/46/55 289/31/31
f 289/31/31 306/46/56 316/49/57
f 316/49/57 332/46/58 340/50/59
f 340/50/59 355/46/60 362/51/61
f 362/51/61 1/46/62 9/45/41
f 56/52/34 54/53/1 33/54/35
f 220/55/39 242/56/10 194/57/7
f 269/44/38 267/58/63 242/56/10
f 33/54/35 8/59/16 363/60/64
f 150/61/65 175/62/66 197/63/67
f 246/64/68 270/65/69 245/66/70
f 106/67/71 130/68/72 104/69/73
f 177/70/74 199/71/75 176/72/76
f 249/73/77 271/74/78 247/75/79
f 322/76/80 343/77/81 320/78/82
f 36/79/83 60/80/84 37/81/85
f 152/82/86 177/83/74 153/84/87
f 177/83/74 200/85/88 199/86/75
f 197/63/67 200/85/88 177/83/74
f 245/66/70 248/87/89 223/88/90
f 318/89/91 321/90/92 294/91/93
f 39/92/94 15/93/95 16/94/96
f 109/95/97 133/96/98 108/97/99
f 179/98/100 155/99/101 156/100/102
f 226/101/103 202/97/104 203/95/105
f 252/102/106 274/103/107 251/104/108
f 298/94/109 324/98/110 297/93/111
f 62/105/112 26/106/113 39/107/94
f 155/108/101 119/109/114 133/110/98
f 202/111/104 166/112/115 179/113/100
f 251/114/108 213/115/116 226/116/103
f 297/117/111 261/118/117 274/119/107
f 346/120/118 308/121/119 324/122/110
f 68/123/120 44/124/121 21/125/122
f 257/126/123 231/127/124 208/128/125
f 352/129/126 329/130/127 303/131/128
f 21/125/122 376/132/129 352/129/126
f 116/133/130 139/134/131 115/135/132
f 233/136/133 258/137/134 232/138/135
f 139/134/131 162/139/136 123/140/137
f 258/137/134 280/141/138 239/142/139
f 27/143/140 26/144/113 62/145/112 49/146/141
f 49/147/141 62/148/112 85/149/142 73/150/143
f 73/150/143 85/149/142 108/151/99 96/152/144
f 96/152/144 108/151/99 119/153/114 120/154/145
f 142/155/146 120/154/145 119/153/114 155/156/101
f 142/147/146 155/148/101 166/149/115 167/150/147
f 167/150/147 166/149/115 202/151/104 189/152/148
f 214/157/149 189/152/148 202/151/104 213/153/116
f 214/157/149 213/153/116 251/158/108 236/155/150
f 236/159/150 251/158/108 261/153/117 262/160/151
f 262/160/151 261/153/117 297/161/111 284/162/152
f 309/143/153 284/162/152 297/161/111 308/149/119
f 334/146/154 309/143/153 308/149/119 346/148/118
f 357/163/155 334/164/154 346/156/118 370/165/156
f 357/163/155 370/165/156 3/161/157 4/162/158
f 29/166/159 6/167/160 5/168/160 28/169/159
f 29/166/159 28/169/159 50/170/161 51/171/161
f 51/172/161 50/173/161 74/174/162 75/175/162
f 98/176/163 75/175/162 74/174/162 97/177/163
f 122/178/164 98/176/163 97/177/163 121/179/164
f 144/180/165 122/178/164 121/179/164 143/181/165
f 169/175/166 144/172/165 143/173/165 168/174/166
f 169/175/166 168/174/166 190/177/167 191/176/167
f 216/182/168 191/176/167 190/177/167 215/183/168
f 238/180/169 216/182/168 215/183/168 237/181/169
f 238/184/169 237/185/169 263/186/170 264/187/170
f 286/167/171 264/187/170 263/186/170 285/168/171
f 311/166/172 286/167/171 285/168/171 310/169/172
f 336/171/173 311/166/172 310/169/172 335/170/173
f 336/184/173 335/185/173 358/186/174 359/187/174
f 6/167/160 359/187/174 358/186/174 5/168/160
f 99/188/175 22/189/176 45/190/177 30/191/178
f 30/191/178 45/190/177 69/192/179 52/193/180
f 76/194/181 52/195/180 69/196/179 92/197/182
f 76/194/181 92/197/182 115/198/132 217/199/183
f 217/199/183 115/198/132 123/200/137 124/201/184
f 124/201/184 123/200/137 162/202/136 145/203/185
f 145/195/185 162/204/136 185/197/186 170/194/187
f 170/194/187 185/197/186 209/198/188 192/199/189
f 313/205/190 192/199/189 209/198/188 232/200/135
f 313/205/190 232/200/135 239/202/139 240/203/191
f 240/206/191 239/207/139 280/208/138 265/209/192
f 265/209/192 280/208/138 304/189/193 287/210/194
f 312/191/195 287/210/194 304/189/193 330/190/196
f 312/191/195 330/190/196 353/211/197 337/212/198
f 360/213/199 337/206/198 353/214/197 377/215/200
f 360/213/199 377/215/200 22/189/176 99/188/175
f 31/3/3 7/17/17 8/16/16 54/1/1
f 30/216/178 52/217/201 99/218/175
f 52/217/201 76/219/201 99/218/175
f 76/219/201 217/220/183 99/218/175
f 124/221/184 145/222/201 217/220/183
f 145/222/201 170/223/201 217/220/183
f 170/223/201 192/224/201 217/220/183
f 192/224/201 313/225/190 217/220/183
f 240/226/191 265/227/201 313/225/190
f 265/227/201 287/228/201 313/225/190
f 287/228/201 312/229/201 313/225/190
f 312/229/201 337/230/201 313/225/190
f 337/230/201 360/231/201 313/225/190
f 360/231/201 99/218/175 313/225/190
f 77/232/202 53/2/2 54/1/1 78/233/203
f 100/6/6 77/232/202 78/233/203 126/4/4
f 146/234/204 125/5/5 126/4/4 147/235/205
f 171/9/9 146/234/204 147/235/205 194/7/7
f 218/12/12 193/8/8 194/7/7 242/10/10
f 266/236/206 241/11/11 242/10/10 267/237/63
f 288/15/15 266/236/206 267/237/63 315/13/13
f 338/238/207 314/14/14 315/13/13 339/239/208
f 361/18/18 338/238/207 339/239/208 8/16/16
f 363/240/64 9/45/41 32/21/21 57/20/20
f 57/20/20 55/19/19 79/47/45 102/36/36
f 128/23/23 102/36/36 79/47/45 101/24/24
f 128/23/23 127/22/22 148/27/27 174/26/26
f 196/241/209 174/26/26 172/25/25 195/48/51
f 196/241/209 195/48/51 219/30/30 244/29/29
f 244/29/29 243/28/28 268/33/33 291/32/32
f 317/242/210 291/32/32 289/31/31 316/49/57
f 364/243/211 317/242/210 316/49/57 340/50/59
f 363/240/64 364/243/211 362/51/61 9/45/41
f 340/50/59 362/51/61 364/243/211
f 173/244/212 174/245/26 196/246/209 220/55/39
f 363/60/64 57/245/20 33/54/35
f 128/23/23 174/26/26 149/247/37
f 174/26/26 173/248/212 149/247/37
f 290/43/40 291/42/32 317/245/210 341/249/213
f 196/246/209 244/250/29 220/55/39
f 78/251/203 54/53/1 56/52/34 102/39/36
f 317/242/210 364/243/211 341/252/213
f 364/243/211 363/253/64 341/252/213
f 9/45/41 1/46/62 24/46/42
f 32/21/21 24/46/42 47/46/43
f 55/19/19 47/46/43 71/46/44
f 79/47/45 71/46/44 94/46/46
f 101/24/24 94/46/46 117/46/47
f 127/22/22 117/46/47 140/46/48
f 148/27/27 140/46/48 164/46/49
f 172/25/25 164/46/49 187/46/50
f 195/48/51 187/46/50 211/46/52
f 219/30/30 211/46/52 234/46/53
f 243/28/28 234/46/53 259/46/54
f 268/33/33 259/46/54 282/46/55
f 289/31/31 282/46/55 306/46/56
f 316/49/57 306/46/56 332/46/58
f 340/50/59 332/46/58 355/46/60
f 362/51/61 355/46/60 1/46/62
f 33/54/35 54/53/1 8/59/16
f 147/254/205 149/52/37 173/244/212 194/57/7
f 102/39/36 126/255/4 78/251/203
f 102/39/36 149/38/37 126/255/4
f 149/38/37 147/256/205 126/255/4
f 267/58/63 269/44/38 290/43/40 315/257/13
f 173/244/212 220/55/39 194/57/7
f 220/55/39 269/44/38 242/56/10
f 339/256/208 341/258/213 363/60/64 8/59/16
f 290/43/40 341/249/213 315/257/13
f 341/249/213 339/254/208 315/257/13
f 245/66/70 197/63/67 198/259/214 221/260/215
f 175/62/66 198/259/214 197/63/67
f 31/3/3 34/261/216 10/262/217 7/17/17
f 221/260/215 246/64/68 245/66/70
f 270/65/69 292/263/218 318/89/91
f 292/263/218 319/264/219 318/89/91
f 318/89/91 319/264/219 342/265/220
f 58/266/221 34/261/216 31/3/3 53/2/2
f 77/232/202 80/267/222 58/266/221 53/2/2
f 103/268/223 80/267/222 77/232/202 100/6/6
f 125/5/5 129/269/224 103/268/223 100/6/6
f 150/61/65 129/269/224 125/5/5 146/234/204
f 171/9/9 175/62/66 150/61/65 146/234/204
f 193/8/8 198/259/214 175/62/66 171/9/9
f 221/260/215 198/259/214 193/8/8 218/12/12
f 246/64/68 221/260/215 218/12/12 241/11/11
f 270/65/69 246/64/68 241/11/11 266/236/206
f 288/15/15 292/263/218 270/65/69 266/236/206
f 314/14/14 319/264/219 292/263/218 288/15/15
f 342/265/220 319/264/219 314/14/14 338/238/207
f 361/18/18 365/270/225 342/265/220 338/238/207
f 7/17/17 10/262/217 365/270/225 361/18/18
f 35/72/226 11/69/227 13/67/228 37/70/229
f 59/271/230 35/72/226 37/70/229 60/272/84
f 81/72/231 59/271/230 60/272/84 83/70/232
f 104/69/73 81/72/231 83/70/232 106/67/71
f 176/72/76 151/271/233 153/272/234 177/70/74
f 130/68/72 153/73/234 151/75/233
f 249/73/77 247/273/79 222/274/235 224/275/236
f 199/71/75 224/275/236 222/274/235
f 320/78/82 293/69/237 295/67/238 322/76/80
f 271/74/78 295/67/238 293/69/237
f 11/69/227 366/274/239 368/275/240 13/67/228
f 343/276/81 368/275/240 366/274/239
f 37/81/85 13/277/241 12/278/242 36/79/83
f 105/279/243 106/280/71 83/281/232 82/282/244
f 60/80/84 82/282/244 83/281/232
f 130/283/72 106/280/71 105/279/243 131/284/245
f 153/84/87 130/283/72 131/284/245 152/82/86
f 224/285/246 199/86/75 200/85/88 223/88/90
f 249/286/77 224/285/246 223/88/90 248/87/89
f 272/287/247 271/288/78 249/286/77 248/87/89
f 295/289/248 271/288/78 272/287/247 294/91/93
f 321/90/92 322/290/80 295/289/248 294/91/93
f 344/291/249 343/292/81 322/290/80 321/90/92
f 368/293/250 343/292/81 344/291/249 367/294/251
f 12/278/242 13/277/241 368/293/250 367/294/251
f 25/295/252 2/296/253 11/69/227 35/72/226
f 48/297/254 25/295/252 35/72/226 59/271/230
f 72/295/255 48/298/254 59/271/230 81/72/231
f 95/296/256 72/295/255 81/72/231 104/69/73
f 118/299/257 95/296/256 104/69/73 130/68/72
f 118/299/257 130/68/72 151/75/233 141/300/258
f 141/298/258 151/271/233 176/72/76 165/295/259
f 188/296/260 165/295/259 176/72/76 199/71/75
f 188/296/260 199/71/75 222/274/235 212/301/261
f 212/301/261 222/274/235 247/273/79 235/302/262
f 260/301/263 235/300/262 247/75/79 271/74/78
f 260/301/263 271/74/78 293/69/237 283/303/264
f 283/303/264 293/69/237 320/78/82 307/304/265
f 333/298/266 307/304/265 320/78/82 343/77/81
f 333/300/266 343/276/81 366/274/239 356/299/267
f 356/299/267 366/274/239 11/69/227 2/296/253
f 36/79/83 12/278/242 10/262/217 34/261/216
f 58/266/221 60/80/84 36/79/83 34/261/216
f 82/282/244 60/80/84 58/266/221 80/267/222
f 105/279/243 82/282/244 80/267/222 103/268/223
f 129/269/224 131/284/245 105/279/243 103/268/223
f 152/82/86 131/284/245 129/269/224 150/61/65
f 197/63/67 177/83/74 152/82/86 150/61/65
f 223/88/90 200/85/88 197/63/67 245/66/70
f 272/287/247 248/87/89 245/66/70 270/65/69
f 294/91/93 272/287/247 270/65/69 318/89/91
f 344/291/249 321/90/92 318/89/91 342/265/220
f 367/294/251 344/291/249 342/265/220 365/270/225
f 12/278/242 367/294/251 365/270/225 10/262/217
f 39/92/94 16/94/96 14/305/268 38/306/269
f 63/307/270 39/92/94 38/306/269 61/308/271
f 86/309/272 63/100/270 61/308/271 84/310/273
f 109/95/97 86/309/272 84/310/273 107/311/274
f 133/96/98 109/95/97 107/311/274 132/312/275
f 133/96/98 132/312/275 154/313/276 156/314/102
f 156/100/102 154/308/276 178/306/277 179/98/100
f 179/98/100 178/306/277 201/311/278 203/95/105
f 203/95/105 201/311/278 225/312/279 226/101/103
f 252/102/106 226/101/103 225/312/279 250/315/280
f 252/102/106 250/315/280 273/312/281 274/103/107
f 274/103/107 273/312/281 296/305/282 298/94/109
f 324/98/110 298/94/109 296/305/282 323/306/283
f 347/307/284 324/98/110 323/306/283 345/308/285
f 347/314/284 345/315/285 369/316/286 371/317/287
f 16/94/96 371/317/287 369/316/286 14/305/268
f 62/99/112 63/100/270 86/309/272 85/318/142
f 63/307/270 62/319/112 39/92/94
f 108/97/99 85/318/142 86/309/272 109/95/97
f 370/320/156 346/104/118 347/314/284 371/317/287
f 156/314/102 155/321/101 133/96/98
f 203/95/105 202/97/104 179/98/100
f 252/102/106 251/104/108 226/101/103
f 298/94/109 297/93/111 274/103/107
f 347/307/284 346/99/118 324/98/110
f 15/93/95 370/320/156 371/317/287 16/94/96
f 38/306/269 14/305/268 2/296/253 25/295/252
f 61/308/271 38/306/269 25/295/252 48/297/254
f 84/310/273 61/308/271 48/298/254 72/295/255
f 107/311/274 84/310/273 72/295/255 95/296/256
f 132/312/275 107/311/274 95/296/256 118/299/257
f 154/313/276 132/312/275 118/299/257 141/300/258
f 178/306/277 154/308/276 141/298/258 165/295/259
f 201/311/278 178/306/277 165/295/259 188/296/260
f 225/312/279 201/311/278 188/296/260 212/301/261
f 250/315/280 225/312/279 212/301/261 235/302/262
f 273/312/281 250/315/280 235/300/262 260/301/263
f 296/305/282 273/312/281 260/301/263 283/303/264
f 323/306/283 296/305/282 283/303/264 307/304/265
f 345/308/285 323/306/283 307/304/265 333/298/266
f 369/316/286 345/315/285 333/300/266 356/299/267
f 14/305/268 369/316/286 356/299/267 2/296/253
f 26/106/113 3/322/157 15/323/95 39/107/94
f 40/324/288 17/325/289 4/162/290 27/143/291
f 108/326/99 133/110/98 119/109/114
f 155/108/101 179/113/100 166/112/115
f 4/162/158 3/161/157 26/144/113 27/143/140
f 202/111/104 226/116/103 213/115/116
f 251/114/108 274/119/107 261/118/117
f 297/117/111 324/122/110 308/121/119
f 370/327/156 15/323/95 3/322/157
f 64/328/292 40/324/288 27/143/291 49/146/293
f 73/150/294 87/329/295 64/328/292 49/147/293
f 110/330/296 87/329/295 73/150/294 96/152/297
f 120/154/298 134/331/299 110/330/296 96/152/297
f 157/332/300 134/331/299 120/154/298 142/155/301
f 167/150/302 180/333/303 157/334/300 142/147/301
f 204/335/304 180/333/303 167/150/302 189/152/305
f 227/336/306 204/335/304 189/152/305 214/157/307
f 236/155/308 253/337/309 227/336/306 214/157/307
f 275/338/310 253/337/309 236/159/308 262/160/311
f 284/162/312 299/339/313 275/338/310 262/160/311
f 325/340/314 299/339/313 284/162/312 309/143/315
f 334/146/316 348/341/317 325/340/314 309/143/315
f 357/163/318 372/342/319 348/343/317 334/164/316
f 17/325/289 372/342/319 357/163/318 4/162/290
f 41/344/320 18/345/321 17/325/289 40/324/288
f 65/346/322 41/344/320 40/324/288 64/328/292
f 88/347/323 65/346/322 64/328/292 87/329/295
f 111/348/324 88/347/323 87/329/295 110/330/296
f 135/349/325 111/348/324 110/330/296 134/331/299
f 158/350/326 135/349/325 134/331/299 157/332/300
f 181/351/327 158/352/326 157/334/300 180/333/303
f 205/348/328 181/351/327 180/333/303 204/335/304
f 228/353/329 205/348/328 204/335/304 227/336/306
f 254/354/330 228/353/329 227/336/306 253/337/309
f 276/355/331 254/354/330 253/337/309 275/338/310
f 300/356/332 276/355/331 275/338/310 299/339/313
f 326/357/333 300/356/332 299/339/313 325/340/314
f 349/358/334 326/357/333 325/340/314 348/341/317
f 373/359/335 349/360/334 348/343/317 372/342/319
f 18/345/321 373/359/335 372/342/319 17/325/289
f 42/361/336 19/362/337 20/363/338 43/364/339
f 66/365/340 42/361/336 43/364/339 67/366/341
f 89/367/342 66/365/340 67/366/341 90/368/343
f 112/369/344 89/367/342 90/368/343 113/370/345
f 136/371/346 112/369/344 113/370/345 137/372/347
f 159/373/348 136/371/346 137/372/347 160/374/349
f 182/375/350 159/373/348 160/374/349 183/376/351
f 206/377/352 182/375/350 183/376/351 207/378/353
f 229/379/354 206/377/352 207/378/353 230/380/355
f 255/381/356 229/379/354 230/380/355 256/382/357
f 277/383/358 255/381/356 256/382/357 278/384/359
f 301/385/360 277/383/358 278/384/359 302/386/361
f 327/387/362 301/385/360 302/386/361 328/388/363
f 350/389/364 327/387/362 328/388/363 351/390/365
f 374/391/366 350/389/364 351/390/365 375/392/367
f 19/362/337 374/391/366 375/392/367 20/363/338
f 28/393/368 5/394/369 19/362/337 42/361/336
f 50/395/370 28/393/368 42/361/336 66/365/340
f 74/396/371 50/395/370 66/365/340 89/367/342
f 97/397/372 74/396/371 89/367/342 112/369/344
f 121/398/373 97/397/372 112/369/344 136/371/346
f 143/399/374 121/398/373 136/371/346 159/373/348
f 168/400/375 143/399/374 159/373/348 182/375/350
f 190/401/376 168/400/375 182/375/350 206/377/352
f 215/402/377 190/401/376 206/377/352 229/379/354
f 237/403/378 215/402/377 229/379/354 255/381/356
f 263/404/379 237/403/378 255/381/356 277/383/358
f 285/405/380 263/404/379 277/383/358 301/385/360
f 310/406/381 285/405/380 301/385/360 327/387/362
f 335/407/382 310/406/381 327/387/362 350/389/364
f 358/408/383 335/407/382 350/389/364 374/391/366
f 5/394/369 358/408/383 374/391/366 19/362/337
f 43/409/339 20/410/338 18/345/321 41/344/320
f 67/411/341 43/409/339 41/344/320 65/346/322
f 90/412/343 67/411/341 65/346/322 88/347/323
f 113/413/345 90/412/343 88/347/323 111/348/324
f 137/414/347 113/413/345 111/348/324 135/349/325
f 160/415/349 137/414/347 135/349/325 158/350/326
f 183/412/351 160/411/349 158/352/326 181/351/327
f 207/413/353 183/412/351 181/351/327 205/348/328
f 230/414/355 207/413/353 205/348/328 228/353/329
f 256/416/357 230/414/355 228/353/329 254/417/330
f 278/418/359 256/416/357 254/417/330 276/355/331
f 302/410/361 278/418/359 276/355/331 300/356/332
f 328/409/363 302/410/361 300/356/332 326/357/333
f 351/419/365 328/409/363 326/357/333 349/358/334
f 375/420/367 351/421/365 349/360/334 373/359/335
f 20/410/338 375/420/367 373/359/335 18/345/321
f 91/422/384 68/123/120 138/423/385 114/424/386
f 51/425/387 68/123/120 21/125/122 29/426/388
f 21/125/122 6/427/389 29/426/388
f 98/428/390 138/423/385 68/123/120 75/429/391
f 68/123/120 51/425/387 75/429/391
f 144/430/392 161/431/393 138/423/385 122/432/394
f 138/423/385 98/428/390 122/432/394
f 169/433/395 184/434/396 161/431/393 144/430/392
f 191/435/397 208/128/125 184/434/396 169/433/395
f 238/436/398 257/126/123 208/128/125 216/437/399
f 208/128/125 191/435/397 216/437/399
f 264/438/400 279/439/401 257/126/123 238/436/398
f 286/440/402 303/131/128 279/439/401 264/438/400
f 336/441/403 352/129/126 303/131/128 311/442/404
f 303/131/128 286/440/402 311/442/404
f 6/427/389 21/125/122 352/129/126 359/443/405
f 352/129/126 336/441/403 359/443/405
f 45/444/177 22/445/176 23/446/406 46/447/407
f 69/448/179 45/444/177 46/447/407 70/449/408
f 92/450/182 69/448/179 70/449/408 93/451/409
f 115/135/132 92/450/182 93/451/409 116/133/130
f 185/452/186 162/139/136 163/453/410 186/454/411
f 139/134/131 163/453/410 162/139/136
f 209/455/188 185/452/186 186/454/411 210/456/412
f 232/138/135 209/455/188 210/456/412 233/136/133
f 304/457/193 280/141/138 281/458/413 305/459/414
f 258/137/134 281/458/413 280/141/138
f 330/460/196 304/457/193 305/459/414 331/461/415
f 353/462/197 330/460/196 331/461/415 354/463/416
f 377/464/200 353/462/197 354/463/416 378/465/417
f 22/445/176 377/464/200 378/465/417 23/446/406
f 46/466/407 23/467/406 21/468/122 44/469/121
f 115/135/132 139/134/131 123/140/137
f 232/138/135 258/137/134 239/142/139
f 70/470/408 46/466/407 44/469/121 68/471/120
f 93/472/409 70/470/408 68/471/120 91/473/384
f 116/474/130 93/472/409 91/473/384 114/475/386
f 139/476/131 116/474/130 114/475/386 138/477/385
f 161/478/393 163/479/410 139/476/131 138/477/385
f 186/480/411 163/481/410 161/482/393 184/483/396
f 210/474/412 186/480/411 184/483/396 208/475/125
f 233/484/133 210/474/412 208/475/125 231/485/124
f 258/486/134 233/484/133 231/485/124 257/487/123
f 279/488/401 281/489/413 258/486/134 257/487/123
f 305/467/414 281/489/413 279/488/401 303/468/128
f 331/490/415 305/467/414 303/468/128 329/491/127
f 354/470/416 331/490/415 329/491/127 352/492/126
f 378/493/417 354/494/416 352/495/126 376/496/129
f 23/467/406 378/493/417 376/496/129 21/468/122
f 99/218/175 217/220/183 313/225/190
