# Blender 4.4.0
# www.blender.org
mtllib Parede.mtl
o Cube
v -4.417871 0.199881 4.403600
v -4.135763 3.332655 -0.776970
v -4.417871 13.139366 4.403600
v -4.417871 0.199881 -6.680469
v -4.135763 2.961363 -0.742280
v -4.417871 13.139366 -6.680469
v -2.417871 0.199881 4.403600
v -4.135763 2.604340 -0.639544
v -2.417871 13.139366 4.403600
v -2.417871 0.199881 -6.680469
v -4.135763 2.275306 -0.472708
v -2.417871 13.139366 -6.680469
v -4.135763 1.986904 -0.248186
v -4.135763 1.750220 0.025396
v -4.135763 1.574347 0.337522
v -4.135763 1.466045 0.676200
v -4.135763 1.429476 1.028412
v -4.135763 1.466045 1.380625
v -4.135763 1.574347 1.719302
v -4.135763 1.750220 2.031429
v -4.135763 1.986904 2.305010
v -4.135763 2.275306 2.529533
v -4.135763 2.604340 2.696368
v -4.135763 2.961363 2.799105
v -4.135763 3.332655 2.833795
v -4.135763 3.703947 2.799105
v -4.135763 4.060970 2.696368
v -4.135763 4.390005 2.529533
v -4.135763 4.678406 2.305010
v -4.135763 4.915091 2.031429
v -4.135763 5.090963 1.719302
v -4.135763 5.199265 1.380625
v -4.135763 5.235834 1.028412
v -4.135763 5.199265 0.676200
v -4.135763 5.090963 0.337522
v -4.135763 4.915091 0.025396
v -4.135763 4.678406 -0.248186
v -4.135763 4.390005 -0.472708
v -4.135763 4.060970 -0.639544
v -4.135763 3.703947 -0.742280
v -2.417871 3.332655 -0.776970
v -2.417871 4.060970 -0.639544
v -2.417871 3.703947 -0.742280
v -2.417871 4.915091 0.025396
v -2.417871 4.678406 -0.248186
v -2.417871 4.390005 -0.472708
v -2.417871 3.332655 2.833795
v -2.417871 2.961363 2.799105
v -2.417871 3.703947 2.799105
v -2.417871 2.604340 2.696368
v -2.417871 2.275306 2.529533
v -2.417871 4.060970 2.696368
v -2.417871 4.390005 2.529533
v -2.417871 4.678406 2.305010
v -2.417871 1.986904 2.305010
v -2.417871 4.915091 2.031429
v -2.417871 1.750220 2.031429
v -2.417871 5.090963 1.719302
v -2.417871 1.574347 1.719302
v -2.417871 1.466045 1.380625
v -2.417871 5.199265 1.380625
v -2.417871 1.429476 1.028412
v -2.417871 5.235834 1.028412
v -2.417871 1.466045 0.676200
v -2.417871 1.574347 0.337522
v -2.417871 5.199265 0.676200
v -2.417871 5.090963 0.337522
v -2.417871 1.750220 0.025396
v -2.417871 1.986904 -0.248186
v -2.417871 2.961363 -0.742280
v -2.417871 2.275306 -0.472708
v -2.417871 2.604340 -0.639544
vn -1.0000 -0.0000 -0.0000
vn -0.0000 -0.0000 -1.0000
vn 1.0000 -0.0000 -0.0000
vn -0.0000 -0.0000 1.0000
vn -0.0000 -1.0000 -0.0000
vn -0.0000 1.0000 -0.0000
vn -0.0000 0.1579 0.9875
vn -0.0000 0.3475 0.9377
vn -0.0000 0.5241 0.8516
vn -0.0000 0.6815 0.7319
vn -0.0000 0.8138 0.5811
vn -0.0000 0.9148 0.4039
vn -0.0000 0.9783 0.2072
vn -0.0000 0.9783 -0.2072
vn -0.0000 0.9148 -0.4039
vn -0.0000 0.8138 -0.5811
vn -0.0000 0.6815 -0.7319
vn -0.0000 0.5241 -0.8517
vn -0.0000 0.3475 -0.9377
vn -0.0000 0.1579 -0.9875
vn -0.0000 -0.1579 -0.9875
vn -0.0000 -0.3475 -0.9377
vn -0.0000 -0.5241 -0.8517
vn -0.0000 -0.6815 -0.7319
vn -0.0000 -0.8138 -0.5811
vn -0.0000 -0.9148 -0.4039
vn -0.0000 -0.9783 -0.2072
vn -0.0000 -0.9783 0.2072
vn -0.0000 -0.9148 0.4039
vn -0.0000 -0.8138 0.5811
vn -0.0000 -0.6815 0.7319
vn -0.0000 -0.5241 0.8517
vn -0.0000 -0.3475 0.9377
vn -0.0000 -0.1579 0.9875
vt 0.375000 0.000000
vt 0.625000 0.000000
vt 0.625000 0.250000
vt 0.375000 0.250000
vt 0.625000 0.500000
vt 0.375000 0.500000
vt 0.435527 0.557199
vt 0.625000 0.750000
vt 0.375000 0.750000
vt 0.435527 0.691578
vt 0.442701 0.690287
vt 0.449599 0.686463
vt 0.455956 0.680255
vt 0.461528 0.671899
vt 0.466101 0.661717
vt 0.469499 0.650101
vt 0.471592 0.637497
vt 0.472298 0.624389
vt 0.471592 0.611281
vt 0.469499 0.598676
vt 0.466101 0.587060
vt 0.461528 0.576879
vt 0.455956 0.568523
vt 0.449599 0.562314
vt 0.442701 0.558491
vt 0.428354 0.558491
vt 0.421456 0.562314
vt 0.415099 0.568523
vt 0.409527 0.576879
vt 0.404954 0.587060
vt 0.401556 0.598676
vt 0.399463 0.611281
vt 0.398757 0.624389
vt 0.399463 0.637497
vt 0.401556 0.650101
vt 0.404954 0.661717
vt 0.409527 0.671899
vt 0.415099 0.680255
vt 0.421456 0.686463
vt 0.428354 0.690287
vt 0.625000 1.000000
vt 0.375000 1.000000
vt 0.125000 0.500000
vt 0.125000 0.750000
vt 0.875000 0.500000
vt 0.875000 0.750000
vt 1.000000 0.500000
vt 0.968750 0.500000
vt 0.968750 0.758543
vt 1.000000 0.758543
vt 0.937500 0.500000
vt 0.937500 0.758543
vt 0.906250 0.500000
vt 0.906250 0.758543
vt 0.875000 0.758543
vt 0.843750 0.500000
vt 0.843750 0.758543
vt 0.812500 0.500000
vt 0.812500 0.758543
vt 0.781250 0.500000
vt 0.781250 0.758543
vt 0.750000 0.500000
vt 0.750000 0.758543
vt 0.718750 0.500000
vt 0.718750 0.758543
vt 0.687500 0.500000
vt 0.687500 0.758543
vt 0.656250 0.500000
vt 0.656250 0.758543
vt 0.625000 0.758543
vt 0.593750 0.500000
vt 0.593750 0.758543
vt 0.562500 0.500000
vt 0.562500 0.758543
vt 0.531250 0.500000
vt 0.531250 0.758543
vt 0.500000 0.500000
vt 0.500000 0.758543
vt 0.468750 0.500000
vt 0.468750 0.758543
vt 0.437500 0.500000
vt 0.437500 0.758543
vt 0.406250 0.500000
vt 0.406250 0.758543
vt 0.375000 0.758543
vt 0.343750 0.500000
vt 0.343750 0.758543
vt 0.312500 0.500000
vt 0.312500 0.758543
vt 0.281250 0.500000
vt 0.281250 0.758543
vt 0.250000 0.500000
vt 0.250000 0.758543
vt 0.218750 0.500000
vt 0.218750 0.758543
vt 0.187500 0.500000
vt 0.187500 0.758543
vt 0.156250 0.500000
vt 0.156250 0.758543
vt 0.125000 0.758543
vt 0.093750 0.500000
vt 0.093750 0.758543
vt 0.062500 0.500000
vt 0.062500 0.758543
vt 0.031250 0.500000
vt 0.031250 0.758543
vt 0.000000 0.500000
vt 0.000000 0.758543
vt 0.796822 0.014612
vt 0.841844 0.028269
vt 0.883337 0.050447
vt 0.919706 0.080294
vt 0.949553 0.116663
vt 0.971731 0.158156
vt 0.985388 0.203178
vt 0.990000 0.250000
vt 0.985388 0.296822
vt 0.971731 0.341844
vt 0.949553 0.383337
vt 0.919706 0.419706
vt 0.883337 0.449553
vt 0.841844 0.471731
vt 0.703178 0.485388
vt 0.750000 0.490000
vt 0.750000 0.010000
s 0
usemtl Material
f 1/1/1 3/2/1 6/3/1 4/4/1
f 4/4/2 6/3/2 12/5/2 10/6/2
f 41/7/3 10/6/3 12/5/3 9/8/3 7/9/3 47/10/3 49/11/3 52/12/3 53/13/3 54/14/3 56/15/3 58/16/3 61/17/3 63/18/3 66/19/3 67/20/3 44/21/3 45/22/3 46/23/3 42/24/3 43/25/3
f 47/10/3 7/9/3 10/6/3 41/7/3 70/26/3 72/27/3 71/28/3 69/29/3 68/30/3 65/31/3 64/32/3 62/33/3 60/34/3 59/35/3 57/36/3 55/37/3 51/38/3 50/39/3 48/40/3
f 7/9/4 9/8/4 3/41/4 1/42/4
f 4/43/5 10/6/5 7/9/5 1/44/5
f 12/5/6 6/45/6 3/46/6 9/8/6
s 1
f 2/47/4 5/48/7 70/49/7 41/50/4
f 5/48/7 8/51/8 72/52/8 70/49/7
f 8/51/8 11/53/9 71/54/9 72/52/8
f 11/53/9 13/45/10 69/55/10 71/54/9
f 13/45/10 14/56/11 68/57/11 69/55/10
f 14/56/11 15/58/12 65/59/12 68/57/11
f 15/58/12 16/60/13 64/61/13 65/59/12
f 16/60/13 17/62/6 62/63/6 64/61/13
f 17/62/6 18/64/14 60/65/14 62/63/6
f 18/64/14 19/66/15 59/67/15 60/65/14
f 19/66/15 20/68/16 57/69/16 59/67/15
f 20/68/16 21/5/17 55/70/17 57/69/16
f 21/5/17 22/71/18 51/72/18 55/70/17
f 22/71/18 23/73/19 50/74/19 51/72/18
f 23/73/19 24/75/20 48/76/20 50/74/19
f 24/75/20 25/77/2 47/78/2 48/76/20
f 25/77/2 26/79/21 49/80/21 47/78/2
f 26/79/21 27/81/22 52/82/22 49/80/21
f 27/81/22 28/83/23 53/84/23 52/82/22
f 28/83/23 29/6/24 54/85/24 53/84/23
f 29/6/24 30/86/25 56/87/25 54/85/24
f 30/86/25 31/88/26 58/89/26 56/87/25
f 31/88/26 32/90/27 61/91/27 58/89/26
f 32/90/27 33/92/5 63/93/5 61/91/27
f 33/92/5 34/94/28 66/95/28 63/93/5
f 34/94/28 35/96/29 67/97/29 66/95/28
f 35/96/29 36/98/30 44/99/30 67/97/29
f 36/98/30 37/43/31 45/100/31 44/99/30
f 37/43/31 38/101/32 46/102/32 45/100/31
f 38/101/32 39/103/33 42/104/33 46/102/32
f 39/103/33 40/105/34 43/106/34 42/104/33
f 40/105/34 2/107/4 41/108/4 43/106/34
f 24/109/3 23/110/3 22/111/3 21/112/3 20/113/3 19/114/3 18/115/3 17/116/3 16/117/3 15/118/3 14/119/3 13/120/3 11/121/3 8/122/3 5/123/3 2/124/3 40/123/3 39/122/3 38/121/3 37/120/3 36/119/3 35/118/3 34/117/3 33/116/3 32/115/3 31/114/3 30/113/3 29/112/3 28/111/3 27/110/3 26/109/3 25/125/3
