# This file uses meters as units for non-parametric coordinates.

mtllib parede03.mtl
g default
v -350.000000 -150.000000 25.000000
v 350.000000 -150.000000 25.000000
v -350.000000 150.000000 25.000000
v 350.000000 150.000000 25.000000
v -350.000000 150.000000 -25.000000
v 350.000000 150.000000 -25.000000
v -350.000000 -150.000000 -25.000000
v 350.000000 -150.000000 -25.000000
vt 0.555381 0.089054
vt 0.976180 0.564121
vt 0.026278 0.356731
vt 0.953955 0.156232
vt 0.021977 0.567155
vt 0.975626 0.430440
vt 0.041149 0.359402
vt 0.978023 0.959274
vt 0.040255 0.427238
vt 0.989958 0.439751
vt 0.546045 0.093768
vt 0.953060 0.088397
vt 0.555979 0.156894
vt 0.963019 0.153304
vt 0.971645 0.552273
vt 0.990852 0.371915
vt 0.025859 0.424571
vt 0.028355 0.974156
vt 0.546940 0.161603
vt 0.973606 0.971172
vt 0.976045 0.362600
vt 0.026394 0.558115
vt 0.023820 0.965166
vt 0.962420 0.085464
vn 0.000000 0.000000 1.000000
vn 0.000000 0.000000 1.000000
vn 0.000000 0.000000 1.000000
vn 0.000000 0.000000 1.000000
vn 0.000000 1.000000 0.000000
vn 0.000000 1.000000 0.000000
vn 0.000000 1.000000 0.000000
vn 0.000000 1.000000 0.000000
vn 0.000000 0.000000 -1.000000
vn 0.000000 0.000000 -1.000000
vn 0.000000 0.000000 -1.000000
vn 0.000000 0.000000 -1.000000
vn 0.000000 -1.000000 0.000000
vn 0.000000 -1.000000 0.000000
vn 0.000000 -1.000000 0.000000
vn 0.000000 -1.000000 0.000000
vn 1.000000 0.000000 0.000000
vn 1.000000 0.000000 0.000000
vn 1.000000 0.000000 0.000000
vn 1.000000 0.000000 0.000000
vn -1.000000 0.000000 0.000000
vn -1.000000 0.000000 0.000000
vn -1.000000 0.000000 0.000000
vn -1.000000 0.000000 0.000000
s off
g pCube1
usemtl initialShadingGroup
f 1/22/1 2/2/2 4/20/3 3/23/4
f 3/3/5 4/21/6 6/6/7 5/17/8
f 5/5/9 6/15/10 8/8/11 7/18/12
f 7/7/13 8/16/14 2/10/15 1/9/16
f 2/19/17 8/11/18 6/12/19 4/4/20
f 7/13/21 1/1/22 3/24/23 5/14/24
