# This file uses centimeters as units for non-parametric coordinates.

mtllib parede04.mtl
g default
v -7.500000 -3.000000 0.250000
v 7.500000 -3.000000 0.250000
v -7.500000 3.000000 0.250000
v 7.500000 3.000000 0.250000
v -7.500000 3.000000 -0.250000
v 7.500000 3.000000 -0.250000
v -7.500000 -3.000000 -0.250000
v 7.500000 -3.000000 -0.250000
vt 0.062718 0.406640
vt 0.968032 0.568645
vt 0.031214 0.505642
vt 0.937566 0.435766
vt 0.031792 0.571391
vt 0.968786 0.523860
vt 0.028445 0.504973
vt 0.968208 0.948303
vt 0.028974 0.536209
vt 0.966067 0.520342
vt 0.562434 0.407562
vt 0.937313 0.404526
vt 0.062409 0.437879
vt 0.437282 0.441591
vt 0.969017 0.573413
vt 0.965538 0.489106
vt 0.031648 0.536880
vt 0.030983 0.946281
vt 0.562687 0.438801
vt 0.969204 0.943539
vt 0.968352 0.492622
vt 0.030797 0.571573
vt 0.031968 0.946467
vt 0.437591 0.410352
vn 0.000000 0.000000 1.000000
vn 0.000000 0.000000 1.000000
vn 0.000000 0.000000 1.000000
vn 0.000000 0.000000 1.000000
vn 0.000000 1.000000 0.000000
vn 0.000000 1.000000 0.000000
vn 0.000000 1.000000 0.000000
vn 0.000000 1.000000 0.000000
vn 0.000000 0.000000 -1.000000
vn 0.000000 0.000000 -1.000000
vn 0.000000 0.000000 -1.000000
vn 0.000000 0.000000 -1.000000
vn 0.000000 -1.000000 0.000000
vn 0.000000 -1.000000 0.000000
vn 0.000000 -1.000000 0.000000
vn 0.000000 -1.000000 0.000000
vn 1.000000 0.000000 0.000000
vn 1.000000 0.000000 0.000000
vn 1.000000 0.000000 0.000000
vn 1.000000 0.000000 0.000000
vn -1.000000 0.000000 0.000000
vn -1.000000 0.000000 0.000000
vn -1.000000 0.000000 0.000000
vn -1.000000 0.000000 0.000000
s off
g pCube1
usemtl initialShadingGroup
f 1/22/1 2/2/2 4/20/3 3/23/4
f 3/3/5 4/21/6 6/6/7 5/17/8
f 5/5/9 6/15/10 8/8/11 7/18/12
f 7/7/13 8/16/14 2/10/15 1/9/16
f 2/19/17 8/11/18 6/12/19 4/4/20
f 7/13/21 1/1/22 3/24/23 5/14/24
