# Blender 4.4.0
# www.blender.org
mtllib PedredioQuebrado.mtl
o Cube.001
v -4.361987 7.620736 -4.122670
v -4.361987 10.128704 -4.122670
v -1.864265 7.620736 -4.122670
v -1.864265 10.128704 -4.122670
v -4.361987 4.168196 -4.122670
v -4.361987 6.676164 -4.122670
v -1.864265 4.168196 -4.122670
v -1.864265 6.676164 -4.122670
v 1.838496 7.620736 -4.122670
v 1.838496 10.128704 -4.122670
v 4.336219 7.620736 -4.122670
v 4.336219 10.128704 -4.122670
v 1.838496 4.168196 -4.122670
v 1.838496 6.676164 -4.122670
v 4.336219 4.168196 -4.122670
v 4.336219 6.676164 -4.122670
v -1.196664 3.012506 -4.217498
v 0.803336 3.012506 -4.217498
v -4.846009 -0.719868 4.577824
v -4.999122 11.102047 4.747664
v -4.846009 -0.719868 -4.577824
v -4.999122 11.102047 -4.747663
v 4.846009 -0.719868 4.577824
v 4.999122 11.102047 4.747663
v 4.846009 -0.719868 -4.577824
v 4.999122 11.102047 -4.747664
v -1.858262 11.102047 5.131035
v -1.817048 10.950233 5.131034
v -1.827925 10.381431 5.131035
v -1.671737 10.665832 5.131035
v -1.825707 10.097030 5.131035
v -1.746160 9.812629 5.131034
v -1.779200 9.528227 5.131035
v -1.148682 9.084184 5.131035
v -0.772597 9.161206 5.131035
v -1.524768 9.148805 5.131035
v -1.929218 9.222377 5.131035
v 0.731744 9.228490 5.131035
v 0.355659 9.121316 5.131035
v -0.020426 8.986114 5.131035
v -0.396512 9.076036 5.131035
v 5.344736 4.934211 -3.172968
v 5.344736 6.012404 -3.207829
v 5.344736 2.909019 0.409814
v 5.344736 3.277533 0.996587
v 5.344736 3.759962 1.583359
v 5.344736 3.846635 2.170132
v 5.344736 3.049013 2.756905
v 5.344736 3.856018 3.118881
v 5.344736 2.800650 3.331255
v 5.344736 3.856018 -3.334314
v 5.344736 2.763259 -3.118749
v 5.344736 2.124637 -2.524050
v 5.344736 2.214523 -1.937277
v 5.344736 2.249325 -1.350504
v 5.344736 2.819580 -0.763731
v 5.344736 2.931938 -0.176959
v 5.344736 6.012403 3.232580
v 5.344736 4.934211 3.286186
v 5.344736 7.090598 -3.524977
v 5.344736 8.168791 -3.240787
v 5.344736 10.325176 -2.751361
v 5.344736 11.102047 -2.736289
v 5.344736 9.246984 -2.895618
v 5.344736 9.246984 3.354981
v 5.344736 8.168791 3.241482
v 5.344736 7.090597 3.236422
v 5.344736 10.325176 3.239888
v 5.344736 11.102047 2.922614
v -5.344736 3.752836 -2.580203
v -5.344736 3.454494 -2.239836
v -5.344736 3.371655 -1.716222
v -5.344736 3.364161 -1.192608
v -5.344736 3.242362 -0.668994
v -5.344736 3.185092 -0.145379
v -5.344736 3.271729 0.378235
v -5.344736 3.499724 0.901849
v -5.344736 6.302538 3.137135
v -5.344736 4.378258 3.354514
v -5.344736 5.340398 3.244089
v -5.344736 2.929441 3.261166
v -5.344736 6.302538 -2.652983
v -5.344736 5.340398 -2.437008
v -5.344736 4.378258 -2.443164
v -5.344736 3.567485 1.949078
v -5.344736 3.735111 1.425464
v -5.344736 3.089978 2.472692
v -5.344736 9.188956 -2.873246
v -5.344736 8.226817 -2.981914
v -5.344736 7.264678 -2.967323
v -5.344736 11.102047 -2.824955
v -5.344736 10.151097 -2.733285
v -5.344736 11.102047 3.027090
v -5.344736 10.151097 3.345764
v -5.344736 9.188957 3.381572
v -5.344736 8.226817 3.393143
v -5.344736 7.264677 3.250846
v 3.076985 9.608059 5.131035
v 3.116910 9.351799 5.131035
v 2.838358 8.956493 5.131035
v 3.078313 9.013599 5.131034
v 2.957628 9.864319 5.131035
v 2.656539 9.008085 5.131035
v 2.474721 9.140822 5.131035
v 2.292903 9.077527 5.131035
v 2.111085 8.874432 5.131035
v 1.747449 9.000386 5.131035
v 1.929267 8.942000 5.131035
v 1.565630 9.022902 5.131035
v 1.383812 8.973746 5.131035
v 1.201994 9.118848 5.131035
v 1.072334 9.169052 5.131035
v 1.086357 9.291391 5.131034
v 2.910475 10.120579 5.131034
v 2.911393 10.376839 5.131035
v 2.828624 10.633099 5.131035
v 2.793077 10.889358 5.131035
v 2.730693 11.102047 5.131035
v -4.164736 0.000000 3.822124
v -4.164736 11.102047 3.822124
v -4.164736 0.000000 -3.822124
v -4.164736 11.102047 -3.822124
v 4.164736 0.000000 3.822124
v 4.164736 11.102047 3.822124
v 4.164736 0.000000 -3.822124
v 4.164736 11.102047 -3.822124
v -1.858262 11.102047 3.822124
v -1.817048 10.950233 3.822124
v -1.827925 10.381431 3.822124
v -1.671737 10.665832 3.822124
v -1.825707 10.097030 3.822124
v -1.746160 9.812629 3.822124
v -1.779200 9.528227 3.822124
v -1.148682 9.084184 3.822124
v -0.772597 9.161206 3.822124
v -1.524768 9.148805 3.822124
v -1.929218 9.222377 3.822124
v 0.731744 9.228490 3.822124
v 0.355659 9.121316 3.822124
v -0.020426 8.986114 3.822124
v -0.396512 9.076036 3.822124
v 4.164736 4.934211 -3.172967
v 4.164736 6.012404 -3.207829
v 4.164736 2.909019 0.409814
v 4.164736 3.277533 0.996587
v 4.164736 3.759962 1.583360
v 4.164736 3.846635 2.170132
v 4.164736 3.049013 2.756905
v 4.164736 3.856018 3.118881
v 4.164736 2.800650 3.331255
v 4.164736 3.856018 -3.334314
v 4.164736 2.763259 -3.118749
v 4.164736 2.124637 -2.524050
v 4.164736 2.214523 -1.937277
v 4.164736 2.249325 -1.350504
v 4.164736 2.819580 -0.763731
v 4.164736 2.931938 -0.176959
v 4.164736 6.012403 3.232581
v 4.164736 4.934211 3.286187
v 4.164736 7.090598 -3.524977
v 4.164736 8.168791 -3.240787
v 4.164736 10.325176 -2.751360
v 4.164736 11.102047 -2.736289
v 4.164736 9.246984 -2.895618
v 4.164736 9.246984 3.354981
v 4.164736 8.168791 3.241483
v 4.164736 7.090597 3.236423
v 4.164736 10.325176 3.239888
v 4.164736 11.102047 2.922614
v -4.164736 3.752836 -2.580204
v -4.164736 3.454494 -2.239837
v -4.164736 3.371655 -1.716222
v -4.164736 3.364161 -1.192608
v -4.164736 3.242362 -0.668994
v -4.164736 3.185092 -0.145379
v -4.164736 3.271729 0.378235
v -4.164736 3.499724 0.901849
v -4.164736 6.302538 3.137134
v -4.164736 4.378258 3.354514
v -4.164736 5.340398 3.244089
v -4.164736 2.929441 3.261166
v -4.164736 6.302538 -2.652984
v -4.164736 5.340398 -2.437009
v -4.164736 4.378258 -2.443164
v -4.164736 3.567485 1.949078
v -4.164736 3.735111 1.425464
v -4.164736 3.089978 2.472692
v -4.164736 9.188956 -2.873246
v -4.164736 8.226817 -2.981914
v -4.164736 7.264678 -2.967323
v -4.164736 11.102047 -2.824955
v -4.164736 10.151097 -2.733286
v -4.164736 11.102047 3.027090
v -4.164736 10.151097 3.345764
v -4.164736 9.188957 3.381572
v -4.164736 8.226817 3.393143
v -4.164736 7.264677 3.250846
v 3.076985 9.608059 3.822124
v 3.116910 9.351799 3.822124
v 2.838358 8.956493 3.822124
v 3.078313 9.013599 3.822124
v 2.957628 9.864319 3.822124
v 2.656539 9.008085 3.822124
v 2.474721 9.140822 3.822124
v 2.292903 9.077527 3.822124
v 2.111085 8.874432 3.822124
v 1.747449 9.000386 3.822124
v 1.929267 8.942000 3.822124
v 1.565630 9.022902 3.822124
v 1.383812 8.973746 3.822124
v 1.201994 9.118848 3.822124
v 1.072334 9.169052 3.822124
v 1.086357 9.291391 3.822124
v 2.910475 10.120579 3.822124
v 2.911393 10.376839 3.822124
v 2.828624 10.633099 3.822124
v 2.793077 10.889358 3.822124
v 2.730693 11.102047 3.822125
v 0.803337 -0.719868 -4.577824
v 0.803336 3.012506 -4.631445
v 0.803336 -0.719868 -4.217498
v -1.196664 3.012506 -4.631445
v -1.196664 -0.719868 -4.577824
v -1.196664 -0.719868 -4.217498
v 4.336219 4.168196 -4.648049
v 4.336219 6.676164 -4.684080
v 1.838496 6.676165 -4.684079
v 1.838496 4.168196 -4.648049
v 1.838496 5.008311 -4.660118
v 4.336219 7.620736 -4.697650
v 4.336219 10.128704 -4.733681
v 1.838496 10.128704 -4.733681
v 1.838496 7.620736 -4.697649
v -1.864265 4.168196 -4.648048
v -1.864265 6.676164 -4.684079
v -4.361987 6.676165 -4.684079
v -4.361987 4.168196 -4.648049
v -1.864265 7.620736 -4.697649
v -1.864265 10.128704 -4.733680
v -4.361987 10.128704 -4.733680
v -4.361987 7.620736 -4.697649
vn 1.0000 -0.0000 -0.0000
vn -0.0000 -0.0000 -1.0000
vn -0.9980 -0.0640 -0.0000
vn -0.0000 -0.0144 -0.9999
vn 0.9976 -0.0697 -0.0000
vn -0.0000 -0.0418 0.9991
vn -0.0000 -1.0000 -0.0000
vn -0.0000 -0.0000 1.0000
vn -1.0000 -0.0000 -0.0000
vn -0.0000 1.0000 -0.0000
vn 0.9651 0.2620 -0.0000
vn 0.8765 -0.4814 -0.0000
vn 0.8905 0.4550 -0.0000
vn 1.0000 0.0078 -0.0000
vn 0.9630 0.2694 -0.0000
vn 0.9933 -0.1154 -0.0000
vn -0.2006 0.9797 -0.0000
vn 0.1693 0.9856 -0.0000
vn 0.1790 0.9839 -0.0000
vn 0.8978 -0.4404 -0.0000
vn -0.1747 0.9846 -0.0000
vn -0.2741 0.9617 -0.0000
vn -0.3383 0.9410 -0.0000
vn 0.2325 0.9726 -0.0000
vn 0.2209 0.9753 -0.0000
vn -0.0000 0.0323 0.9995
vn -0.0000 0.9992 0.0390
vn -0.0000 0.8468 -0.5318
vn -0.0000 0.7724 -0.6351
vn -0.0000 0.9893 -0.1461
vn -0.0000 0.5926 0.8055
vn -0.0000 -0.1973 -0.9803
vn -0.0000 0.9179 0.3969
vn -0.0000 -0.1480 0.9890
vn -0.0000 0.1935 0.9811
vn -0.0000 0.6815 0.7318
vn -0.0000 0.9885 -0.1514
vn -0.0000 0.9982 -0.0592
vn -0.0000 0.7171 -0.6969
vn -0.0000 0.9822 -0.1881
vn -0.0000 -0.0497 -0.9988
vn -0.0000 0.1533 -0.9882
vn -0.0000 -0.2549 0.9670
vn -0.0000 -0.3049 0.9524
vn -0.0000 0.2822 0.9594
vn -0.0000 -0.0194 0.9998
vn -0.0000 -0.1326 0.9912
vn -0.0000 0.1047 -0.9945
vn -0.0000 0.0036 -1.0000
vn -0.0000 -0.3781 -0.9258
vn -0.0000 -0.1061 -0.9944
vn -0.0000 0.0047 -1.0000
vn -0.0000 0.7520 0.6592
vn -0.0000 0.9877 0.1563
vn -0.0000 0.9999 0.0143
vn -0.0000 0.9740 0.2266
vn -0.0000 0.9941 0.1087
vn -0.0000 0.9866 -0.1632
vn -0.0000 0.9169 -0.3992
vn -0.0000 -0.1140 -0.9935
vn -0.0000 0.0643 -0.9979
vn -0.0000 -0.1105 -0.9939
vn -0.0000 0.2190 0.9757
vn -0.0000 -0.0064 1.0000
vn -0.0000 -0.2140 0.9768
vn -0.0000 0.9121 -0.4100
vn -0.0000 0.7389 0.6738
vn -0.0000 0.9524 0.3049
vn -0.0000 0.9799 0.1995
vn -0.0000 -0.1122 0.9937
vn -0.0000 0.0152 0.9999
vn -0.0000 0.3106 0.9506
vn -0.0000 0.0960 0.9954
vn -0.0000 -0.1440 0.9896
vn -0.0000 -0.3177 -0.9482
vn -0.0000 0.1174 -0.9931
vn -0.0000 -0.0372 -0.9993
vn -0.0000 -0.0120 -0.9999
vn -0.0000 0.1463 -0.9892
vn -0.9065 -0.4222 -0.0000
vn -0.9881 -0.1539 -0.0000
vn -0.2315 0.9728 -0.0000
vn 0.2730 0.9620 -0.0000
vn -0.3288 0.9444 -0.0000
vn -0.7451 0.6670 -0.0000
vn 0.3057 0.9521 -0.0000
vn 0.3483 0.9374 -0.0000
vn 0.1229 0.9924 -0.0000
vn -0.2610 0.9653 -0.0000
vn 0.6238 0.7816 -0.0000
vn -0.9936 0.1134 -0.0000
vn 0.5896 0.8077 -0.0000
vn 0.9935 -0.1139 -0.0000
vn 0.3611 0.9325 -0.0000
vn -1.0000 0.0036 -0.0000
vn -0.9835 -0.1810 -0.0000
vn -0.9905 -0.1374 -0.0000
vn -0.9516 -0.3074 -0.0000
vn -0.9596 -0.2814 -0.0000
vt 0.375000 0.000000
vt 0.375000 0.065647
vt 0.625000 0.069761
vt 0.625000 0.000000
vt 0.375000 0.750000
vt 0.375000 1.000000
vt 0.625000 1.000000
vt 0.625000 0.750000
vt 0.375000 0.059984
vt 0.625000 0.064098
vt 0.625000 0.069761
vt 0.458745 0.061362
vt 0.625000 0.026001
vt 0.603586 0.015579
vt 0.581920 0.014408
vt 0.560255 0.014030
vt 0.538589 0.018683
vt 0.516923 0.022402
vt 0.495257 0.018904
vt 0.473591 0.015293
vt 0.440966 0.018346
vt 0.444581 0.044132
vt 0.455334 0.061257
vt 0.459109 0.078381
vt 0.453808 0.095506
vt 0.448674 0.112630
vt 0.446723 0.129755
vt 0.448013 0.146879
vt 0.450755 0.164003
vt 0.450924 0.181128
vt 0.452790 0.198252
vt 0.459508 0.209384
vt 0.473591 0.204902
vt 0.495257 0.204701
vt 0.516923 0.211764
vt 0.538589 0.222044
vt 0.560255 0.222521
vt 0.581920 0.218968
vt 0.603586 0.214390
vt 0.625000 0.217388
vt 0.625000 0.250000
vt 0.375000 0.250000
vt 0.531405 0.264674
vt 0.478369 0.263911
vt 0.478369 0.327461
vt 0.453929 0.395544
vt 0.453929 0.344399
vt 0.375000 0.344133
vt 0.375000 0.500000
vt 0.625000 0.500000
vt 0.625000 0.535512
vt 0.607506 0.535019
vt 0.583227 0.530301
vt 0.558948 0.519012
vt 0.534669 0.509718
vt 0.510390 0.520090
vt 0.486110 0.521230
vt 0.461831 0.515953
vt 0.437224 0.523003
vt 0.422843 0.542453
vt 0.424867 0.561643
vt 0.425651 0.580833
vt 0.438492 0.600023
vt 0.441022 0.619213
vt 0.440506 0.638403
vt 0.448805 0.657593
vt 0.459668 0.676783
vt 0.461620 0.695973
vt 0.443659 0.715163
vt 0.438066 0.733946
vt 0.461831 0.727001
vt 0.486110 0.732473
vt 0.510390 0.730719
vt 0.534669 0.730845
vt 0.558948 0.731010
vt 0.583227 0.734722
vt 0.607506 0.730958
vt 0.625000 0.720582
vt 0.625000 0.793041
vt 0.620211 0.791169
vt 0.614440 0.790102
vt 0.608669 0.787618
vt 0.602899 0.787645
vt 0.597128 0.786230
vt 0.591358 0.782647
vt 0.585587 0.781449
vt 0.577972 0.782608
vt 0.576685 0.789810
vt 0.577847 0.795267
vt 0.580836 0.800724
vt 0.579411 0.806181
vt 0.574838 0.811638
vt 0.576359 0.817095
vt 0.577674 0.822552
vt 0.578181 0.828009
vt 0.577074 0.833466
vt 0.580342 0.838924
vt 0.581472 0.842815
vt 0.584227 0.842394
vt 0.582811 0.853038
vt 0.580397 0.864325
vt 0.577353 0.875613
vt 0.579378 0.886901
vt 0.581295 0.898189
vt 0.579561 0.909476
vt 0.581016 0.920764
vt 0.582673 0.932903
vt 0.589560 0.928401
vt 0.595964 0.927409
vt 0.602369 0.929797
vt 0.608773 0.929863
vt 0.615177 0.925175
vt 0.621581 0.929537
vt 0.625000 0.930774
vt 0.125000 0.500000
vt 0.219133 0.500000
vt 0.219133 0.509839
vt 0.270722 0.509839
vt 0.270722 0.500000
vt 0.125000 0.750000
vt 0.411677 0.750000
vt 0.625000 0.698257
vt 0.411677 0.704959
vt 0.625000 0.051743
vt 0.411677 0.000000
vt 0.411677 0.045041
vt 0.411677 1.000000
vt 0.875000 0.750000
vt 0.875000 0.698257
vt 0.375000 0.690016
vt 0.625000 0.685902
vt 0.496135 0.421757
vt 0.478369 0.421888
vt 0.478369 0.485436
vt 0.375000 0.395722
vt 0.125000 0.690016
vt 0.875000 0.685902
vt 0.375000 0.684353
vt 0.625000 0.680239
vt 0.551380 0.484407
vt 0.604416 0.483646
vt 0.604417 0.421028
vt 0.125000 0.684353
vt 0.875000 0.680239
vt 0.375000 0.690016
vt 0.625000 0.685902
vt 0.531405 0.327828
vt 0.604417 0.265720
vt 0.551380 0.264970
vt 0.551380 0.328014
vt 0.551380 0.421315
vt 0.531405 0.484668
vt 0.531405 0.421494
vt 0.375000 0.684353
vt 0.625000 0.680239
vt 0.604417 0.328353
vt 0.875000 0.680239
s 0
f 1/1/1 241/2/1 240/3/1 2/4/1
f 3/5/2 1/6/2 2/7/2 4/8/2
f 5/1/1 237/9/1 236/10/1 6/4/1
f 7/5/2 5/6/2 6/7/2 8/8/2
f 9/1/1 233/2/1 232/11/1 10/4/1
f 11/5/2 9/6/2 10/7/2 12/8/2
f 13/1/1 228/9/1 229/12/1 227/10/1 14/4/1
f 15/5/2 13/6/2 14/7/2 16/8/2
f 19/1/3 20/4/3 93/13/3 94/14/3 95/15/3 96/16/3 97/17/3 78/18/3 80/19/3 79/20/3 81/21/3 87/22/3 85/23/3 86/24/3 77/25/3 76/26/3 75/27/3 74/28/3 73/29/3 72/30/3 71/31/3 70/32/3 84/33/3 83/34/3 82/35/3 90/36/3 89/37/3 88/38/3 92/39/3 91/40/3 22/41/3 21/42/3
f 21/42/4 22/41/4 236/43/4 237/44/4 234/45/4 220/46/4 222/47/4 223/48/4
f 25/49/5 26/50/5 63/51/5 62/52/5 64/53/5 61/54/5 60/55/5 43/56/5 42/57/5 51/58/5 52/59/5 53/60/5 54/61/5 55/62/5 56/63/5 57/64/5 44/65/5 45/66/5 46/67/5 47/68/5 48/69/5 50/70/5 49/71/5 59/72/5 58/73/5 67/74/5 66/75/5 65/76/5 68/77/5 69/78/5 24/8/5 23/5/5
f 23/5/6 24/8/6 118/79/6 117/80/6 116/81/6 115/82/6 114/83/6 102/84/6 98/85/6 99/86/6 101/87/6 100/88/6 103/89/6 104/90/6 105/91/6 106/92/6 108/93/6 107/94/6 109/95/6 110/96/6 111/97/6 112/98/6 113/99/6 38/100/6 39/101/6 40/102/6 41/103/6 35/104/6 34/105/6 36/106/6 37/107/6 33/108/6 32/109/6 31/110/6 29/111/6 30/112/6 28/113/6 27/114/6 20/7/6 19/6/6
f 21/115/7 223/116/7 224/117/7 221/118/7 219/119/7 25/49/7 23/5/7 19/120/7
f 119/1/1 121/42/1 122/41/1 191/40/1 192/39/1 188/38/1 189/37/1 190/36/1 182/35/1 183/34/1 184/33/1 170/32/1 171/31/1 172/30/1 173/29/1 174/28/1 175/27/1 176/26/1 177/25/1 186/24/1 185/23/1 187/22/1 181/21/1 179/20/1 180/19/1 178/18/1 197/17/1 196/16/1 195/15/1 194/14/1 193/13/1 120/4/1
f 121/42/8 125/49/8 126/50/8 122/41/8
f 125/49/9 123/5/9 124/8/9 169/78/9 168/77/9 165/76/9 166/75/9 167/74/9 158/73/9 159/72/9 149/71/9 150/70/9 148/69/9 147/68/9 146/67/9 145/66/9 144/65/9 157/64/9 156/63/9 155/62/9 154/61/9 153/60/9 152/59/9 151/58/9 142/57/9 143/56/9 160/55/9 161/54/9 164/53/9 162/52/9 163/51/9 126/50/9
f 123/5/2 119/6/2 120/7/2 127/114/2 128/113/2 130/112/2 129/111/2 131/110/2 132/109/2 133/108/2 137/107/2 136/106/2 134/105/2 135/104/2 141/103/2 140/102/2 139/101/2 138/100/2 213/99/2 212/98/2 211/97/2 210/96/2 209/95/2 207/94/2 208/93/2 206/92/2 205/91/2 204/90/2 203/89/2 200/88/2 201/87/2 199/86/2 198/85/2 202/84/2 214/83/2 215/82/2 216/81/2 217/80/2 218/79/2 124/8/2
f 121/115/10 119/120/10 123/5/10 125/49/10
f 22/41/10 91/40/10 191/40/10 122/41/10
f 26/50/10 22/41/10 122/41/10 126/50/10
f 24/8/10 69/78/10 169/78/10 124/8/10
f 20/7/10 27/114/10 127/114/10 120/7/10
f 27/114/11 28/113/11 128/113/11 127/114/11
f 30/112/12 29/111/12 129/111/12 130/112/12
f 28/113/13 30/112/13 130/112/13 128/113/13
f 29/111/14 31/110/14 131/110/14 129/111/14
f 31/110/15 32/109/15 132/109/15 131/110/15
f 32/109/16 33/108/16 133/108/16 132/109/16
f 34/105/17 35/104/17 135/104/17 134/105/17
f 36/106/18 34/105/18 134/105/18 136/106/18
f 37/107/19 36/106/19 136/106/19 137/107/19
f 33/108/20 37/107/20 137/107/20 133/108/20
f 38/100/21 113/99/21 213/99/21 138/100/21
f 39/101/22 38/100/22 138/100/22 139/101/22
f 40/102/23 39/101/23 139/101/23 140/102/23
f 41/103/24 40/102/24 140/102/24 141/103/24
f 35/104/25 41/103/25 141/103/25 135/104/25
f 42/57/26 43/56/26 143/56/26 142/57/26
f 44/65/27 57/64/27 157/64/27 144/65/27
f 45/66/28 44/65/28 144/65/28 145/66/28
f 46/67/29 45/66/29 145/66/29 146/67/29
f 47/68/30 46/67/30 146/67/30 147/68/30
f 48/69/31 47/68/31 147/68/31 148/69/31
f 49/71/32 50/70/32 150/70/32 149/71/32
f 50/70/33 48/69/33 148/69/33 150/70/33
f 51/58/34 42/57/34 142/57/34 151/58/34
f 52/59/35 51/58/35 151/58/35 152/59/35
f 53/60/36 52/59/36 152/59/36 153/60/36
f 54/61/37 53/60/37 153/60/37 154/61/37
f 55/62/38 54/61/38 154/61/38 155/62/38
f 56/63/39 55/62/39 155/62/39 156/63/39
f 57/64/40 56/63/40 156/63/40 157/64/40
f 58/73/41 59/72/41 159/72/41 158/73/41
f 59/72/42 49/71/42 149/71/42 159/72/42
f 60/55/43 61/54/43 161/54/43 160/55/43
f 61/54/44 64/53/44 164/53/44 161/54/44
f 43/56/45 60/55/45 160/55/45 143/56/45
f 62/52/46 63/51/46 163/51/46 162/52/46
f 64/53/47 62/52/47 162/52/47 164/53/47
f 65/76/48 66/75/48 166/75/48 165/76/48
f 67/74/49 58/73/49 158/73/49 167/74/49
f 69/78/50 68/77/50 168/77/50 169/78/50
f 68/77/51 65/76/51 165/76/51 168/77/51
f 66/75/52 67/74/52 167/74/52 166/75/52
f 63/51/10 26/50/10 126/50/10 163/51/10
f 70/32/53 71/31/53 171/31/53 170/32/53
f 71/31/54 72/30/54 172/30/54 171/31/54
f 72/30/55 73/29/55 173/29/55 172/30/55
f 73/29/56 74/28/56 174/28/56 173/29/56
f 74/28/57 75/27/57 175/27/57 174/28/57
f 75/27/58 76/26/58 176/26/58 175/27/58
f 76/26/59 77/25/59 177/25/59 176/26/59
f 79/20/60 80/19/60 180/19/60 179/20/60
f 81/21/61 79/20/61 179/20/61 181/21/61
f 80/19/62 78/18/62 178/18/62 180/19/62
f 82/35/63 83/34/63 183/34/63 182/35/63
f 83/34/64 84/33/64 184/33/64 183/34/64
f 84/33/65 70/32/65 170/32/65 184/33/65
f 77/25/66 86/24/66 186/24/66 177/25/66
f 85/23/67 87/22/67 187/22/67 185/23/67
f 86/24/68 85/23/68 185/23/68 186/24/68
f 87/22/69 81/21/69 181/21/69 187/22/69
f 88/38/70 89/37/70 189/37/70 188/38/70
f 89/37/71 90/36/71 190/36/71 189/37/71
f 90/36/72 82/35/72 182/35/72 190/36/72
f 91/40/73 92/39/73 192/39/73 191/40/73
f 92/39/74 88/38/74 188/38/74 192/39/74
f 94/14/75 93/13/75 193/13/75 194/14/75
f 78/18/76 97/17/76 197/17/76 178/18/76
f 95/15/77 94/14/77 194/14/77 195/15/77
f 96/16/78 95/15/78 195/15/78 196/16/78
f 97/17/79 96/16/79 196/16/79 197/17/79
f 93/13/10 20/4/10 120/4/10 193/13/10
f 98/85/80 102/84/80 202/84/80 198/85/80
f 99/86/81 98/85/81 198/85/81 199/86/81
f 100/88/82 101/87/82 201/87/82 200/88/82
f 103/89/83 100/88/83 200/88/83 203/89/83
f 105/91/84 104/90/84 204/90/84 205/91/84
f 106/92/85 105/91/85 205/91/85 206/92/85
f 107/94/86 108/93/86 208/93/86 207/94/86
f 108/93/87 106/92/87 206/92/87 208/93/87
f 109/95/88 107/94/88 207/94/88 209/95/88
f 110/96/89 109/95/89 209/95/89 210/96/89
f 111/97/90 110/96/90 210/96/90 211/97/90
f 101/87/91 99/86/91 199/86/91 201/87/91
f 104/90/92 103/89/92 203/89/92 204/90/92
f 113/99/93 112/98/93 212/98/93 213/99/93
f 112/98/94 111/97/94 211/97/94 212/98/94
f 114/83/95 115/82/95 215/82/95 214/83/95
f 102/84/96 114/83/96 214/83/96 202/84/96
f 116/81/97 117/80/97 217/80/97 216/81/97
f 115/82/98 116/81/98 216/81/98 215/82/98
f 117/80/99 118/79/99 218/79/99 217/80/99
f 118/79/10 24/8/10 124/8/10 218/79/10
f 221/121/9 18/8/9 220/122/9 219/123/9
f 222/124/1 17/4/1 224/125/1 223/126/1
f 224/127/2 17/7/2 18/8/2 221/121/2
f 220/122/7 18/8/7 17/128/7 222/129/7
f 225/130/9 15/5/9 16/8/9 226/131/9
f 220/46/4 229/132/4 228/133/4 225/134/4 25/49/4 219/135/4
f 228/136/10 13/120/10 15/5/10 225/130/10
f 226/131/7 16/8/7 14/128/7 227/137/7
f 230/138/9 11/5/9 12/8/9 231/139/9
f 26/50/4 230/140/4 231/141/4 232/142/4 22/41/4
f 233/143/10 9/120/10 11/5/10 230/138/10
f 231/139/7 12/8/7 10/128/7 232/144/7
f 234/145/9 7/5/9 8/8/9 235/146/9
f 220/46/4 234/45/4 235/147/4 236/43/4 22/41/4 240/148/4 241/149/4 238/150/4 233/151/4 230/140/4 26/50/4 25/49/4 225/134/4 226/152/4 227/153/4 229/132/4
f 237/136/10 5/120/10 7/5/10 234/145/10
f 235/146/7 8/8/7 6/128/7 236/137/7
f 238/154/9 3/5/9 4/8/9 239/155/9
f 241/143/10 1/120/10 3/5/10 238/154/10
f 233/151/4 238/150/4 239/156/4 240/148/4 22/41/4 232/142/4
f 239/155/7 4/8/7 2/128/7 240/157/7
