# Blender 4.4.0
# www.blender.org
o Cube.002
v -26.546972 4.682236 4.095900
v -26.546972 6.795962 4.095900
v -23.933662 4.682236 4.095900
v -23.933662 6.795962 4.095900
v -26.546972 7.128364 4.095900
v -26.546972 9.242090 4.095900
v -23.933662 7.128364 4.095900
v -23.933662 9.242090 4.095900
v -31.543215 4.682236 4.095900
v -31.543215 6.795962 4.095900
v -28.929905 4.682236 4.095900
v -28.929905 6.795962 4.095900
v -31.543215 7.128364 4.095900
v -31.543215 9.242090 4.095900
v -28.929905 7.128364 4.095900
v -28.929905 9.242090 4.095900
v -28.987593 4.146558 4.095900
v -26.374283 4.146558 4.095900
v -23.047174 2.732269 -2.164273
v -24.458000 1.469963 -2.630926
v -24.810707 1.888116 2.558581
v -23.047174 2.594473 2.297453
v -25.163412 1.825104 0.906658
v -25.163412 1.637162 1.339428
v -24.810707 1.727076 0.473889
v -24.458000 1.791961 1.339428
v -24.105293 1.600382 -1.257189
v -23.752586 1.887564 -0.824419
v -23.399881 1.856202 -1.257189
v -23.399881 2.002417 0.906658
v -23.399881 1.283024 1.772197
v -23.047174 3.054288 -1.689958
v -23.047174 2.557705 -1.257189
v -23.047174 2.957178 -0.824419
v -23.047174 3.534389 -0.391650
v -23.047174 2.253625 0.041120
v -23.047174 3.027766 0.473889
v -23.047174 3.747647 0.906658
v -23.047174 3.935060 1.339428
v -23.047174 2.206548 1.772197
v -23.047174 4.015297 2.483914
v -23.047174 5.185945 1.997629
v -23.047174 6.356593 1.759715
v -23.047174 7.527241 1.958631
v -23.047174 8.697889 1.768131
v -23.047174 9.868538 2.191845
v -22.694468 11.039186 2.334999
v -23.047174 11.039186 2.444614
v -23.047174 4.015297 -1.961383
v -23.047174 5.185945 -1.909551
v -23.047174 6.356593 -2.254458
v -23.047174 7.527241 -2.498408
v -23.047174 8.697889 -2.046180
v -23.047174 9.868538 -1.990709
v -23.047174 11.039186 -1.846825
v -22.694468 11.039186 -2.410529
v -31.911942 3.794115 -1.638840
v -32.189217 3.537395 -1.733745
v -32.189217 3.429069 1.773792
v -31.911942 3.241480 1.843140
v -32.189217 3.790547 -1.360868
v -32.189217 3.400164 -1.020651
v -32.189217 3.714205 -0.680434
v -32.189217 4.167973 -0.340217
v -32.189217 3.161115 0.000000
v -32.189217 3.769697 0.340217
v -32.189217 4.335623 0.680434
v -32.189217 4.482956 1.020651
v -32.189217 3.124105 1.360868
v -31.911942 3.803324 -1.360868
v -31.911942 4.081359 -1.020651
v -31.911942 2.203088 -0.680434
v -31.911942 3.364097 -0.340217
v -31.911942 3.390794 0.000000
v -31.911942 3.614812 0.340217
v -31.911942 2.989407 0.680434
v -31.911942 3.136919 1.020651
v -31.911942 4.049068 1.360868
v -31.911942 4.546034 1.737922
v -32.189217 4.546034 1.920376
v -31.911942 5.466326 1.964452
v -32.189217 5.466326 1.538089
v -31.911942 6.386618 1.992715
v -32.189217 6.386618 1.351055
v -31.911942 7.306910 1.898592
v -32.189217 7.306910 1.507430
v -31.911942 8.227202 1.905460
v -32.189217 8.227202 1.357671
v -31.911942 9.147494 1.720891
v -32.189217 9.147494 1.690769
v -31.911942 10.067786 1.803308
v -32.189217 10.067786 1.889481
v -32.743771 10.067786 1.340455
v -31.911942 10.988079 1.799228
v -32.189217 10.988079 2.047372
v -32.466496 10.988079 1.865517
v -32.743771 10.988079 1.789659
v -32.189217 4.546034 -1.574246
v -31.911942 4.546034 -1.496206
v -32.189217 5.466326 -1.533499
v -31.911942 5.466326 -1.882176
v -32.189217 6.386618 -1.804644
v -31.911942 6.386618 -1.860353
v -32.189217 7.306910 -1.996421
v -31.911942 7.306910 -1.362582
v -32.189217 8.227202 -1.640907
v -31.911942 8.227202 -1.828049
v -32.189217 9.147494 -1.597300
v -31.911942 9.147494 -1.589803
v -32.743771 10.067786 -1.660215
v -32.189217 10.067786 -1.484187
v -31.911942 10.067786 -1.927337
v -32.743771 10.988079 -1.591926
v -32.466496 10.988079 -1.780791
v -32.189217 10.988079 -1.651684
v -31.911942 10.988079 -1.660023
v -32.310307 0.147513 4.380925
v -32.411568 11.106988 4.475647
v -32.310307 0.147513 -4.380925
v -32.411568 11.106988 -4.475647
v -22.943783 0.147513 4.380925
v -22.842524 11.106988 4.475647
v -22.943783 0.147513 -4.380925
v -22.842524 11.106988 -4.475647
v -31.859755 2.055053 3.959460
v -31.859755 11.106988 3.959460
v -31.859755 2.055053 -3.959460
v -31.859755 11.106988 -3.959460
v -23.394335 2.055053 3.959460
v -23.394335 11.106988 3.959460
v -23.394335 2.055053 -3.959460
v -23.394335 11.106988 -3.959460
v -32.402557 10.131867 4.467219
v -32.402557 10.131867 -4.467219
v -22.851534 10.131867 -4.467219
v -22.851534 10.131867 4.467219
v -32.754093 10.015425 4.796062
v -32.763103 10.990545 4.804491
v -32.763103 10.990545 -4.804491
v -22.490986 10.990545 -4.804491
v -22.490986 10.990545 4.804491
v -32.754093 10.015425 -4.796062
v -22.499996 10.015425 -4.796062
v -22.499996 10.015425 4.796062
v -31.911942 11.106988 1.773957
v -31.859755 11.106988 1.802828
v -31.859755 10.988079 1.763337
v -31.859755 10.067786 1.750828
v -31.859755 9.147493 1.723196
v -31.859755 7.306910 1.843923
v -31.859755 8.227201 1.885099
v -31.859755 3.150910 1.020651
v -31.859755 3.976500 1.360868
v -32.189217 11.106988 2.001216
v -32.401962 10.067786 1.609597
v -32.466496 11.088794 1.820940
v -31.859755 6.386618 1.912884
v -32.376457 7.306910 1.644639
v -32.367950 6.386618 1.388840
v -31.859755 3.317299 1.815111
v -31.859755 5.466326 1.953447
v -31.859755 4.546034 1.692260
v -31.859755 3.434107 0.340217
v -31.859755 3.279227 0.680434
v -32.411568 11.106988 1.855387
v -32.466496 10.110688 1.540590
v -32.402557 10.131868 1.632550
v -32.743771 10.996949 1.788431
v -32.763081 10.988079 1.782506
v -32.393463 9.147494 1.578392
v -32.384956 8.227202 1.613429
v -32.743771 10.018844 1.367368
v -32.596016 10.067786 1.438638
v -32.350948 4.546034 1.747908
v -32.359451 5.466326 1.696408
v -32.343262 3.714397 1.020651
v -32.342018 3.579557 0.680434
v -32.343388 3.727809 1.663352
v -32.342541 3.636297 0.340217
v -32.334297 2.744226 1.360868
v -32.763103 10.990545 1.782156
v -32.754578 10.067786 1.348228
v -32.754093 10.015425 1.376673
v -31.859755 2.418400 -0.680434
v -31.859755 4.143258 -1.020651
v -31.859755 3.479737 -0.340217
v -31.859755 3.467206 0.000000
v -32.350517 4.499422 -0.680434
v -32.342873 3.672030 -0.340217
v -32.342613 3.644141 0.000000
v -32.337631 3.104980 -1.020651
v -31.859755 9.147494 -1.548971
v -31.859755 3.778277 -1.360868
v -32.359451 5.466326 -1.475236
v -32.343933 3.787100 -1.360868
v -32.763081 10.988079 -1.585538
v -31.911942 11.106988 -1.636299
v -31.859755 11.106988 -1.634630
v -31.859755 10.988079 -1.658354
v -31.859755 4.546034 -1.527333
v -31.859755 3.774719 -1.646010
v -32.384956 8.227202 -1.645944
v -32.350945 4.546034 -1.634409
v -32.754578 10.067786 -1.657345
v -32.466496 11.088794 -1.762288
v -32.411568 11.106988 -1.733368
v -32.340958 3.464811 -1.760578
v -32.754093 10.015425 -1.660524
v -32.743771 10.018844 -1.663067
v -32.367950 6.386618 -1.733778
v -32.763103 10.990545 -1.586263
v -31.859755 7.306910 -1.453809
v -31.859755 8.227202 -1.755487
v -31.859755 6.386618 -1.858713
v -31.859755 5.466326 -1.881716
v -32.189217 11.106988 -1.677726
v -32.466496 10.110688 -1.852103
v -32.402557 10.131867 -1.781609
v -32.401962 10.067786 -1.769154
v -32.596016 10.067786 -1.764328
v -31.859755 10.067786 -1.967284
v -32.393463 9.147494 -1.913908
v -32.376457 7.306911 -1.920354
v -32.743771 10.996949 -1.595164
v -22.490986 10.990545 2.141402
v -22.637829 11.039186 2.278042
v -22.694469 11.057946 2.334915
v -22.499996 10.015424 2.251904
v -22.694469 10.079841 2.249084
v -22.842524 11.106988 2.380712
v -23.047174 11.106988 2.456247
v -22.851534 10.131867 2.236681
v -22.853966 9.868537 2.212834
v -23.394335 11.039186 1.987898
v -22.864782 8.697889 2.128466
v -22.875599 7.527241 2.200678
v -22.897230 5.185945 2.228195
v -22.886414 6.356593 2.131738
v -23.394335 7.527241 2.213031
v -23.394335 6.356593 1.833105
v -22.908047 4.015297 2.392364
v -22.914728 3.292101 1.339428
v -22.920864 2.627902 1.772197
v -22.921957 2.509758 2.328770
v -22.917839 2.955519 0.473889
v -22.916386 3.112653 0.906658
v -23.394335 11.106988 2.013007
v -23.394335 9.868538 2.000833
v -23.394335 8.697889 2.221738
v -23.394335 4.015297 2.113701
v -23.394335 5.185945 2.320495
v -23.394335 2.203012 1.339428
v -23.394335 2.055053 0.969706
v -23.399881 2.055053 1.038388
v -23.394335 3.267183 2.048763
v -23.394335 2.725716 0.473889
v -23.394335 2.055053 0.877861
v -23.399881 2.055053 0.874954
v -23.715769 2.055053 0.906658
v -23.394335 2.055053 1.404811
v -23.399879 2.055053 1.397767
v -23.641779 2.055053 1.772197
v -23.399881 2.055053 1.877691
v -23.394335 2.055053 1.875706
v -24.347593 2.055053 1.339428
v -24.458000 2.055053 1.240451
v -24.458000 2.055053 1.454208
v -24.775198 2.055053 2.496868
v -24.810707 2.055053 2.408842
v -24.810707 2.055053 2.555534
v -24.921467 2.055053 0.473889
v -24.810707 2.055053 0.584793
v -25.094784 2.055053 0.906658
v -25.163412 2.055053 0.801505
v -24.536572 2.055053 1.339428
v -24.870796 2.055053 2.496868
v -25.293194 2.055053 1.339428
v -25.163412 2.055053 1.447175
v -25.053074 2.055053 1.339428
v -25.199390 2.055053 0.906658
v -23.394335 4.647193 -0.824419
v -23.394335 2.055053 -1.222504
v -23.399881 2.055053 -1.226651
v -23.394335 2.413870 -0.391650
v -23.731388 2.055053 -0.824419
v -23.752586 2.055053 -0.790457
v -23.874607 2.055053 -0.674702
v -23.779432 2.055053 -0.824419
v -22.918594 2.873590 -1.257189
v -22.916004 3.154100 -0.391650
v -23.394335 3.346795 0.041120
v -22.924025 2.286026 -0.824419
v -22.923376 2.356172 0.041120
v -24.810707 2.055053 0.383446
v -24.685532 2.055053 0.473889
v -23.752586 2.055053 -0.897151
v -23.468109 2.055053 -1.257189
v -23.980377 2.055053 -1.257189
v -24.105293 2.055053 -1.178094
v -24.211712 2.055053 -1.257189
v -22.916870 3.060293 -1.689958
v -23.394335 5.185945 -1.790734
v -22.908047 4.015297 -1.922225
v -23.394335 3.046555 -1.689958
v -23.399881 2.055053 -1.329491
v -23.394335 2.055053 -1.325480
v -24.105293 2.055053 -1.503043
v -23.047174 11.106988 -1.859165
v -22.851534 10.131867 -1.953053
v -22.853966 9.868538 -1.985485
v -23.394335 8.697889 -2.055112
v -23.394335 4.015297 -2.090528
v -22.918802 2.851124 -2.120334
v -23.394335 2.566205 -2.225664
v -23.394335 6.356593 -2.116815
v -22.864782 8.697889 -2.169281
v -22.886414 6.356593 -2.286757
v -22.897230 5.185945 -2.098107
v -23.394335 11.106988 -2.311171
v -23.394335 11.039186 -2.311836
v -22.694469 11.057945 -2.405080
v -22.842524 11.106988 -2.154208
v -22.637829 11.039186 -2.453883
v -22.490986 10.990545 -2.548446
v -22.694468 10.079842 -2.058672
v -22.499996 10.015425 -1.951391
v -22.875599 7.527241 -2.106194
v -23.394335 9.868538 -2.528860
v -23.394335 7.527241 -2.357369
v -24.458000 2.055053 -2.539262
v -24.330561 2.055053 -2.414629
v -24.458000 2.055053 -2.108775
v -24.562901 2.055053 -2.414629
v -29.461384 10.072956 -4.633588
v -29.444969 10.043049 -4.718047
v -29.423019 10.175104 -3.959460
v -28.842615 9.736671 -3.959460
v -27.427994 9.829037 -3.959460
v -25.172945 10.967432 -4.804291
v -25.131599 9.813278 -4.464466
v -25.241550 11.106988 -4.237424
v -25.262180 11.106988 -4.105370
v -25.159355 10.990545 -4.804491
v -25.095734 11.004301 -4.765642
v -25.140219 10.043050 -4.466452
v -25.050741 11.106988 -4.369479
v -25.058054 10.703322 -3.959460
v -25.033861 11.051062 -4.633588
v -25.018501 10.072956 -4.633588
v -25.121452 10.043051 -4.718046
v -24.859276 10.307158 -3.959460
v -24.907785 10.571268 -3.959460
v -24.841530 10.439214 -3.959460
v -28.301855 9.730999 -4.463755
v -28.713604 9.749868 -4.463917
v -28.833988 9.699013 -4.463478
v -29.275253 10.726321 -4.802207
v -29.494307 9.779199 -4.464171
v -29.348154 9.699021 -4.463478
v -29.389977 10.091144 -4.582226
v -29.506058 9.997030 -4.466053
v -29.717316 10.131868 -4.467219
v -29.328796 10.240129 -4.798005
v -29.604813 10.015425 -4.796062
v -29.380253 10.031655 -4.750226
v -29.714899 11.106988 -4.475647
v -29.755943 11.106988 -4.463478
v -29.344358 11.029363 -4.694864
v -29.346123 10.969419 -4.804309
v -29.357889 10.990545 -4.804491
v -29.477428 10.483226 -4.800106
v -29.125351 9.576335 -4.462418
v -29.443102 11.106988 -4.232091
v -28.682800 9.874619 -3.959459
v -28.301855 9.817167 -3.959461
v -29.125351 9.679600 -3.959460
v -28.904003 9.774558 -3.959460
v -29.136143 9.996319 -3.959459
v -29.218540 10.040364 -3.959460
v -29.136877 9.998503 -3.959459
v -29.175024 10.287279 -3.959460
v -29.198626 10.065829 -3.959460
v -29.452421 9.803928 -3.959460
v -29.782438 11.106988 -4.000705
v -29.690718 11.106988 -3.959459
v -29.657789 10.969419 -3.959460
v -29.637077 10.483226 -3.959460
v -29.719688 10.726321 -3.959460
v -26.243118 9.746449 -4.463889
v -25.976786 9.698983 -4.463478
v -27.300423 9.699005 -4.463478
v -27.890108 9.767329 -4.464069
v -25.831369 9.673187 -4.463255
v -25.831369 9.559772 -3.959460
v -26.368158 9.698978 -4.463478
v -26.654865 9.591118 -4.462546
v -26.243118 9.859571 -3.959460
v -27.066612 9.836168 -4.464664
v -26.836952 9.698984 -4.463478
v -27.478361 9.594433 -4.462574
v -27.066612 9.560125 -3.959460
v -27.390430 9.828348 -3.959460
v -27.727139 9.699009 -4.463478
v -26.618881 9.914007 -3.959459
v -26.683041 9.878126 -3.959460
v -27.533979 9.855789 -3.959460
v -27.890108 9.696892 -3.959460
v -25.419622 9.688089 -4.463384
v -25.419622 9.742372 -3.959460
v -25.251610 10.943491 -4.804084
v -25.402893 9.698980 -4.463478
v -25.216787 9.821091 -4.464533
v -25.146889 9.997031 -3.959459
v -25.131277 10.240129 -3.959460
v -25.132845 10.242949 -3.959459
v -25.116831 10.483226 -4.800106
v -25.084831 10.727425 -3.959460
v -24.900749 9.690686 -3.959460
v -24.796642 10.240129 -4.798004
v -25.168642 10.015425 -4.796062
v -25.253403 10.040349 -4.725676
v -24.992079 11.095059 -4.509334
v -24.937399 11.106988 -4.463478
v -24.946381 11.106988 -4.475647
v -25.026964 11.106988 -4.437109
v -25.052378 10.114751 -4.515557
v -24.878519 10.131867 -4.467219
v -25.131914 10.078054 -4.466754
v -24.968645 10.726321 -4.802207
v -25.095325 11.106988 -4.000705
v -25.266760 11.106988 -4.048025
v -24.416061 10.969419 -3.959460
v -25.184822 11.106988 -3.959460
v -26.374283 0.147513 4.095900
v -26.374281 0.147513 4.380925
v -26.374283 4.146558 4.415489
v -28.987593 4.146558 4.415489
v -28.987593 0.147513 4.095900
v -28.987593 0.147513 4.380925
v -28.929905 7.128364 4.441260
v -28.929905 9.242090 4.459529
v -31.543215 9.242090 4.459529
v -31.543215 7.128364 4.441260
v -28.929905 4.682236 4.420118
v -28.929905 6.795962 4.438387
v -31.543215 6.795962 4.438387
v -31.543215 4.682236 4.420119
v -23.933662 7.128364 4.441260
v -23.933662 9.242090 4.459529
v -26.546972 9.242090 4.459529
v -24.472801 9.242090 4.459529
v -26.546972 7.128364 4.441260
v -26.546974 8.103752 4.449690
v -23.933662 4.682236 4.420119
v -23.933662 6.795962 4.438387
v -26.546972 6.795962 4.438387
v -26.546972 4.682236 4.420118
vn -0.0000 -0.0000 1.0000
vn -1.0000 -0.0000 -0.0000
vn -0.0000 1.0000 -0.0000
vn -0.0000 -1.0000 -0.0000
vn 0.2244 0.3121 -0.9232
vn -0.7852 0.6007 -0.1506
vn -0.9587 0.2648 0.1037
vn -0.6871 0.1814 -0.7036
vn -0.6429 0.2454 -0.7256
vn -0.8731 0.3247 -0.3638
vn -0.6898 0.2895 -0.6636
vn -0.5293 0.1454 -0.8359
vn -0.8435 0.1068 -0.5265
vn 0.3425 0.2466 -0.9066
vn -0.9770 0.1966 -0.0819
vn -0.3138 0.8191 -0.4803
vn -0.6989 0.5621 0.4423
vn 0.8090 0.5733 0.1296
vn 0.9020 0.2182 -0.3727
vn 0.3852 0.3536 0.8524
vn -0.0637 0.5322 -0.8442
vn 0.8855 0.3257 -0.3315
vn 0.9757 0.2010 -0.0871
vn 0.2792 0.3260 0.9032
vn 0.7060 0.0815 -0.7035
vn 0.6985 -0.0131 -0.7155
vn 0.0676 -0.1183 -0.9907
vn -0.4786 -0.2598 -0.8387
vn -0.4166 0.2182 -0.8825
vn -0.7129 -0.0543 -0.6991
vn -0.3526 0.0808 -0.9323
vn 0.6802 0.0747 -0.7292
vn -0.3136 0.0529 -0.9481
vn 0.7811 0.1633 -0.6026
vn -0.6948 -0.1113 0.7105
vn -0.2290 -0.1564 0.9608
vn 0.4587 0.0449 0.8875
vn 0.5699 0.1801 0.8017
vn -0.7345 0.0218 0.6782
vn -0.6002 -0.1284 0.7895
vn 0.2980 -0.0984 0.9495
vn 0.6361 0.0956 0.7657
vn 0.8374 -0.0699 0.5421
vn 0.5923 -0.2247 0.7738
vn -0.7736 0.5526 0.3103
vn 0.2051 0.5267 0.8249
vn -0.3607 0.8650 -0.3487
vn -0.7771 0.6210 0.1025
vn 0.5126 0.3425 0.7874
vn 0.8511 0.2039 -0.4838
vn 0.5084 0.4911 0.7074
vn -0.0850 0.6305 -0.7715
vn 0.9376 0.3464 0.0303
vn 0.5359 0.7058 0.4633
vn 0.3905 0.9204 -0.0209
vn -0.2486 0.7040 -0.6653
vn -0.4421 0.1664 0.8814
vn -0.6803 0.2146 -0.7008
vn -0.8786 0.4775 -0.0099
vn 0.6933 0.6938 -0.1947
vn -0.5663 0.5417 0.6212
vn -0.9457 0.3249 -0.0092
vn 0.2005 0.3572 -0.9123
vn -0.1944 0.0168 -0.9808
vn 0.7087 0.0864 -0.7002
vn 0.4014 -0.0772 -0.9126
vn 0.0415 -0.2290 -0.9725
vn 0.8868 -0.0397 -0.4605
vn -0.4767 -0.2302 -0.8484
vn 0.8809 0.0160 -0.4730
vn -0.4230 0.1961 -0.8846
vn 0.8604 -0.0394 -0.5081
vn -0.7143 -0.0717 -0.6961
vn 0.7204 0.0558 -0.6913
vn -0.3337 0.1492 -0.9308
vn -0.0994 0.1502 -0.9836
vn 0.6822 0.0937 -0.7252
vn -0.5150 0.0714 -0.8542
vn 0.6878 0.1890 -0.7009
vn -0.0185 0.4326 -0.9014
vn -0.6346 -0.2223 -0.7402
vn 0.5268 -0.3108 -0.7911
vn 0.2372 -0.3746 -0.8963
vn 0.3445 -0.1288 -0.9299
vn -0.2233 -0.1649 0.9607
vn 0.3136 -0.1606 0.9359
vn 0.4325 0.1662 0.8862
vn 0.2630 0.3600 0.8951
vn 0.5857 0.1088 0.8032
vn -0.0201 -0.0243 0.9995
vn -0.7169 -0.1143 0.6877
vn 0.6104 -0.3488 0.7112
vn -0.6266 0.0465 0.7779
vn 0.1629 0.3796 0.9107
vn 0.3050 -0.1442 0.9414
vn -0.7261 -0.1615 0.6683
vn 0.6149 0.0954 0.7828
vn -0.0078 0.3799 0.9250
vn 0.5683 -0.0637 0.8203
vn 0.6308 -0.0420 0.7748
vn 0.3303 -0.2820 0.9008
vn 0.5501 -0.1152 0.8271
vn -0.3535 -0.0185 0.9353
vn -0.0596 0.0097 0.9982
vn -0.0314 -0.1956 0.9802
vn -0.3144 0.9493 -0.0000
vn 0.3144 -0.9493 -0.0000
vn 0.3144 0.9493 -0.0000
vn -0.0000 -0.9426 -0.3338
vn 1.0000 -0.0000 -0.0000
vn -0.0000 -0.0000 -1.0000
vn -0.0000 -0.0086 1.0000
vn 1.0000 -0.0092 -0.0000
vn -0.0000 -0.0086 -1.0000
vn -1.0000 -0.0092 -0.0000
vn -0.3144 -0.9493 -0.0000
vn -0.0000 0.9426 0.3338
vn -0.0000 0.9426 -0.3338
vn -0.0000 -0.9426 0.3338
vn -0.6565 -0.0050 -0.7543
vn -0.5836 0.0212 -0.8118
vn -0.2364 -0.1327 0.9625
vn -0.0670 0.0596 -0.9960
vn -0.6240 0.0917 0.7760
vn 0.2563 -0.0562 0.9650
vn -0.8190 -0.0833 0.5677
vn -0.1450 0.7932 -0.5914
vn -0.0057 -0.1080 0.9941
vn 0.5091 0.3218 -0.7983
vn 0.6496 0.5699 -0.5032
vn 0.3349 0.2620 0.9051
vn -0.7889 -0.0542 -0.6122
vn -0.4647 0.2268 -0.8559
vn -0.9769 0.1966 -0.0833
vn 0.2931 -0.0712 0.9534
vn 0.6288 0.6846 0.3688
vn -0.6462 0.0035 -0.7632
vn -0.0231 0.5493 0.8353
vn -0.4326 0.0538 -0.9000
vn -0.6677 0.0372 0.7435
vn -0.9189 0.3162 -0.2359
vn -0.5379 -0.0756 -0.8396
vn -0.1676 -0.1824 -0.9688
vn 0.3659 0.1890 0.9113
vn 0.3942 0.3629 -0.8443
vn -0.7281 0.1896 0.6587
vn -0.4652 0.4723 0.7487
vn -0.5332 -0.4076 -0.7413
vn 0.3036 0.3149 0.8993
vn 0.1729 -0.3182 0.9321
vn 0.1872 0.4778 -0.8583
vn 0.5753 -0.0476 0.8165
vn 0.5032 -0.4164 -0.7572
vn 0.6185 0.2089 0.7575
vn -0.6428 0.2697 0.7170
vn -0.2361 -0.1193 0.9644
vn 0.9086 0.2781 -0.3116
vn 0.8606 -0.0607 -0.5057
vn -0.6129 0.1390 0.7778
vn 0.6266 0.1946 -0.7547
vn -0.8659 0.2379 0.4400
vn -0.8792 0.3181 0.3547
vn -0.9530 0.1206 0.2778
vn 0.4046 0.1388 -0.9039
vn 0.5210 0.7477 -0.4118
vn 0.4202 -0.2447 -0.8738
vn 0.7626 0.2278 0.6054
vn -0.8191 -0.0874 0.5669
vn -0.1396 0.7753 -0.6159
vn -0.0147 -0.1485 0.9888
vn 0.7612 -0.1004 0.6407
vn -0.8124 0.2425 0.5302
vn 0.6882 0.2324 -0.6873
vn 0.7465 0.6552 -0.1159
vn -0.1956 0.0844 -0.9770
vn 0.1939 0.4307 0.8814
vn 0.3346 0.2596 0.9059
vn -0.5716 0.2181 0.7910
vn 0.7047 0.1474 -0.6941
vn -0.8555 -0.0095 -0.5178
vn 0.3551 0.4330 0.8285
vn -0.7091 -0.0031 -0.7051
vn -0.0365 0.9273 0.3726
vn 0.8012 0.2393 -0.5485
vn 0.9359 0.1464 0.3202
vn -0.4371 -0.0108 -0.8993
vn -0.7962 0.0519 0.6028
vn -0.9467 0.3221 -0.0085
vn 0.0857 0.5141 0.8535
vn 0.8973 0.2100 0.3884
vn 0.3658 0.1886 0.9114
vn 0.1529 0.9177 -0.3667
vn 0.5908 0.1383 -0.7949
vn 0.9277 0.1487 0.3424
vn -0.7661 0.2014 0.6103
vn 0.7370 0.4513 0.5031
vn -0.4187 0.4164 0.8070
vn -0.1197 0.1560 -0.9805
vn 0.9568 0.2448 0.1569
vn 0.1782 -0.3018 0.9366
vn 0.8123 0.2545 0.5248
vn 0.3966 0.1243 -0.9095
vn 0.8867 -0.0694 -0.4572
vn 0.7057 0.2421 0.6659
vn 0.8783 0.0503 -0.4754
vt 0.375000 0.250000
vt 0.375000 0.500000
vt 0.625000 0.500000
vt 0.625000 0.250000
vt 0.375000 0.540527
vt 0.625000 0.542811
vt 0.125000 0.500000
vt 0.125000 0.540527
vt 0.875000 0.542811
vt 0.875000 0.500000
vt 0.375000 0.543170
vt 0.625000 0.545454
vt 0.125000 0.543170
vt 0.676576 0.545454
vt 0.875000 0.545454
vt 0.375000 0.540527
vt 0.125000 0.540527
vt 0.875000 0.542811
vt 0.625000 0.539949
vt 0.875000 0.539949
vt 0.275000 0.725000
vt 0.275000 0.734675
vt 0.275370 0.734495
vt 0.275393 0.750000
vt 0.300000 0.750000
vt 0.300000 0.725000
vt 0.308876 0.750000
vt 0.308953 0.725000
vt 0.150000 0.675000
vt 0.150000 0.700000
vt 0.157821 0.700000
vt 0.154864 0.675000
vt 0.150000 0.706224
vt 0.175000 0.650000
vt 0.175000 0.656407
vt 0.183872 0.650000
vt 0.200000 0.500000
vt 0.200000 0.513873
vt 0.209033 0.500000
vt 0.200000 0.700000
vt 0.200000 0.706630
vt 0.207826 0.700000
vt 0.225000 0.550000
vt 0.225000 0.554569
vt 0.233854 0.550000
vt 0.250000 0.575000
vt 0.250000 0.576962
vt 0.251503 0.575000
vt 0.275000 0.550000
vt 0.275000 0.551764
vt 0.275474 0.551855
vt 0.275393 0.575000
vt 0.300000 0.575000
vt 0.300000 0.550000
vt 0.275000 0.675000
vt 0.275000 0.682610
vt 0.275393 0.678642
vt 0.275393 0.700000
vt 0.300000 0.700000
vt 0.300000 0.675000
vt 0.300000 0.500000
vt 0.300000 0.525000
vt 0.309236 0.525000
vt 0.309099 0.500000
vt 0.309114 0.550000
vt 0.308729 0.575000
vt 0.300000 0.600000
vt 0.309297 0.600000
vt 0.300000 0.625000
vt 0.308775 0.625000
vt 0.300000 0.650000
vt 0.309167 0.650000
vt 0.309270 0.675000
vt 0.309388 0.700000
vt 0.375000 0.825000
vt 0.375000 0.849607
vt 0.400000 0.849607
vt 0.400000 0.825000
vt 0.375000 0.950000
vt 0.375000 0.954259
vt 0.376962 0.950000
vt 0.425000 0.849607
vt 0.425000 0.825000
vt 0.450000 0.849607
vt 0.450000 0.825000
vt 0.475000 0.849607
vt 0.475000 0.825000
vt 0.500000 0.849607
vt 0.500000 0.825000
vt 0.525000 0.849607
vt 0.525000 0.825000
vt 0.550000 0.849607
vt 0.550000 0.825000
vt 0.550000 0.800000
vt 0.551448 0.825000
vt 0.551320 0.810323
vt 0.550401 0.800000
vt 0.551457 0.849601
vt 0.375000 0.325000
vt 0.375000 0.334033
vt 0.380747 0.325000
vt 0.375000 0.425000
vt 0.375000 0.434099
vt 0.400000 0.434861
vt 0.400000 0.425000
vt 0.425000 0.435628
vt 0.425000 0.425000
vt 0.450000 0.436395
vt 0.450000 0.425000
vt 0.475000 0.437161
vt 0.475000 0.425000
vt 0.500000 0.437928
vt 0.500000 0.425000
vt 0.525000 0.438695
vt 0.525000 0.425000
vt 0.528230 0.436011
vt 0.529513 0.450000
vt 0.550000 0.450000
vt 0.550000 0.425000
vt 0.550401 0.450000
vt 0.551554 0.439212
vt 0.551448 0.425000
vt 0.550000 0.454015
vt 0.325000 0.750000
vt 0.325000 0.725000
vt 0.329705 0.750000
vt 0.329705 0.725000
vt 0.325000 0.525000
vt 0.325000 0.500000
vt 0.325000 0.550000
vt 0.325000 0.575000
vt 0.325000 0.600000
vt 0.325000 0.625000
vt 0.325000 0.650000
vt 0.325000 0.675000
vt 0.325000 0.700000
vt 0.329705 0.525000
vt 0.329705 0.500000
vt 0.329705 0.550000
vt 0.329705 0.575000
vt 0.329705 0.600000
vt 0.329705 0.625000
vt 0.329705 0.650000
vt 0.329705 0.675000
vt 0.329705 0.700000
vt 0.375000 0.800000
vt 0.400000 0.800000
vt 0.375000 0.838900
vt 0.400000 0.839582
vt 0.425000 0.800000
vt 0.425000 0.840348
vt 0.450000 0.800000
vt 0.450000 0.841115
vt 0.475000 0.800000
vt 0.475000 0.841882
vt 0.500000 0.800000
vt 0.500000 0.842648
vt 0.525000 0.800000
vt 0.525000 0.843415
vt 0.550000 0.844182
vt 0.575000 0.825000
vt 0.575000 0.800000
vt 0.551795 0.844198
vt 0.551166 0.850000
vt 0.575000 0.850000
vt 0.550000 0.875000
vt 0.550000 0.875974
vt 0.575000 0.876741
vt 0.575000 0.875000
vt 0.578230 0.825000
vt 0.578230 0.800000
vt 0.577736 0.850000
vt 0.578090 0.845001
vt 0.575241 0.875000
vt 0.575070 0.876744
vt 0.375000 0.450000
vt 0.400000 0.450000
vt 0.375000 0.454705
vt 0.400000 0.454705
vt 0.425000 0.450000
vt 0.425000 0.454705
vt 0.450000 0.450000
vt 0.450000 0.454705
vt 0.475000 0.450000
vt 0.475000 0.454705
vt 0.500000 0.450000
vt 0.500000 0.454705
vt 0.525000 0.450000
vt 0.525000 0.454705
vt 0.550000 0.454705
vt 0.550000 0.375000
vt 0.550000 0.388322
vt 0.551166 0.400000
vt 0.575000 0.400000
vt 0.575000 0.375000
vt 0.575000 0.450000
vt 0.575000 0.425000
vt 0.575000 0.454705
vt 0.577736 0.400000
vt 0.575241 0.375000
vt 0.578230 0.425000
vt 0.578070 0.404611
vt 0.578230 0.450000
vt 0.577809 0.454601
vt 0.625000 0.000000
vt 0.625000 0.073181
vt 0.625000 0.074686
vt 0.625000 0.078282
vt 0.625000 0.078633
vt 0.602756 0.250000
vt 0.602756 0.174852
vt 0.602756 0.176179
vt 0.602756 0.172505
vt 0.602756 0.168438
vt 0.602756 0.168278
vt 0.625000 0.564835
vt 0.625000 0.559765
vt 0.625000 0.559198
vt 0.625000 0.558696
vt 0.602756 1.000000
vt 0.602756 0.750000
vt 0.375000 0.750000
vt 0.283437 0.750000
vt 0.283437 0.741867
vt 0.213686 0.741867
vt 0.213686 0.750000
vt 0.125000 0.750000
vt 0.375000 0.000000
vt 0.625000 0.176605
vt 0.621716 0.177354
vt 0.596299 0.187107
vt 0.570882 0.173901
vt 0.545465 0.180421
vt 0.520048 0.170897
vt 0.494631 0.183680
vt 0.469214 0.184406
vt 0.443797 0.173218
vt 0.422494 0.176964
vt 0.422593 0.167963
vt 0.432673 0.157222
vt 0.385035 0.146481
vt 0.414348 0.135741
vt 0.414001 0.125000
vt 0.413087 0.114259
vt 0.408810 0.103519
vt 0.405266 0.092778
vt 0.428067 0.082037
vt 0.409861 0.067697
vt 0.443797 0.071575
vt 0.469214 0.063330
vt 0.494631 0.064610
vt 0.520048 0.066787
vt 0.545465 0.065487
vt 0.570882 0.070599
vt 0.596299 0.069726
vt 0.621716 0.069332
vt 0.625000 0.068085
vt 0.625000 0.447123
vt 0.621201 0.469827
vt 0.614517 0.450076
vt 0.613851 0.450867
vt 0.610204 0.455305
vt 0.606557 0.457262
vt 0.602910 0.456737
vt 0.601137 0.448658
vt 0.601059 0.448705
vt 0.594344 0.448244
vt 0.585884 0.455513
vt 0.587312 0.440189
vt 0.582268 0.428030
vt 0.590548 0.415870
vt 0.592052 0.404773
vt 0.591061 0.402878
vt 0.582278 0.391551
vt 0.589686 0.381988
vt 0.589705 0.380878
vt 0.590444 0.377748
vt 0.586056 0.367231
vt 0.589377 0.355072
vt 0.590964 0.343821
vt 0.587154 0.339102
vt 0.588200 0.337289
vt 0.585578 0.330752
vt 0.589012 0.321093
vt 0.594325 0.330433
vt 0.594385 0.330412
vt 0.595542 0.328000
vt 0.596245 0.328588
vt 0.599263 0.321961
vt 0.602361 0.329285
vt 0.607773 0.315640
vt 0.614487 0.313200
vt 0.621201 0.315028
vt 0.625000 0.314056
vt 0.375000 0.583155
vt 0.402384 0.571648
vt 0.389117 0.554736
vt 0.429139 0.559002
vt 0.461470 0.568467
vt 0.493802 0.558172
vt 0.526133 0.550578
vt 0.558465 0.560120
vt 0.590796 0.545164
vt 0.623127 0.552015
vt 0.625000 0.552036
vt 0.375000 1.000000
vt 0.625000 1.000000
vt 0.625000 0.750000
vt 0.340490 0.548770
vt 0.343588 0.544836
vt 0.347351 0.548770
vt 0.625000 0.173411
vt 0.625000 0.174314
vt 0.625000 0.176097
vt 0.625000 0.445035
vt 0.625000 0.445495
vt 0.625000 0.443580
vt 0.625000 0.444101
vt 0.625000 0.441068
vt 0.625000 0.442567
vt 0.625000 0.443325
vt 0.625000 0.449039
vt 0.625000 0.691491
vt 0.625000 0.696907
vt 0.625000 0.688551
vt 0.526660 0.777807
vt 0.478443 0.777358
vt 0.478443 0.846454
vt 0.478443 0.909494
vt 0.478443 0.978589
vt 0.375000 0.911314
vt 0.466223 0.911037
vt 0.466223 0.841818
vt 0.375000 0.841563
vt 0.602756 0.500000
vt 0.602756 0.570350
vt 0.596749 0.569417
vt 0.570045 0.564142
vt 0.543341 0.565777
vt 0.516637 0.560547
vt 0.489933 0.565720
vt 0.463229 0.570558
vt 0.436673 0.564805
vt 0.441444 0.577043
vt 0.437185 0.589311
vt 0.423782 0.601570
vt 0.443584 0.613888
vt 0.425382 0.626168
vt 0.439054 0.638450
vt 0.442639 0.650726
vt 0.446732 0.662992
vt 0.431581 0.675334
vt 0.428886 0.691158
vt 0.463229 0.692758
vt 0.489933 0.687955
vt 0.516637 0.685084
vt 0.543341 0.686880
vt 0.570045 0.684713
vt 0.596749 0.686947
vt 0.602756 0.687586
vt 0.602756 0.320287
vt 0.599681 0.325805
vt 0.594711 0.326094
vt 0.592882 0.329916
vt 0.590084 0.335743
vt 0.592882 0.343384
vt 0.594042 0.346540
vt 0.593612 0.357324
vt 0.594441 0.368110
vt 0.592882 0.372378
vt 0.590497 0.378896
vt 0.592882 0.383556
vt 0.596011 0.389677
vt 0.592882 0.395696
vt 0.590421 0.400472
vt 0.592882 0.407978
vt 0.593964 0.411249
vt 0.592882 0.418229
vt 0.592293 0.422040
vt 0.592633 0.432825
vt 0.592882 0.433262
vt 0.595667 0.438123
vt 0.595489 0.440355
vt 0.600730 0.440103
vt 0.601529 0.440317
vt 0.602756 0.446943
vt 0.602756 0.000000
vt 0.602756 0.079319
vt 0.601295 0.079956
vt 0.580301 0.080756
vt 0.559308 0.079694
vt 0.538315 0.078734
vt 0.517322 0.085857
vt 0.496329 0.077097
vt 0.475336 0.075549
vt 0.456671 0.077862
vt 0.434234 0.086358
vt 0.456365 0.096075
vt 0.453289 0.105711
vt 0.454584 0.115357
vt 0.454763 0.125000
vt 0.455399 0.134642
vt 0.474273 0.144252
vt 0.442464 0.153961
vt 0.458024 0.163561
vt 0.450672 0.174920
vt 0.475336 0.171240
vt 0.496329 0.166657
vt 0.517322 0.173865
vt 0.538315 0.179022
vt 0.559308 0.171219
vt 0.580301 0.178649
vt 0.601295 0.174509
vt 0.624944 0.078624
vt 0.603951 0.089864
vt 0.602756 0.089120
vt 0.625000 0.332875
vt 0.624518 0.333160
vt 0.618973 0.334867
vt 0.613427 0.329925
vt 0.607882 0.333527
vt 0.602756 0.326781
vt 0.602756 0.574141
vt 0.602756 0.686005
vt 0.602756 0.683692
vt 0.625000 0.320453
vt 0.625000 0.332177
vt 0.602756 0.441712
vt 0.602756 0.440910
vt 0.602756 0.437153
vt 0.602756 0.433792
vt 0.602756 0.434937
vt 0.425000 0.795295
vt 0.450000 0.795295
vt 0.475000 0.795295
vt 0.500000 0.795295
vt 0.375000 0.411319
vt 0.400000 0.410418
vt 0.602756 0.089285
vt 0.602756 0.086264
vt 0.602756 0.082429
vt 0.575000 0.795295
vt 0.580094 0.794048
vt 0.500000 0.407352
vt 0.525000 0.406585
vt 0.548671 0.375000
vt 0.550000 0.374026
vt 0.548895 0.374163
vt 0.550000 0.405818
vt 0.286050 0.525000
vt 0.286319 0.500000
vt 0.425000 0.409651
vt 0.285457 0.575000
vt 0.286619 0.550000
vt 0.286176 0.650000
vt 0.286169 0.625000
vt 0.450000 0.408885
vt 0.625000 0.166270
vt 0.625000 0.166669
vt 0.625000 0.173693
vt 0.400000 0.795295
vt 0.286111 0.700000
vt 0.286223 0.675000
vt 0.625000 0.069604
vt 0.625000 0.066178
vt 0.575000 0.373259
vt 0.286146 0.600000
vt 0.550000 0.795295
vt 0.525000 0.795295
vt 0.551882 0.405297
vt 0.375000 0.795295
vt 0.603951 0.168191
vt 0.624944 0.166252
vt 0.475000 0.408118
vt 0.550000 0.861678
vt 0.286919 0.725000
vt 0.548670 0.875000
vt 0.548563 0.875934
vt 0.575063 0.373256
vt 0.286100 0.750000
vt 0.167149 0.650000
vt 0.175000 0.644775
vt 0.200000 0.694282
vt 0.625000 0.680714
vt 0.375000 0.400393
vt 0.400000 0.400393
vt 0.192565 0.500000
vt 0.475000 0.812839
vt 0.500000 0.812072
vt 0.500000 0.400393
vt 0.525000 0.400393
vt 0.141079 0.700000
vt 0.625000 0.686087
vt 0.625000 0.688332
vt 0.225000 0.535798
vt 0.175000 0.745239
vt 0.175000 0.750000
vt 0.177517 0.750000
vt 0.250000 0.570798
vt 0.270164 0.550000
vt 0.248097 0.575000
vt 0.243624 0.582646
vt 0.400000 0.815138
vt 0.425000 0.814372
vt 0.194431 0.700000
vt 0.550000 0.400393
vt 0.275393 0.525000
vt 0.275393 0.500000
vt 0.425000 0.400393
vt 0.375000 0.317565
vt 0.150000 0.668926
vt 0.275393 0.650000
vt 0.275393 0.625000
vt 0.375000 0.816125
vt 0.625000 0.570571
vt 0.528737 0.463783
vt 0.549407 0.464422
vt 0.343588 0.558426
vt 0.350861 0.585311
vt 0.354004 0.577549
vt 0.357693 0.585311
vt 0.372821 0.585311
vt 0.374836 0.583028
vt 0.375000 0.586406
vt 0.365046 0.598973
vt 0.364420 0.600045
vt 0.360817 0.603700
vt 0.329901 0.639961
vt 0.333172 0.637105
vt 0.336868 0.639961
vt 0.365507 0.653623
vt 0.374836 0.652622
vt 0.375000 0.652714
vt 0.375000 0.655614
vt 0.374836 0.657782
vt 0.333172 0.643462
vt 0.318923 0.667286
vt 0.321693 0.653623
vt 0.322756 0.650303
vt 0.324782 0.653623
vt 0.326014 0.667286
vt 0.341268 0.667286
vt 0.343588 0.664161
vt 0.346848 0.667286
vt 0.367693 0.680948
vt 0.374836 0.669128
vt 0.375000 0.669350
vt 0.375000 0.684216
vt 0.334220 0.703826
vt 0.333172 0.705678
vt 0.331397 0.703826
vt 0.333172 0.701047
vt 0.374836 0.684279
vt 0.343588 0.670909
vt 0.322756 0.670687
vt 0.363627 0.598973
vt 0.364420 0.596677
vt 0.374836 0.586275
vt 0.354004 0.587808
vt 0.450000 0.400393
vt 0.623127 0.687758
vt 0.590796 0.688166
vt 0.558465 0.695140
vt 0.526133 0.694865
vt 0.493802 0.682871
vt 0.461470 0.698258
vt 0.429139 0.691729
vt 0.408477 0.689679
vt 0.379086 0.667286
vt 0.393523 0.639961
vt 0.410676 0.626298
vt 0.384910 0.612636
vt 0.446591 0.598973
vt 0.525000 0.811305
vt 0.375000 0.947483
vt 0.602756 0.569160
vt 0.275393 0.600000
vt 0.550000 0.795985
vt 0.146012 0.675000
vt 0.529513 0.800000
vt 0.548858 0.785711
vt 0.527510 0.787030
vt 0.551485 0.400270
vt 0.275000 0.673168
vt 0.275275 0.673336
vt 0.252610 0.675000
vt 0.217457 0.550000
vt 0.475000 0.400393
vt 0.275000 0.703370
vt 0.275344 0.703805
vt 0.170741 0.750000
vt 0.275000 0.545823
vt 0.275402 0.546043
vt 0.529936 0.811049
vt 0.257854 0.725000
vt 0.450000 0.813605
vt 0.625000 0.435058
vt 0.625000 0.437140
vt 0.625000 0.440522
vt 0.625000 0.443361
vt 0.625000 0.311948
vt 0.625000 0.324631
vt 0.625000 0.319205
vt 0.602756 0.331813
vt 0.602756 0.329905
vt 0.602756 0.328652
vt 0.602756 0.329993
vt 0.607882 0.443979
vt 0.613427 0.436149
vt 0.618973 0.439730
vt 0.623927 0.432817
vt 0.624473 0.434730
vt 0.390988 0.500000
vt 0.390988 0.535628
vt 0.390988 0.250000
vt 0.625000 0.210051
vt 0.390988 0.214372
vt 0.534242 0.978092
vt 0.582459 0.977667
vt 0.582459 0.909166
vt 0.375000 0.206830
vt 0.625000 0.204546
vt 0.375000 0.209473
vt 0.625000 0.207189
vt 0.526660 0.978152
vt 0.526660 0.909356
vt 0.556492 0.846883
vt 0.582459 0.846795
vt 0.582459 0.792504
vt 0.534242 0.909324
vt 0.490364 0.205776
vt 0.375000 0.209473
vt 0.625000 0.207189
vt 0.526660 0.846720
vt 0.582459 0.778311
vt 0.534242 0.777875
vt 0.534242 0.846764
s 0
f 1/1/1 3/2/1 4/3/1 2/4/1
f 3/2/2 454/5/2 455/6/2 4/3/2
f 1/7/3 457/8/3 454/5/3 3/2/3
f 4/3/4 455/6/4 456/9/4 2/10/4
f 5/1/1 7/2/1 8/3/1 6/4/1
f 7/2/2 448/11/2 449/12/2 8/3/2
f 5/7/3 452/13/3 448/11/3 7/2/3
f 8/3/4 449/12/4 451/14/4 450/15/4 6/10/4
f 9/1/1 11/2/1 12/3/1 10/4/1
f 11/2/2 444/16/2 445/6/2 12/3/2
f 9/7/3 447/17/3 444/16/3 11/2/3
f 12/3/4 445/6/4 446/18/4 10/10/4
f 13/1/1 15/2/1 16/3/1 14/4/1
f 15/2/2 440/11/2 441/12/2 16/3/2
f 13/7/3 443/13/3 440/11/3 15/2/3
f 16/3/4 441/12/4 442/15/4 14/10/4
f 18/3/4 436/19/4 437/20/4 17/10/4
f 31/21/5 263/22/5 264/23/5 255/24/5 22/25/5 40/26/5
f 40/26/6 22/25/6 244/27/6 243/28/6
f 23/29/7 24/30/7 279/31/7 273/32/7
f 24/30/8 278/33/8 279/31/8
f 25/34/9 272/35/9 295/36/9
f 20/37/10 332/38/10 331/39/10
f 26/40/11 267/41/11 265/42/11
f 27/43/12 299/44/12 298/45/12
f 28/46/13 286/47/13 285/48/13
f 29/49/14 283/50/14 282/51/14 281/52/14 34/53/14 33/54/14
f 30/55/15 254/56/15 253/57/15 252/58/15 39/59/15 38/60/15
f 19/61/16 32/62/16 301/63/16 313/64/16
f 32/62/17 33/54/17 289/65/17 301/63/17
f 33/54/18 34/53/18 292/66/18 289/65/18
f 34/53/19 35/67/19 290/68/19 292/66/19
f 35/67/20 36/69/20 293/70/20 290/68/20
f 36/69/21 37/71/21 245/72/21 293/70/21
f 37/71/22 38/60/22 246/73/22 245/72/22
f 38/60/23 39/59/23 242/74/23 246/73/23
f 39/59/24 40/26/24 243/28/24 242/74/24
f 22/75/25 255/76/25 250/77/25 41/78/25
f 21/79/26 276/80/26 270/81/26
f 41/78/27 250/77/27 251/82/27 42/83/27
f 42/83/28 251/82/28 240/84/28 43/85/28
f 43/85/29 240/84/29 239/86/29 44/87/29
f 44/87/30 239/86/30 249/88/30 45/89/30
f 45/89/31 249/88/31 248/90/31 46/91/31
f 46/91/32 248/90/32 234/92/32 48/93/32
f 47/94/33 48/93/33 231/95/33 230/96/33 227/97/33
f 48/93/34 234/92/34 247/98/34 231/95/34
f 20/99/35 331/100/35 330/101/35
f 19/102/36 313/103/36 303/104/36 49/105/36
f 49/105/37 303/104/37 318/106/37 50/107/37
f 50/107/38 318/106/38 317/108/38 51/109/38
f 51/109/39 317/108/39 327/110/39 52/111/39
f 52/111/40 327/110/40 316/112/40 53/113/40
f 53/113/41 316/112/41 310/114/41 54/115/41
f 54/115/42 310/114/42 309/116/42 325/117/42 56/118/42 55/119/42
f 55/119/43 56/118/43 321/120/43 322/121/43 308/122/43
f 56/118/44 323/123/44 321/120/44
f 69/26/45 59/25/45 60/124/45 78/125/45
f 78/125/46 60/124/46 160/126/46 153/127/46
f 58/61/47 61/62/47 70/128/47 57/129/47
f 61/62/48 62/54/48 71/130/48 70/128/48
f 62/54/49 63/53/49 72/131/49 71/130/49
f 63/53/50 64/67/50 73/132/50 72/131/50
f 64/67/51 65/69/51 74/133/51 73/132/51
f 65/69/52 66/71/52 75/134/52 74/133/52
f 66/71/53 67/60/53 76/135/53 75/134/53
f 67/60/23 68/59/23 77/136/23 76/135/23
f 68/59/54 69/26/54 78/125/54 77/136/54
f 57/129/55 70/128/55 193/137/55 201/138/55
f 70/128/56 71/130/56 185/139/56 193/137/56
f 71/130/57 72/131/57 184/140/57 185/139/57
f 72/131/58 73/132/58 186/141/58 184/140/58
f 73/132/59 74/133/59 187/142/59 186/141/59
f 74/133/60 75/134/60 163/143/60 187/142/60
f 75/134/61 76/135/61 164/144/61 163/143/61
f 76/135/62 77/136/62 152/145/62 164/144/62
f 77/136/63 78/125/63 153/127/63 152/145/63
f 60/146/64 59/75/64 80/78/64 79/147/64
f 59/75/65 178/148/65 174/149/65 80/78/65
f 79/147/66 80/78/66 82/83/66 81/150/66
f 80/78/67 174/149/67 175/151/67 82/83/67
f 81/150/68 82/83/68 84/85/68 83/152/68
f 82/83/69 175/151/69 159/153/69 84/85/69
f 83/152/70 84/85/70 86/87/70 85/154/70
f 84/85/71 159/153/71 158/155/71 86/87/71
f 85/154/72 86/87/72 88/89/72 87/156/72
f 86/87/73 158/155/73 171/157/73 88/89/73
f 87/156/74 88/89/74 90/91/74 89/158/74
f 88/89/75 171/157/75 170/159/75 90/91/75
f 89/158/76 90/91/76 92/93/76 91/94/76
f 90/91/77 170/159/77 155/160/77 92/93/77
f 91/94/78 92/93/78 95/161/78 94/162/78
f 92/93/79 155/160/79 167/163/79 166/164/79 96/165/79 95/161/79
f 93/166/80 182/167/80 169/168/80 97/169/80
f 94/162/81 95/161/81 154/170/81 145/171/81
f 95/161/82 96/165/82 156/172/82 165/173/82 154/170/82
f 96/165/83 97/169/83 168/174/83 156/172/83
f 97/169/84 169/168/84 181/175/84 168/174/84
f 58/102/85 57/176/85 99/177/85 98/105/85
f 57/176/86 201/178/86 200/179/86 99/177/86
f 98/105/87 99/177/87 101/180/87 100/107/87
f 99/177/88 200/179/88 215/181/88 101/180/88
f 100/107/89 101/180/89 103/182/89 102/109/89
f 101/180/90 215/181/90 214/183/90 103/182/90
f 102/109/91 103/182/91 105/184/91 104/111/91
f 103/182/92 214/183/92 212/185/92 105/184/92
f 104/111/93 105/184/93 107/186/93 106/113/93
f 105/184/94 212/185/94 213/187/94 107/186/94
f 106/113/95 107/186/95 109/188/95 108/115/95
f 107/186/96 213/187/96 192/189/96 109/188/96
f 108/115/97 109/188/97 112/118/97 111/119/97
f 109/188/98 192/189/98 221/190/98 112/118/98
f 110/191/99 220/192/99 217/193/99 114/194/99 113/195/99
f 111/119/100 112/118/100 116/196/100 115/197/100
f 112/118/101 221/190/101 199/198/101 116/196/101
f 113/195/102 114/194/102 205/199/102 224/200/102
f 114/194/103 115/197/103 216/201/103 206/202/103 205/199/103
f 115/197/104 116/196/104 197/203/104 216/201/104
f 116/196/105 199/198/105 198/204/105 197/203/105
f 118/205/106 165/206/106 156/207/106 168/208/106 181/209/106 138/205/106
f 134/210/107 218/211/107 217/212/107 220/213/107 209/214/107 208/215/107 142/210/107
f 124/3/108 322/216/108 321/217/108 323/218/108 324/219/108 140/3/108
f 133/220/109 136/221/109 144/221/109 137/220/109
f 119/7/4 123/2/4 121/222/4 435/223/4 434/224/4 438/225/4 439/226/4 117/227/4
f 125/228/110 127/1/110 128/4/110 198/229/110 199/230/110 221/231/110 192/232/110 213/233/110 212/234/110 214/235/110 215/236/110 200/237/110 201/238/110 193/239/110 185/240/110 184/241/110 186/242/110 187/243/110 163/244/110 164/245/110 152/246/110 153/247/110 160/248/110 162/249/110 161/250/110 157/251/110 150/252/110 151/253/110 149/254/110 148/255/110 147/256/110 146/257/110 126/205/110
f 127/1/1 131/2/1 132/3/1 433/258/1 432/259/1 417/260/1 347/261/1 352/262/1 353/263/1 351/264/1 415/265/1 414/266/1 413/267/1 418/268/1 409/269/1 394/270/1 397/271/1 404/272/1 405/273/1 401/274/1 402/275/1 338/276/1 406/277/1 407/278/1 375/279/1 374/280/1 337/281/1 377/282/1 376/283/1 383/284/1 378/285/1 380/286/1 379/287/1 382/288/1 336/289/1 381/290/1 387/291/1 388/292/1 386/293/1 385/294/1 128/4/1
f 131/2/2 306/295/2 304/296/2 314/297/2 312/298/2 302/299/2 315/300/2 329/301/2 311/302/2 328/303/2 320/304/2 319/305/2 132/3/2
f 129/222/111 125/306/111 126/307/111 130/308/111
f 127/7/3 333/309/3 330/310/3 331/311/3 306/295/3 131/2/3
f 120/4/3 206/312/3 216/313/3 197/314/3 198/229/3 128/4/3
f 124/3/3 424/315/3 423/316/3 425/317/3 346/318/3 341/319/3 342/320/3 431/321/3 430/322/3 433/258/3 132/3/3
f 122/308/3 230/323/3 231/324/3 247/325/3 130/308/3
f 118/307/3 122/308/3 130/308/3 126/307/3
f 121/222/112 136/221/112 455/326/112 454/327/112 457/328/112 444/329/112 447/330/112 117/306/112 439/331/112 437/332/112 436/333/112 435/334/112
f 123/2/113 135/335/113 309/336/113 310/337/113 316/338/113 327/339/113 317/340/113 318/341/113 303/342/113 313/343/113 301/344/113 289/345/113 292/346/113 290/347/113 293/348/113 245/349/113 246/350/113 242/351/113 243/352/113 244/353/113 241/354/113 237/355/113 238/356/113 236/357/113 235/358/113 233/359/113 232/360/113 136/221/113 121/222/113
f 119/1/114 134/210/114 362/361/114 361/362/114 358/363/114 359/364/114 372/365/114 356/366/114 355/367/114 354/368/114 392/369/114 403/370/114 400/371/114 391/372/114 398/373/114 399/374/114 396/375/114 395/376/114 389/377/114 390/378/114 393/379/114 408/380/114 411/381/114 412/382/114 340/383/114 345/384/114 428/385/114 427/386/114 135/335/114 123/2/114
f 117/228/115 133/387/115 167/388/115 155/389/115 170/390/115 171/391/115 158/392/115 159/393/115 175/394/115 174/395/115 178/396/115 180/397/115 176/398/115 177/399/115 179/400/115 190/401/115 189/402/115 188/403/115 191/404/115 195/405/115 207/406/115 203/407/115 194/408/115 210/409/115 223/410/115 202/411/115 222/412/115 219/413/115 218/211/115 134/210/115 119/1/115
f 137/387/115 138/205/115 181/209/115 169/414/115 182/415/115 183/416/115
f 142/210/114 139/4/114 370/417/114 369/418/114 357/419/114 371/420/114 363/421/114 364/422/114
f 143/335/113 140/3/113 324/219/113 326/423/113
f 144/221/112 141/308/112 138/307/112 137/220/112
f 136/221/116 232/360/116 229/424/116 228/425/116 144/221/116
f 122/308/117 118/307/117 138/307/117 141/308/117
f 120/4/118 366/426/118 368/427/118 370/417/118 139/4/118
f 135/335/119 427/386/119 426/428/119 349/429/119 350/430/119 421/431/119 420/432/119 143/335/119
f 161/433/120 81/150/120 83/152/120 157/434/120
f 150/435/121 85/154/121 87/156/121 151/436/121
f 207/437/122 58/102/122 98/105/122 203/438/122
f 183/416/107 172/439/107 173/440/107 166/441/107 167/388/107 133/387/107 137/387/107
f 147/442/123 94/162/123 145/171/123 146/443/123
f 202/444/124 106/113/124 108/115/124 222/445/124
f 209/446/125 110/191/125 204/447/125 208/448/125
f 222/445/126 108/115/126 111/119/126 219/449/126
f 195/450/127 61/62/127 58/61/127 207/451/127
f 203/438/128 98/105/128 100/107/128 194/452/128
f 188/453/129 63/53/129 62/54/129 191/454/129
f 179/455/130 66/71/130 65/69/130 190/456/130
f 194/452/131 100/107/131 102/109/131 210/457/131
f 157/434/132 83/152/132 85/154/132 150/435/132
f 211/458/106 224/459/106 205/460/106 206/312/106 120/4/106 139/4/106
f 162/461/133 79/147/133 81/150/133 161/433/133
f 176/462/134 68/59/134 67/60/134 177/463/134
f 146/257/3 145/464/3 154/465/3 165/206/3 118/205/3 126/205/3
f 204/447/135 110/191/135 113/195/135 196/466/135
f 189/467/136 64/67/136 63/53/136 188/453/136
f 148/468/137 91/94/137 94/162/137 147/442/137
f 190/456/138 65/69/138 64/67/138 189/467/138
f 149/469/139 89/158/139 91/94/139 148/468/139
f 219/449/140 111/119/140 115/197/140 114/194/140 217/193/140 218/470/140
f 177/463/141 67/60/141 66/71/141 179/455/141
f 160/471/142 60/146/142 79/147/142 162/461/142
f 151/436/143 87/156/143 89/158/143 149/469/143
f 208/215/115 204/472/115 196/473/115 211/458/115 139/4/115 142/210/115
f 210/457/144 102/109/144 104/111/144 223/474/144
f 173/475/145 93/166/145 97/169/145 96/165/145 166/164/145
f 180/476/146 69/26/146 68/59/146 176/462/146
f 191/454/147 62/54/147 61/62/147 195/450/147
f 182/167/148 93/166/148 172/477/148 183/478/148
f 196/466/149 113/195/149 224/200/149 211/479/149
f 223/474/150 104/111/150 106/113/150 202/444/150
f 178/480/151 59/25/151 69/26/151 180/476/151
f 220/192/152 110/191/152 209/446/152
f 172/477/153 93/166/153 173/475/153
f 271/481/154 25/34/154 294/482/154
f 266/483/155 26/40/155 265/42/155
f 228/425/113 225/484/113 141/308/113 144/221/113
f 314/485/156 19/102/156 49/105/156 312/486/156
f 332/38/157 20/37/157 333/487/157
f 236/488/158 44/87/158 45/89/158 235/489/158
f 311/490/159 53/113/159 54/115/159 328/491/159
f 278/33/160 24/30/160 277/492/160
f 225/484/108 226/493/108 227/494/108 230/323/108 122/308/108 141/308/108
f 307/495/161 27/43/161 298/45/161
f 269/496/162 21/497/162 268/498/162
f 296/499/163 28/46/163 285/48/163
f 283/50/164 29/49/164 297/500/164
f 286/47/165 28/46/165 288/501/165 287/502/165
f 241/503/166 41/78/166 42/83/166 237/504/166
f 275/505/167 26/40/167 266/483/167
f 328/491/168 54/115/168 55/119/168 320/506/168
f 304/507/169 32/62/169 19/61/169 314/508/169
f 312/486/170 49/105/170 50/107/170 302/509/170
f 333/510/171 20/99/171 330/101/171
f 274/511/172 23/29/172 273/32/172
f 272/35/173 25/34/173 271/481/173
f 256/512/174 37/71/174 36/69/174 291/513/174
f 244/514/175 22/75/175 41/78/175 241/503/175
f 319/305/3 308/515/3 322/216/3 124/3/3 132/3/3
f 323/123/176 56/118/176 325/117/176 326/516/176 324/517/176
f 306/295/3 331/311/3 332/518/3 333/309/3 127/7/3 300/519/3 307/520/3 298/521/3 297/522/3 305/523/3
f 282/524/3 285/525/3 286/526/3 287/527/3 127/7/3 125/227/3 271/528/3 294/529/3 295/530/3 259/531/3 258/532/3 257/533/3
f 253/534/3 254/535/3 259/531/3 295/530/3 272/536/3 271/528/3 125/227/3 277/537/3 280/538/3 274/539/3 273/540/3 279/541/3 275/542/3 266/543/3 265/544/3 262/545/3 261/546/3 260/547/3
f 264/548/3 268/549/3 270/550/3 276/551/3 277/537/3 125/227/3 129/222/3
f 269/552/3 268/549/3 264/548/3 263/553/3 262/545/3 265/544/3 267/554/3 275/542/3 279/541/3 278/555/3 277/537/3 276/551/3
f 288/556/3 296/557/3 285/525/3 282/524/3 283/558/3 297/522/3 298/521/3 299/559/3 300/519/3 127/7/3 287/527/3
f 302/509/177 50/107/177 51/109/177 315/560/177
f 247/325/2 234/561/2 248/562/2 249/563/2 239/564/2 240/565/2 251/566/2 250/567/2 255/568/2 264/548/2 129/222/2 130/308/2
f 260/547/2 252/569/2 253/534/2
f 257/533/2 256/570/2 291/571/2 284/572/2 281/573/2 282/524/2
f 294/482/178 25/34/178 295/36/178
f 235/489/179 45/89/179 46/91/179 233/574/179
f 268/575/180 21/79/180 270/81/180
f 326/423/116 325/576/116 309/336/116 135/335/116 143/335/116
f 284/577/181 35/67/181 34/53/181 281/52/181
f 226/578/182 47/94/182 227/97/182
f 291/513/183 36/69/183 35/67/183 284/577/183
f 267/41/184 26/40/184 275/505/184
f 280/579/185 23/29/185 274/511/185
f 229/580/186 47/94/186 226/578/186 225/581/186 228/582/186
f 320/506/187 55/119/187 308/122/187 319/583/187
f 258/584/188 30/55/188 38/60/188 37/71/188 256/512/188 257/585/188
f 259/586/189 30/55/189 258/584/189
f 300/587/190 27/43/190 307/495/190
f 315/560/191 51/109/191 52/111/191 329/588/191
f 254/56/192 30/55/192 259/586/192
f 299/44/193 27/43/193 300/587/193
f 288/501/194 28/46/194 296/499/194
f 261/589/195 31/21/195 40/26/195 39/59/195 252/58/195 260/590/195
f 276/591/196 21/497/196 269/496/196
f 305/592/197 29/49/197 33/54/197 32/62/197 304/507/197 306/593/197
f 233/574/198 46/91/198 48/93/198 47/94/198 229/580/198 232/594/198
f 277/492/199 24/30/199 23/29/199 280/579/199
f 329/588/200 52/111/200 53/113/200 311/490/200
f 262/595/201 31/21/201 261/589/201
f 263/22/202 31/21/202 262/595/202
f 237/504/203 42/83/203 43/85/203 238/596/203
f 297/500/204 29/49/204 305/592/204
f 238/596/205 43/85/205 44/87/205 236/488/205
f 343/597/118 344/598/118 348/599/118 422/600/118 424/315/118 124/3/118 140/3/118
f 385/294/3 384/601/3 373/602/3 367/603/3 366/426/3 120/4/3 128/4/3
f 364/422/119 365/604/119 335/605/119 334/606/119 360/607/119 362/361/119 134/210/119 142/210/119
f 420/432/114 419/608/114 416/609/114 429/610/114 410/611/114 339/612/114 343/597/114 140/3/114 143/335/114
f 436/19/2 18/3/2 434/613/2 435/614/2
f 434/613/1 18/3/1 17/4/1 438/615/1
f 438/615/110 17/4/110 437/616/110 439/617/110
f 133/220/112 443/618/112 442/619/112 441/620/112 136/221/112
f 443/621/110 13/1/110 14/4/110 442/622/110
f 447/623/110 9/1/110 10/4/110 446/624/110
f 117/306/112 447/330/112 446/625/112 445/626/112 453/627/112 450/628/112 451/629/112 136/221/112 441/620/112 440/630/112 443/618/112 133/220/112
f 452/621/110 5/1/110 6/4/110 450/622/110 453/631/110
f 457/632/110 1/1/110 2/4/110 456/633/110
f 444/329/112 457/328/112 456/634/112 455/326/112 136/221/112 451/629/112 449/635/112 448/636/112 452/637/112 453/627/112 445/626/112
