# Blender 4.4.0
# www.blender.org
o Cube.008
v -16.999840 16.100750 6.878817
v -16.999840 18.194582 6.878817
v -18.438833 16.100750 6.878817
v -18.438833 18.194582 6.878817
v -12.522561 16.100750 6.878817
v -12.522561 18.194582 6.878817
v -13.961555 16.100750 6.878817
v -13.961555 18.194582 6.878817
v -17.941778 11.644768 -4.214639
v -17.941778 13.738600 -4.214639
v -17.941778 11.644768 -5.653632
v -17.941778 13.738600 -5.653632
v -17.941778 11.644768 0.262638
v -17.941778 13.738600 0.262638
v -17.941778 11.644768 -1.176355
v -17.941778 13.738600 -1.176355
v -17.941778 11.644768 4.739916
v -17.941778 13.738600 4.739916
v -17.941778 11.644768 3.300923
v -17.941778 13.738600 3.300923
v -17.941778 16.100750 -4.214639
v -17.941778 18.194582 -4.214639
v -17.941778 16.100750 -5.653632
v -17.941778 18.194582 -5.653632
v -17.941778 16.100750 0.262638
v -17.941778 18.194582 0.262638
v -17.941778 16.100750 -1.176355
v -17.941778 18.194582 -1.176355
v -17.941778 16.100750 4.739916
v -17.941778 18.194582 4.739916
v -17.941778 16.100750 3.300923
v -17.941778 18.194582 3.300923
v -17.621290 3.032030 4.860230
v -17.621290 3.032030 3.092525
v -19.282269 0.000000 8.263121
v -19.282269 21.959059 8.263121
v -19.282269 0.000000 -8.263121
v -19.282269 21.959059 -8.263121
v -9.804873 0.000000 8.263121
v -9.804873 21.959059 8.263121
v -9.804873 0.000000 -8.263121
v -9.804873 21.959059 -8.263121
v -19.282269 20.752209 8.263121
v -19.282269 20.752209 -8.263121
v -9.804873 20.752209 -8.263121
v -9.804873 20.752209 8.263121
v -20.770014 20.752209 9.750866
v -20.770014 21.959059 9.750866
v -20.770014 21.959059 -9.750866
v -8.317127 21.959059 -9.750866
v -8.317127 21.959059 9.750866
v -20.770014 20.752209 -9.750866
v -8.317127 20.752209 -9.750866
v -8.317127 20.752209 9.750866
v -19.282269 22.975964 8.263121
v -19.282269 22.975964 -8.263121
v -9.804873 22.975964 -8.263121
v -9.804873 22.975964 8.263121
v -20.770014 22.975964 9.750866
v -20.770014 22.975964 -9.750866
v -8.317127 22.975964 -9.750866
v -8.317127 22.975964 9.750866
v -17.621290 0.000000 3.092525
v -17.621290 0.000000 4.860230
v -19.282269 0.000000 4.860230
v -19.282269 3.032030 4.860230
v -19.282269 3.032030 3.092525
v -19.282269 0.000000 3.092525
v -19.282269 16.100750 4.739916
v -19.282269 18.194580 4.739916
v -19.282269 18.194580 3.300923
v -19.282269 16.100750 3.300923
v -19.282269 16.100750 0.262638
v -19.282269 18.194580 0.262638
v -19.282269 18.194580 -1.176354
v -19.282269 17.901667 -1.176354
v -19.282269 16.100750 -1.176355
v -19.282269 17.322853 0.262637
v -19.282269 16.100750 -4.214639
v -19.282269 18.194582 -4.214639
v -19.282269 18.194580 -5.653632
v -19.282269 16.100750 -5.653632
v -19.282269 11.644766 4.739916
v -19.282269 13.738600 4.739916
v -19.282269 13.738600 3.300923
v -19.282269 11.644768 3.300923
v -19.282269 11.644768 0.262638
v -19.282269 13.738600 -0.230582
v -19.282269 13.738600 0.262638
v -19.282269 13.738600 -1.176355
v -19.282269 11.644768 -1.176355
v -19.282269 13.446169 0.262639
v -19.282269 11.644768 -4.214639
v -19.282269 13.738600 -4.214639
v -19.282269 13.738600 -5.653632
v -19.282269 11.644768 -5.653632
v -12.522561 16.100750 8.263121
v -12.522561 18.194580 8.263121
v -13.961555 18.194580 8.263121
v -13.961555 16.100750 8.263121
v -16.999840 16.100750 8.263121
v -16.999840 18.194582 8.263121
v -18.438833 18.194582 8.263121
v -18.438833 16.100750 8.263121
vn -0.0000 -0.0000 1.0000
vn -1.0000 -0.0000 -0.0000
vn -0.0000 -1.0000 -0.0000
vn -0.0000 -0.0000 -1.0000
vn -0.0000 1.0000 -0.0000
vn 1.0000 -0.0000 -0.0000
vt 0.375000 0.500000
vt 0.375000 0.750000
vt 0.625000 0.750000
vt 0.625000 0.500000
vt 0.375000 0.920088
vt 0.625000 0.920088
vt 0.795088 0.750000
vt 0.795088 0.500000
vt 0.375000 0.920088
vt 0.795088 0.500000
vt 0.375000 0.914705
vt 0.625000 0.914705
vt 0.789705 0.750000
vt 0.789705 0.500000
vt 0.590084 0.914705
vt 0.789705 0.664312
vt 0.520917 0.914705
vt 0.829083 0.750000
vt 0.829083 0.500000
vt 0.611260 0.250000
vt 0.611260 0.000000
vt 0.611260 1.000000
vt 0.611260 0.750000
vt 0.611260 0.500000
vt 0.125000 0.500000
vt 0.125000 0.750000
vt 0.125000 0.698523
vt 0.168814 0.698523
vt 0.168814 0.671782
vt 0.125000 0.671782
vt 0.875000 0.500000
vt 0.875000 0.750000
vt 0.582142 0.821689
vt 0.558304 0.821689
vt 0.558304 0.859647
vt 0.582142 0.939793
vt 0.558304 0.939793
vt 0.558304 0.977751
vt 0.375000 1.000000
vt 0.375000 0.250000
vt 0.375000 0.000000
vt 0.531412 0.053297
vt 0.507574 0.053297
vt 0.507574 0.075065
vt 0.528082 0.121027
vt 0.507574 0.121027
vt 0.507574 0.142795
vt 0.531412 0.142795
vt 0.531412 0.188757
vt 0.507574 0.188757
vt 0.507574 0.210525
vt 0.375000 0.078218
vt 0.409519 0.078218
vt 0.409519 0.051477
vt 0.375000 0.051477
vt 0.625000 0.000000
vt 0.625000 0.250000
vt 0.625000 1.000000
vt 0.377946 0.750000
vt 0.377946 0.500000
vt 0.625000 0.295917
vt 0.377946 0.295917
vt 0.625000 0.954083
vt 0.377946 0.954083
vt 0.375000 0.335295
vt 0.625000 0.335295
vt 0.578807 0.142795
vt 0.582142 0.142795
vt 0.582142 0.121027
vt 0.572218 0.121027
vt 0.558304 0.075065
vt 0.582142 0.075065
vt 0.582142 0.053297
vt 0.210295 0.750000
vt 0.210295 0.500000
vt 0.590026 0.335295
vt 0.558304 0.210525
vt 0.582142 0.210525
vt 0.582142 0.188757
vt 0.558304 0.188757
vt 0.531412 0.128488
vt 0.531412 0.121027
vt 0.531412 0.075065
vt 0.558304 0.053297
vt 0.558304 0.121027
vt 0.558304 0.142795
vt 0.531412 0.210525
vt 0.582142 0.859647
vt 0.375000 0.329912
vt 0.625000 0.329912
vt 0.204912 0.750000
vt 0.204912 0.500000
vt 0.204912 0.750000
vt 0.204912 0.500000
vt 0.582142 0.977751
s 0
f 3/1/1 1/2/1 2/3/1 4/4/1
f 1/2/2 101/5/2 102/6/2 2/3/2
f 4/4/3 2/3/3 102/7/3 103/8/3
f 7/1/1 5/2/1 6/3/1 8/4/1
f 5/2/2 97/9/2 98/6/2 6/3/2
f 8/4/3 6/3/3 98/7/3 99/10/3
f 11/1/2 9/2/2 10/3/2 12/4/2
f 9/2/4 93/11/4 94/12/4 10/3/4
f 12/4/3 10/3/3 94/13/3 95/14/3
f 15/1/2 13/2/2 14/3/2 16/4/2
f 13/2/4 87/11/4 92/15/4 89/12/4 14/3/4
f 16/4/3 14/3/3 89/13/3 88/16/3 90/14/3
f 19/1/2 17/2/2 18/3/2 20/4/2
f 17/2/4 83/11/4 84/12/4 18/3/4
f 20/4/3 18/3/3 84/13/3 85/14/3
f 23/1/2 21/2/2 22/3/2 24/4/2
f 21/2/4 79/11/4 80/12/4 22/3/4
f 24/4/3 22/3/3 80/13/3 81/14/3
f 27/1/2 25/2/2 26/3/2 28/4/2
f 25/2/4 73/11/4 78/17/4 74/12/4 26/3/4
f 28/4/3 26/3/3 74/13/3 75/14/3
f 31/1/2 29/2/2 30/3/2 32/4/2
f 29/2/4 69/11/4 70/12/4 30/3/4
f 32/4/3 30/3/3 70/13/3 71/14/3
f 34/4/3 33/3/3 66/18/3 67/19/3
f 44/20/3 43/21/3 47/21/3 52/20/3
f 42/4/2 40/3/2 58/3/2 57/4/2
f 43/22/3 46/23/3 54/23/3 47/22/3
f 45/24/3 44/20/3 52/20/3 53/24/3
f 37/25/3 41/1/3 39/2/3 35/26/3 65/27/3 64/28/3 63/29/3 68/30/3
f 42/4/5 38/31/5 36/32/5 40/3/5
f 39/2/1 46/23/1 98/33/1 97/34/1 100/35/1 102/36/1 101/37/1 104/38/1 43/22/1 35/39/1
f 41/1/6 45/24/6 46/23/6 39/2/6
f 37/40/4 44/20/4 45/24/4 41/1/4
f 35/41/2 43/21/2 84/42/2 83/43/2 86/44/2 92/45/2 87/46/2 91/47/2 90/48/2 94/49/2 93/50/2 96/51/2 44/20/2 37/40/2 68/52/2 67/53/2 66/54/2 65/55/2
f 47/21/2 48/56/2 49/57/2 52/20/2
f 52/20/4 49/57/4 50/4/4 53/24/4
f 53/24/6 50/4/6 51/3/6 54/23/6
f 54/23/1 51/3/1 48/58/1 47/22/1
f 49/57/2 48/56/2 59/56/2 60/57/2
f 46/23/3 45/24/3 53/24/3 54/23/3
f 51/3/6 50/4/6 61/4/6 62/3/6
f 38/31/1 42/4/1 57/4/1 56/31/1
f 56/31/5 57/4/5 61/4/5 60/31/5
f 57/4/5 58/3/5 62/3/5 61/4/5
f 55/32/5 56/31/5 60/31/5 59/32/5
f 58/3/5 55/32/5 59/32/5 62/3/5
f 48/58/1 51/3/1 62/3/1 59/58/1
f 36/32/6 38/31/6 56/31/6 55/32/6
f 50/4/4 49/57/4 60/57/4 61/4/4
f 40/3/4 36/32/4 55/32/4 58/3/4
f 64/59/2 33/3/2 34/4/2 63/60/2
f 63/60/1 34/4/1 67/61/1 68/62/1
f 66/63/4 33/3/4 64/59/4 65/64/4
f 72/65/1 31/1/1 32/4/1 71/66/1
f 44/20/2 76/67/2 75/68/2 74/69/2 78/70/2 72/71/2 71/72/2 70/73/2 43/21/2
f 69/74/5 29/2/5 31/1/5 72/75/5
f 77/65/1 27/1/1 28/4/1 75/66/1 76/76/1
f 73/74/5 25/2/5 27/1/5 77/75/5
f 44/20/2 82/77/2 81/78/2 80/79/2 76/67/2
f 82/65/1 23/1/1 24/4/1 81/66/1
f 79/74/5 21/2/5 23/1/5 82/75/5
f 86/65/1 19/1/1 20/4/1 85/66/1
f 79/80/2 88/81/2 89/82/2 92/45/2 86/44/2 85/83/2 84/42/2 43/21/2 70/73/2 69/84/2 72/71/2 78/70/2 73/85/2 77/86/2 76/67/2 80/79/2
f 83/74/5 17/2/5 19/1/5 86/75/5
f 91/65/1 15/1/1 16/4/1 90/66/1
f 87/74/5 13/2/5 15/1/5 91/75/5
f 44/20/2 96/51/2 95/87/2 94/49/2 90/48/2 88/81/2 79/80/2 82/77/2
f 96/65/1 11/1/1 12/4/1 95/66/1
f 93/74/5 9/2/5 11/1/5 96/75/5
f 43/22/1 100/35/1 99/88/1 98/33/1 46/23/1
f 100/89/6 7/1/6 8/4/6 99/90/6
f 97/91/5 5/2/5 7/1/5 100/92/5
f 104/89/6 3/1/6 4/4/6 103/90/6
f 101/93/5 1/2/5 3/1/5 104/94/5
f 43/22/1 104/38/1 103/95/1 102/36/1 100/35/1
