# Blender 4.4.0
# www.blender.org
o Cube
v -0.550377 0.476799 2.507870
v -0.550377 1.577552 2.507870
v 0.550377 0.476799 2.507870
v 0.550377 1.577552 2.507870
v -0.550377 2.159319 2.507870
v -0.550377 3.260073 2.507870
v 0.550377 2.159319 2.507870
v 0.550377 3.260073 2.507870
v -0.550377 3.841839 2.507870
v -0.550377 4.942593 2.507870
v 0.550377 3.841839 2.507870
v 0.550377 4.942593 2.507870
v -0.550377 5.524360 2.507870
v -0.550377 6.625113 2.507870
v 0.550377 5.524360 2.507870
v 0.550377 6.625113 2.507870
v -0.550377 7.206880 2.507870
v -0.550377 8.307634 2.507870
v 0.550377 7.206880 2.507870
v 0.550377 8.307634 2.507870
v -0.550377 8.889400 2.507870
v -0.550377 9.990154 2.507870
v 0.550377 8.889400 2.507870
v 0.550377 9.990154 2.507870
v -0.550377 10.571920 2.507870
v -0.550377 11.672674 2.507870
v 0.550377 10.571920 2.507870
v 0.550377 11.672674 2.507870
v -0.550377 12.254440 2.507870
v -0.550377 13.355194 2.507870
v 0.550377 12.254440 2.507870
v 0.550377 13.355194 2.507870
v -0.550377 13.936960 2.507870
v -0.550377 15.037714 2.507870
v 0.550377 13.936960 2.507870
v 0.550377 15.037714 2.507870
v -0.550377 15.619480 2.507870
v -0.550377 16.720234 2.507870
v 0.550377 15.619480 2.507870
v 0.550377 16.720234 2.507870
v -0.550377 17.302000 2.507870
v -0.550377 18.402754 2.507870
v 0.550377 17.302000 2.507870
v 0.550377 18.402754 2.507870
v -0.550377 18.984520 2.507870
v -0.550377 20.085274 2.507870
v 0.550377 18.984520 2.507870
v 0.550377 20.085274 2.507870
v -0.550377 20.667040 2.507870
v -0.550377 21.767794 2.507870
v 0.550377 20.667040 2.507870
v 0.550377 21.767794 2.507870
v -6.196695 -1.000000 6.196695
v -6.196695 22.668655 6.196695
v -6.196695 -1.000000 -6.196695
v -6.196695 22.668655 -6.196695
v 6.196695 -1.000000 6.196695
v 6.196695 22.668655 6.196695
v 6.196695 -1.000000 -6.196695
v 6.196695 22.668655 -6.196695
v 1.941270 -1.000000 -6.196695
v -2.189860 -1.000000 -6.196695
v -2.189860 22.668655 -6.196695
v 1.941270 22.668655 -6.196695
v -2.189860 -1.000000 6.196695
v 1.941270 -1.000000 6.196695
v 1.941270 22.668655 6.196695
v -2.189860 22.668655 6.196695
v -2.189860 -1.000000 3.043789
v 1.941270 -1.000000 3.043789
v 1.941270 22.668655 3.043789
v -2.189860 22.668655 3.043789
v 0.550377 20.667040 3.043789
v 0.550377 21.767794 3.043789
v -0.550377 21.767794 3.043789
v -0.550377 20.667040 3.043789
v 0.550377 18.984520 3.043789
v 0.550377 20.085274 3.043789
v -0.550377 20.085274 3.043789
v -0.550377 18.984520 3.043789
v 0.550377 17.302000 3.043789
v 0.550377 18.402754 3.043789
v -0.550377 18.402754 3.043789
v -0.550377 17.302000 3.043789
v 0.550377 15.619480 3.043789
v 0.550377 16.720234 3.043789
v -0.550377 16.720234 3.043789
v -0.550377 15.619480 3.043789
v 0.550377 13.936960 3.043789
v 0.550377 15.037714 3.043789
v -0.550377 15.037714 3.043789
v -0.550377 13.936960 3.043789
v 0.550377 12.254440 3.043789
v 0.550377 13.355194 3.043789
v -0.550377 13.355194 3.043789
v -0.550377 12.254440 3.043789
v 0.550377 10.571920 3.043789
v 0.550377 11.672674 3.043789
v -0.550377 11.672674 3.043789
v -0.550377 10.571920 3.043789
v 0.550377 8.889400 3.043789
v 0.550377 9.990154 3.043789
v -0.550377 9.990154 3.043789
v -0.550377 8.889400 3.043789
v 0.550377 7.206880 3.043789
v 0.550377 8.307634 3.043789
v -0.550377 8.307634 3.043789
v -0.550377 7.206880 3.043789
v 0.550377 5.524360 3.043789
v 0.550377 6.625113 3.043789
v -0.550377 6.625113 3.043789
v -0.550377 5.524360 3.043789
v 0.550377 3.841839 3.043789
v 0.550377 4.942593 3.043789
v -0.550377 4.942593 3.043789
v -0.550377 3.841839 3.043789
v 0.550377 2.159319 3.043789
v 0.550377 3.260073 3.043789
v -0.550377 3.260073 3.043789
v -0.550377 2.159319 3.043789
v 0.550377 0.476799 3.043789
v 0.550377 1.577552 3.043789
v -0.550377 1.577552 3.043789
v -0.550377 0.476799 3.043789
vn -0.0000 -0.0000 1.0000
vn -1.0000 -0.0000 -0.0000
vn -0.0000 1.0000 -0.0000
vn -0.0000 -1.0000 -0.0000
vn -0.0000 -0.0000 -1.0000
vn 1.0000 -0.0000 -0.0000
vt 1.275601 -2.217162
vt 1.539940 -2.217162
vt 1.539940 -1.952823
vt 1.275601 -1.952823
vt 1.368130 -2.217162
vt 1.239432 -2.217162
vt 1.239432 -1.952823
vt 1.368130 -1.952823
vt 1.275601 0.289937
vt 1.275601 0.161240
vt 1.539940 0.161240
vt 1.539940 0.289937
vt 1.275601 -1.813116
vt 1.539940 -1.813116
vt 1.539940 -1.548777
vt 1.275601 -1.548777
vt 1.368130 -1.813116
vt 1.239432 -1.813116
vt 1.239432 -1.548777
vt 1.368130 -1.548777
vt 1.275601 -1.409069
vt 1.539940 -1.409069
vt 1.539940 -1.144730
vt 1.275601 -1.144730
vt 1.368130 -1.409069
vt 1.239432 -1.409069
vt 1.239432 -1.144730
vt 1.368130 -1.144730
vt 1.275601 -1.005023
vt 1.539940 -1.005023
vt 1.539940 -0.740684
vt 1.275601 -0.740684
vt 1.368130 -1.005023
vt 1.239432 -1.005023
vt 1.239432 -0.740684
vt 1.368130 -0.740684
vt 1.275601 -0.600976
vt 1.539940 -0.600976
vt 1.539940 -0.336637
vt 1.275601 -0.336637
vt 1.368130 -0.600976
vt 1.239432 -0.600976
vt 1.239432 -0.336637
vt 1.368130 -0.336637
vt 1.275601 -0.196930
vt 1.539940 -0.196930
vt 1.539940 0.067409
vt 1.275601 0.067409
vt 1.368130 -0.196930
vt 1.239432 -0.196930
vt 1.239432 0.067409
vt 1.368130 0.067409
vt 1.275601 0.207117
vt 1.539940 0.207117
vt 1.539940 0.471456
vt 1.275601 0.471456
vt 1.368130 0.207117
vt 1.239432 0.207117
vt 1.239432 0.471456
vt 1.368130 0.471456
vt 1.275601 0.611163
vt 1.539940 0.611163
vt 1.539940 0.875502
vt 1.275601 0.875502
vt 1.368130 0.611163
vt 1.239432 0.611163
vt 1.239432 0.875502
vt 1.368130 0.875502
vt 1.539940 0.161240
vt 1.275601 1.015209
vt 1.539940 1.015209
vt 1.539940 1.279548
vt 1.275601 1.279548
vt 1.368130 1.015209
vt 1.239432 1.015209
vt 1.239432 1.279548
vt 1.368130 1.279548
vt 1.275601 1.419256
vt 1.539940 1.419256
vt 1.539940 1.683595
vt 1.275601 1.683595
vt 1.368130 1.419256
vt 1.239432 1.419256
vt 1.239432 1.683595
vt 1.368130 1.683595
vt 1.275601 1.823302
vt 1.539940 1.823302
vt 1.539940 2.087641
vt 1.275601 2.087641
vt 1.368130 1.823302
vt 1.239432 1.823302
vt 1.239432 2.087641
vt 1.368130 2.087641
vt 1.275601 2.227348
vt 1.539940 2.227348
vt 1.539940 2.491687
vt 1.275601 2.491687
vt 1.368130 2.227348
vt 1.239432 2.227348
vt 1.239432 2.491687
vt 1.368130 2.491687
vt 1.275601 2.631394
vt 1.539940 2.631394
vt 1.539940 2.895734
vt 1.275601 2.895734
vt 1.368130 2.631394
vt 1.239432 2.631394
vt 1.239432 2.895734
vt 1.368130 2.895734
vt 0.482282 -2.571806
vt 0.482282 3.112070
vt 3.458475 3.112070
vt 3.458475 -2.571806
vt 1.873954 -2.571806
vt 1.873954 3.112070
vt 2.895867 3.112070
vt 2.895867 -2.571806
vt 0.881890 -2.571806
vt 0.881890 3.112070
vt -0.080326 3.112070
vt -0.080326 -2.571806
vt 1.873954 2.380282
vt 2.895867 2.380282
vt 2.895867 -0.595910
vt 1.873954 -0.595910
vt 1.873954 0.161240
vt 0.881890 2.380282
vt -0.080326 2.380282
vt -0.080326 -0.595910
vt 0.881890 -0.595910
vt 0.881890 0.161240
vt 1.239432 3.112070
vt 1.239432 -2.571806
vt 1.239432 1.015209
vt 1.239432 1.279548
vt 1.239432 0.875502
s 0
f 1/1/1 3/2/1 4/3/1 2/4/1
f 3/5/2 121/6/2 122/7/2 4/8/2
f 1/9/3 124/10/3 121/11/3 3/12/3
f 4/12/4 122/11/4 123/10/4 2/9/4
f 5/13/1 7/14/1 8/15/1 6/16/1
f 7/17/2 117/18/2 118/19/2 8/20/2
f 5/9/3 120/10/3 117/11/3 7/12/3
f 8/12/4 118/11/4 119/10/4 6/9/4
f 9/21/1 11/22/1 12/23/1 10/24/1
f 11/25/2 113/26/2 114/27/2 12/28/2
f 9/9/3 116/10/3 113/11/3 11/12/3
f 12/12/4 114/11/4 115/10/4 10/9/4
f 13/29/1 15/30/1 16/31/1 14/32/1
f 15/33/2 109/34/2 110/35/2 16/36/2
f 13/9/3 112/10/3 109/11/3 15/12/3
f 16/12/4 110/11/4 111/10/4 14/9/4
f 17/37/1 19/38/1 20/39/1 18/40/1
f 19/41/2 105/42/2 106/43/2 20/44/2
f 17/9/3 108/10/3 105/11/3 19/12/3
f 20/12/4 106/11/4 107/10/4 18/9/4
f 21/45/1 23/46/1 24/47/1 22/48/1
f 23/49/2 101/50/2 102/51/2 24/52/2
f 21/9/3 104/10/3 101/11/3 23/12/3
f 24/12/4 102/11/4 103/10/4 22/9/4
f 25/53/1 27/54/1 28/55/1 26/56/1
f 27/57/2 97/58/2 98/59/2 28/60/2
f 25/9/3 100/10/3 97/11/3 27/12/3
f 28/12/4 98/11/4 99/10/4 26/9/4
f 29/61/1 31/62/1 32/63/1 30/64/1
f 31/65/2 93/66/2 94/67/2 32/68/2
f 29/9/3 96/10/3 93/11/3 31/12/3
f 32/12/4 94/69/4 95/10/4 30/9/4
f 33/70/1 35/71/1 36/72/1 34/73/1
f 35/74/2 89/75/2 90/76/2 36/77/2
f 33/9/3 92/10/3 89/69/3 35/12/3
f 36/12/4 90/69/4 91/10/4 34/9/4
f 37/78/1 39/79/1 40/80/1 38/81/1
f 39/82/2 85/83/2 86/84/2 40/85/2
f 37/9/3 88/10/3 85/11/3 39/12/3
f 40/12/4 86/11/4 87/10/4 38/9/4
f 41/86/1 43/87/1 44/88/1 42/89/1
f 43/90/2 81/91/2 82/92/2 44/93/2
f 41/9/3 84/10/3 81/11/3 43/12/3
f 44/12/4 82/11/4 83/10/4 42/9/4
f 45/94/1 47/95/1 48/96/1 46/97/1
f 47/98/2 77/99/2 78/100/2 48/101/2
f 45/9/3 80/10/3 77/11/3 47/12/3
f 48/12/4 78/11/4 79/10/4 46/9/4
f 49/102/1 51/103/1 52/104/1 50/105/1
f 51/106/2 73/107/2 74/108/2 52/109/2
f 49/9/3 76/10/3 73/11/3 51/12/3
f 52/12/4 74/11/4 75/10/4 50/9/4
f 53/110/2 54/111/2 56/112/2 55/113/2
f 61/114/5 64/115/5 60/116/5 59/117/5
f 59/113/6 60/112/6 58/111/6 57/110/6
f 65/118/1 68/119/1 54/120/1 53/121/1
f 61/122/4 59/123/4 57/124/4 66/125/4 70/126/4
f 63/127/3 56/128/3 54/129/3 68/130/3 72/131/3
f 60/123/3 64/122/3 71/126/3 67/125/3 58/124/3
f 55/128/4 62/127/4 69/131/4 65/130/4 53/129/4
f 57/117/1 58/116/1 67/115/1 66/114/1
f 66/110/2 67/111/2 71/132/2 70/133/2
f 55/121/5 56/120/5 63/119/5 62/118/5
f 62/118/5 63/119/5 64/115/5 61/114/5
f 70/114/1 71/115/1 98/55/1 97/54/1 100/53/1 69/118/1 104/45/1 103/48/1 102/47/1
f 68/111/6 65/110/6 69/133/6 72/132/6
f 64/122/3 63/127/3 72/131/3 71/126/3
f 62/127/4 61/122/4 70/126/4 69/131/4
f 72/119/1 76/102/1 75/105/1 74/104/1 71/115/1
f 76/107/6 49/106/6 50/109/6 75/108/6
f 72/119/1 80/94/1 79/97/1 78/96/1 71/115/1 74/104/1 73/103/1 76/102/1
f 80/99/6 45/98/6 46/101/6 79/100/6
f 72/119/1 84/86/1 83/89/1 82/88/1 71/115/1 78/96/1 77/95/1 80/94/1
f 84/91/6 41/90/6 42/93/6 83/92/6
f 72/119/1 88/78/1 87/81/1 86/80/1 71/115/1 82/88/1 81/87/1 84/86/1
f 88/83/6 37/82/6 38/85/6 87/84/6
f 92/134/6 33/74/6 34/77/6 91/135/6
f 72/119/1 92/70/1 91/73/1 90/72/1 71/115/1 86/80/1 85/79/1 88/78/1
f 72/119/1 96/61/1 95/64/1 94/63/1 71/115/1 90/72/1 89/71/1 92/70/1
f 96/66/6 29/65/6 30/68/6 95/136/6
f 100/58/6 25/57/6 26/60/6 99/59/6
f 69/118/1 100/53/1 99/56/1 98/55/1 71/115/1 94/63/1 93/62/1 96/61/1 72/119/1
f 104/50/6 21/49/6 22/52/6 103/51/6
f 102/47/1 101/46/1 104/45/1 69/118/1 108/37/1 107/40/1 106/39/1 70/114/1
f 70/114/1 106/39/1 105/38/1 108/37/1 69/118/1 112/29/1 111/32/1 110/31/1
f 108/42/6 17/41/6 18/44/6 107/43/6
f 110/31/1 109/30/1 112/29/1 69/118/1 116/21/1 115/24/1 114/23/1 70/114/1
f 112/34/6 13/33/6 14/36/6 111/35/6
f 70/114/1 114/23/1 113/22/1 116/21/1 69/118/1 120/13/1 119/16/1 118/15/1
f 116/26/6 9/25/6 10/28/6 115/27/6
f 118/15/1 117/14/1 120/13/1 69/118/1 124/1/1 123/4/1 122/3/1 70/114/1
f 120/18/6 5/17/6 6/20/6 119/19/6
f 124/6/6 1/5/6 2/8/6 123/7/6
f 70/114/1 122/3/1 121/2/1 124/1/1 69/118/1
o Cube.001
v -0.567300 -0.265907 2.547419
v -0.567300 22.536177 2.547419
v -0.567300 -0.265907 1.864105
v -0.567300 22.536177 1.864105
v 0.509624 -0.265907 2.547419
v 0.509624 22.536177 2.547419
v 0.509624 -0.265907 1.864105
v 0.509624 22.536177 1.864105
vn -1.0000 -0.0000 -0.0000
vn -0.0000 -0.0000 -1.0000
vn 1.0000 -0.0000 -0.0000
vn -0.0000 -0.0000 1.0000
vn -0.0000 -1.0000 -0.0000
vn -0.0000 1.0000 -0.0000
vt 0.375000 0.000000
vt 0.625000 0.000000
vt 0.625000 0.250000
vt 0.375000 0.250000
vt 0.625000 0.500000
vt 0.375000 0.500000
vt 0.625000 0.750000
vt 0.375000 0.750000
vt 0.625000 1.000000
vt 0.375000 1.000000
vt 0.125000 0.500000
vt 0.125000 0.750000
vt 0.875000 0.500000
vt 0.875000 0.750000
s 0
f 125/137/7 126/138/7 128/139/7 127/140/7
f 127/140/8 128/139/8 132/141/8 131/142/8
f 131/142/9 132/141/9 130/143/9 129/144/9
f 129/144/10 130/143/10 126/145/10 125/146/10
f 127/147/11 131/142/11 129/144/11 125/148/11
f 132/141/12 128/149/12 126/150/12 130/143/12
o Plane
v -0.540957 20.649591 2.845371
v 0.540957 20.649591 2.845371
v -0.540957 21.770479 2.845371
v 0.540957 21.770479 2.845371
vn -0.0000 -0.0000 1.0000
vt 0.000000 0.000000
vt 1.000000 0.000000
vt 1.000000 1.000000
vt 0.000000 1.000000
s 0
f 133/151/13 134/152/13 136/153/13 135/154/13
o Plane.001
v -0.540957 18.947714 2.845371
v 0.540957 18.947714 2.845371
v -0.540957 20.068602 2.845371
v 0.540957 20.068602 2.845371
vn -0.0000 -0.0000 1.0000
vt 0.000000 0.000000
vt 1.000000 0.000000
vt 1.000000 1.000000
vt 0.000000 1.000000
s 0
f 137/155/14 138/156/14 140/157/14 139/158/14
o Plane.002
v -0.540957 17.249544 2.845371
v 0.540957 17.249544 2.845371
v -0.540957 18.370432 2.845371
v 0.540957 18.370432 2.845371
vn -0.0000 -0.0000 1.0000
vt 0.000000 0.000000
vt 1.000000 0.000000
vt 1.000000 1.000000
vt 0.000000 1.000000
s 0
f 141/159/15 142/160/15 144/161/15 143/162/15
o Plane.003
v -0.540957 15.586367 2.845371
v 0.540957 15.586367 2.845371
v -0.540957 16.707254 2.845371
v 0.540957 16.707254 2.845371
vn -0.0000 -0.0000 1.0000
vt 0.000000 0.000000
vt 1.000000 0.000000
vt 1.000000 1.000000
vt 0.000000 1.000000
s 0
f 145/163/16 146/164/16 148/165/16 147/166/16
o Plane.004
v -0.540957 13.894671 2.845371
v 0.540957 13.894671 2.845371
v -0.540957 15.015559 2.845371
v 0.540957 15.015559 2.845371
vn -0.0000 -0.0000 1.0000
vt 0.000000 0.000000
vt 1.000000 0.000000
vt 1.000000 1.000000
vt 0.000000 1.000000
s 0
f 149/167/17 150/168/17 152/169/17 151/170/17
o Plane.005
v -0.826259 11.904910 2.845371
v 0.826259 11.904910 2.845371
v -0.826259 13.616956 2.845371
v 0.826259 13.616956 2.845371
vn -0.0000 -0.0000 1.0000
vt 0.000000 0.000000
vt 1.000000 0.000000
vt 1.000000 1.000000
vt 0.000000 1.000000
s 0
f 153/171/18 154/172/18 156/173/18 155/174/18
o Plane.006
v -0.540957 10.529869 2.845371
v 0.540957 10.529869 2.845371
v -0.540957 11.650757 2.845371
v 0.540957 11.650757 2.845371
vn -0.0000 -0.0000 1.0000
vt 0.000000 0.000000
vt 1.000000 0.000000
vt 1.000000 1.000000
vt 0.000000 1.000000
s 0
f 157/175/19 158/176/19 160/177/19 159/178/19
o Plane.007
v -0.540957 8.844867 2.845371
v 0.540957 8.844867 2.845371
v -0.540957 9.965755 2.845371
v 0.540957 9.965755 2.845371
vn -0.0000 -0.0000 1.0000
vt 0.000000 0.000000
vt 1.000000 0.000000
vt 1.000000 1.000000
vt 0.000000 1.000000
s 0
f 161/179/20 162/180/20 164/181/20 163/182/20
o Plane.008
v -0.540957 7.179873 2.845371
v 0.540957 7.179873 2.845371
v -0.540957 8.300760 2.845371
v 0.540957 8.300760 2.845371
vn -0.0000 -0.0000 1.0000
vt -0.047453 -0.047453
vt 1.047453 -0.047453
vt 1.047453 1.047453
vt -0.047453 1.047453
s 0
f 165/183/21 166/184/21 168/185/21 167/186/21
o Plane.009
v -0.540957 5.489815 2.845371
v 0.540957 5.489815 2.845371
v -0.540957 6.610703 2.845371
v 0.540957 6.610703 2.845371
vn -0.0000 -0.0000 1.0000
vt 0.000000 0.000000
vt 1.000000 0.000000
vt 1.000000 1.000000
vt 0.000000 1.000000
s 0
f 169/187/22 170/188/22 172/189/22 171/190/22
o Plane.010
v -0.540957 3.823832 2.845371
v 0.540957 3.823832 2.845371
v -0.540957 4.944720 2.845371
v 0.540957 4.944720 2.845371
vn -0.0000 -0.0000 1.0000
vt 0.000000 0.000000
vt 1.000000 0.000000
vt 1.000000 1.000000
vt 0.000000 1.000000
s 0
f 173/191/23 174/192/23 176/193/23 175/194/23
o Plane.011
v -0.540957 2.126224 2.845371
v 0.540957 2.126224 2.845371
v -0.540957 3.247111 2.845371
v 0.540957 3.247111 2.845371
vn -0.0000 -0.0000 1.0000
vt 0.000000 0.000000
vt 1.000000 0.000000
vt 1.000000 1.000000
vt 0.000000 1.000000
s 0
f 177/195/24 178/196/24 180/197/24 179/198/24
o Plane.012
v -0.540957 0.433949 2.845371
v 0.540957 0.433949 2.845371
v -0.540957 1.554837 2.845371
v 0.540957 1.554837 2.845371
vn -0.0000 -0.0000 1.0000
vt -0.047453 -0.047453
vt 1.047453 -0.047453
vt 1.047453 1.047453
vt -0.047453 1.047453
s 0
f 181/199/25 182/200/25 184/201/25 183/202/25
