# Blender 4.4.0
# www.blender.org
o Cube.004
v 1.619417 6.826651 2.172920
v 1.619417 9.043533 2.172920
v -1.995810 6.826651 2.172920
v -1.995810 9.043533 2.172920
v -2.862458 7.136944 2.290479
v -2.862458 8.733240 2.290479
v -2.862458 7.136944 0.211344
v -2.862458 8.733240 0.211344
v -2.862458 7.136944 -0.267113
v -2.862458 8.733240 -0.267113
v -2.862458 7.136944 -2.346249
v -2.862458 8.733240 -2.346249
v -2.906059 0.932671 -0.364176
v -2.906059 2.379923 -0.364176
v -2.906059 0.932671 -2.249186
v -2.906059 2.379923 -2.249186
v -2.807358 2.038073 1.981775
v -2.807358 2.038073 0.763542
v -3.662591 -0.028769 2.804915
v -3.662591 10.008811 2.804915
v -3.662591 -0.028769 -2.804915
v -3.662591 10.008811 -2.804915
v 3.662591 -0.028769 2.804915
v 3.662591 10.008811 2.804915
v 3.662591 -0.028769 -2.804915
v 3.662591 10.008811 -2.804915
v -3.662591 -0.028769 0.763542
v -2.807358 -0.028769 0.763542
v -3.662591 2.038073 0.763542
v -2.807358 -0.028769 1.981775
v -3.662591 2.038073 1.981775
v -3.662591 -0.028769 1.981775
v -3.662591 0.932671 -2.249186
v -3.662591 2.379923 -2.249186
v -3.662591 2.379923 -0.364176
v -3.662591 0.932671 -0.364176
v -3.662591 1.384902 -0.364176
v -3.662591 7.136944 -2.346249
v -3.662591 8.733240 -2.346249
v -3.662591 8.733240 -0.267113
v -3.662591 7.136944 -0.267113
v -3.662591 8.504504 0.211344
v -3.662591 7.136944 0.211344
v -3.662591 8.733241 0.211344
v -3.662591 8.733240 2.290479
v -3.662591 7.136944 2.290479
v 1.619417 6.826651 2.804915
v 1.619417 7.209082 2.804915
v 1.619417 9.043533 2.804915
v -1.995810 9.043533 2.804915
v -1.995810 6.826651 2.804915
vn -0.0000 -0.0000 1.0000
vn -1.0000 -0.0000 -0.0000
vn -0.0000 -1.0000 -0.0000
vn -0.0000 -0.0000 -1.0000
vn 1.0000 -0.0000 -0.0000
vn -0.0000 1.0000 -0.0000
vt 0.375000 0.500000
vt 0.375000 0.750000
vt 0.625000 0.750000
vt 0.625000 0.500000
vt 0.375000 0.876170
vt 0.418127 0.876170
vt 0.625000 0.876170
vt 0.751170 0.750000
vt 0.751170 0.500000
vt 0.375000 0.964177
vt 0.625000 0.964177
vt 0.839177 0.750000
vt 0.839177 0.500000
vt 0.375000 0.964177
vt 0.375000 0.973361
vt 0.453119 0.973361
vt 0.625000 0.973361
vt 0.848361 0.750000
vt 0.848361 0.500000
vt 0.829765 0.750000
vt 0.829765 0.500000
vt 0.375000 0.000000
vt 0.625000 0.000000
vt 0.593230 0.022926
vt 0.553472 0.022926
vt 0.553472 0.115582
vt 0.587533 0.115582
vt 0.593230 0.136904
vt 0.553472 0.136904
vt 0.553472 0.229560
vt 0.625000 0.250000
vt 0.375000 0.250000
vt 0.398946 0.225234
vt 0.434992 0.225234
vt 0.434992 0.141229
vt 0.410209 0.141229
vt 0.426478 0.090973
vt 0.426478 0.036683
vt 0.375000 0.036683
vt 0.555269 0.819731
vt 0.545744 0.819731
vt 0.545744 0.943115
vt 0.625000 1.000000
vt 0.375000 1.000000
vt 0.125000 0.500000
vt 0.125000 0.750000
vt 0.125000 0.713317
vt 0.154188 0.713317
vt 0.154188 0.659027
vt 0.125000 0.659027
vt 0.376120 0.750000
vt 0.376120 0.500000
vt 0.625000 0.295235
vt 0.376120 0.295235
vt 0.625000 0.954765
vt 0.376120 0.954765
vt 0.375000 0.276639
vt 0.625000 0.276639
vt 0.398946 0.141229
vt 0.375000 0.090973
vt 0.151639 0.750000
vt 0.151639 0.500000
vt 0.375000 0.285823
vt 0.625000 0.285823
vt 0.160823 0.750000
vt 0.160823 0.500000
vt 0.593230 0.229560
vt 0.625000 0.285823
vt 0.589177 0.285823
vt 0.160823 0.750000
vt 0.593230 0.115582
vt 0.600958 0.943115
vt 0.600958 0.819731
vt 0.375000 0.373830
vt 0.625000 0.373830
vt 0.248830 0.750000
vt 0.248830 0.500000
s 0
f 3/1/1 1/2/1 2/3/1 4/4/1
f 1/2/2 47/5/2 48/6/2 49/7/2 2/3/2
f 4/4/3 2/3/3 49/8/3 50/9/3
f 7/1/2 5/2/2 6/3/2 8/4/2
f 5/2/4 46/10/4 45/11/4 6/3/4
f 8/4/3 6/3/3 45/12/3 44/13/3
f 11/1/2 9/2/2 10/3/2 12/4/2
f 9/2/4 41/14/4 40/11/4 10/3/4
f 12/4/3 10/3/3 40/12/3 39/13/3
f 15/1/2 13/2/2 14/3/2 16/4/2
f 13/2/4 36/15/4 37/16/4 35/17/4 14/3/4
f 16/4/3 14/3/3 35/18/3 34/19/3
f 18/4/3 17/3/3 31/20/3 29/21/3
f 19/22/2 20/23/2 45/24/2 46/25/2 43/26/2 42/27/2 40/28/2 41/29/2 38/30/2 22/31/2 21/32/2 33/33/2 34/34/2 35/35/2 37/36/2 29/37/2 31/38/2 32/39/2
f 21/32/4 22/31/4 26/4/4 25/1/4
f 25/1/5 26/4/5 24/3/5 23/2/5
f 23/2/1 24/3/1 48/40/1 47/41/1 51/42/1 20/43/1 19/44/1
f 21/45/3 25/1/3 23/2/3 19/46/3 32/47/3 30/48/3 28/49/3 27/50/3
f 30/51/2 17/3/2 18/4/2 28/52/2
f 28/52/1 18/4/1 29/53/1 27/54/1
f 31/55/4 17/3/4 30/51/4 32/56/4
f 33/57/1 15/1/1 16/4/1 34/58/1
f 29/37/2 37/36/2 36/59/2 33/33/2 21/32/2 27/60/2
f 36/61/6 13/2/6 15/1/6 33/62/6
f 38/63/1 11/1/1 12/4/1 39/64/1
f 41/65/6 9/2/6 11/1/6 38/66/6
f 22/31/2 38/30/2 39/67/2 40/28/2 20/23/2
f 43/63/1 7/1/1 8/4/1 44/68/1 42/69/1
f 46/70/6 5/2/6 7/1/6 43/66/6
f 40/28/2 42/27/2 44/71/2 45/24/2 20/23/2
f 20/43/1 51/42/1 50/72/1 49/73/1 48/40/1 24/3/1
f 51/74/5 3/1/5 4/4/5 50/75/5
f 47/76/6 1/2/6 3/1/6 51/77/6
o Cube.005
v -3.662591 10.328916 2.804915
v -3.662591 10.328916 -2.804915
v 3.662591 10.328916 -2.804915
v 3.662591 10.328916 2.804915
v -3.662591 10.498755 2.804915
v -3.662591 13.497306 -2.804915
v 3.662591 13.497306 -2.804915
v 3.662591 10.498755 2.804915
vn 1.0000 -0.0000 -0.0000
vn -0.0000 0.8819 0.4714
vn -1.0000 -0.0000 -0.0000
vn -0.0000 -0.0000 1.0000
vn -0.0000 -0.0000 -1.0000
vt 0.625000 0.750000
vt 0.625000 0.500000
vt 0.875000 0.500000
vt 0.875000 0.750000
vt 0.625000 0.250000
vt 0.625000 0.000000
vt 0.625000 1.000000
s 0
f 55/78/7 54/79/7 58/79/7 59/78/7
f 58/79/8 57/80/8 56/81/8 59/78/8
f 53/82/9 52/83/9 56/83/9 57/82/9
f 52/84/10 55/78/10 59/78/10 56/84/10
f 54/79/11 53/82/11 57/82/11 58/79/11
o Cube.006
v -3.662591 10.008811 2.804915
v -3.662591 10.008811 -2.804915
v 3.662591 10.008811 2.804915
v 3.662591 10.008811 -2.804915
v -3.662591 10.328916 2.804915
v -3.662591 10.328916 -2.804915
v 3.662591 10.328916 -2.804915
v 3.662591 10.328916 2.804915
v -4.027196 10.008811 3.169521
v -4.027196 10.008811 -3.169521
v 4.027196 10.008811 -3.169521
v 4.027196 10.008811 3.169521
v -4.027196 10.328916 3.169521
v -4.027196 10.328916 -3.169521
v 4.027196 10.328916 -3.169521
v 4.027196 10.328916 3.169521
vn -0.0000 1.0000 -0.0000
vn -0.0000 -1.0000 -0.0000
vn 1.0000 -0.0000 -0.0000
vn -1.0000 -0.0000 -0.0000
vn -0.0000 -0.0000 1.0000
vn -0.0000 -0.0000 -1.0000
vt 0.625000 0.750000
vt 0.625000 1.000000
vt 0.625000 0.500000
vt 0.625000 0.000000
vt 0.625000 0.250000
s 0
f 67/85/12 64/86/12 72/86/12 75/85/12
f 62/85/13 63/87/13 70/87/13 71/85/13
f 64/88/12 65/89/12 73/89/12 72/88/12
f 66/87/12 67/85/12 75/85/12 74/87/12
f 71/85/14 70/87/14 74/87/14 75/85/14
f 69/89/15 68/88/15 72/88/15 73/89/15
f 68/86/16 71/85/16 75/85/16 72/86/16
f 70/87/17 69/89/17 73/89/17 74/87/17
f 65/89/12 66/87/12 74/87/12 73/89/12
f 61/89/13 60/88/13 68/88/13 69/89/13
f 60/86/13 62/85/13 71/85/13 68/86/13
f 63/87/13 61/89/13 69/89/13 70/87/13
