# Blender 4.4.0
# www.blender.org
mtllib xicara.mtl
o Cylinder
v -0.388020 0.015783 -0.144190
v -0.388020 0.304163 -0.129850
v -0.359890 0.015783 -0.141420
v -0.362688 0.304163 -0.127355
v -0.332841 0.015783 -0.133214
v -0.338329 0.304163 -0.119966
v -0.307913 0.015783 -0.119890
v -0.315880 0.304163 -0.107966
v -0.286063 0.015783 -0.101958
v -0.296203 0.304163 -0.091818
v -0.268131 0.015783 -0.080108
v -0.280054 0.304163 -0.072141
v -0.254806 0.015783 -0.055179
v -0.268055 0.304163 -0.049691
v -0.246601 0.015783 -0.028130
v -0.260665 0.304163 -0.025332
v -0.243830 0.015783 0.000000
v -0.258170 0.304163 0.000000
v -0.246601 0.015783 0.028130
v -0.260665 0.304163 0.025332
v -0.254806 0.015783 0.055179
v -0.268055 0.304163 0.049691
v -0.268131 0.015783 0.080108
v -0.280054 0.304163 0.072141
v -0.286063 0.015783 0.101958
v -0.296203 0.304163 0.091818
v -0.307913 0.015783 0.119890
v -0.315880 0.304163 0.107966
v -0.332841 0.015783 0.133214
v -0.338329 0.304163 0.119966
v -0.359890 0.015783 0.141420
v -0.362688 0.304163 0.127355
v -0.388020 0.015783 0.144190
v -0.388020 0.304163 0.129850
v -0.416150 0.015783 0.141420
v -0.413353 0.304163 0.127355
v -0.443200 0.015783 0.133214
v -0.437712 0.304163 0.119966
v -0.468128 0.015783 0.119890
v -0.460161 0.304163 0.107966
v -0.489978 0.015783 0.101958
v -0.479838 0.304163 0.091818
v -0.507910 0.015783 0.080108
v -0.495987 0.304163 0.072141
v -0.521235 0.015783 0.055179
v -0.507986 0.304163 0.049691
v -0.529440 0.015783 0.028130
v -0.515375 0.304163 0.025332
v -0.532210 0.015783 0.000000
v -0.517870 0.304163 0.000000
v -0.529440 0.015783 -0.028130
v -0.515375 0.304163 -0.025332
v -0.521235 0.015783 -0.055179
v -0.507986 0.304163 -0.049691
v -0.507910 0.015783 -0.080108
v -0.495987 0.304163 -0.072141
v -0.489978 0.015783 -0.101958
v -0.479838 0.304163 -0.091818
v -0.468128 0.015783 -0.119890
v -0.460161 0.304163 -0.107966
v -0.443200 0.015783 -0.133214
v -0.437712 0.304163 -0.119966
v -0.416150 0.015783 -0.141420
v -0.413353 0.304163 -0.127355
v -0.359890 0.304163 -0.141420
v -0.388020 0.304163 -0.144190
v -0.332841 0.304163 -0.133214
v -0.307913 0.304163 -0.119890
v -0.286063 0.304163 -0.101958
v -0.268131 0.304163 -0.080108
v -0.254806 0.304163 -0.055179
v -0.246601 0.304163 -0.028130
v -0.243830 0.304163 0.000000
v -0.246601 0.304163 0.028130
v -0.254806 0.304163 0.055179
v -0.268131 0.304163 0.080108
v -0.286063 0.304163 0.101958
v -0.307913 0.304163 0.119890
v -0.332841 0.304163 0.133214
v -0.359890 0.304163 0.141420
v -0.388020 0.304163 0.144190
v -0.416150 0.304163 0.141420
v -0.443200 0.304163 0.133214
v -0.468128 0.304163 0.119890
v -0.489978 0.304163 0.101958
v -0.507910 0.304163 0.080108
v -0.521235 0.304163 0.055179
v -0.529440 0.304163 0.028130
v -0.532210 0.304163 0.000000
v -0.529440 0.304163 -0.028130
v -0.521235 0.304163 -0.055179
v -0.507910 0.304163 -0.080108
v -0.489978 0.304163 -0.101958
v -0.468128 0.304163 -0.119890
v -0.443200 0.304163 -0.133214
v -0.416150 0.304163 -0.141420
v -0.362688 0.042262 -0.127355
v -0.388020 0.042262 -0.129850
v -0.338329 0.042262 -0.119966
v -0.315880 0.042262 -0.107966
v -0.296203 0.042262 -0.091818
v -0.280054 0.042262 -0.072141
v -0.268055 0.042262 -0.049691
v -0.260665 0.042262 -0.025332
v -0.258170 0.042262 0.000000
v -0.260665 0.042262 0.025332
v -0.268055 0.042262 0.049691
v -0.280054 0.042262 0.072141
v -0.296203 0.042262 0.091818
v -0.315880 0.042262 0.107966
v -0.338329 0.042262 0.119966
v -0.362688 0.042262 0.127355
v -0.388020 0.042262 0.129850
v -0.413353 0.042262 0.127355
v -0.437712 0.042262 0.119966
v -0.460161 0.042262 0.107966
v -0.479838 0.042262 0.091818
v -0.495987 0.042262 0.072141
v -0.507986 0.042262 0.049691
v -0.515375 0.042262 0.025332
v -0.517870 0.042262 0.000000
v -0.515375 0.042262 -0.025332
v -0.507986 0.042262 -0.049691
v -0.495987 0.042262 -0.072141
v -0.479838 0.042262 -0.091818
v -0.460161 0.042262 -0.107966
v -0.437712 0.042262 -0.119966
v -0.413353 0.042262 -0.127355
vn -0.0000 -0.0000 -1.0000
vn 0.1951 -0.0000 -0.9808
vn 0.3827 -0.0000 -0.9239
vn 0.5556 -0.0000 -0.8315
vn 0.7071 -0.0000 -0.7071
vn 0.8315 -0.0000 -0.5556
vn 0.9239 -0.0000 -0.3827
vn 0.9808 -0.0000 -0.1951
vn 1.0000 -0.0000 -0.0000
vn 0.9808 -0.0000 0.1951
vn 0.9239 -0.0000 0.3827
vn 0.8315 -0.0000 0.5556
vn 0.7071 -0.0000 0.7071
vn 0.5556 -0.0000 0.8315
vn 0.3827 -0.0000 0.9239
vn 0.1951 -0.0000 0.9808
vn -0.0000 -0.0000 1.0000
vn -0.1951 -0.0000 0.9808
vn -0.3827 -0.0000 0.9239
vn -0.5556 -0.0000 0.8315
vn -0.7071 -0.0000 0.7071
vn -0.8315 -0.0000 0.5556
vn -0.9239 -0.0000 0.3827
vn -0.9808 -0.0000 0.1951
vn -1.0000 -0.0000 -0.0000
vn -0.9808 -0.0000 -0.1951
vn -0.9239 -0.0000 -0.3827
vn -0.8315 -0.0000 -0.5556
vn -0.7071 -0.0000 -0.7071
vn -0.5556 -0.0000 -0.8315
vn -0.3827 -0.0000 -0.9239
vn -0.1951 -0.0000 -0.9808
vn -0.0000 -1.0000 -0.0000
vn -0.0000 1.0000 -0.0000
vt 1.000000 0.500000
vt 1.000000 1.000000
vt 0.968750 1.000000
vt 0.968750 0.500000
vt 0.937500 1.000000
vt 0.937500 0.500000
vt 0.906250 1.000000
vt 0.906250 0.500000
vt 0.875000 1.000000
vt 0.875000 0.500000
vt 0.843750 1.000000
vt 0.843750 0.500000
vt 0.812500 1.000000
vt 0.812500 0.500000
vt 0.781250 1.000000
vt 0.781250 0.500000
vt 0.750000 1.000000
vt 0.750000 0.500000
vt 0.718750 1.000000
vt 0.718750 0.500000
vt 0.687500 1.000000
vt 0.687500 0.500000
vt 0.656250 1.000000
vt 0.656250 0.500000
vt 0.625000 1.000000
vt 0.625000 0.500000
vt 0.593750 1.000000
vt 0.593750 0.500000
vt 0.562500 1.000000
vt 0.562500 0.500000
vt 0.531250 1.000000
vt 0.531250 0.500000
vt 0.500000 1.000000
vt 0.500000 0.500000
vt 0.468750 1.000000
vt 0.468750 0.500000
vt 0.437500 1.000000
vt 0.437500 0.500000
vt 0.406250 1.000000
vt 0.406250 0.500000
vt 0.375000 1.000000
vt 0.375000 0.500000
vt 0.343750 1.000000
vt 0.343750 0.500000
vt 0.312500 1.000000
vt 0.312500 0.500000
vt 0.281250 1.000000
vt 0.281250 0.500000
vt 0.250000 1.000000
vt 0.250000 0.500000
vt 0.218750 1.000000
vt 0.218750 0.500000
vt 0.187500 1.000000
vt 0.187500 0.500000
vt 0.156250 1.000000
vt 0.156250 0.500000
vt 0.125000 1.000000
vt 0.125000 0.500000
vt 0.093750 1.000000
vt 0.093750 0.500000
vt 0.062500 1.000000
vt 0.062500 0.500000
vt 0.129924 0.429707
vt 0.097172 0.402828
vt 0.031250 1.000000
vt 0.031250 0.500000
vt 0.000000 1.000000
vt 0.000000 0.500000
vt 0.750000 0.490000
vt 0.796822 0.485388
vt 0.841844 0.471731
vt 0.883337 0.449553
vt 0.919706 0.419706
vt 0.949553 0.383337
vt 0.971731 0.341844
vt 0.985388 0.296822
vt 0.990000 0.250000
vt 0.985388 0.203178
vt 0.971731 0.158156
vt 0.949553 0.116663
vt 0.919706 0.080294
vt 0.883337 0.050447
vt 0.841844 0.028269
vt 0.796822 0.014612
vt 0.750000 0.010000
vt 0.703178 0.014612
vt 0.658156 0.028269
vt 0.616663 0.050447
vt 0.580294 0.080294
vt 0.550447 0.116663
vt 0.528269 0.158156
vt 0.514612 0.203178
vt 0.510000 0.250000
vt 0.514612 0.296822
vt 0.528269 0.341844
vt 0.550447 0.383337
vt 0.580294 0.419706
vt 0.616663 0.449553
vt 0.658156 0.471731
vt 0.703178 0.485388
vt 0.250000 0.466131
vt 0.292165 0.461978
vt 0.296822 0.485388
vt 0.250000 0.490000
vt 0.332710 0.449679
vt 0.341844 0.471731
vt 0.370076 0.429707
vt 0.383337 0.449553
vt 0.402828 0.402828
vt 0.419706 0.419706
vt 0.429707 0.370076
vt 0.449553 0.383337
vt 0.449679 0.332710
vt 0.471731 0.341844
vt 0.461978 0.292165
vt 0.485388 0.296822
vt 0.466131 0.250000
vt 0.490000 0.250000
vt 0.461978 0.207835
vt 0.485388 0.203178
vt 0.449679 0.167290
vt 0.471731 0.158156
vt 0.429707 0.129924
vt 0.449553 0.116663
vt 0.402828 0.097172
vt 0.419706 0.080294
vt 0.370076 0.070293
vt 0.383337 0.050447
vt 0.332710 0.050321
vt 0.341844 0.028269
vt 0.292165 0.038022
vt 0.296822 0.014612
vt 0.250000 0.033869
vt 0.250000 0.010000
vt 0.207835 0.038022
vt 0.203178 0.014612
vt 0.167290 0.050321
vt 0.158156 0.028269
vt 0.129924 0.070293
vt 0.116663 0.050447
vt 0.097172 0.097172
vt 0.080294 0.080294
vt 0.070293 0.129924
vt 0.050447 0.116663
vt 0.050321 0.167290
vt 0.028269 0.158156
vt 0.038022 0.207835
vt 0.014612 0.203178
vt 0.033869 0.250000
vt 0.010000 0.250000
vt 0.038022 0.292165
vt 0.014612 0.296822
vt 0.050321 0.332710
vt 0.028269 0.341844
vt 0.070293 0.370076
vt 0.050447 0.383337
vt 0.080294 0.419706
vt 0.116663 0.449553
vt 0.167290 0.449679
vt 0.158156 0.471731
vt 0.207835 0.461978
vt 0.203178 0.485388
s 1
f 1/1/1 66/2/1 65/3/2 3/4/2
f 3/4/2 65/3/2 67/5/3 5/6/3
f 5/6/3 67/5/3 68/7/4 7/8/4
f 7/8/4 68/7/4 69/9/5 9/10/5
f 9/10/5 69/9/5 70/11/6 11/12/6
f 11/12/6 70/11/6 71/13/7 13/14/7
f 13/14/7 71/13/7 72/15/8 15/16/8
f 15/16/8 72/15/8 73/17/9 17/18/9
f 17/18/9 73/17/9 74/19/10 19/20/10
f 19/20/10 74/19/10 75/21/11 21/22/11
f 21/22/11 75/21/11 76/23/12 23/24/12
f 23/24/12 76/23/12 77/25/13 25/26/13
f 25/26/13 77/25/13 78/27/14 27/28/14
f 27/28/14 78/27/14 79/29/15 29/30/15
f 29/30/15 79/29/15 80/31/16 31/32/16
f 31/32/16 80/31/16 81/33/17 33/34/17
f 33/34/17 81/33/17 82/35/18 35/36/18
f 35/36/18 82/35/18 83/37/19 37/38/19
f 37/38/19 83/37/19 84/39/20 39/40/20
f 39/40/20 84/39/20 85/41/21 41/42/21
f 41/42/21 85/41/21 86/43/22 43/44/22
f 43/44/22 86/43/22 87/45/23 45/46/23
f 45/46/23 87/45/23 88/47/24 47/48/24
f 47/48/24 88/47/24 89/49/25 49/50/25
f 49/50/25 89/49/25 90/51/26 51/52/26
f 51/52/26 90/51/26 91/53/27 53/54/27
f 53/54/27 91/53/27 92/55/28 55/56/28
f 55/56/28 92/55/28 93/57/29 57/58/29
f 57/58/29 93/57/29 94/59/30 59/60/30
f 59/60/30 94/59/30 95/61/31 61/62/31
f 60/63/14 58/64/13 125/64/13 126/63/14
f 61/62/31 95/61/31 96/65/32 63/66/32
f 63/66/32 96/65/32 66/67/1 1/68/1
f 1/69/33 3/70/33 5/71/33 7/72/33 9/73/33 11/74/33 13/75/33 15/76/33 17/77/33 19/78/33 21/79/33 23/80/33 25/81/33 27/82/33 29/83/33 31/84/33 33/85/33 35/86/33 37/87/33 39/88/33 41/89/33 43/90/33 45/91/33 47/92/33 49/93/33 51/94/33 53/95/33 55/96/33 57/97/33 59/98/33 61/99/33 63/100/33
f 2/101/34 4/102/34 65/103/34 66/104/34
f 4/102/34 6/105/34 67/106/34 65/103/34
f 6/105/34 8/107/34 68/108/34 67/106/34
f 8/107/34 10/109/34 69/110/34 68/108/34
f 10/109/34 12/111/34 70/112/34 69/110/34
f 12/111/34 14/113/34 71/114/34 70/112/34
f 14/113/34 16/115/34 72/116/34 71/114/34
f 16/115/34 18/117/34 73/118/34 72/116/34
f 18/117/34 20/119/34 74/120/34 73/118/34
f 20/119/34 22/121/34 75/122/34 74/120/34
f 22/121/34 24/123/34 76/124/34 75/122/34
f 24/123/34 26/125/34 77/126/34 76/124/34
f 26/125/34 28/127/34 78/128/34 77/126/34
f 28/127/34 30/129/34 79/130/34 78/128/34
f 30/129/34 32/131/34 80/132/34 79/130/34
f 32/131/34 34/133/34 81/134/34 80/132/34
f 34/133/34 36/135/34 82/136/34 81/134/34
f 36/135/34 38/137/34 83/138/34 82/136/34
f 38/137/34 40/139/34 84/140/34 83/138/34
f 40/139/34 42/141/34 85/142/34 84/140/34
f 42/141/34 44/143/34 86/144/34 85/142/34
f 44/143/34 46/145/34 87/146/34 86/144/34
f 46/145/34 48/147/34 88/148/34 87/146/34
f 48/147/34 50/149/34 89/150/34 88/148/34
f 50/149/34 52/151/34 90/152/34 89/150/34
f 52/151/34 54/153/34 91/154/34 90/152/34
f 54/153/34 56/155/34 92/156/34 91/154/34
f 56/155/34 58/64/34 93/157/34 92/156/34
f 58/64/34 60/63/34 94/158/34 93/157/34
f 60/63/34 62/159/34 95/160/34 94/158/34
f 62/159/34 64/161/34 96/162/34 95/160/34
f 64/161/34 2/101/34 66/104/34 96/162/34
f 97/102/34 98/101/34 128/161/34 127/159/34 126/63/34 125/64/34 124/155/34 123/153/34 122/151/34 121/149/34 120/147/34 119/145/34 118/143/34 117/141/34 116/139/34 115/137/34 114/135/34 113/133/34 112/131/34 111/129/34 110/127/34 109/125/34 108/123/34 107/121/34 106/119/34 105/117/34 104/115/34 103/113/34 102/111/34 101/109/34 100/107/34 99/105/34
f 34/133/1 32/131/32 112/131/32 113/133/1
f 8/107/20 6/105/19 99/105/19 100/107/20
f 62/159/15 60/63/14 126/63/14 127/159/15
f 36/135/2 34/133/1 113/133/1 114/135/2
f 10/109/21 8/107/20 100/107/20 101/109/21
f 64/161/16 62/159/15 127/159/15 128/161/16
f 38/137/3 36/135/2 114/135/2 115/137/3
f 12/111/22 10/109/21 101/109/21 102/111/22
f 2/101/17 64/161/16 128/161/16 98/101/17
f 40/139/4 38/137/3 115/137/3 116/139/4
f 14/113/23 12/111/22 102/111/22 103/113/23
f 42/141/5 40/139/4 116/139/4 117/141/5
f 16/115/24 14/113/23 103/113/23 104/115/24
f 44/143/6 42/141/5 117/141/5 118/143/6
f 18/117/25 16/115/24 104/115/24 105/117/25
f 46/145/7 44/143/6 118/143/6 119/145/7
f 20/119/26 18/117/25 105/117/25 106/119/26
f 48/147/8 46/145/7 119/145/7 120/147/8
f 22/121/27 20/119/26 106/119/26 107/121/27
f 50/149/9 48/147/8 120/147/8 121/149/9
f 24/123/28 22/121/27 107/121/27 108/123/28
f 52/151/10 50/149/9 121/149/9 122/151/10
f 26/125/29 24/123/28 108/123/28 109/125/29
f 54/153/11 52/151/10 122/151/10 123/153/11
f 28/127/30 26/125/29 109/125/29 110/127/30
f 56/155/12 54/153/11 123/153/11 124/155/12
f 30/129/31 28/127/30 110/127/30 111/129/31
f 4/102/18 2/101/17 98/101/17 97/102/18
f 58/64/13 56/155/12 124/155/12 125/64/13
f 32/131/32 30/129/31 111/129/31 112/131/32
f 6/105/19 4/102/18 97/102/18 99/105/19
o Torus
v -0.653534 0.146690 0.000000
v -0.649923 0.146690 -0.013476
v -0.640057 0.146690 -0.023342
v -0.626581 0.146690 -0.026953
v -0.613105 0.146690 -0.023342
v -0.603239 0.146690 -0.013476
v -0.599628 0.146690 0.000000
v -0.603239 0.146690 0.013476
v -0.613105 0.146690 0.023342
v -0.626581 0.146690 0.026953
v -0.640057 0.146690 0.023342
v -0.649923 0.146690 0.013476
v -0.652381 0.164280 0.000000
v -0.648801 0.163808 -0.013476
v -0.639020 0.162521 -0.023342
v -0.625659 0.160762 -0.026953
v -0.612298 0.159003 -0.023342
v -0.602517 0.157715 -0.013476
v -0.598937 0.157244 0.000000
v -0.602517 0.157715 0.013476
v -0.612298 0.159003 0.023342
v -0.625659 0.160762 0.026953
v -0.639020 0.162521 0.023342
v -0.648801 0.163808 0.013476
v -0.648942 0.181569 0.000000
v -0.645454 0.180634 -0.013476
v -0.635925 0.178081 -0.023342
v -0.622907 0.174593 -0.026953
v -0.609890 0.171105 -0.023342
v -0.600361 0.168552 -0.013476
v -0.596873 0.167617 0.000000
v -0.600361 0.168552 0.013476
v -0.609890 0.171105 0.023342
v -0.622907 0.174593 0.026953
v -0.635924 0.178081 0.023342
v -0.645454 0.180634 0.013476
v -0.643275 0.198261 0.000000
v -0.639939 0.196879 -0.013476
v -0.630825 0.193104 -0.023342
v -0.618374 0.187947 -0.026953
v -0.605924 0.182790 -0.023342
v -0.596810 0.179014 -0.013476
v -0.593473 0.177633 0.000000
v -0.596810 0.179014 0.013476
v -0.605924 0.182790 0.023342
v -0.618374 0.187947 0.026953
v -0.630825 0.193104 0.023342
v -0.639939 0.196879 0.013476
v -0.635479 0.214071 0.000000
v -0.632352 0.212266 -0.013476
v -0.623808 0.207333 -0.023342
v -0.612137 0.200595 -0.026953
v -0.600466 0.193857 -0.023342
v -0.591923 0.188924 -0.013476
v -0.588795 0.187119 0.000000
v -0.591923 0.188924 0.013476
v -0.600466 0.193857 0.023342
v -0.612137 0.200595 0.026953
v -0.623808 0.207333 0.023342
v -0.632352 0.212266 0.013476
v -0.625685 0.228728 0.000000
v -0.622820 0.226530 -0.013476
v -0.614994 0.220524 -0.023342
v -0.604302 0.212320 -0.026953
v -0.593611 0.204117 -0.023342
v -0.585784 0.198111 -0.013476
v -0.582919 0.195913 0.000000
v -0.585784 0.198111 0.013476
v -0.593611 0.204117 0.023342
v -0.604302 0.212320 0.026953
v -0.614994 0.220524 0.023342
v -0.622820 0.226530 0.013476
v -0.614062 0.241981 0.000000
v -0.611509 0.239428 -0.013476
v -0.604533 0.232452 -0.023342
v -0.595004 0.222923 -0.026953
v -0.585475 0.213394 -0.023342
v -0.578499 0.206418 -0.013476
v -0.575946 0.203865 0.000000
v -0.578499 0.206418 0.013476
v -0.585475 0.213394 0.023342
v -0.595004 0.222923 0.026953
v -0.604533 0.232452 0.023342
v -0.611509 0.239428 0.013476
v -0.600809 0.253604 0.000000
v -0.598611 0.250739 -0.013476
v -0.592605 0.242913 -0.023342
v -0.584401 0.232221 -0.026953
v -0.576198 0.221530 -0.023342
v -0.570192 0.213703 -0.013476
v -0.567994 0.210838 0.000000
v -0.570192 0.213703 0.013476
v -0.576198 0.221530 0.023342
v -0.584401 0.232221 0.026953
v -0.592605 0.242913 0.023342
v -0.598611 0.250739 0.013476
v -0.586152 0.263398 0.000000
v -0.584347 0.260271 -0.013476
v -0.579414 0.251727 -0.023342
v -0.572676 0.240056 -0.026953
v -0.565938 0.228385 -0.023342
v -0.561005 0.219842 -0.013476
v -0.559200 0.216714 0.000000
v -0.561005 0.219842 0.013476
v -0.565938 0.228385 0.023342
v -0.572676 0.240056 0.026953
v -0.579414 0.251727 0.023342
v -0.584347 0.260271 0.013476
v -0.570342 0.271194 0.000000
v -0.568960 0.267858 -0.013476
v -0.565185 0.258744 -0.023342
v -0.560028 0.246293 -0.026953
v -0.554871 0.233843 -0.023342
v -0.551095 0.224729 -0.013476
v -0.549714 0.221392 0.000000
v -0.551095 0.224729 0.013476
v -0.554871 0.233843 0.023342
v -0.560028 0.246293 0.026953
v -0.565185 0.258744 0.023342
v -0.568960 0.267858 0.013476
v -0.553650 0.276861 0.000000
v -0.552715 0.273373 -0.013476
v -0.550162 0.263843 -0.023342
v -0.546674 0.250826 -0.026953
v -0.543186 0.237809 -0.023342
v -0.540633 0.228280 -0.013476
v -0.539698 0.224792 0.000000
v -0.540633 0.228280 0.013476
v -0.543186 0.237809 0.023342
v -0.546674 0.250826 0.026953
v -0.550162 0.263843 0.023342
v -0.552715 0.273373 0.013476
v -0.536361 0.280300 -0.000000
v -0.535889 0.276720 -0.013476
v -0.534602 0.266939 -0.023342
v -0.532843 0.253578 -0.026953
v -0.531084 0.240217 -0.023342
v -0.529796 0.230436 -0.013476
v -0.529325 0.226856 -0.000000
v -0.529796 0.230436 0.013476
v -0.531084 0.240217 0.023342
v -0.532843 0.253578 0.026953
v -0.534602 0.266939 0.023342
v -0.535889 0.276720 0.013476
v -0.518771 0.281453 -0.000000
v -0.518771 0.277842 -0.013476
v -0.518771 0.267976 -0.023342
v -0.518771 0.254500 -0.026953
v -0.518771 0.241024 -0.023342
v -0.518771 0.231158 -0.013476
v -0.518771 0.227547 -0.000000
v -0.518771 0.231158 0.013476
v -0.518771 0.241024 0.023342
v -0.518771 0.254500 0.026953
v -0.518771 0.267976 0.023342
v -0.518771 0.277842 0.013476
v -0.518771 0.011927 0.000000
v -0.518771 0.015538 -0.013476
v -0.518771 0.025403 -0.023342
v -0.518771 0.038879 -0.026953
v -0.518771 0.052356 -0.023342
v -0.518771 0.062221 -0.013476
v -0.518771 0.065832 0.000000
v -0.518771 0.062221 0.013476
v -0.518771 0.052356 0.023342
v -0.518771 0.038879 0.026953
v -0.518771 0.025403 0.023342
v -0.518771 0.015538 0.013476
v -0.536361 0.013080 0.000000
v -0.535889 0.016660 -0.013476
v -0.534602 0.026441 -0.023342
v -0.532843 0.039802 -0.026953
v -0.531084 0.053163 -0.023342
v -0.529796 0.062944 -0.013476
v -0.529325 0.066524 0.000000
v -0.529796 0.062944 0.013476
v -0.531084 0.053163 0.023342
v -0.532843 0.039802 0.026953
v -0.534602 0.026441 0.023342
v -0.535889 0.016660 0.013476
v -0.553650 0.016519 0.000000
v -0.552715 0.020007 -0.013476
v -0.550162 0.029536 -0.023342
v -0.546674 0.042553 -0.026953
v -0.543186 0.055570 -0.023342
v -0.540633 0.065099 -0.013476
v -0.539698 0.068587 0.000000
v -0.540633 0.065099 0.013476
v -0.543186 0.055570 0.023342
v -0.546674 0.042553 0.026953
v -0.550162 0.029536 0.023342
v -0.552715 0.020007 0.013476
v -0.570342 0.022185 0.000000
v -0.568960 0.025521 -0.013476
v -0.565185 0.034635 -0.023342
v -0.560028 0.047086 -0.026953
v -0.554871 0.059536 -0.023342
v -0.551095 0.068651 -0.013476
v -0.549714 0.071987 0.000000
v -0.551095 0.068651 0.013476
v -0.554871 0.059536 0.023342
v -0.560028 0.047086 0.026953
v -0.565185 0.034635 0.023342
v -0.568960 0.025521 0.013476
v -0.586152 0.029982 0.000000
v -0.584347 0.033109 -0.013476
v -0.579414 0.041652 -0.023342
v -0.572676 0.053323 -0.026953
v -0.565938 0.064994 -0.023342
v -0.561005 0.073538 -0.013476
v -0.559200 0.076665 0.000000
v -0.561005 0.073538 0.013476
v -0.565938 0.064994 0.023342
v -0.572676 0.053323 0.026953
v -0.579414 0.041652 0.023342
v -0.584347 0.033109 0.013476
v -0.600809 0.039775 0.000000
v -0.598611 0.042640 -0.013476
v -0.592605 0.050466 -0.023342
v -0.584401 0.061158 -0.026953
v -0.576198 0.071849 -0.023342
v -0.570192 0.079676 -0.013476
v -0.567994 0.082541 0.000000
v -0.570192 0.079676 0.013476
v -0.576198 0.071849 0.023342
v -0.584401 0.061158 0.026953
v -0.592605 0.050466 0.023342
v -0.598611 0.042640 0.013476
v -0.614062 0.051398 0.000000
v -0.611509 0.053951 -0.013476
v -0.604533 0.060927 -0.023342
v -0.595004 0.070456 -0.026953
v -0.585475 0.079985 -0.023342
v -0.578499 0.086961 -0.013476
v -0.575946 0.089515 0.000000
v -0.578499 0.086961 0.013476
v -0.585475 0.079985 0.023342
v -0.595004 0.070456 0.026953
v -0.604533 0.060927 0.023342
v -0.611509 0.053951 0.013476
v -0.625685 0.064651 0.000000
v -0.622820 0.066849 -0.013476
v -0.614994 0.072855 -0.023342
v -0.604302 0.081059 -0.026953
v -0.593611 0.089263 -0.023342
v -0.585784 0.095268 -0.013476
v -0.582919 0.097467 0.000000
v -0.585784 0.095268 0.013476
v -0.593611 0.089263 0.023342
v -0.604302 0.081059 0.026953
v -0.614994 0.072855 0.023342
v -0.622820 0.066849 0.013476
v -0.635479 0.079308 0.000000
v -0.632352 0.081114 -0.013476
v -0.623808 0.086046 -0.023342
v -0.612137 0.092784 -0.026953
v -0.600466 0.099523 -0.023342
v -0.591923 0.104455 -0.013476
v -0.588795 0.106261 0.000000
v -0.591923 0.104455 0.013476
v -0.600466 0.099523 0.023342
v -0.612137 0.092784 0.026953
v -0.623808 0.086046 0.023342
v -0.632352 0.081114 0.013476
v -0.643275 0.095118 0.000000
v -0.639939 0.096500 -0.013476
v -0.630825 0.100275 -0.023342
v -0.618374 0.105432 -0.026953
v -0.605924 0.110590 -0.023342
v -0.596810 0.114365 -0.013476
v -0.593473 0.115747 0.000000
v -0.596810 0.114365 0.013476
v -0.605924 0.110590 0.023342
v -0.618374 0.105432 0.026953
v -0.630825 0.100275 0.023342
v -0.639939 0.096500 0.013476
v -0.648942 0.111810 0.000000
v -0.645454 0.112745 -0.013476
v -0.635925 0.115298 -0.023342
v -0.622907 0.118786 -0.026953
v -0.609890 0.122274 -0.023342
v -0.600361 0.124828 -0.013476
v -0.596873 0.125762 0.000000
v -0.600361 0.124828 0.013476
v -0.609890 0.122274 0.023342
v -0.622907 0.118786 0.026953
v -0.635924 0.115298 0.023342
v -0.645454 0.112745 0.013476
v -0.652381 0.129100 0.000000
v -0.648801 0.129571 -0.013476
v -0.639020 0.130859 -0.023342
v -0.625659 0.132618 -0.026953
v -0.612298 0.134377 -0.023342
v -0.602517 0.135664 -0.013476
v -0.598937 0.136136 0.000000
v -0.602517 0.135664 0.013476
v -0.612298 0.134377 0.023342
v -0.625659 0.132618 0.026953
v -0.639020 0.130859 0.023342
v -0.648801 0.129571 0.013476
vn -1.0000 -0.0000 -0.0000
vn -0.8687 -0.0000 -0.4954
vn -0.5080 -0.0000 -0.8614
vn -0.0108 -0.0000 -0.9999
vn 0.4918 -0.0000 -0.8707
vn 0.8633 -0.0000 -0.5047
vn 1.0000 -0.0000 -0.0000
vn 0.8633 -0.0000 0.5047
vn 0.4918 -0.0000 0.8707
vn -0.0108 -0.0000 0.9999
vn -0.5080 -0.0000 0.8614
vn -0.8687 -0.0000 0.4954
vn -0.9914 0.1305 -0.0000
vn -0.8612 0.1134 -0.4954
vn -0.5036 0.0663 -0.8614
vn -0.0107 0.0014 -0.9999
vn 0.4876 -0.0642 -0.8707
vn 0.8559 -0.1127 -0.5047
vn 0.9914 -0.1305 -0.0000
vn 0.8559 -0.1127 0.5047
vn 0.4876 -0.0642 0.8707
vn -0.0107 0.0014 0.9999
vn -0.5036 0.0663 0.8614
vn -0.8612 0.1134 0.4954
vn -0.9659 0.2588 -0.0000
vn -0.8391 0.2248 -0.4954
vn -0.4907 0.1315 -0.8614
vn -0.0104 0.0028 -0.9999
vn 0.4751 -0.1273 -0.8707
vn 0.8339 -0.2234 -0.5047
vn 0.9659 -0.2588 -0.0000
vn 0.8339 -0.2234 0.5047
vn 0.4751 -0.1273 0.8707
vn -0.0104 0.0028 0.9999
vn -0.4907 0.1315 0.8614
vn -0.8391 0.2248 0.4954
vn -0.9239 0.3827 -0.0000
vn -0.8025 0.3324 -0.4954
vn -0.4693 0.1944 -0.8614
vn -0.0100 0.0041 -0.9999
vn 0.4544 -0.1882 -0.8707
vn 0.7976 -0.3304 -0.5047
vn 0.9239 -0.3827 -0.0000
vn 0.7976 -0.3304 0.5047
vn 0.4544 -0.1882 0.8707
vn -0.0100 0.0041 0.9999
vn -0.4693 0.1944 0.8614
vn -0.8025 0.3324 0.4954
vn -0.8660 0.5000 -0.0000
vn -0.7523 0.4343 -0.4954
vn -0.4399 0.2540 -0.8614
vn -0.0093 0.0054 -0.9999
vn 0.4259 -0.2459 -0.8707
vn 0.7476 -0.4316 -0.5047
vn 0.8660 -0.5000 -0.0000
vn 0.7476 -0.4316 0.5047
vn 0.4259 -0.2459 0.8707
vn -0.0093 0.0054 0.9999
vn -0.4399 0.2540 0.8614
vn -0.7523 0.4343 0.4954
vn -0.7934 0.6088 -0.0000
vn -0.6892 0.5288 -0.4954
vn -0.4030 0.3092 -0.8614
vn -0.0085 0.0066 -0.9999
vn 0.3902 -0.2994 -0.8707
vn 0.6849 -0.5255 -0.5047
vn 0.7934 -0.6088 -0.0000
vn 0.6849 -0.5255 0.5047
vn 0.3902 -0.2994 0.8707
vn -0.0085 0.0066 0.9999
vn -0.4030 0.3092 0.8614
vn -0.6892 0.5288 0.4954
vn -0.7071 0.7071 -0.0000
vn -0.6142 0.6142 -0.4954
vn -0.3592 0.3592 -0.8614
vn -0.0076 0.0076 -0.9999
vn 0.3478 -0.3478 -0.8707
vn 0.6104 -0.6104 -0.5047
vn 0.7071 -0.7071 -0.0000
vn 0.6104 -0.6104 0.5047
vn 0.3478 -0.3478 0.8707
vn -0.0076 0.0076 0.9999
vn -0.3592 0.3592 0.8614
vn -0.6142 0.6142 0.4954
vn -0.6088 0.7934 -0.0000
vn -0.5288 0.6892 -0.4954
vn -0.3092 0.4030 -0.8614
vn -0.0066 0.0085 -0.9999
vn 0.2994 -0.3902 -0.8707
vn 0.5255 -0.6849 -0.5047
vn 0.6088 -0.7934 -0.0000
vn 0.5255 -0.6849 0.5047
vn 0.2994 -0.3902 0.8707
vn -0.0066 0.0085 0.9999
vn -0.3092 0.4030 0.8614
vn -0.5288 0.6892 0.4954
vn -0.5000 0.8660 -0.0000
vn -0.4343 0.7523 -0.4954
vn -0.2540 0.4399 -0.8614
vn -0.0054 0.0093 -0.9999
vn 0.2459 -0.4259 -0.8707
vn 0.4316 -0.7476 -0.5047
vn 0.5000 -0.8660 -0.0000
vn 0.4316 -0.7476 0.5047
vn 0.2459 -0.4259 0.8707
vn -0.0054 0.0093 0.9999
vn -0.2540 0.4399 0.8614
vn -0.4343 0.7523 0.4954
vn -0.3827 0.9239 -0.0000
vn -0.3324 0.8025 -0.4954
vn -0.1944 0.4693 -0.8614
vn -0.0041 0.0100 -0.9999
vn 0.1882 -0.4544 -0.8707
vn 0.3304 -0.7976 -0.5047
vn 0.3827 -0.9239 -0.0000
vn 0.3304 -0.7976 0.5047
vn 0.1882 -0.4544 0.8707
vn -0.0041 0.0100 0.9999
vn -0.1944 0.4693 0.8614
vn -0.3324 0.8025 0.4954
vn -0.2588 0.9659 -0.0000
vn -0.2248 0.8391 -0.4954
vn -0.1315 0.4907 -0.8614
vn -0.0028 0.0104 -0.9999
vn 0.1273 -0.4751 -0.8707
vn 0.2234 -0.8339 -0.5047
vn 0.2588 -0.9659 -0.0000
vn 0.2234 -0.8339 0.5047
vn 0.1273 -0.4751 0.8707
vn -0.0028 0.0104 0.9999
vn -0.1315 0.4907 0.8614
vn -0.2248 0.8391 0.4954
vn -0.1305 0.9914 -0.0000
vn -0.1134 0.8612 -0.4954
vn -0.0663 0.5036 -0.8614
vn -0.0014 0.0107 -0.9999
vn 0.0642 -0.4876 -0.8707
vn 0.1127 -0.8559 -0.5047
vn 0.1305 -0.9914 -0.0000
vn 0.1127 -0.8559 0.5047
vn 0.0642 -0.4876 0.8707
vn -0.0014 0.0107 0.9999
vn -0.0663 0.5036 0.8614
vn -0.1134 0.8612 0.4954
vn -0.0654 0.9979 -0.0000
vn -0.0568 0.8673 -0.4946
vn -0.0333 0.5077 -0.8609
vn -0.0007 0.0108 -0.9999
vn 0.0322 -0.4916 -0.8702
vn 0.0565 -0.8619 -0.5039
vn 0.0654 -0.9979 -0.0000
vn 0.0565 -0.8619 0.5039
vn 0.0322 -0.4916 0.8702
vn -0.0007 0.0108 0.9999
vn -0.0333 0.5077 0.8609
vn -0.0568 0.8673 0.4946
vn -0.0654 -0.9979 -0.0000
vn -0.0568 -0.8673 -0.4946
vn -0.0333 -0.5077 -0.8609
vn -0.0007 -0.0108 -0.9999
vn 0.0322 0.4916 -0.8702
vn 0.0565 0.8619 -0.5039
vn 0.0654 0.9979 -0.0000
vn 0.0565 0.8619 0.5039
vn 0.0322 0.4916 0.8702
vn -0.0007 -0.0108 0.9999
vn -0.0333 -0.5077 0.8609
vn -0.0568 -0.8673 0.4946
vn -0.1305 -0.9914 -0.0000
vn -0.1134 -0.8612 -0.4954
vn -0.0663 -0.5036 -0.8614
vn -0.0014 -0.0107 -0.9999
vn 0.0642 0.4876 -0.8707
vn 0.1127 0.8559 -0.5047
vn 0.1305 0.9914 -0.0000
vn 0.1127 0.8559 0.5047
vn 0.0642 0.4876 0.8707
vn -0.0014 -0.0107 0.9999
vn -0.0663 -0.5036 0.8614
vn -0.1134 -0.8612 0.4954
vn -0.2588 -0.9659 -0.0000
vn -0.2248 -0.8391 -0.4954
vn -0.1315 -0.4907 -0.8614
vn -0.0028 -0.0104 -0.9999
vn 0.1273 0.4751 -0.8707
vn 0.2234 0.8339 -0.5047
vn 0.2588 0.9659 -0.0000
vn 0.2234 0.8339 0.5047
vn 0.1273 0.4751 0.8707
vn -0.0028 -0.0104 0.9999
vn -0.1315 -0.4907 0.8614
vn -0.2248 -0.8391 0.4954
vn -0.3827 -0.9239 -0.0000
vn -0.3324 -0.8025 -0.4954
vn -0.1944 -0.4693 -0.8614
vn -0.0041 -0.0100 -0.9999
vn 0.1882 0.4544 -0.8707
vn 0.3304 0.7976 -0.5047
vn 0.3827 0.9239 -0.0000
vn 0.3304 0.7976 0.5047
vn 0.1882 0.4544 0.8707
vn -0.0041 -0.0100 0.9999
vn -0.1944 -0.4693 0.8614
vn -0.3324 -0.8025 0.4954
vn -0.5000 -0.8660 -0.0000
vn -0.4343 -0.7523 -0.4954
vn -0.2540 -0.4399 -0.8614
vn -0.0054 -0.0093 -0.9999
vn 0.2459 0.4259 -0.8707
vn 0.4316 0.7476 -0.5047
vn 0.5000 0.8660 -0.0000
vn 0.4316 0.7476 0.5047
vn 0.2459 0.4259 0.8707
vn -0.0054 -0.0093 0.9999
vn -0.2540 -0.4399 0.8614
vn -0.4343 -0.7523 0.4954
vn -0.6088 -0.7934 -0.0000
vn -0.5288 -0.6892 -0.4954
vn -0.3092 -0.4030 -0.8614
vn -0.0066 -0.0085 -0.9999
vn 0.2994 0.3902 -0.8707
vn 0.5255 0.6849 -0.5047
vn 0.6088 0.7934 -0.0000
vn 0.5255 0.6849 0.5047
vn 0.2994 0.3902 0.8707
vn -0.0066 -0.0085 0.9999
vn -0.3092 -0.4030 0.8614
vn -0.5288 -0.6892 0.4954
vn -0.7071 -0.7071 -0.0000
vn -0.6142 -0.6142 -0.4954
vn -0.3592 -0.3592 -0.8614
vn -0.0076 -0.0076 -0.9999
vn 0.3478 0.3478 -0.8707
vn 0.6104 0.6104 -0.5047
vn 0.7071 0.7071 -0.0000
vn 0.6104 0.6104 0.5047
vn 0.3478 0.3478 0.8707
vn -0.0076 -0.0076 0.9999
vn -0.3592 -0.3592 0.8614
vn -0.6142 -0.6142 0.4954
vn -0.7934 -0.6088 -0.0000
vn -0.6892 -0.5288 -0.4954
vn -0.4030 -0.3092 -0.8614
vn -0.0085 -0.0066 -0.9999
vn 0.3902 0.2994 -0.8707
vn 0.6849 0.5255 -0.5047
vn 0.7934 0.6088 -0.0000
vn 0.6849 0.5255 0.5047
vn 0.3902 0.2994 0.8707
vn -0.0085 -0.0066 0.9999
vn -0.4030 -0.3092 0.8614
vn -0.6892 -0.5288 0.4954
vn -0.8660 -0.5000 -0.0000
vn -0.7523 -0.4343 -0.4954
vn -0.4399 -0.2540 -0.8614
vn -0.0093 -0.0054 -0.9999
vn 0.4259 0.2459 -0.8707
vn 0.7476 0.4316 -0.5047
vn 0.8660 0.5000 -0.0000
vn 0.7476 0.4316 0.5047
vn 0.4259 0.2459 0.8707
vn -0.0093 -0.0054 0.9999
vn -0.4399 -0.2540 0.8614
vn -0.7523 -0.4343 0.4954
vn -0.9239 -0.3827 -0.0000
vn -0.8025 -0.3324 -0.4954
vn -0.4693 -0.1944 -0.8614
vn -0.0100 -0.0041 -0.9999
vn 0.4544 0.1882 -0.8707
vn 0.7976 0.3304 -0.5047
vn 0.9239 0.3827 -0.0000
vn 0.7976 0.3304 0.5047
vn 0.4544 0.1882 0.8707
vn -0.0100 -0.0041 0.9999
vn -0.4693 -0.1944 0.8614
vn -0.8025 -0.3324 0.4954
vn -0.9659 -0.2588 -0.0000
vn -0.8391 -0.2248 -0.4954
vn -0.4907 -0.1315 -0.8614
vn -0.0104 -0.0028 -0.9999
vn 0.4751 0.1273 -0.8707
vn 0.8339 0.2234 -0.5047
vn 0.9659 0.2588 -0.0000
vn 0.8339 0.2234 0.5047
vn 0.4751 0.1273 0.8707
vn -0.0104 -0.0028 0.9999
vn -0.4907 -0.1315 0.8614
vn -0.8391 -0.2248 0.4954
vn -0.9914 -0.1305 -0.0000
vn -0.8612 -0.1134 -0.4954
vn -0.5036 -0.0663 -0.8614
vn -0.0107 -0.0014 -0.9999
vn 0.4876 0.0642 -0.8707
vn 0.8559 0.1127 -0.5047
vn 0.9914 0.1305 -0.0000
vn 0.8559 0.1127 0.5047
vn 0.4876 0.0642 0.8707
vn -0.0107 -0.0014 0.9999
vn -0.5036 -0.0663 0.8614
vn -0.8612 -0.1134 0.4954
vt 0.500000 0.500000
vt 0.520833 0.500000
vt 0.520833 0.583333
vt 0.500000 0.583333
vt 0.520833 0.666667
vt 0.500000 0.666667
vt 0.520833 0.750000
vt 0.500000 0.750000
vt 0.520833 0.833333
vt 0.500000 0.833333
vt 0.520833 0.916667
vt 0.500000 0.916667
vt 0.520833 1.000000
vt 0.500000 1.000000
vt 0.500000 0.000000
vt 0.520833 0.000000
vt 0.520833 0.083333
vt 0.500000 0.083333
vt 0.520833 0.166667
vt 0.500000 0.166667
vt 0.520833 0.250000
vt 0.500000 0.250000
vt 0.520833 0.333333
vt 0.500000 0.333333
vt 0.520833 0.416667
vt 0.500000 0.416667
vt 0.541667 0.500000
vt 0.541667 0.583333
vt 0.541667 0.666667
vt 0.541667 0.750000
vt 0.541667 0.833333
vt 0.541667 0.916667
vt 0.541667 1.000000
vt 0.541667 0.000000
vt 0.541667 0.083333
vt 0.541667 0.166667
vt 0.541667 0.250000
vt 0.541667 0.333333
vt 0.541667 0.416667
vt 0.562500 0.500000
vt 0.562500 0.583333
vt 0.562500 0.666667
vt 0.562500 0.750000
vt 0.562500 0.833333
vt 0.562500 0.916667
vt 0.562500 1.000000
vt 0.562500 0.000000
vt 0.562500 0.083333
vt 0.562500 0.166667
vt 0.562500 0.250000
vt 0.562500 0.333333
vt 0.562500 0.416667
vt 0.583333 0.500000
vt 0.583333 0.583333
vt 0.583333 0.666667
vt 0.583333 0.750000
vt 0.583333 0.833333
vt 0.583333 0.916667
vt 0.583333 1.000000
vt 0.583333 0.000000
vt 0.583333 0.083333
vt 0.583333 0.166667
vt 0.583333 0.250000
vt 0.583333 0.333333
vt 0.583333 0.416667
vt 0.604167 0.500000
vt 0.604167 0.583333
vt 0.604167 0.666667
vt 0.604167 0.750000
vt 0.604167 0.833333
vt 0.604167 0.916667
vt 0.604167 1.000000
vt 0.604167 0.000000
vt 0.604167 0.083333
vt 0.604167 0.166667
vt 0.604167 0.250000
vt 0.604167 0.333333
vt 0.604167 0.416667
vt 0.625000 0.500000
vt 0.625000 0.583333
vt 0.625000 0.666667
vt 0.625000 0.750000
vt 0.625000 0.833333
vt 0.625000 0.916667
vt 0.625000 1.000000
vt 0.625000 0.000000
vt 0.625000 0.083333
vt 0.625000 0.166667
vt 0.625000 0.250000
vt 0.625000 0.333333
vt 0.625000 0.416667
vt 0.645833 0.500000
vt 0.645833 0.583333
vt 0.645833 0.666667
vt 0.645833 0.750000
vt 0.645833 0.833333
vt 0.645833 0.916667
vt 0.645833 1.000000
vt 0.645833 0.000000
vt 0.645833 0.083333
vt 0.645833 0.166667
vt 0.645833 0.250000
vt 0.645833 0.333333
vt 0.645833 0.416667
vt 0.666667 0.500000
vt 0.666667 0.583333
vt 0.666667 0.666667
vt 0.666667 0.750000
vt 0.666667 0.833333
vt 0.666667 0.916667
vt 0.666667 1.000000
vt 0.666667 0.000000
vt 0.666667 0.083333
vt 0.666667 0.166667
vt 0.666667 0.250000
vt 0.666667 0.333333
vt 0.666667 0.416667
vt 0.687500 0.500000
vt 0.687500 0.583333
vt 0.687500 0.666667
vt 0.687500 0.750000
vt 0.687500 0.833333
vt 0.687500 0.916667
vt 0.687500 1.000000
vt 0.687500 0.000000
vt 0.687500 0.083333
vt 0.687500 0.166667
vt 0.687500 0.250000
vt 0.687500 0.333333
vt 0.687500 0.416667
vt 0.708333 0.500000
vt 0.708333 0.583333
vt 0.708333 0.666667
vt 0.708333 0.750000
vt 0.708333 0.833333
vt 0.708333 0.916667
vt 0.708333 1.000000
vt 0.708333 0.000000
vt 0.708333 0.083333
vt 0.708333 0.166667
vt 0.708333 0.250000
vt 0.708333 0.333333
vt 0.708333 0.416667
vt 0.729167 0.500000
vt 0.729167 0.583333
vt 0.729167 0.666667
vt 0.729167 0.750000
vt 0.729167 0.833333
vt 0.729167 0.916667
vt 0.729167 1.000000
vt 0.729167 0.000000
vt 0.729167 0.083333
vt 0.729167 0.166667
vt 0.729167 0.250000
vt 0.729167 0.333333
vt 0.729167 0.416667
vt 0.750000 0.500000
vt 0.750000 0.583333
vt 0.750000 0.666667
vt 0.750000 0.750000
vt 0.750000 0.833333
vt 0.750000 0.916667
vt 0.750000 1.000000
vt 0.750000 0.000000
vt 0.750000 0.083333
vt 0.750000 0.166667
vt 0.750000 0.250000
vt 0.750000 0.333333
vt 0.750000 0.416667
vt 0.250000 0.500000
vt 0.270833 0.500000
vt 0.270833 0.583333
vt 0.250000 0.583333
vt 0.270833 0.666667
vt 0.250000 0.666667
vt 0.270833 0.750000
vt 0.250000 0.750000
vt 0.270833 0.833333
vt 0.250000 0.833333
vt 0.270833 0.916667
vt 0.250000 0.916667
vt 0.270833 1.000000
vt 0.250000 1.000000
vt 0.250000 0.000000
vt 0.270833 0.000000
vt 0.270833 0.083333
vt 0.250000 0.083333
vt 0.270833 0.166667
vt 0.250000 0.166667
vt 0.270833 0.250000
vt 0.250000 0.250000
vt 0.270833 0.333333
vt 0.250000 0.333333
vt 0.270833 0.416667
vt 0.250000 0.416667
vt 0.291667 0.500000
vt 0.291667 0.583333
vt 0.291667 0.666667
vt 0.291667 0.750000
vt 0.291667 0.833333
vt 0.291667 0.916667
vt 0.291667 1.000000
vt 0.291667 0.000000
vt 0.291667 0.083333
vt 0.291667 0.166667
vt 0.291667 0.250000
vt 0.291667 0.333333
vt 0.291667 0.416667
vt 0.312500 0.500000
vt 0.312500 0.583333
vt 0.312500 0.666667
vt 0.312500 0.750000
vt 0.312500 0.833333
vt 0.312500 0.916667
vt 0.312500 1.000000
vt 0.312500 0.000000
vt 0.312500 0.083333
vt 0.312500 0.166667
vt 0.312500 0.250000
vt 0.312500 0.333333
vt 0.312500 0.416667
vt 0.333333 0.500000
vt 0.333333 0.583333
vt 0.333333 0.666667
vt 0.333333 0.750000
vt 0.333333 0.833333
vt 0.333333 0.916667
vt 0.333333 1.000000
vt 0.333333 0.000000
vt 0.333333 0.083333
vt 0.333333 0.166667
vt 0.333333 0.250000
vt 0.333333 0.333333
vt 0.333333 0.416667
vt 0.354167 0.500000
vt 0.354167 0.583333
vt 0.354167 0.666667
vt 0.354167 0.750000
vt 0.354167 0.833333
vt 0.354167 0.916667
vt 0.354167 1.000000
vt 0.354167 0.000000
vt 0.354167 0.083333
vt 0.354167 0.166667
vt 0.354167 0.250000
vt 0.354167 0.333333
vt 0.354167 0.416667
vt 0.375000 0.500000
vt 0.375000 0.583333
vt 0.375000 0.666667
vt 0.375000 0.750000
vt 0.375000 0.833333
vt 0.375000 0.916667
vt 0.375000 1.000000
vt 0.375000 0.000000
vt 0.375000 0.083333
vt 0.375000 0.166667
vt 0.375000 0.250000
vt 0.375000 0.333333
vt 0.375000 0.416667
vt 0.395833 0.500000
vt 0.395833 0.583333
vt 0.395833 0.666667
vt 0.395833 0.750000
vt 0.395833 0.833333
vt 0.395833 0.916667
vt 0.395833 1.000000
vt 0.395833 0.000000
vt 0.395833 0.083333
vt 0.395833 0.166667
vt 0.395833 0.250000
vt 0.395833 0.333333
vt 0.395833 0.416667
vt 0.416667 0.500000
vt 0.416667 0.583333
vt 0.416667 0.666667
vt 0.416667 0.750000
vt 0.416667 0.833333
vt 0.416667 0.916667
vt 0.416667 1.000000
vt 0.416667 0.000000
vt 0.416667 0.083333
vt 0.416667 0.166667
vt 0.416667 0.250000
vt 0.416667 0.333333
vt 0.416667 0.416667
vt 0.437500 0.500000
vt 0.437500 0.583333
vt 0.437500 0.666667
vt 0.437500 0.750000
vt 0.437500 0.833333
vt 0.437500 0.916667
vt 0.437500 1.000000
vt 0.437500 0.000000
vt 0.437500 0.083333
vt 0.437500 0.166667
vt 0.437500 0.250000
vt 0.437500 0.333333
vt 0.437500 0.416667
vt 0.458333 0.500000
vt 0.458333 0.583333
vt 0.458333 0.666667
vt 0.458333 0.750000
vt 0.458333 0.833333
vt 0.458333 0.916667
vt 0.458333 1.000000
vt 0.458333 0.000000
vt 0.458333 0.083333
vt 0.458333 0.166667
vt 0.458333 0.250000
vt 0.458333 0.333333
vt 0.458333 0.416667
vt 0.479167 0.500000
vt 0.479167 0.583333
vt 0.479167 0.666667
vt 0.479167 0.750000
vt 0.479167 0.833333
vt 0.479167 0.916667
vt 0.479167 1.000000
vt 0.479167 0.000000
vt 0.479167 0.083333
vt 0.479167 0.166667
vt 0.479167 0.250000
vt 0.479167 0.333333
vt 0.479167 0.416667
s 1
f 129/163/35 141/164/47 142/165/48 130/166/36
f 130/166/36 142/165/48 143/167/49 131/168/37
f 131/168/37 143/167/49 144/169/50 132/170/38
f 132/170/38 144/169/50 145/171/51 133/172/39
f 133/172/39 145/171/51 146/173/52 134/174/40
f 134/174/40 146/173/52 147/175/53 135/176/41
f 135/177/41 147/178/53 148/179/54 136/180/42
f 136/180/42 148/179/54 149/181/55 137/182/43
f 137/182/43 149/181/55 150/183/56 138/184/44
f 138/184/44 150/183/56 151/185/57 139/186/45
f 139/186/45 151/185/57 152/187/58 140/188/46
f 140/188/46 152/187/58 141/164/47 129/163/35
f 141/164/47 153/189/59 154/190/60 142/165/48
f 142/165/48 154/190/60 155/191/61 143/167/49
f 143/167/49 155/191/61 156/192/62 144/169/50
f 144/169/50 156/192/62 157/193/63 145/171/51
f 145/171/51 157/193/63 158/194/64 146/173/52
f 146/173/52 158/194/64 159/195/65 147/175/53
f 147/178/53 159/196/65 160/197/66 148/179/54
f 148/179/54 160/197/66 161/198/67 149/181/55
f 149/181/55 161/198/67 162/199/68 150/183/56
f 150/183/56 162/199/68 163/200/69 151/185/57
f 151/185/57 163/200/69 164/201/70 152/187/58
f 152/187/58 164/201/70 153/189/59 141/164/47
f 153/189/59 165/202/71 166/203/72 154/190/60
f 154/190/60 166/203/72 167/204/73 155/191/61
f 155/191/61 167/204/73 168/205/74 156/192/62
f 156/192/62 168/205/74 169/206/75 157/193/63
f 157/193/63 169/206/75 170/207/76 158/194/64
f 158/194/64 170/207/76 171/208/77 159/195/65
f 159/196/65 171/209/77 172/210/78 160/197/66
f 160/197/66 172/210/78 173/211/79 161/198/67
f 161/198/67 173/211/79 174/212/80 162/199/68
f 162/199/68 174/212/80 175/213/81 163/200/69
f 163/200/69 175/213/81 176/214/82 164/201/70
f 164/201/70 176/214/82 165/202/71 153/189/59
f 165/202/71 177/215/83 178/216/84 166/203/72
f 166/203/72 178/216/84 179/217/85 167/204/73
f 167/204/73 179/217/85 180/218/86 168/205/74
f 168/205/74 180/218/86 181/219/87 169/206/75
f 169/206/75 181/219/87 182/220/88 170/207/76
f 170/207/76 182/220/88 183/221/89 171/208/77
f 171/209/77 183/222/89 184/223/90 172/210/78
f 172/210/78 184/223/90 185/224/91 173/211/79
f 173/211/79 185/224/91 186/225/92 174/212/80
f 174/212/80 186/225/92 187/226/93 175/213/81
f 175/213/81 187/226/93 188/227/94 176/214/82
f 176/214/82 188/227/94 177/215/83 165/202/71
f 177/215/83 189/228/95 190/229/96 178/216/84
f 178/216/84 190/229/96 191/230/97 179/217/85
f 179/217/85 191/230/97 192/231/98 180/218/86
f 180/218/86 192/231/98 193/232/99 181/219/87
f 181/219/87 193/232/99 194/233/100 182/220/88
f 182/220/88 194/233/100 195/234/101 183/221/89
f 183/222/89 195/235/101 196/236/102 184/223/90
f 184/223/90 196/236/102 197/237/103 185/224/91
f 185/224/91 197/237/103 198/238/104 186/225/92
f 186/225/92 198/238/104 199/239/105 187/226/93
f 187/226/93 199/239/105 200/240/106 188/227/94
f 188/227/94 200/240/106 189/228/95 177/215/83
f 189/228/95 201/241/107 202/242/108 190/229/96
f 190/229/96 202/242/108 203/243/109 191/230/97
f 191/230/97 203/243/109 204/244/110 192/231/98
f 192/231/98 204/244/110 205/245/111 193/232/99
f 193/232/99 205/245/111 206/246/112 194/233/100
f 194/233/100 206/246/112 207/247/113 195/234/101
f 195/235/101 207/248/113 208/249/114 196/236/102
f 196/236/102 208/249/114 209/250/115 197/237/103
f 197/237/103 209/250/115 210/251/116 198/238/104
f 198/238/104 210/251/116 211/252/117 199/239/105
f 199/239/105 211/252/117 212/253/118 200/240/106
f 200/240/106 212/253/118 201/241/107 189/228/95
f 201/241/107 213/254/119 214/255/120 202/242/108
f 202/242/108 214/255/120 215/256/121 203/243/109
f 203/243/109 215/256/121 216/257/122 204/244/110
f 204/244/110 216/257/122 217/258/123 205/245/111
f 205/245/111 217/258/123 218/259/124 206/246/112
f 206/246/112 218/259/124 219/260/125 207/247/113
f 207/248/113 219/261/125 220/262/126 208/249/114
f 208/249/114 220/262/126 221/263/127 209/250/115
f 209/250/115 221/263/127 222/264/128 210/251/116
f 210/251/116 222/264/128 223/265/129 211/252/117
f 211/252/117 223/265/129 224/266/130 212/253/118
f 212/253/118 224/266/130 213/254/119 201/241/107
f 213/254/119 225/267/131 226/268/132 214/255/120
f 214/255/120 226/268/132 227/269/133 215/256/121
f 215/256/121 227/269/133 228/270/134 216/257/122
f 216/257/122 228/270/134 229/271/135 217/258/123
f 217/258/123 229/271/135 230/272/136 218/259/124
f 218/259/124 230/272/136 231/273/137 219/260/125
f 219/261/125 231/274/137 232/275/138 220/262/126
f 220/262/126 232/275/138 233/276/139 221/263/127
f 221/263/127 233/276/139 234/277/140 222/264/128
f 222/264/128 234/277/140 235/278/141 223/265/129
f 223/265/129 235/278/141 236/279/142 224/266/130
f 224/266/130 236/279/142 225/267/131 213/254/119
f 225/267/131 237/280/143 238/281/144 226/268/132
f 226/268/132 238/281/144 239/282/145 227/269/133
f 227/269/133 239/282/145 240/283/146 228/270/134
f 228/270/134 240/283/146 241/284/147 229/271/135
f 229/271/135 241/284/147 242/285/148 230/272/136
f 230/272/136 242/285/148 243/286/149 231/273/137
f 231/274/137 243/287/149 244/288/150 232/275/138
f 232/275/138 244/288/150 245/289/151 233/276/139
f 233/276/139 245/289/151 246/290/152 234/277/140
f 234/277/140 246/290/152 247/291/153 235/278/141
f 235/278/141 247/291/153 248/292/154 236/279/142
f 236/279/142 248/292/154 237/280/143 225/267/131
f 237/280/143 249/293/155 250/294/156 238/281/144
f 238/281/144 250/294/156 251/295/157 239/282/145
f 239/282/145 251/295/157 252/296/158 240/283/146
f 240/283/146 252/296/158 253/297/159 241/284/147
f 241/284/147 253/297/159 254/298/160 242/285/148
f 242/285/148 254/298/160 255/299/161 243/286/149
f 243/287/149 255/300/161 256/301/162 244/288/150
f 244/288/150 256/301/162 257/302/163 245/289/151
f 245/289/151 257/302/163 258/303/164 246/290/152
f 246/290/152 258/303/164 259/304/165 247/291/153
f 247/291/153 259/304/165 260/305/166 248/292/154
f 248/292/154 260/305/166 249/293/155 237/280/143
f 249/293/155 261/306/167 262/307/168 250/294/156
f 250/294/156 262/307/168 263/308/169 251/295/157
f 251/295/157 263/308/169 264/309/170 252/296/158
f 252/296/158 264/309/170 265/310/171 253/297/159
f 253/297/159 265/310/171 266/311/172 254/298/160
f 254/298/160 266/311/172 267/312/173 255/299/161
f 255/300/161 267/313/173 268/314/174 256/301/162
f 256/301/162 268/314/174 269/315/175 257/302/163
f 257/302/163 269/315/175 270/316/176 258/303/164
f 258/303/164 270/316/176 271/317/177 259/304/165
f 259/304/165 271/317/177 272/318/178 260/305/166
f 260/305/166 272/318/178 261/306/167 249/293/155
f 261/306/167 273/319/179 274/320/180 262/307/168
f 262/307/168 274/320/180 275/321/181 263/308/169
f 263/308/169 275/321/181 276/322/182 264/309/170
f 264/309/170 276/322/182 277/323/183 265/310/171
f 265/310/171 277/323/183 278/324/184 266/311/172
f 266/311/172 278/324/184 279/325/185 267/312/173
f 267/313/173 279/326/185 280/327/186 268/314/174
f 268/314/174 280/327/186 281/328/187 269/315/175
f 269/315/175 281/328/187 282/329/188 270/316/176
f 270/316/176 282/329/188 283/330/189 271/317/177
f 271/317/177 283/330/189 284/331/190 272/318/178
f 272/318/178 284/331/190 273/319/179 261/306/167
f 285/332/191 297/333/203 298/334/204 286/335/192
f 286/335/192 298/334/204 299/336/205 287/337/193
f 287/337/193 299/336/205 300/338/206 288/339/194
f 288/339/194 300/338/206 301/340/207 289/341/195
f 289/341/195 301/340/207 302/342/208 290/343/196
f 290/343/196 302/342/208 303/344/209 291/345/197
f 291/346/197 303/347/209 304/348/210 292/349/198
f 292/349/198 304/348/210 305/350/211 293/351/199
f 293/351/199 305/350/211 306/352/212 294/353/200
f 294/353/200 306/352/212 307/354/213 295/355/201
f 295/355/201 307/354/213 308/356/214 296/357/202
f 296/357/202 308/356/214 297/333/203 285/332/191
f 297/333/203 309/358/215 310/359/216 298/334/204
f 298/334/204 310/359/216 311/360/217 299/336/205
f 299/336/205 311/360/217 312/361/218 300/338/206
f 300/338/206 312/361/218 313/362/219 301/340/207
f 301/340/207 313/362/219 314/363/220 302/342/208
f 302/342/208 314/363/220 315/364/221 303/344/209
f 303/347/209 315/365/221 316/366/222 304/348/210
f 304/348/210 316/366/222 317/367/223 305/350/211
f 305/350/211 317/367/223 318/368/224 306/352/212
f 306/352/212 318/368/224 319/369/225 307/354/213
f 307/354/213 319/369/225 320/370/226 308/356/214
f 308/356/214 320/370/226 309/358/215 297/333/203
f 309/358/215 321/371/227 322/372/228 310/359/216
f 310/359/216 322/372/228 323/373/229 311/360/217
f 311/360/217 323/373/229 324/374/230 312/361/218
f 312/361/218 324/374/230 325/375/231 313/362/219
f 313/362/219 325/375/231 326/376/232 314/363/220
f 314/363/220 326/376/232 327/377/233 315/364/221
f 315/365/221 327/378/233 328/379/234 316/366/222
f 316/366/222 328/379/234 329/380/235 317/367/223
f 317/367/223 329/380/235 330/381/236 318/368/224
f 318/368/224 330/381/236 331/382/237 319/369/225
f 319/369/225 331/382/237 332/383/238 320/370/226
f 320/370/226 332/383/238 321/371/227 309/358/215
f 321/371/227 333/384/239 334/385/240 322/372/228
f 322/372/228 334/385/240 335/386/241 323/373/229
f 323/373/229 335/386/241 336/387/242 324/374/230
f 324/374/230 336/387/242 337/388/243 325/375/231
f 325/375/231 337/388/243 338/389/244 326/376/232
f 326/376/232 338/389/244 339/390/245 327/377/233
f 327/378/233 339/391/245 340/392/246 328/379/234
f 328/379/234 340/392/246 341/393/247 329/380/235
f 329/380/235 341/393/247 342/394/248 330/381/236
f 330/381/236 342/394/248 343/395/249 331/382/237
f 331/382/237 343/395/249 344/396/250 332/383/238
f 332/383/238 344/396/250 333/384/239 321/371/227
f 333/384/239 345/397/251 346/398/252 334/385/240
f 334/385/240 346/398/252 347/399/253 335/386/241
f 335/386/241 347/399/253 348/400/254 336/387/242
f 336/387/242 348/400/254 349/401/255 337/388/243
f 337/388/243 349/401/255 350/402/256 338/389/244
f 338/389/244 350/402/256 351/403/257 339/390/245
f 339/391/245 351/404/257 352/405/258 340/392/246
f 340/392/246 352/405/258 353/406/259 341/393/247
f 341/393/247 353/406/259 354/407/260 342/394/248
f 342/394/248 354/407/260 355/408/261 343/395/249
f 343/395/249 355/408/261 356/409/262 344/396/250
f 344/396/250 356/409/262 345/397/251 333/384/239
f 345/397/251 357/410/263 358/411/264 346/398/252
f 346/398/252 358/411/264 359/412/265 347/399/253
f 347/399/253 359/412/265 360/413/266 348/400/254
f 348/400/254 360/413/266 361/414/267 349/401/255
f 349/401/255 361/414/267 362/415/268 350/402/256
f 350/402/256 362/415/268 363/416/269 351/403/257
f 351/404/257 363/417/269 364/418/270 352/405/258
f 352/405/258 364/418/270 365/419/271 353/406/259
f 353/406/259 365/419/271 366/420/272 354/407/260
f 354/407/260 366/420/272 367/421/273 355/408/261
f 355/408/261 367/421/273 368/422/274 356/409/262
f 356/409/262 368/422/274 357/410/263 345/397/251
f 357/410/263 369/423/275 370/424/276 358/411/264
f 358/411/264 370/424/276 371/425/277 359/412/265
f 359/412/265 371/425/277 372/426/278 360/413/266
f 360/413/266 372/426/278 373/427/279 361/414/267
f 361/414/267 373/427/279 374/428/280 362/415/268
f 362/415/268 374/428/280 375/429/281 363/416/269
f 363/417/269 375/430/281 376/431/282 364/418/270
f 364/418/270 376/431/282 377/432/283 365/419/271
f 365/419/271 377/432/283 378/433/284 366/420/272
f 366/420/272 378/433/284 379/434/285 367/421/273
f 367/421/273 379/434/285 380/435/286 368/422/274
f 368/422/274 380/435/286 369/423/275 357/410/263
f 369/423/275 381/436/287 382/437/288 370/424/276
f 370/424/276 382/437/288 383/438/289 371/425/277
f 371/425/277 383/438/289 384/439/290 372/426/278
f 372/426/278 384/439/290 385/440/291 373/427/279
f 373/427/279 385/440/291 386/441/292 374/428/280
f 374/428/280 386/441/292 387/442/293 375/429/281
f 375/430/281 387/443/293 388/444/294 376/431/282
f 376/431/282 388/444/294 389/445/295 377/432/283
f 377/432/283 389/445/295 390/446/296 378/433/284
f 378/433/284 390/446/296 391/447/297 379/434/285
f 379/434/285 391/447/297 392/448/298 380/435/286
f 380/435/286 392/448/298 381/436/287 369/423/275
f 381/436/287 393/449/299 394/450/300 382/437/288
f 382/437/288 394/450/300 395/451/301 383/438/289
f 383/438/289 395/451/301 396/452/302 384/439/290
f 384/439/290 396/452/302 397/453/303 385/440/291
f 385/440/291 397/453/303 398/454/304 386/441/292
f 386/441/292 398/454/304 399/455/305 387/442/293
f 387/443/293 399/456/305 400/457/306 388/444/294
f 388/444/294 400/457/306 401/458/307 389/445/295
f 389/445/295 401/458/307 402/459/308 390/446/296
f 390/446/296 402/459/308 403/460/309 391/447/297
f 391/447/297 403/460/309 404/461/310 392/448/298
f 392/448/298 404/461/310 393/449/299 381/436/287
f 393/449/299 405/462/311 406/463/312 394/450/300
f 394/450/300 406/463/312 407/464/313 395/451/301
f 395/451/301 407/464/313 408/465/314 396/452/302
f 396/452/302 408/465/314 409/466/315 397/453/303
f 397/453/303 409/466/315 410/467/316 398/454/304
f 398/454/304 410/467/316 411/468/317 399/455/305
f 399/456/305 411/469/317 412/470/318 400/457/306
f 400/457/306 412/470/318 413/471/319 401/458/307
f 401/458/307 413/471/319 414/472/320 402/459/308
f 402/459/308 414/472/320 415/473/321 403/460/309
f 403/460/309 415/473/321 416/474/322 404/461/310
f 404/461/310 416/474/322 405/462/311 393/449/299
f 405/462/311 417/475/323 418/476/324 406/463/312
f 406/463/312 418/476/324 419/477/325 407/464/313
f 407/464/313 419/477/325 420/478/326 408/465/314
f 408/465/314 420/478/326 421/479/327 409/466/315
f 409/466/315 421/479/327 422/480/328 410/467/316
f 410/467/316 422/480/328 423/481/329 411/468/317
f 411/469/317 423/482/329 424/483/330 412/470/318
f 412/470/318 424/483/330 425/484/331 413/471/319
f 413/471/319 425/484/331 426/485/332 414/472/320
f 414/472/320 426/485/332 427/486/333 415/473/321
f 415/473/321 427/486/333 428/487/334 416/474/322
f 416/474/322 428/487/334 417/475/323 405/462/311
f 417/475/323 129/163/35 130/166/36 418/476/324
f 418/476/324 130/166/36 131/168/37 419/477/325
f 419/477/325 131/168/37 132/170/38 420/478/326
f 420/478/326 132/170/38 133/172/39 421/479/327
f 421/479/327 133/172/39 134/174/40 422/480/328
f 422/480/328 134/174/40 135/176/41 423/481/329
f 423/482/329 135/177/41 136/180/42 424/483/330
f 424/483/330 136/180/42 137/182/43 425/484/331
f 425/484/331 137/182/43 138/184/44 426/485/332
f 426/485/332 138/184/44 139/186/45 427/486/333
f 427/486/333 139/186/45 140/188/46 428/487/334
f 428/487/334 140/188/46 129/163/35 417/475/323
